<svg version="1.1" xmlns="http://www.w3.org/2000/svg" xmlns:xlink="http://www.w3.org/1999/xlink" width="234.25579" height="157.91766" viewBox="0,0,234.25579,157.91766"><g transform="translate(-124.73431,-102.1)"><g data-paper-data="{&quot;isPaintingLayer&quot;:true}" fill-rule="nonzero" stroke="none" stroke-width="1" stroke-linecap="butt" stroke-linejoin="miter" stroke-miterlimit="10" stroke-dasharray="" stroke-dashoffset="0" style="mix-blend-mode: normal"><g data-paper-data="{&quot;index&quot;:null}"><path d="M309.72442,147.4c14.5,-9.9 23.7,1.1 28.5,7.4c4.8,6.3 3.8,24 5,33.2c1.2,9.1 6.3,15.2 10.6,27.2c4.3,11.9 5.8,34.7 4.1,35.8c-13.9,9.4 -23.3,6.6 -25.1,5.4c-1.8,-1.2 3.2,-4.4 4.3,-7.3c1.2,-3 -6.8,-12.6 -17.6,-23.4c-21.6,-21.5 -19.3,-44.7 -19.3,-44.7c-1.7,-6 -5,-23.7 9.5,-33.6z" fill="#856045"/><path d="M339.82442,257.5c0,0 -0.1,-0.3 -0.1,-0.7c0,-0.5 0.2,-1.1 0.5,-1.6c0.3,-0.5 0.7,-1 1.1,-1.2c0.4,-0.3 0.6,-0.4 0.6,-0.4c0,0 0,0.1 -0.1,0.2c-0.1,0.1 -0.1,0.3 -0.3,0.5c-0.2,0.4 -0.5,0.8 -0.8,1.3c-0.3,0.5 -0.5,0.9 -0.7,1.3c-0.1,0.4 -0.2,0.6 -0.2,0.6z" fill="#59402f"/><path d="M335.22442,257.1c0,0 -0.1,-0.3 -0.1,-0.8c0,-0.5 0.2,-1.2 0.6,-1.7c0.2,-0.3 0.4,-0.5 0.6,-0.8c0.2,-0.2 0.5,-0.4 0.7,-0.5c0.2,-0.1 0.4,-0.2 0.6,-0.2c0.1,-0.1 0.2,-0.1 0.2,-0.1c0,0 0,0.1 -0.1,0.2c-0.1,0.1 -0.2,0.3 -0.4,0.4c-0.3,0.4 -0.7,0.8 -1,1.3c-0.3,0.5 -0.6,1 -0.8,1.5c-0.2,0.3 -0.3,0.7 -0.3,0.7z" fill="#59402f"/><path d="M341.62442,258.3c-0.1,-0.6 0.5,-3.4 1.6,-3.5c1.1,-0.1 0.5,1.1 0.1,1.9c-0.4,0.8 -1.6,2 -1.7,1.6z" fill="#665a52"/><path d="M336.12442,258.4c-0.1,-0.6 0.5,-3.4 1.6,-3.5c1.1,-0.1 0.5,1.1 0.1,1.9c-0.5,0.7 -1.7,2 -1.7,1.6z" fill="#665a52"/><path d="M333.12442,257.4c-0.1,-0.6 0.5,-3.4 1.6,-3.5c1.1,-0.1 0.5,1.1 0.1,1.9c-0.5,0.8 -1.7,2 -1.7,1.6z" fill="#665a52"/><g><path d="M342.62442,189.2c0,0 9,9.1 11.4,8.6c0,0 -2,2.1 -4,0.8c0,0 4.6,1.3 6.2,5.6l-3,-0.6c0,0 4.8,5.8 4.9,10.2l-3.2,-2.8c0,0 4.1,6 0.3,10.1" fill="#856045"/><path d="M353.82442,197.9c0,0 -0.2,0 -0.5,0c-0.3,-0.1 -0.8,-0.2 -1.3,-0.4c-1.1,-0.5 -2.3,-1.3 -3.5,-2.3c-0.6,-0.5 -1.2,-1 -1.7,-1.5c-0.5,-0.5 -1,-1 -1.4,-1.4c-0.8,-0.9 -1.2,-1.5 -1.2,-1.5c0,0 0.6,0.4 1.5,1.2c0.9,0.7 2,1.7 3.2,2.6c0.6,0.5 1.2,0.9 1.7,1.4c0.6,0.4 1.1,0.8 1.6,1.1c0.5,0.3 0.9,0.5 1.2,0.7c0.2,0.1 0.4,0.1 0.4,0.1z" fill="#59402f"/><path d="M356.12442,204.2c0,0 -0.3,-0.4 -0.7,-0.9c-0.4,-0.5 -1,-1.2 -1.6,-1.9c-0.3,-0.3 -0.6,-0.6 -0.9,-0.9c-0.3,-0.3 -0.6,-0.5 -0.9,-0.7c-0.3,-0.2 -0.5,-0.4 -0.7,-0.4c-0.2,-0.1 -0.3,-0.2 -0.3,-0.2c0,0 0.1,0 0.3,0c0.2,0 0.5,0.1 0.8,0.2c0.3,0.1 0.7,0.3 1.1,0.6c0.4,0.2 0.7,0.6 1.1,0.9c0.3,0.3 0.6,0.7 0.8,1.1c0.2,0.4 0.4,0.7 0.6,1c0.3,0.7 0.4,1.2 0.4,1.2z" fill="#59402f"/><path d="M357.92442,213.5c0,0 0,-0.7 -0.4,-1.7c-0.2,-0.5 -0.4,-1 -0.6,-1.6c-0.3,-0.6 -0.6,-1.2 -0.9,-1.8c-0.3,-0.6 -0.7,-1.2 -1,-1.8c-0.3,-0.6 -0.7,-1.1 -0.9,-1.5c-0.3,-0.4 -0.5,-0.8 -0.7,-1.1c-0.2,-0.3 -0.2,-0.4 -0.2,-0.4c0,0 0.1,0.1 0.4,0.3c0.2,0.2 0.5,0.5 0.9,0.9c0.3,0.4 0.7,0.9 1.1,1.4c0.4,0.5 0.8,1.1 1.1,1.8c0.7,1.2 1.2,2.6 1.3,3.7c0.1,0.5 0.1,1 0.1,1.3c-0.1,0.4 -0.2,0.5 -0.2,0.5z" fill="#59402f"/><path d="M356.12442,219.7c0,0 0.1,-0.1 0.2,-0.3c0.1,-0.2 0.1,-0.6 0.2,-1c0,-0.8 -0.1,-1.9 -0.3,-2.9c-0.2,-1.1 -0.6,-2.1 -0.8,-2.9c-0.3,-0.8 -0.4,-1.3 -0.4,-1.3c0,0 0.1,0.1 0.2,0.3c0.1,0.2 0.3,0.5 0.5,0.9c0.2,0.4 0.4,0.8 0.6,1.3c0.1,0.2 0.2,0.5 0.3,0.8c0.1,0.3 0.2,0.5 0.2,0.8c0.1,0.6 0.2,1.1 0.2,1.7c0,0.5 -0.1,1.1 -0.2,1.5c-0.1,0.4 -0.3,0.7 -0.4,1c-0.2,0 -0.3,0.1 -0.3,0.1z" fill="#59402f"/></g><path d="M354.22442,215c0,0 0.7,2.4 1.5,6c0.4,1.8 0.9,3.9 1.3,6.2c0.4,2.3 0.8,4.7 1.2,7.2c0.3,2.5 0.6,4.9 0.7,7.3c0.1,2.3 0.1,4.5 -0.1,6.4c-0.1,0.9 -0.3,1.8 -0.6,2.5c-0.1,0.2 -0.1,0.3 -0.3,0.5c-0.1,0.2 -0.3,0.2 -0.4,0.3c-0.3,0.2 -0.5,0.3 -0.8,0.5c-1,0.5 -1.5,0.8 -1.5,0.8c0,0 0.5,-0.3 1.5,-0.9c0.2,-0.1 0.5,-0.3 0.7,-0.5c0.1,-0.1 0.3,-0.2 0.4,-0.3c0.1,-0.1 0.1,-0.3 0.2,-0.5c0.2,-0.7 0.4,-1.5 0.5,-2.5c0.2,-1.8 0.1,-4 -0.1,-6.3c-0.2,-2.3 -0.5,-4.8 -0.8,-7.2c-0.3,-2.5 -0.7,-4.9 -1.1,-7.2c-0.4,-2.3 -0.8,-4.4 -1.1,-6.3c-0.8,-3.6 -1.2,-6 -1.2,-6z" fill="#59402f"/><path d="M300.52442,194.8c0,0 1.9,4 4.9,9.8c1.5,2.9 3.3,6.3 5.4,9.9c1,1.8 2.2,3.6 3.4,5.3c0.6,0.9 1.3,1.7 2,2.6c0.7,0.8 1.5,1.5 2.3,2.3c3.2,3.1 6.3,6.2 9.1,9.2c2.8,3 5.4,5.9 7.3,8.6c0.5,0.7 0.9,1.3 1.3,2c0.4,0.7 0.6,1.4 0.8,2c0.2,0.6 0.5,1.2 0.5,1.9c0,0.6 -0.3,1.1 -0.5,1.5c-0.5,0.8 -1.1,1.3 -1.5,1.7c-0.4,0.4 -0.6,0.6 -0.6,0.6c0,0 0.2,-0.2 0.5,-0.6c0.3,-0.4 0.9,-0.9 1.4,-1.8c0.2,-0.4 0.4,-0.9 0.4,-1.5c0,-0.6 -0.3,-1.1 -0.5,-1.7c-0.3,-0.6 -0.5,-1.3 -0.9,-1.9c-0.4,-0.6 -0.8,-1.3 -1.3,-2c-2,-2.6 -4.6,-5.5 -7.4,-8.5c-2.8,-3 -6,-6.1 -9.1,-9.2c-0.8,-0.8 -1.6,-1.5 -2.3,-2.4c-0.7,-0.9 -1.4,-1.7 -2,-2.6c-1.2,-1.8 -2.3,-3.6 -3.4,-5.4c-2.1,-3.6 -3.8,-7 -5.3,-10c-1.5,-3 -2.6,-5.5 -3.4,-7.2c-0.7,-1.6 -1.1,-2.6 -1.1,-2.6z" fill="#59402f"/></g><g data-paper-data="{&quot;index&quot;:null}"><g><path d="M244.42442,187.1c3.2,22.8 -8.4,64.6 -11.1,66.7c-2.7,2.1 -26.9,3.8 -26.5,0.5c0.4,-3.3 4.6,-3.8 5.7,-6.8c1.1,-3 -0.4,-27 -1.7,-33.4c-1.4,-6.4 -8,-11.5 -13.3,-33.8c-5.4,-22.2 37.5,-39.2 46.9,6.8z" fill="#856045"/><path d="M235.12442,167c0,0 8.1,10 10.4,9.7c0,0 -2.2,1.9 -4,0.4c0,0 4.4,1.7 5.6,6.2l-2.9,-0.9c0,0 4.2,6.3 3.8,10.6l-2.9,-3.1c0,0 3.4,6.3 -0.7,10.1" fill="#8d674a"/></g><path d="M232.62442,254.2c0,0 0.2,-0.1 0.5,-0.4c0.3,-0.3 0.7,-0.9 1,-1.7c0.4,-0.8 0.7,-1.7 1.1,-2.8c0.3,-1.1 0.7,-2.4 1.1,-3.8c0.8,-2.8 1.7,-6 2.6,-9.5c0.9,-3.5 1.8,-7.3 2.6,-11c0.8,-3.8 1.5,-7.6 1.9,-11.2c0.4,-3.6 0.6,-7 0.8,-9.9c0.2,-2.9 0.3,-5.3 0.3,-7c0,-1.7 0,-2.7 0,-2.7c0,0 0.1,1 0.2,2.7c0,1.7 0.1,4.1 0,7c-0.1,1.4 -0.1,3 -0.2,4.7c-0.1,1.7 -0.2,3.4 -0.4,5.2c-0.4,3.6 -1,7.4 -1.8,11.2c-0.4,1.9 -0.8,3.8 -1.3,5.6c-0.4,1.9 -0.9,3.7 -1.4,5.4c-0.9,3.5 -1.9,6.7 -2.8,9.5c-0.8,2.8 -1.6,5.1 -2.4,6.6c-0.4,0.8 -0.8,1.3 -1.1,1.6c-0.4,0.5 -0.7,0.5 -0.7,0.5z" fill="#59402f"/><path d="M209.72442,250.4c0,0 0.2,-0.1 0.6,-0.4c0.4,-0.3 0.9,-0.7 1.3,-1.4c0.5,-0.7 0.9,-1.6 1.1,-2.7c0.2,-1.1 0.1,-2.4 0,-3.9c-0.3,-5.8 -0.2,-13.4 -1.1,-21c-0.2,-1.9 -0.5,-3.8 -1,-5.6c-0.5,-1.8 -1.1,-3.5 -1.8,-5.2c-1.4,-3.3 -2.9,-6.3 -4.2,-8.9c-1.3,-2.6 -2.2,-4.8 -2.7,-6.4c-0.3,-0.8 -0.5,-1.4 -0.6,-1.9c-0.1,-0.4 -0.2,-0.7 -0.2,-0.7c0,0 0.1,0.2 0.2,0.7c0.1,0.4 0.4,1 0.7,1.8c0.3,0.8 0.7,1.7 1.2,2.8c0.5,1 1.1,2.2 1.8,3.5c1.3,2.5 3,5.5 4.4,8.8c0.7,1.7 1.4,3.4 1.9,5.3c0.5,1.8 0.8,3.8 1,5.7c0.4,3.8 0.6,7.7 0.7,11.3c0.1,3.6 0,7 0.1,9.8c0,1.4 0.1,2.8 -0.1,3.9c-0.2,1.2 -0.7,2.1 -1.2,2.8c-0.5,0.7 -1.1,1.1 -1.4,1.3c-0.5,0.4 -0.7,0.4 -0.7,0.4z" fill="#59402f"/><g><path d="M214.12442,256.7c0,0 0,-0.3 0.1,-0.8c0.1,-0.5 0.4,-1.1 0.8,-1.7c0.4,-0.5 0.9,-1 1.4,-1.2c0.4,-0.3 0.8,-0.4 0.8,-0.4c0,0 0,0.1 -0.1,0.2c-0.1,0.1 -0.2,0.3 -0.4,0.5c-0.3,0.4 -0.7,0.9 -1.1,1.3c-0.4,0.5 -0.7,1 -1,1.4c-0.3,0.4 -0.5,0.7 -0.5,0.7z" fill="#59402f"/><path d="M208.62442,256c0,0 0,-0.4 0.2,-0.9c0.2,-0.5 0.6,-1.2 1.1,-1.8c0.3,-0.3 0.6,-0.6 0.9,-0.8c0.3,-0.2 0.6,-0.4 0.9,-0.5c0.3,-0.1 0.5,-0.2 0.7,-0.2c0.2,0 0.3,-0.1 0.3,-0.1c0,0 -0.1,0.1 -0.2,0.2c-0.1,0.1 -0.3,0.3 -0.5,0.4c-0.4,0.4 -0.9,0.9 -1.4,1.4c-0.5,0.5 -0.9,1.1 -1.3,1.5c-0.5,0.5 -0.7,0.8 -0.7,0.8z" fill="#59402f"/><path d="M215.02442,258.1c0,-0.6 1,-3.3 2.1,-3.2c1.1,0 0.3,1.1 -0.2,1.8c-0.5,0.7 -1.9,1.8 -1.9,1.4z" fill="#665a52"/><path d="M209.52442,257.4c0,-0.6 1,-3.3 2.1,-3.2c1.1,0 0.3,1.1 -0.2,1.8c-0.5,0.7 -1.9,1.8 -1.9,1.4z" fill="#665a52"/><path d="M206.12442,256.4c0,-0.6 1,-3.3 2.1,-3.2c1.1,0 0.3,1.1 -0.2,1.8c-0.5,0.7 -1.9,1.8 -1.9,1.4z" fill="#665a52"/></g></g><g data-paper-data="{&quot;index&quot;:null}"><g><path d="M327.62442,139.2c0,0 10.3,-3.8 21.2,11.7c0,0 -3.1,-2.5 -5,-2.5c0,0 4.9,1.7 6.2,10c0,0 -1.9,-3.3 -3.3,-3.6c0,0 6.9,9.3 -3.2,11.1c-10.1,1.9 -18.3,-24.4 -15.9,-26.7z" fill="#8d674a"/><path d="M348.82442,150.9c0,0 -0.2,-0.3 -0.6,-0.8c-0.4,-0.5 -1,-1.2 -1.7,-2c-0.7,-0.8 -1.6,-1.7 -2.6,-2.6c-0.5,-0.5 -1,-0.9 -1.5,-1.4c-0.5,-0.5 -1.1,-0.9 -1.7,-1.3c-0.6,-0.4 -1.2,-0.8 -1.8,-1.2c-0.6,-0.3 -1.2,-0.7 -1.8,-1c-0.6,-0.2 -1.2,-0.6 -1.8,-0.7c-0.6,-0.2 -1.1,-0.4 -1.7,-0.5c-0.5,-0.1 -1,-0.2 -1.4,-0.2c-0.4,-0.1 -0.8,0 -1.1,-0.1c-0.6,0 -1,0 -1,0c0,0 0.4,0 1,-0.1c0.3,0 0.7,-0.1 1.2,-0.1c0.4,0 0.9,0.1 1.5,0.1c0.5,0.1 1.1,0.2 1.7,0.4c0.6,0.1 1.2,0.4 1.9,0.7c0.6,0.3 1.3,0.6 1.9,1c0.6,0.4 1.2,0.8 1.8,1.2c0.6,0.5 1.2,0.9 1.7,1.4c0.5,0.5 1.1,1 1.5,1.4c1,1 1.8,2 2.4,2.8c1.4,1.7 2.1,3 2.1,3z" fill="#59402f"/><path d="M343.82442,148.4c0,0 0.7,0.3 1.6,1c0.5,0.3 1,0.8 1.4,1.3c0.5,0.5 1,1.1 1.4,1.8c0.4,0.7 0.8,1.3 1,2c0.1,0.3 0.3,0.7 0.3,1c0.1,0.3 0.2,0.6 0.2,0.9c0.1,0.6 0.1,1 0.1,1.4c0,0.3 0,0.5 0,0.5c0,0 -0.1,-0.2 -0.1,-0.5c0,-0.2 -0.1,-0.4 -0.1,-0.6c-0.1,-0.2 -0.2,-0.5 -0.2,-0.7c-0.1,-0.3 -0.2,-0.5 -0.3,-0.8c-0.1,-0.3 -0.2,-0.6 -0.4,-0.9c-0.1,-0.3 -0.3,-0.6 -0.5,-0.9c-0.2,-0.3 -0.4,-0.6 -0.6,-0.9c-0.8,-1.2 -1.8,-2.4 -2.5,-3.2c-0.8,-0.9 -1.3,-1.4 -1.3,-1.4z" fill="#59402f"/><path d="M346.72442,154.8c0,0 0.5,0.4 1,1.1c0.3,0.4 0.6,0.8 0.8,1.3c0.3,0.5 0.5,1.1 0.6,1.7c0.1,0.6 0.2,1.2 0.1,1.8c0,0.3 -0.1,0.6 -0.1,0.8c-0.1,0.3 -0.1,0.5 -0.2,0.7c-0.2,0.4 -0.4,0.8 -0.5,1c-0.1,0.2 -0.2,0.3 -0.2,0.3c0,0 0,-0.1 0.1,-0.4c0,-0.1 0.1,-0.3 0.1,-0.4c0,-0.2 0.1,-0.4 0.1,-0.6c0.1,-0.2 0.1,-0.4 0.1,-0.7c0,-0.2 0.1,-0.5 0,-0.8c0,-0.3 0,-0.5 0,-0.8c0,-0.3 -0.1,-0.6 -0.1,-0.8c-0.1,-0.6 -0.3,-1.1 -0.5,-1.6c-0.2,-0.5 -0.4,-1 -0.6,-1.4c-0.4,-0.7 -0.7,-1.2 -0.7,-1.2z" fill="#59402f"/></g><g><path d="M213.52442,196.5c-3,2 -9.8,-3.7 -9.8,-3.7l-1.2,2c-0.1,-3.4 -7.5,-7.9 -7.5,-7.9l0.8,2.6c-6.6,-2.5 -7.7,-11.3 -7.7,-11.3l-0.2,2.8c-3.4,-3.1 -3.5,-10.9 -3.5,-10.9" fill="#8d674a"/><g><path d="M206.32442,114.6c17.9,-5.9 43.1,3.1 54.4,7.2c16.5,5.8 36.1,-10.5 63.3,11.1c27.2,21.6 22.4,54.5 2.5,71c-22.2,18.4 -101.7,19.7 -116.2,-8.4c0,0 -26.5,-9.8 -28.1,-37.1" fill="#8d674a"/><path d="M184.22442,170.1c0,0 0.2,0.7 0.4,1.7c0.2,1 0.5,2.4 0.9,3.8c0.1,0.3 0.2,0.7 0.3,1c0.1,0.3 0.2,0.7 0.3,1c0.2,0.6 0.4,1.2 0.6,1.6c0.1,0.2 0.2,0.5 0.3,0.6c0.1,0.2 0.2,0.4 0.3,0.4c0.2,0.2 0.3,0.4 0.3,0.4c0,0 -0.1,-0.1 -0.4,-0.3c-0.1,-0.1 -0.3,-0.2 -0.4,-0.4c-0.2,-0.2 -0.3,-0.4 -0.5,-0.6c-0.3,-0.4 -0.6,-1 -0.9,-1.6c-0.3,-0.6 -0.5,-1.3 -0.7,-2c-0.3,-1.4 -0.5,-2.8 -0.6,-3.9c0.1,-0.9 0.1,-1.7 0.1,-1.7z" fill="#59402f"/><path d="M188.12442,178.1c0,0 0.2,0.9 0.7,2.1c0.2,0.6 0.5,1.4 0.8,2.1c0.2,0.4 0.4,0.8 0.6,1.1c0.2,0.4 0.4,0.8 0.6,1.1c0.2,0.4 0.5,0.7 0.7,1.1c0.3,0.3 0.5,0.7 0.8,1c0.3,0.3 0.5,0.6 0.8,0.8c0.3,0.2 0.5,0.5 0.8,0.7c0.3,0.2 0.5,0.4 0.7,0.5c0.2,0.1 0.4,0.3 0.6,0.4c0.3,0.2 0.5,0.3 0.5,0.3c0,0 -0.2,-0.1 -0.6,-0.2c-0.2,-0.1 -0.4,-0.2 -0.7,-0.3c-0.2,-0.1 -0.5,-0.3 -0.8,-0.4c-0.3,-0.2 -0.6,-0.4 -0.9,-0.6c-0.3,-0.2 -0.6,-0.5 -0.9,-0.8c-0.3,-0.3 -0.6,-0.6 -0.9,-1c-0.3,-0.3 -0.5,-0.7 -0.8,-1.1c-0.5,-0.8 -0.9,-1.6 -1.2,-2.4c-0.3,-0.8 -0.5,-1.6 -0.7,-2.2c-0.1,-1.3 -0.1,-2.2 -0.1,-2.2z" fill="#59402f"/><path d="M195.02442,187c0,0 0.7,0.2 1.6,0.7c0.5,0.3 1,0.6 1.5,1c0.5,0.4 1.1,0.8 1.6,1.3c0.5,0.5 1,1 1.4,1.6c0.4,0.5 0.7,1.1 0.9,1.6c0.1,0.3 0.2,0.5 0.2,0.7c0.1,0.2 0.1,0.4 0.1,0.5c0.1,0.3 0.1,0.5 0.1,0.5c0,0 -0.1,-0.2 -0.2,-0.4c-0.1,-0.1 -0.1,-0.3 -0.2,-0.5c-0.1,-0.2 -0.2,-0.4 -0.4,-0.6c-0.1,-0.2 -0.3,-0.4 -0.5,-0.7c-0.2,-0.2 -0.4,-0.5 -0.6,-0.7c-0.4,-0.5 -0.9,-1 -1.4,-1.4c-0.5,-0.5 -1,-0.9 -1.5,-1.3c-0.5,-0.4 -1,-0.8 -1.4,-1.1c-0.7,-0.8 -1.2,-1.2 -1.2,-1.2z" fill="#59402f"/><path d="M203.62442,192.9c0,0 0.6,0.4 1.5,1c0.5,0.3 1,0.6 1.6,0.9c0.6,0.3 1.2,0.7 1.8,0.9c0.6,0.3 1.3,0.6 1.9,0.8c0.3,0.1 0.6,0.2 0.9,0.3c0.3,0.1 0.6,0.1 0.8,0.2c0.3,0 0.5,0.1 0.7,0.1c0.2,0 0.4,0 0.6,0c0.3,0 0.5,0 0.5,0c0,0 -0.2,0 -0.5,0.1c-0.2,0 -0.3,0.1 -0.6,0.1c-0.2,0 -0.5,0 -0.7,0c-0.5,0 -1.2,-0.1 -1.8,-0.3c-0.7,-0.2 -1.3,-0.4 -2,-0.7c-0.7,-0.3 -1.3,-0.7 -1.8,-1.1c-0.6,-0.4 -1.1,-0.8 -1.5,-1.1c-0.9,-0.7 -1.4,-1.2 -1.4,-1.2z" fill="#59402f"/><path d="M227.32442,113c0,0 3.1,0.1 7.7,0.9c1.1,0.2 2.4,0.4 3.7,0.7c1.3,0.3 2.7,0.6 4.1,0.9c1.4,0.3 2.9,0.7 4.3,1.1c1.5,0.4 3,0.9 4.4,1.4c2.9,1 5.7,2.3 8.5,3.3c1.4,0.5 2.7,0.8 4,1c1.3,0.3 2.5,0.4 3.7,0.5c1.1,0.1 2.2,0.1 3.2,0.2c0.9,0 1.8,0 2.4,0c1.4,0 2.1,-0.1 2.1,-0.1c0,0 -0.8,0.1 -2.1,0.2c-0.7,0.1 -1.5,0.1 -2.4,0.1c-0.9,0 -2,0 -3.2,0c-1.2,-0.1 -2.4,-0.2 -3.7,-0.4c-1.3,-0.2 -2.7,-0.5 -4.1,-1c-2.8,-0.8 -5.6,-2.2 -8.5,-3.2c-1.5,-0.5 -2.9,-0.9 -4.4,-1.3c-1.5,-0.4 -2.9,-0.8 -4.3,-1.2c-2.8,-0.7 -5.4,-1.3 -7.7,-1.8c-2.3,-0.5 -4.2,-0.8 -5.5,-1c-1.4,-0.1 -2.2,-0.3 -2.2,-0.3z" fill="#59402f"/><path d="M301.42442,122c0,0 1.2,0.2 3.2,0.8c2,0.6 5,1.6 8.3,3.1c3.3,1.5 7.1,3.5 10.8,6.2c3.7,2.7 7.3,6.1 10.2,10.1c1.4,2 2.7,4.2 3.7,6.3c1.1,2.1 2,4.3 2.9,6.5c0.8,2.1 1.5,4.3 1.9,6.3c0.4,2.1 0.7,4 0.7,5.9c0.1,3.7 -0.5,6.7 -0.8,8.8c-0.4,2.1 -0.6,3.3 -0.6,3.3c0,0 0.2,-1.2 0.4,-3.3c0.3,-2.1 0.7,-5.1 0.5,-8.8c-0.1,-1.8 -0.4,-3.8 -0.8,-5.8c-0.5,-2 -1.2,-4.1 -2,-6.2c-0.9,-2.1 -1.8,-4.2 -2.9,-6.4c-1,-2.2 -2.2,-4.2 -3.7,-6.2c-2.8,-3.9 -6.3,-7.3 -10,-10.1c-3.6,-2.7 -7.4,-4.8 -10.6,-6.4c-3.3,-1.6 -6.1,-2.6 -8.2,-3.3c-1.8,-0.6 -3,-0.8 -3,-0.8z" fill="#59402f"/><path d="M215.92442,202.6c0,0 0.4,0.3 1,0.7c0.7,0.4 1.7,1.1 3,1.8c0.7,0.4 1.4,0.8 2.2,1.2c0.8,0.4 1.7,0.8 2.7,1.3c1,0.4 2,0.9 3.1,1.4c1.1,0.4 2.3,0.9 3.5,1.4c1.2,0.5 2.5,0.9 3.8,1.4c1.3,0.5 2.7,0.8 4.2,1.3c2.9,0.8 5.9,1.5 9.1,2.1c0.8,0.1 1.6,0.3 2.4,0.5c0.8,0.1 1.6,0.2 2.5,0.3c0.8,0.1 1.7,0.2 2.5,0.3c0.8,0.1 1.7,0.2 2.5,0.2c0.8,0.1 1.7,0.1 2.6,0.2c0.9,0.1 1.7,0.1 2.6,0.1c1.7,0 3.5,0.1 5.2,0.1c3.5,-0.1 6.9,-0.1 10.3,-0.5c3.4,-0.2 6.8,-0.6 10,-0.9c1.6,-0.2 3.2,-0.4 4.8,-0.6c1.6,-0.2 3.1,-0.5 4.5,-0.7c2.9,-0.5 5.7,-1 8.2,-1.6c2.5,-0.6 4.8,-1.3 6.8,-1.9c1,-0.3 1.9,-0.7 2.8,-1c0.8,-0.4 1.6,-0.6 2.3,-1c1.4,-0.6 2.4,-1.3 3.1,-1.7c0.7,-0.5 1,-0.8 1,-0.8c0,0 -0.3,0.3 -1,0.8c-0.7,0.5 -1.7,1.1 -3.1,1.8c-0.7,0.4 -1.5,0.7 -2.3,1.1c-0.9,0.3 -1.8,0.7 -2.8,1.1c-2,0.7 -4.3,1.4 -6.8,2c-2.5,0.6 -5.3,1.2 -8.2,1.8c-1.5,0.2 -3,0.5 -4.5,0.8c-1.6,0.2 -3.1,0.4 -4.8,0.6c-3.2,0.3 -6.6,0.7 -10,1c-3.4,0.3 -6.9,0.4 -10.4,0.5c-1.7,0 -3.5,-0.1 -5.2,-0.1c-0.9,0 -1.7,-0.1 -2.6,-0.2c-0.9,-0.1 -1.7,-0.1 -2.6,-0.2c-0.9,-0.1 -1.7,-0.1 -2.5,-0.2c-0.8,-0.1 -1.7,-0.2 -2.5,-0.4c-0.8,-0.1 -1.7,-0.2 -2.5,-0.4c-0.8,-0.1 -1.6,-0.3 -2.4,-0.5c-3.2,-0.6 -6.3,-1.4 -9.1,-2.2c-1.4,-0.5 -2.8,-0.8 -4.2,-1.3c-1.3,-0.5 -2.6,-0.9 -3.8,-1.4c-1.2,-0.5 -2.4,-1 -3.5,-1.4c-1.1,-0.5 -2.1,-1 -3.1,-1.4c-0.9,-0.5 -1.8,-0.9 -2.6,-1.4c-0.8,-0.5 -1.5,-0.9 -2.2,-1.2c-1.3,-0.8 -2.3,-1.4 -3,-1.9c-0.7,-0.6 -1,-0.9 -1,-0.9z" fill="#59402f"/></g></g></g><path d="M245.42442,176.7c0,0 -0.2,0 -0.5,-0.1c-0.3,-0.1 -0.8,-0.3 -1.3,-0.6c-1,-0.6 -2.2,-1.6 -3.3,-2.6c-0.5,-0.5 -1.1,-1.1 -1.5,-1.6c-0.5,-0.5 -0.9,-1.1 -1.2,-1.5c-0.7,-0.9 -1.1,-1.6 -1.1,-1.6c0,0 0.6,0.5 1.4,1.3c0.8,0.8 1.9,1.9 2.9,2.9c0.5,0.5 1.1,1.1 1.6,1.5c0.5,0.5 1,0.9 1.4,1.3c0.4,0.4 0.8,0.6 1.1,0.8c0.3,0.1 0.5,0.2 0.5,0.2z" data-paper-data="{&quot;index&quot;:null}" fill="#59402f"/><path d="M246.92442,183.2c0,0 -0.2,-0.4 -0.6,-1c-0.3,-0.6 -0.8,-1.3 -1.3,-2c-0.3,-0.3 -0.5,-0.7 -0.8,-1c-0.3,-0.3 -0.6,-0.5 -0.8,-0.8c-0.2,-0.2 -0.5,-0.4 -0.6,-0.5c-0.2,-0.1 -0.2,-0.2 -0.2,-0.2c0,0 0.1,0 0.3,0.1c0.2,0 0.5,0.1 0.8,0.3c0.3,0.2 0.7,0.4 1,0.7c0.3,0.3 0.7,0.6 0.9,1c0.3,0.4 0.5,0.8 0.7,1.2c0.2,0.4 0.3,0.8 0.4,1.1c0.2,0.6 0.2,1.1 0.2,1.1z" data-paper-data="{&quot;index&quot;:null}" fill="#59402f"/><path d="M247.82442,192.4c0,0 0.1,-0.7 -0.1,-1.7c-0.1,-0.5 -0.2,-1.1 -0.4,-1.7c-0.2,-0.6 -0.4,-1.2 -0.7,-1.9c-0.3,-0.6 -0.5,-1.2 -0.8,-1.8c-0.3,-0.6 -0.5,-1.1 -0.8,-1.6c-0.2,-0.5 -0.4,-0.8 -0.6,-1.1c-0.1,-0.3 -0.2,-0.4 -0.2,-0.4c0,0 0.1,0.1 0.3,0.4c0.2,0.2 0.5,0.6 0.8,1c0.3,0.4 0.6,0.9 1,1.5c0.3,0.6 0.6,1.2 0.9,1.8c0.3,0.6 0.5,1.3 0.6,2c0.2,0.6 0.2,1.3 0.2,1.8c0,0.5 -0.1,1 -0.1,1.3c0,0.3 -0.1,0.4 -0.1,0.4z" data-paper-data="{&quot;index&quot;:null}" fill="#59402f"/><path d="M244.62442,199.6c0,0 0.5,-0.5 0.8,-1.3c0.2,-0.4 0.3,-0.9 0.4,-1.5c0.1,-0.6 0.1,-1.2 0.1,-1.8c0,-0.3 0,-0.6 -0.1,-0.9c0,-0.3 -0.1,-0.6 -0.1,-0.9c-0.1,-0.6 -0.2,-1.1 -0.3,-1.6c-0.1,-0.5 -0.2,-0.9 -0.2,-1.1c-0.1,-0.3 -0.1,-0.4 -0.1,-0.4c0,0 0.1,0.1 0.2,0.4c0.1,0.3 0.3,0.6 0.5,1.1c0.2,0.5 0.4,1 0.5,1.6c0.1,0.3 0.2,0.6 0.2,0.9c0,0.3 0.1,0.6 0.1,1c0,0.7 0,1.3 -0.2,1.9c0,0.3 -0.2,0.6 -0.3,0.9c-0.1,0.3 -0.2,0.5 -0.4,0.7c-0.3,0.4 -0.6,0.7 -0.8,0.9c-0.1,0.1 -0.3,0.1 -0.3,0.1z" data-paper-data="{&quot;index&quot;:null}" fill="#59402f"/><path d="M304.02442,141c17.2,-3.9 25.1,9.2 27.3,16.8c2.2,7.6 -5.7,22.2 -8,31.2c-2.3,9 2.4,8.2 0.3,20.7c-2.8,16.7 -21.4,49.2 -23.3,49.8c-4.7,1.4 -25.2,-1 -26.4,-2.8c-1.2,-1.8 6,-5.4 8.1,-7.7c2.1,-2.3 2.1,-6.2 0.1,-24.3c-0.6,-5.1 -1.6,-8.1 -2.1,-12.3c-1.6,-13.1 2.7,-43.8 2.7,-43.8c0.7,-6.2 4.1,-23.7 21.3,-27.6z" data-paper-data="{&quot;index&quot;:null}" fill="#8d674a"/><g data-paper-data="{&quot;index&quot;:null}"><path d="M281.22442,258.4c0,0 0,-0.3 0.3,-0.8c0.2,-0.5 0.6,-1 1.2,-1.4c0.5,-0.4 1.1,-0.7 1.6,-0.9c0.5,-0.2 0.8,-0.2 0.8,-0.2c0,0 -0.1,0.1 -0.2,0.2c-0.1,0.1 -0.3,0.2 -0.5,0.4c-0.4,0.3 -0.9,0.7 -1.3,1.1c-0.5,0.4 -0.9,0.8 -1.3,1.1c-0.3,0.2 -0.6,0.5 -0.6,0.5z" fill="#59402f"/><path d="M275.82442,256.8c0,0 0.1,-0.4 0.5,-0.9c0.3,-0.5 0.9,-1.1 1.5,-1.5c0.3,-0.2 0.7,-0.4 1,-0.5c0.3,-0.1 0.7,-0.2 1,-0.3c0.3,-0.1 0.5,-0.1 0.7,-0.1c0.2,0 0.3,0 0.3,0c0,0 -0.1,0.1 -0.2,0.1c-0.2,0.1 -0.4,0.2 -0.6,0.3c-0.5,0.3 -1.1,0.6 -1.7,1c-0.6,0.4 -1.2,0.9 -1.6,1.2c-0.6,0.5 -0.9,0.7 -0.9,0.7z" fill="#59402f"/><path d="M281.82442,259.9c0.2,-0.6 1.7,-2.9 2.8,-2.6c1.1,0.3 0.1,1.2 -0.6,1.7c-0.8,0.6 -2.4,1.3 -2.2,0.9z" fill="#6c5f57"/><path d="M276.62442,258c0.2,-0.6 1.7,-2.9 2.8,-2.6c1.1,0.3 0.1,1.2 -0.6,1.7c-0.7,0.5 -2.3,1.3 -2.2,0.9z" fill="#6c5f57"/><path d="M273.32442,256.8c0.2,-0.6 1.7,-2.9 2.8,-2.6c1.1,0.3 0.1,1.2 -0.6,1.7c-0.7,0.6 -2.3,1.3 -2.2,0.9z" fill="#6c5f57"/></g><g data-paper-data="{&quot;index&quot;:null}"><path d="M323.62442,195.4c0,0 2.7,12.5 4.9,13.4c0,0 -2.8,0.7 -3.7,-1.5c0,0 3.2,3.6 2.2,8l-2.2,-2.2c0,0 0.8,7.5 -1.4,11.2l-1.2,-4.1c0,0 0.2,7.2 -5.2,8.6" fill="#8d674a"/><path d="M328.32442,208.7c0,0 -0.2,-0.1 -0.4,-0.3c-0.2,-0.2 -0.6,-0.6 -0.9,-1.1c-0.6,-1 -1.2,-2.4 -1.7,-3.8c-0.2,-0.7 -0.4,-1.5 -0.6,-2.1c-0.2,-0.7 -0.3,-1.3 -0.4,-1.9c-0.2,-1.1 -0.2,-1.9 -0.2,-1.9c0,0 0.3,0.7 0.6,1.8c0.4,1.1 0.8,2.5 1.3,3.9c0.2,0.7 0.5,1.4 0.7,2.1c0.2,0.7 0.5,1.3 0.7,1.8c0.2,0.5 0.4,0.9 0.6,1.2c0.2,0.2 0.3,0.3 0.3,0.3z" fill="#59402f"/><path d="M326.82442,215.2c0,0 0,-0.5 -0.1,-1.1c0,-0.7 -0.1,-1.5 -0.3,-2.4c-0.1,-0.4 -0.2,-0.8 -0.3,-1.2c-0.1,-0.4 -0.2,-0.7 -0.4,-1c-0.1,-0.3 -0.2,-0.6 -0.3,-0.7c-0.1,-0.2 -0.1,-0.3 -0.1,-0.3c0,0 0.1,0.1 0.2,0.2c0.2,0.1 0.4,0.3 0.6,0.6c0.2,0.3 0.4,0.6 0.6,1c0.2,0.4 0.3,0.9 0.4,1.3c0.1,0.5 0.1,0.9 0.1,1.4c0,0.4 -0.1,0.8 -0.1,1.2c-0.1,0.6 -0.3,1 -0.3,1z" fill="#59402f"/><path d="M323.32442,224.2c0,0 0.4,-0.6 0.7,-1.6c0.2,-0.5 0.3,-1.1 0.4,-1.7c0.1,-0.6 0.2,-1.3 0.3,-2c0.1,-0.7 0.1,-1.4 0.1,-2c0,-0.7 0,-1.3 0,-1.8c0,-0.5 0,-1 0,-1.3c0,-0.3 0,-0.5 0,-0.5c0,0 0,0.2 0.1,0.5c0.1,0.3 0.2,0.7 0.2,1.3c0.1,0.5 0.2,1.2 0.2,1.8c0,0.7 0,1.4 0,2.1c-0.1,0.7 -0.2,1.4 -0.4,2.1c-0.2,0.7 -0.4,1.3 -0.6,1.7c-0.2,0.5 -0.5,0.9 -0.7,1.1c-0.2,0.2 -0.3,0.3 -0.3,0.3z" fill="#59402f"/><path d="M318.52442,228.3c0,0 0.1,-0.1 0.3,-0.2c0.2,-0.1 0.4,-0.4 0.7,-0.7c0.5,-0.6 0.9,-1.6 1.3,-2.6c0.4,-1 0.6,-2.1 0.9,-2.9c0.2,-0.8 0.4,-1.3 0.4,-1.3c0,0 0,0.1 0,0.4c0,0.2 0,0.6 0,1c0,0.4 -0.1,0.9 -0.2,1.4c-0.1,0.3 -0.1,0.5 -0.2,0.8c-0.1,0.3 -0.2,0.5 -0.2,0.8c-0.2,0.5 -0.4,1.1 -0.7,1.5c-0.3,0.5 -0.6,0.9 -0.9,1.2c-0.3,0.3 -0.7,0.5 -0.9,0.6c-0.4,0 -0.5,0 -0.5,0z" fill="#59402f"/></g><path d="M319.62442,224.2c0,0 -1.1,2.5 -2.8,6.2c-0.9,1.8 -1.9,4 -3,6.2c-1.1,2.3 -2.4,4.7 -3.6,7.1c-1.3,2.4 -2.6,4.8 -3.8,7c-1.2,2.2 -2.5,4.2 -3.7,5.9c-0.6,0.8 -1.1,1.6 -1.7,2.2c-0.3,0.3 -0.5,0.6 -0.8,0.8c-0.4,0.1 -0.7,0.1 -1,0.2c-0.6,0 -1.1,0 -1.4,0c-0.3,0 -0.5,0 -0.5,0c0,0 0.7,0 1.9,-0.1c0.3,0 0.6,-0.1 0.9,-0.2c0.2,-0.2 0.5,-0.5 0.7,-0.8c0.5,-0.6 1,-1.4 1.6,-2.3c1.1,-1.7 2.2,-3.8 3.5,-6c1.2,-2.2 2.5,-4.6 3.7,-7c5,-9.7 10,-19.2 10,-19.2z" data-paper-data="{&quot;index&quot;:null}" fill="#59402f"/><path d="M281.32442,183.8c0,0 -0.4,4.3 -0.9,10.7c-0.2,3.2 -0.4,7 -0.4,11c0,2 0,4.1 0.3,6.2c0.2,2.1 0.7,4.2 1,6.3c0.7,4.3 1.2,8.6 1.6,12.6c0.4,4 0.6,7.8 0.7,11c0,1.6 0.1,3.1 -0.1,4.4c-0.1,0.7 -0.3,1.3 -0.6,1.8c-0.3,0.5 -0.6,0.9 -1,1.2c-0.7,0.7 -1.3,1.1 -1.7,1.4c-0.4,0.3 -0.6,0.4 -0.6,0.4c0,0 0.2,-0.2 0.6,-0.5c0.4,-0.3 1,-0.7 1.6,-1.4c0.6,-0.7 1.3,-1.7 1.4,-3c0.1,-1.3 0,-2.8 0,-4.4c-0.1,-3.2 -0.5,-7 -0.9,-11c-0.4,-4 -0.9,-8.3 -1.6,-12.5c-0.3,-2.1 -0.8,-4.2 -1,-6.4c-0.2,-2.1 -0.2,-4.2 -0.2,-6.3c0.1,-4.1 0.4,-7.8 0.6,-11.1c0.3,-3.2 0.6,-5.9 0.9,-7.8c0.2,-1.6 0.3,-2.6 0.3,-2.6z" data-paper-data="{&quot;index&quot;:null}" fill="#59402f"/><g data-paper-data="{&quot;index&quot;:null}"><path d="M263.82442,194.6c-4.1,22.7 -22.4,19.9 -25.6,21c-1.6,0.5 -21.5,5 -21.5,5c0,0 2.4,9.6 -3.2,13.2c-5.9,3.8 -16.3,-20.7 -12.4,-28c1.5,-2.9 22.4,-9.6 22.4,-9.6c0,0 -3.3,-6.4 -2.2,-22.8c1.5,-22.9 47.9,-25.6 42.5,21.2z" fill="#8d674a"/><path d="M261.32442,172.4c0,0 4.6,12 6.9,12.5c0,0 -2.7,1.1 -3.9,-0.9c0,0 3.7,3 3.4,7.6l-2.5,-1.8c0,0 2,7.3 0.4,11.3l-1.8,-3.8c0,0 1.3,7.1 -3.8,9.3" fill="#8d674a"/><path d="M268.02442,184.8c0,0 -0.2,0 -0.5,-0.2c-0.3,-0.2 -0.7,-0.5 -1,-0.9c-0.8,-0.9 -1.6,-2.2 -2.3,-3.5c-0.3,-0.7 -0.7,-1.4 -0.9,-2c-0.3,-0.7 -0.5,-1.3 -0.7,-1.8c-0.3,-1.1 -0.5,-1.8 -0.5,-1.8c0,0 0.4,0.7 0.9,1.7c0.5,1 1.2,2.4 1.9,3.7c0.3,0.7 0.7,1.3 1,1.9c0.3,0.6 0.7,1.2 1,1.6c0.3,0.5 0.6,0.8 0.8,1.1c0.1,0.2 0.3,0.2 0.3,0.2z" fill="#59402f"/><path d="M267.62442,191.7c0,0 -0.1,-0.5 -0.3,-1.1c-0.2,-0.7 -0.4,-1.6 -0.7,-2.4c-0.1,-0.4 -0.3,-0.8 -0.5,-1.2c-0.1,-0.2 -0.2,-0.4 -0.3,-0.5c-0.1,-0.2 -0.2,-0.3 -0.3,-0.5c-0.2,-0.3 -0.3,-0.5 -0.5,-0.7c-0.1,-0.2 -0.2,-0.3 -0.2,-0.3c0,0 0.1,0.1 0.3,0.2c0.2,0.1 0.4,0.3 0.7,0.5c0.1,0.1 0.3,0.3 0.4,0.4c0.1,0.2 0.3,0.3 0.4,0.5c0.2,0.4 0.4,0.8 0.6,1.3c0.3,0.9 0.4,1.9 0.4,2.6c0.1,0.8 0,1.2 0,1.2z" fill="#59402f"/><path d="M265.62442,201.2c0,0 0.2,-0.7 0.3,-1.8c0.1,-1.1 0.1,-2.5 0,-3.9c0,-0.7 -0.1,-1.4 -0.2,-2.1c-0.1,-0.7 -0.2,-1.3 -0.3,-1.8c-0.1,-0.5 -0.1,-1 -0.2,-1.3c0,-0.3 -0.1,-0.5 -0.1,-0.5c0,0 0.1,0.2 0.2,0.5c0.1,0.3 0.3,0.7 0.4,1.2c0.3,1 0.6,2.5 0.8,3.9c0.1,0.7 0.1,1.5 0,2.2c-0.1,0.7 -0.2,1.3 -0.3,1.9c-0.1,0.5 -0.3,1 -0.5,1.3c0,0.2 -0.1,0.4 -0.1,0.4z" fill="#59402f"/><path d="M216.82442,220.5c0,0 3.1,-0.9 7.7,-2.1c2.3,-0.6 5.1,-1.3 8,-2c2.9,-0.7 6.1,-1.3 9.3,-1.6c1.6,-0.2 3.2,-0.2 4.7,-0.5c1.5,-0.3 2.9,-0.9 4.3,-1.6c0.7,-0.3 1.3,-0.7 1.9,-1c0.3,-0.2 0.6,-0.4 0.9,-0.6c0.3,-0.2 0.6,-0.4 0.8,-0.6c1.1,-0.8 2,-1.7 2.8,-2.6c1.6,-1.8 2.6,-3.5 3.3,-4.7c0.7,-1.2 1,-2 1,-2c0,0 -0.2,0.8 -0.9,2c-0.6,1.3 -1.6,3 -3.1,4.9c-0.8,0.9 -1.7,1.9 -2.8,2.8c-0.3,0.2 -0.6,0.4 -0.9,0.6c-0.3,0.2 -0.6,0.4 -0.9,0.6c-0.6,0.4 -1.3,0.7 -2,1.1c-1.3,0.7 -2.8,1.3 -4.4,1.7c-1.6,0.3 -3.2,0.4 -4.8,0.5c-1.6,0.1 -3.2,0.3 -4.7,0.6c-1.6,0.2 -3.1,0.5 -4.6,0.8c-0.7,0.1 -1.5,0.3 -2.2,0.4c-0.7,0.2 -1.4,0.3 -2.1,0.5c-1.3,0.3 -2.6,0.6 -3.8,0.9c-4.4,1.2 -7.5,1.9 -7.5,1.9z" fill="#59402f"/><path d="M260.32442,206.5c0,0 0.6,-0.3 1.1,-1c0.3,-0.4 0.6,-0.8 0.8,-1.3c0.1,-0.3 0.2,-0.5 0.3,-0.8c0.1,-0.3 0.2,-0.6 0.3,-0.9c0.1,-0.3 0.1,-0.6 0.2,-0.9c0.1,-0.3 0.1,-0.6 0.2,-0.9c0.1,-0.6 0.2,-1.1 0.2,-1.6c0.1,-0.5 0.1,-0.9 0.1,-1.1c0,-0.3 0.1,-0.4 0.1,-0.4c0,0 0,0.2 0.1,0.4c0,0.3 0.1,0.7 0.1,1.2c0,0.5 0,1 0,1.6c0,0.3 0,0.6 -0.1,0.9c-0.1,0.3 -0.1,0.6 -0.2,0.9c-0.2,0.6 -0.4,1.3 -0.7,1.8c-0.1,0.3 -0.3,0.5 -0.5,0.7c-0.2,0.2 -0.4,0.4 -0.5,0.6c-0.4,0.3 -0.7,0.5 -1,0.6c-0.4,0.2 -0.5,0.2 -0.5,0.2z" fill="#59402f"/><path d="M200.62442,214c-0.3,-1.3 -0.4,-2.7 -0.3,-4.1c0,-0.7 0.1,-1.4 0.2,-2c0,-0.3 0.1,-0.7 0.2,-1c0,-0.2 0.1,-0.4 0.1,-0.5c0.1,-0.2 0.2,-0.3 0.3,-0.5c0.4,-0.6 1,-1 1.6,-1.4c0.6,-0.4 1.1,-0.8 1.7,-1.1c1.2,-0.7 2.4,-1.3 3.7,-1.9c2.5,-1.1 5,-2.2 7.6,-3.1c2.5,-1 5.1,-1.9 7.7,-2.7l-0.3,0.3c-0.8,-2.2 -1.3,-4.5 -1.6,-6.9c-0.2,-1.2 -0.3,-2.3 -0.3,-3.5c0,-0.6 0,-1.2 0,-1.8c0,-0.6 0,-1.2 0.1,-1.8c0,1.2 0.1,2.3 0.2,3.5c0.1,1.2 0.3,2.3 0.5,3.5c0.2,1.1 0.5,2.3 0.8,3.4c0.3,1.1 0.6,2.2 1,3.3l0.1,0.3l-0.3,0.1c-2.6,0.9 -5.1,1.8 -7.7,2.7c-2.5,0.9 -5.1,1.9 -7.5,3c-1.2,0.6 -2.5,1.1 -3.7,1.8c-0.6,0.3 -1.2,0.7 -1.7,1c-0.6,0.4 -1.1,0.8 -1.5,1.3c-0.1,0.1 -0.2,0.3 -0.2,0.4c-0.1,0.2 -0.1,0.3 -0.1,0.5c-0.1,0.3 -0.2,0.7 -0.2,1c-0.1,0.7 -0.2,1.3 -0.3,2c-0.3,1.4 -0.3,2.8 -0.1,4.2z" fill="#59402f"/><g><path d="M216.62442,227.8c0,0 -0.3,0 -0.8,-0.2c-0.5,-0.2 -1,-0.6 -1.5,-1.1c-0.5,-0.5 -0.8,-1.1 -1,-1.6c-0.2,-0.5 -0.2,-0.8 -0.2,-0.8c0,0 0.1,0.1 0.2,0.2c0.1,0.1 0.2,0.3 0.4,0.4c0.3,0.4 0.7,0.8 1.1,1.3c0.4,0.5 0.9,0.9 1.2,1.2c0.3,0.3 0.6,0.6 0.6,0.6z" fill="#59402f"/><path d="M214.92442,233.1c0,0 -0.4,-0.1 -0.9,-0.4c-0.5,-0.3 -1.1,-0.8 -1.6,-1.4c-0.2,-0.3 -0.4,-0.6 -0.6,-1c-0.2,-0.3 -0.3,-0.7 -0.3,-0.9c-0.1,-0.3 -0.1,-0.5 -0.1,-0.7c0,-0.2 0,-0.3 0,-0.3c0,0 0.1,0.1 0.1,0.2c0.1,0.1 0.2,0.4 0.3,0.6c0.3,0.5 0.7,1.1 1.1,1.6c0.4,0.6 0.9,1.1 1.3,1.5c0.4,0.5 0.7,0.8 0.7,0.8z" fill="#59402f"/><path d="M218.12442,227.1c-0.6,-0.1 -3,-1.6 -2.8,-2.7c0.2,-1.1 1.2,-0.1 1.8,0.5c0.6,0.6 1.4,2.3 1,2.2z" fill="#6c5f57"/><path d="M216.42442,232.4c-0.6,-0.1 -3,-1.6 -2.8,-2.7c0.2,-1.1 1.2,-0.1 1.8,0.5c0.6,0.6 1.4,2.3 1,2.2z" fill="#6c5f57"/><path d="M214.82442,235.6c-0.6,-0.1 -3,-1.6 -2.8,-2.7c0.2,-1.1 1.2,-0.1 1.8,0.5c0.6,0.7 1.4,2.3 1,2.2z" fill="#6c5f57"/></g><path d="M221.52442,196.7c0,0 0.1,-0.1 0.2,-0.2c0.1,-0.1 0.3,-0.3 0.6,-0.4c0.5,-0.3 1.3,-0.6 2,-0.7c0.8,-0.1 1.6,-0.1 2.1,0c0.3,0 0.5,0.1 0.7,0.1c0.2,0 0.3,0.1 0.3,0.1c0,0 -0.1,0 -0.3,0.1c-0.2,0 -0.4,0.1 -0.7,0.1c-0.6,0.1 -1.3,0.2 -2,0.3c-0.7,0.1 -1.5,0.2 -2,0.4c-0.5,0 -0.9,0.2 -0.9,0.2z" fill="#59402f"/></g><g data-paper-data="{&quot;index&quot;:null}"><g><path d="M213.82442,144.5c-0.1,6.5 2.5,10.3 2.5,10.3c-2.7,0 -5.4,-4.9 -5.4,-4.9c3.9,9 -2.2,15.2 -2.2,15.2c0.6,-5.7 -1.4,-7.5 -1.4,-7.5c3,10.9 -8.4,13.5 -8.4,13.5c1.7,-1.2 2.9,-5.5 2.9,-5.5c-8.8,9.8 -26.2,7.7 -35.9,8.2c-9.7,0.5 -16.8,-0.4 -25.1,-1c-8.3,-0.6 -14.9,-10.4 -15.3,-14.7c-0.4,-4.3 20.1,-15.1 20.1,-15.1c0,0 0.6,-13.2 3.7,-18.8c3.1,-5.6 25.9,-17.5 46.2,-14.7c17,2.4 18.2,28.5 18.3,35z" fill="#8d674a"/><path d="M220.82442,133.1c-0.1,6.5 -4.6,21.7 -4.6,21.7c-2.7,0 -5.4,-4.9 -5.4,-4.9c3.9,9 -2.2,15.2 -2.2,15.2c0.6,-5.7 -1.4,-7.5 -1.4,-7.5c3,10.9 -8.4,13.5 -8.4,13.5c1.7,-1.2 2.9,-5.5 2.9,-5.5c-8.8,9.8 -24.8,9.5 -34.4,10.1c-9.6,0.6 -18.2,-2.3 -26.5,-2.9c-8.3,-0.6 -14.9,-10.4 -15.3,-14.7c-0.4,-4.3 20,-15 20,-15c0,0 0.6,-13.1 3.7,-18.8c3.1,-5.7 22.8,-17.6 43.2,-15.6c14.4,1.4 28.5,17.9 28.4,24.4z" fill="#8d674a"/><path d="M145.72442,143.1c15,12.2 -1.1,23.3 -1.1,23.3c-0.2,2.7 -3,4.7 -5.5,6.1c-7.5,-1.7 -13.2,-10.4 -13.6,-14.4c-0.4,-4.3 20.1,-15 20.2,-15z" fill="#9e7b5c"/><path d="M126.42442,161.3c-0.9,-1.6 -2.3,-3.2 -1.4,-4.6c0.5,-0.9 1.7,-2.3 2.7,-2.3c1,0 2.5,3 -0.5,4.5c0.4,1.5 -0.2,2 -0.8,2.4z" fill="#332721"/><path d="M131.82442,168.1c0,0 0.5,-0.3 1.3,-0.7c0.4,-0.2 0.9,-0.3 1.4,-0.5c0.5,-0.1 1.1,-0.3 1.7,-0.3c0.6,-0.1 1.2,-0.1 1.8,-0.1c0.6,0 1.1,0.1 1.5,0.2c0.4,0.1 0.8,0.2 1,0.3c0.2,0.1 0.4,0.2 0.4,0.2c0,0 -0.2,0 -0.4,0c-0.3,0 -0.6,-0.1 -1,-0.1c-0.2,0 -0.4,0 -0.7,0c-0.2,0 -0.5,0 -0.8,0c-0.5,0 -1.1,0.1 -1.7,0.1c-1.1,0.1 -2.3,0.3 -3.1,0.5c-0.8,0.2 -1.4,0.4 -1.4,0.4z" fill="#59402f"/><path d="M153.93223,142.65696c-0.13173,-1.42991 0.51939,-2.65891 1.45433,-2.74504c0.93494,-0.08613 1.79965,1.00321 1.93139,2.43312c0.13173,1.42991 -0.51939,2.65891 -1.45433,2.74504c-0.93494,0.08613 -1.79965,-1.00321 -1.93139,-2.43312z" fill="#332010"/><path d="M158.82442,135.6c0.1,1.1 -3,1.8 -4.4,1.9c-1.4,0.1 -2.7,-0.6 -2.8,-1.7c-0.1,-1.1 1,-2 2.4,-2.2c1.5,0 4.7,1 4.8,2z" fill="#9e7b5c"/><path d="M145.62442,143.1c0,0 0,-0.8 0,-2.3c0.1,-1.4 0.1,-3.5 0.4,-6c0.1,-1.2 0.3,-2.6 0.6,-4c0.3,-1.4 0.6,-2.9 1.2,-4.3c0.3,-0.7 0.6,-1.5 1,-2.2c0.5,-0.7 0.9,-1.3 1.5,-2c1.1,-1.2 2.3,-2.4 3.6,-3.4c1.3,-1 2.7,-1.9 4.1,-2.7c1.4,-0.8 2.8,-1.6 4.2,-2.2c1.4,-0.7 2.8,-1.2 4.1,-1.7c1.3,-0.5 2.6,-0.9 3.8,-1.3c1.2,-0.4 2.3,-0.7 3.3,-0.9c1,-0.2 1.8,-0.5 2.5,-0.6c1.4,-0.3 2.2,-0.5 2.2,-0.5c0,0 -0.8,0.2 -2.2,0.6c-1.4,0.4 -3.4,1 -5.7,1.7c-1.2,0.4 -2.4,0.8 -3.7,1.4c-1.3,0.5 -2.7,1.1 -4.1,1.8c-1.4,0.7 -2.8,1.4 -4.2,2.2c-1.4,0.8 -2.7,1.8 -4,2.7c-1.3,1 -2.5,2.1 -3.6,3.3c-0.5,0.6 -1,1.2 -1.4,1.9c-0.4,0.7 -0.7,1.4 -1,2.1c-1.1,2.9 -1.6,5.7 -1.9,8.1c-0.6,5 -0.7,8.3 -0.7,8.3z" fill="#59402f"/><path d="M198.82442,171.2c0,0 0.3,-0.1 0.7,-0.2c0.5,-0.1 1.1,-0.4 1.9,-0.8c0.4,-0.2 0.8,-0.4 1.2,-0.7c0.4,-0.2 0.8,-0.6 1.2,-0.9c0.4,-0.3 0.8,-0.7 1.2,-1.1c0.4,-0.4 0.7,-0.8 1,-1.3c0.3,-0.4 0.5,-1 0.8,-1.4c0.2,-0.5 0.3,-1 0.5,-1.5c0.1,-0.5 0.1,-1 0.2,-1.5c0.1,-0.5 0,-0.9 0,-1.4c0,-0.4 0,-0.8 -0.1,-1.2c0,-0.3 -0.1,-0.6 -0.1,-0.9c-0.1,-0.5 -0.1,-0.8 -0.1,-0.8c0,0 0.1,0.3 0.2,0.8c0.1,0.2 0.2,0.5 0.2,0.9c0.1,0.3 0.2,0.7 0.2,1.2c0,0.4 0.1,0.9 0.1,1.4c0,0.5 0,1 -0.1,1.6c-0.2,0.5 -0.2,1.1 -0.5,1.6c-0.2,0.5 -0.4,1.1 -0.8,1.6c-0.3,0.5 -0.7,0.9 -1.1,1.4c-0.4,0.4 -0.9,0.8 -1.3,1.1c-0.9,0.6 -1.8,1.1 -2.6,1.4c-1.5,0.6 -2.7,0.7 -2.7,0.7z" fill="#59402f"/><path d="M208.62442,165.1c0,0 0.7,-0.7 1.5,-2.1c0.2,-0.3 0.4,-0.7 0.6,-1.1c0.2,-0.4 0.4,-0.8 0.5,-1.3c0.1,-0.2 0.2,-0.4 0.2,-0.7c0.1,-0.2 0.1,-0.5 0.2,-0.7c0.1,-0.5 0.2,-1 0.3,-1.5c0.1,-0.5 0.1,-1 0.1,-1.5c0,-0.5 0,-1 -0.1,-1.5c-0.1,-0.5 -0.1,-0.9 -0.2,-1.4c-0.1,-0.4 -0.2,-0.8 -0.3,-1.2c-0.1,-0.4 -0.2,-0.7 -0.3,-1c-0.1,-0.3 -0.2,-0.6 -0.2,-0.8c-0.1,-0.4 -0.2,-0.7 -0.2,-0.7c0,0 0.1,0.2 0.3,0.6c0.1,0.2 0.2,0.5 0.4,0.7c0.2,0.3 0.3,0.6 0.4,1c0.1,0.4 0.3,0.8 0.4,1.2c0.1,0.4 0.2,0.9 0.3,1.4c0,0.5 0.1,1 0.1,1.5c0,0.5 0,1 -0.1,1.6c-0.1,0.5 -0.2,1 -0.3,1.5c-0.1,0.2 -0.1,0.5 -0.2,0.7c-0.1,0.2 -0.2,0.5 -0.3,0.7c-0.2,0.5 -0.4,0.9 -0.6,1.3c-0.2,0.4 -0.5,0.7 -0.7,1.1c-0.5,0.6 -0.9,1.1 -1.3,1.4c-0.3,0.7 -0.5,0.8 -0.5,0.8z" fill="#59402f"/><path d="M216.12442,154.8c0,0 -0.2,-0.2 -0.4,-0.5c-0.2,-0.4 -0.6,-0.9 -0.9,-1.6c-0.3,-0.7 -0.6,-1.5 -0.8,-2.4c-0.2,-0.9 -0.4,-1.9 -0.5,-2.8c-0.1,-0.5 -0.1,-1 -0.1,-1.5c0,-0.5 -0.1,-1 -0.1,-1.4c-0.1,-0.9 0,-1.8 0,-2.5c0,-0.7 0.1,-1.3 0.1,-1.8c0,-0.4 0.1,-0.7 0.1,-0.7c0,0 0,0.2 0.1,0.7c0,0.4 0.1,1 0.1,1.8c0,0.7 0.1,1.6 0.2,2.5c0.1,0.9 0.2,1.9 0.3,2.8c0.1,1 0.2,1.9 0.4,2.8c0.2,0.9 0.4,1.7 0.6,2.4c0.2,0.7 0.4,1.2 0.6,1.6c0.2,0.4 0.3,0.6 0.3,0.6z" fill="#59402f"/><path d="M189.72442,108.6c0,0 0.4,-0.1 1.1,-0.2c0.3,0 0.8,0 1.2,0c0.5,0 1,0.1 1.6,0.2c0.6,0.1 1.2,0.2 1.9,0.4c0.6,0.2 1.3,0.3 2,0.6c0.7,0.2 1.4,0.5 2.1,0.8c0.7,0.3 1.4,0.7 2.1,1c0.7,0.3 1.4,0.8 2,1.1c0.7,0.4 1.3,0.8 1.9,1.2c1.2,0.8 2.3,1.6 3.2,2.3c0.5,0.3 0.9,0.7 1.2,1c0.4,0.3 0.7,0.6 0.9,0.8c0.5,0.4 0.8,0.7 0.8,0.7c0,0 -0.3,-0.2 -0.9,-0.6c-0.3,-0.2 -0.6,-0.4 -1,-0.7c-0.4,-0.3 -0.8,-0.6 -1.3,-0.9c-0.5,-0.3 -1,-0.7 -1.6,-1c-0.5,-0.4 -1.2,-0.7 -1.8,-1.1c-0.6,-0.4 -1.2,-0.8 -1.9,-1.1c-0.7,-0.4 -1.3,-0.8 -2,-1.1c-0.7,-0.3 -1.4,-0.7 -2.1,-1c-0.7,-0.3 -1.4,-0.6 -2,-0.9c-1.2,-0.5 -2.4,-0.9 -3.6,-1.1c-0.6,-0.1 -1.1,-0.2 -1.6,-0.3c-0.5,-0.1 -0.9,-0.1 -1.2,-0.1c-0.6,0 -1,0 -1,0z" fill="#59402f"/></g><g><path d="M176.72442,111.5c0,0 1.7,-8.2 6.3,-8.8c4.6,-0.6 15.3,3.9 7.2,16.6" fill="#8d674a"/><path d="M183.22442,105.2c0,0 0.4,0.6 0.7,1.5c0.2,0.5 0.4,1 0.5,1.6c0.2,0.6 0.3,1.3 0.3,1.9c0,0.3 0,0.7 0,1c-0.1,0.3 -0.1,0.7 -0.2,1c-0.1,0.3 -0.2,0.6 -0.3,0.9c-0.1,0.3 -0.2,0.5 -0.4,0.7c-0.3,0.4 -0.5,0.7 -0.8,0.9c-0.2,0.2 -0.3,0.3 -0.3,0.3c0,0 0.1,-0.1 0.2,-0.4c0.1,-0.1 0.2,-0.3 0.3,-0.4c0.1,-0.2 0.2,-0.4 0.3,-0.6c0.1,-0.2 0.2,-0.5 0.2,-0.7c0.1,-0.3 0.1,-0.5 0.2,-0.8c0.1,-0.3 0.1,-0.6 0.1,-0.9c0,-0.3 0,-0.6 0,-0.9c0,-0.6 -0.1,-1.3 -0.2,-1.8c-0.1,-0.6 -0.2,-1.1 -0.3,-1.6c-0.1,-1.1 -0.3,-1.7 -0.3,-1.7z" fill="#59402f"/><g fill="#59402f"><path d="M185.52442,114.2c0,0 0,0.2 -0.1,0.3c-0.1,0.2 -0.2,0.4 -0.4,0.6c-0.2,0.2 -0.4,0.4 -0.6,0.5c-0.2,0.1 -0.3,0.1 -0.3,0.1c0,0 0,-0.2 0.1,-0.3c0.1,-0.2 0.2,-0.4 0.4,-0.6c0.2,-0.2 0.4,-0.4 0.6,-0.5c0.1,0 0.3,-0.1 0.3,-0.1z"/><path d="M186.72442,115.6c0,0 0,0.1 -0.1,0.3c-0.1,0.2 -0.2,0.3 -0.3,0.5c-0.1,0.1 -0.3,0.3 -0.5,0.3c-0.2,0.1 -0.3,0.1 -0.3,0.1c0,0 0,-0.1 0.1,-0.3c0.1,-0.2 0.2,-0.3 0.3,-0.5c0.1,-0.1 0.3,-0.3 0.5,-0.3c0.1,-0.1 0.3,-0.1 0.3,-0.1z"/></g><path d="M189.62442,104.4c0,0 -0.3,-0.1 -0.7,-0.4c-0.5,-0.2 -1.2,-0.5 -2,-0.7c-0.2,-0.1 -0.4,-0.1 -0.7,-0.2c-0.2,0 -0.5,-0.1 -0.7,-0.1c-0.2,0 -0.5,0 -0.8,0c-0.3,0 -0.5,0 -0.8,0c-0.3,0 -0.5,0.1 -0.8,0.1c-0.3,0.1 -0.5,0.2 -0.8,0.2c-0.3,0.1 -0.5,0.2 -0.8,0.3c-0.2,0.1 -0.5,0.2 -0.7,0.4c-0.4,0.4 -0.9,0.7 -1.2,1.1c-0.4,0.4 -0.7,0.8 -1,1.3c-0.2,0.5 -0.6,0.9 -0.7,1.4c-0.2,0.5 -0.4,0.9 -0.6,1.3c-0.2,0.4 -0.3,0.8 -0.4,1.1c-0.1,0.3 -0.2,0.6 -0.3,0.9c-0.2,0.5 -0.3,0.8 -0.3,0.8c0,0 0,-0.3 0.1,-0.8c0,-0.3 0.1,-0.6 0.2,-0.9c0.1,-0.4 0.1,-0.8 0.3,-1.2c0.1,-0.4 0.3,-0.9 0.5,-1.4c0.1,-0.5 0.4,-1 0.7,-1.5c0.2,-0.5 0.6,-1 1,-1.5c0.3,-0.5 0.9,-0.9 1.3,-1.3c0.2,-0.2 0.5,-0.3 0.8,-0.5c0.3,-0.1 0.5,-0.3 0.8,-0.4c0.3,-0.1 0.6,-0.2 0.9,-0.2c0.3,0 0.6,-0.1 0.9,-0.1c0.3,0 0.6,0 0.8,0c0.3,0 0.5,0 0.8,0.1c0.3,0.1 0.5,0.1 0.7,0.2c0.2,0.1 0.5,0.2 0.7,0.2c0.4,0.1 0.8,0.3 1.1,0.5c0.3,0.2 0.6,0.3 0.8,0.5c0.7,0.6 0.9,0.8 0.9,0.8z" fill="#59402f"/></g></g></g></g></svg>