<svg version="1.1" xmlns="http://www.w3.org/2000/svg" xmlns:xlink="http://www.w3.org/1999/xlink" width="225.0901" height="158.87466" viewBox="0,0,225.0901,158.87466"><g transform="translate(-128.9,-101)"><g data-paper-data="{&quot;isPaintingLayer&quot;:true}" fill-rule="nonzero" stroke="none" stroke-width="1" stroke-linecap="butt" stroke-linejoin="miter" stroke-miterlimit="10" stroke-dasharray="" stroke-dashoffset="0" style="mix-blend-mode: normal"><g data-paper-data="{&quot;index&quot;:null}"><path d="M304.4901,140.7c17,-4.4 21.9,9.1 24.3,16.6c2.4,7.5 -4.5,23.9 -6.5,32.9c-2,9.1 -5.3,16.9 -3.1,29.4c2.9,16.1 -1.2,30.3 -3.2,30.8c-16.3,4.1 -24.1,4.3 -25.4,2.5c-1.3,-1.8 3.2,-4.8 5.2,-7.2c2,-2.4 -3.5,-10.9 -10,-24.7c-13,-27.5 -1.7,-51.9 -1.7,-51.9c0.4,-6.2 3.4,-24 20.4,-28.4z" fill="#856045"/><g><path d="M300.4901,253.5c0,0 0,-0.3 0.1,-0.8c0.1,-0.5 0.4,-1.1 0.8,-1.7c0.4,-0.5 0.9,-1 1.3,-1.2c0.4,-0.3 0.8,-0.4 0.8,-0.4c0,0 0,0.1 -0.1,0.2c-0.1,0.1 -0.2,0.3 -0.4,0.5c-0.3,0.4 -0.7,0.9 -1.1,1.4c-0.4,0.5 -0.7,1 -1,1.4c-0.2,0.3 -0.4,0.6 -0.4,0.6z" fill="#59402f"/><path d="M294.8901,253.2c0,0 0,-0.4 0.2,-0.9c0.2,-0.5 0.6,-1.2 1.1,-1.8c0.3,-0.3 0.5,-0.6 0.8,-0.8c0.3,-0.2 0.6,-0.4 0.9,-0.5c0.3,-0.1 0.5,-0.2 0.7,-0.2c0.2,0 0.3,-0.1 0.3,-0.1c0,0 -0.1,0.1 -0.2,0.2c-0.1,0.1 -0.3,0.3 -0.5,0.4c-0.4,0.4 -0.9,0.9 -1.4,1.4c-0.5,0.5 -0.9,1.1 -1.3,1.5c-0.4,0.5 -0.6,0.8 -0.6,0.8z" fill="#59402f"/><path d="M301.3901,254.8c0,-0.6 1,-3.3 2.1,-3.2c1.1,0.1 0.4,1.1 -0.2,1.8c-0.6,0.8 -1.9,1.8 -1.9,1.4z" fill="#665a52"/><path d="M295.8901,254.2c0,-0.6 1,-3.3 2.1,-3.2c1.1,0.1 0.4,1.1 -0.2,1.8c-0.6,0.7 -1.9,1.8 -1.9,1.4z" fill="#665a52"/><path d="M292.4901,253.9c0,-0.6 1,-3.3 2.1,-3.2c1.1,0.1 0.4,1.1 -0.2,1.8c-0.6,0.7 -2,1.8 -1.9,1.4z" fill="#665a52"/></g><path d="M319.3901,220.5c0,0 0.4,2.3 0.6,5.7c0.1,1.7 0.2,3.7 0.2,5.8c0,2.1 0,4.4 -0.2,6.7c-0.2,2.3 -0.5,4.6 -1.1,6.6c-0.3,1 -0.6,2 -1,2.9c-0.2,0.5 -0.5,0.9 -0.7,1.3c-0.1,0.2 -0.3,0.4 -0.4,0.6c-0.1,0.1 -0.1,0.2 -0.2,0.3c-0.1,0.1 -0.2,0.1 -0.3,0.1c-0.8,0.3 -1.6,0.5 -2.2,0.6c-0.7,0.2 -1.3,0.3 -1.8,0.4c-1,0.2 -1.5,0.3 -1.5,0.3c0,0 0.6,-0.1 1.5,-0.4c0.5,-0.1 1.1,-0.3 1.7,-0.5c0.7,-0.2 1.4,-0.4 2.2,-0.7c0.2,-0.1 0.3,-0.1 0.4,-0.4c0.1,-0.2 0.2,-0.4 0.4,-0.6c0.2,-0.4 0.4,-0.8 0.6,-1.3c0.4,-0.9 0.7,-1.9 0.9,-2.9c0.5,-2.1 0.8,-4.3 0.9,-6.6c0.2,-2.3 0.3,-4.5 0.3,-6.6c0,-2.1 0,-4.1 0,-5.8c-0.2,-3.2 -0.3,-5.5 -0.3,-5.5z" fill="#59402f"/><path d="M279.6901,182.2c0,0 0.2,4.3 0.8,10.8c0.3,3.2 0.7,7 1.2,11c0.3,2 0.6,4.1 0.9,6.2c0.4,2.1 0.8,4.2 1.4,6.2c0.3,1 0.7,2 1.2,2.9c0.5,1 1,1.9 1.5,2.8c1,1.9 2,3.7 2.9,5.5c1.9,3.6 3.6,7 4.8,10c0.6,1.5 1.1,2.9 1.4,4.2c0.3,1.3 0.4,2.5 0.2,3.4c-0.2,1 -0.9,1.5 -1.3,1.8c-0.4,0.3 -0.7,0.4 -0.7,0.4c0,0 0.2,-0.1 0.6,-0.5c0.4,-0.3 1,-0.8 1.1,-1.8c0.1,-0.9 -0.1,-2 -0.4,-3.3c-0.3,-1.3 -0.8,-2.6 -1.5,-4.1c-1.3,-2.9 -3.1,-6.3 -5,-9.9c-1,-1.8 -1.9,-3.6 -2.9,-5.5c-0.5,-0.9 -1,-1.9 -1.5,-2.9c-0.5,-1 -0.9,-2 -1.2,-3c-0.6,-2.1 -1,-4.2 -1.4,-6.3c-0.4,-2.1 -0.6,-4.2 -0.9,-6.2c-0.5,-4 -0.8,-7.8 -1,-11c-0.1,-6.4 -0.2,-10.7 -0.2,-10.7z" fill="#59402f"/></g><g data-paper-data="{&quot;index&quot;:null}"><path d="M278.5901,186.2c4.7,22.5 -13.3,26.8 -15.9,29c-1.3,1.1 -15.6,17.6 -15.6,17.6c0,0 5.9,8.1 2,13.5c-4,5.7 -22.8,-13.2 -21.9,-21.4c0.4,-3.2 14.7,-22.1 14.7,-22.1c0,0 -5.4,-4.8 -10.5,-20.4c-7.1,-21.8 34.9,-41.6 47.2,3.8z" fill="#856045"/><path d="M269.0901,167.1c0,0 8.5,9.6 10.8,9.3c0,0 -2.1,2 -4,0.5c0,0 4.5,1.6 5.8,5.9l-3,-0.8c0,0 4.4,6.1 4.3,10.4l-3,-2.9c0,0 3.7,6.2 -0.3,10.1" fill="#856045"/><path d="M279.6901,176.4c0,0 -0.2,0 -0.5,0c-0.3,-0.1 -0.8,-0.2 -1.3,-0.5c-1,-0.5 -2.2,-1.5 -3.4,-2.5c-0.6,-0.5 -1.1,-1.1 -1.6,-1.6c-0.5,-0.5 -0.9,-1 -1.3,-1.5c-0.7,-0.9 -1.1,-1.5 -1.1,-1.5c0,0 0.6,0.5 1.4,1.3c0.8,0.8 1.9,1.8 3,2.8c0.5,0.5 1.1,1 1.6,1.5c0.5,0.5 1,0.9 1.5,1.2c0.4,0.3 0.8,0.6 1.1,0.7c0.4,0 0.6,0.1 0.6,0.1z" fill="#59402f"/><path d="M281.6901,183c0,0 -0.3,-0.4 -0.6,-1c-0.4,-0.6 -0.9,-1.3 -1.5,-2c-0.3,-0.3 -0.6,-0.7 -0.9,-1c-0.2,-0.1 -0.3,-0.3 -0.4,-0.4c-0.1,-0.1 -0.3,-0.3 -0.4,-0.4c-0.3,-0.2 -0.5,-0.4 -0.7,-0.5c-0.2,-0.1 -0.3,-0.2 -0.3,-0.2c0,0 0.1,0 0.3,0.1c0.2,0 0.5,0.1 0.8,0.3c0.2,0.1 0.3,0.2 0.5,0.3c0.2,0.1 0.4,0.2 0.5,0.4c0.4,0.3 0.7,0.6 1,1c0.6,0.7 1,1.6 1.3,2.3c0.3,0.6 0.4,1.1 0.4,1.1z" fill="#59402f"/><path d="M283.0901,192.5c0,0 0,-0.7 -0.3,-1.8c-0.3,-1 -0.8,-2.4 -1.4,-3.6c-0.3,-0.6 -0.6,-1.3 -0.9,-1.9c-0.3,-0.6 -0.6,-1.1 -0.9,-1.6c-0.3,-0.5 -0.5,-0.9 -0.6,-1.1c-0.2,-0.3 -0.2,-0.4 -0.2,-0.4c0,0 0.1,0.1 0.3,0.4c0.2,0.2 0.5,0.6 0.8,1c0.7,0.9 1.5,2.1 2.1,3.4c0.3,0.7 0.6,1.4 0.8,2c0.2,0.7 0.3,1.3 0.4,1.8c0.1,0.5 0,1 0,1.3c0,0.3 -0.1,0.5 -0.1,0.5z" fill="#59402f"/><path d="M247.1901,232.5c0,0 2.1,-2.5 5.3,-6.2c1.6,-1.9 3.4,-4 5.4,-6.4c1,-1.1 2.1,-2.3 3.3,-3.4c1.2,-1.1 2.6,-2 4.1,-2.7c1.5,-0.7 2.9,-1.4 4.2,-2.3c1.3,-0.9 2.5,-2 3.6,-3c0.5,-0.5 1.1,-1 1.6,-1.5c0.5,-0.5 1,-1.1 1.4,-1.6c0.8,-1.1 1.4,-2.3 1.8,-3.4c0.9,-2.3 1.2,-4.3 1.4,-5.7c0.2,-1.4 0.1,-2.2 0.1,-2.2c0,0 0.1,0.8 0,2.2c-0.1,1.4 -0.3,3.5 -1.1,5.8c-0.4,1.2 -1,2.4 -1.8,3.6c-0.8,1.2 -1.9,2.3 -2.9,3.3c-1.1,1.1 -2.3,2.1 -3.6,3.1c-1.3,1 -2.8,1.7 -4.3,2.4c-1.5,0.6 -2.8,1.5 -4,2.6c-1.2,1 -2.3,2.1 -3.4,3.2c-1.1,1.1 -2,2.2 -2.9,3.3c-0.9,1 -1.8,2 -2.6,3c-3.4,3.5 -5.6,5.9 -5.6,5.9z" fill="#59402f"/><path d="M279.9901,199.3c0,0 0.4,-0.5 0.7,-1.4c0.1,-0.4 0.2,-1 0.3,-1.5c0,-0.3 0,-0.6 0,-0.9c0,-0.3 0,-0.6 -0.1,-0.9c0,-0.3 -0.1,-0.6 -0.1,-0.9c0,-0.3 -0.1,-0.6 -0.2,-0.9c-0.1,-0.6 -0.2,-1.1 -0.3,-1.6c-0.1,-0.5 -0.2,-0.8 -0.3,-1.1c-0.1,-0.3 -0.1,-0.4 -0.1,-0.4c0,0 0.1,0.1 0.2,0.4c0.1,0.3 0.3,0.6 0.5,1c0.2,0.4 0.4,1 0.6,1.6c0.1,0.3 0.2,0.6 0.2,0.9c0,0.3 0.1,0.6 0.1,1c0.1,0.6 0.1,1.3 -0.1,1.9c0,0.3 -0.1,0.6 -0.2,0.9c-0.1,0.3 -0.2,0.5 -0.3,0.7c-0.2,0.4 -0.5,0.8 -0.7,1c-0.1,0.2 -0.2,0.2 -0.2,0.2z" fill="#59402f"/><path d="M229.6901,232.3c-0.6,-0.5 -1,-1.1 -1.4,-1.7c-0.4,-0.6 -0.7,-1.3 -0.9,-2c-0.2,-0.7 -0.4,-1.4 -0.5,-2.2c0,-0.4 -0.1,-0.7 -0.1,-1.1c0,-0.4 0.1,-0.8 0.2,-1.1c0.5,-1.4 1.2,-2.7 1.9,-4c0.7,-1.3 1.5,-2.5 2.3,-3.8c1.6,-2.5 3.3,-4.9 4.9,-7.3c1.7,-2.4 3.5,-4.7 5.2,-7.1v0.4c-1.5,-1.8 -2.8,-3.8 -3.9,-5.9c-0.6,-1 -1.1,-2.1 -1.5,-3.2c-0.2,-0.5 -0.4,-1.1 -0.6,-1.6c-0.2,-0.5 -0.4,-1.1 -0.5,-1.7c0.4,1.1 0.9,2.2 1.4,3.2c0.5,1 1.1,2.1 1.6,3.1c0.6,1 1.2,2 1.9,2.9c0.7,0.9 1.4,1.9 2.1,2.7l0.2,0.2l-0.2,0.2c-1.8,2.3 -3.5,4.7 -5.2,7.1c-1.7,2.4 -3.4,4.8 -5,7.2c-0.8,1.2 -1.6,2.4 -2.3,3.7c-0.7,1.3 -1.5,2.5 -2,3.9c-0.1,0.3 -0.2,0.7 -0.2,1c0,0.3 0,0.7 0.1,1.1c0.1,0.7 0.2,1.4 0.4,2.1c0.2,0.7 0.4,1.4 0.8,2c0.4,0.8 0.8,1.4 1.3,1.9z" fill="#59402f"/><g><path d="M250.1901,239.3c0,0 -0.3,0.1 -0.8,0.1c-0.5,0 -1.2,-0.2 -1.8,-0.5c-0.6,-0.3 -1.1,-0.7 -1.4,-1.1c-0.3,-0.4 -0.5,-0.7 -0.5,-0.7c0,0 0.1,0 0.2,0.1c0.1,0.1 0.3,0.2 0.5,0.3c0.4,0.2 1,0.5 1.5,0.8c0.5,0.3 1.1,0.5 1.5,0.7c0.4,0.2 0.8,0.3 0.8,0.3z" fill="#59402f"/><path d="M250.3901,244.9c0,0 -0.4,0 -1,-0.1c-0.6,-0.1 -1.3,-0.4 -2,-0.8c-0.3,-0.2 -0.6,-0.5 -0.9,-0.7c-0.3,-0.3 -0.5,-0.5 -0.6,-0.8c-0.2,-0.2 -0.3,-0.5 -0.3,-0.6c-0.1,-0.2 -0.1,-0.2 -0.1,-0.2c0,0 0.1,0.1 0.2,0.2c0.1,0.1 0.3,0.3 0.5,0.4c0.4,0.4 1,0.8 1.6,1.2c0.6,0.4 1.2,0.7 1.7,1c0.5,0.2 0.9,0.4 0.9,0.4z" fill="#59402f"/><path d="M251.3901,238.2c-0.6,0.1 -3.4,-0.4 -3.5,-1.6c-0.1,-1.1 1.1,-0.5 1.9,-0.1c0.7,0.5 2,1.6 1.6,1.7z" fill="#6c5f57"/><path d="M251.5901,243.7c-0.6,0.1 -3.4,-0.4 -3.5,-1.6c-0.1,-1.1 1.1,-0.5 1.9,-0.1c0.8,0.4 2,1.6 1.6,1.7z" fill="#6c5f57"/><path d="M249.9901,247.1c-0.6,0.1 -3.4,-0.4 -3.5,-1.6c-0.1,-1.1 1.1,-0.5 1.9,-0.1c0.7,0.4 2,1.6 1.6,1.7z" fill="#6c5f57"/></g><path d="M239.8901,204.9c0,0 0.1,-0.5 0.4,-1.1c0.2,-0.3 0.4,-0.6 0.7,-1c0.3,-0.3 0.6,-0.6 1,-0.9c0.4,-0.3 0.8,-0.5 1.1,-0.7c0.4,-0.2 0.8,-0.3 1.1,-0.4c0.3,-0.1 0.6,-0.1 0.8,-0.2c0.2,0 0.3,0 0.3,0c0,0 -0.1,0.1 -0.3,0.2c-0.2,0.1 -0.4,0.2 -0.7,0.4c-0.3,0.2 -0.6,0.4 -1,0.6c-0.3,0.2 -0.7,0.5 -1,0.7c-0.7,0.5 -1.3,1.1 -1.7,1.6c-0.4,0.4 -0.7,0.8 -0.7,0.8z" fill="#59402f"/></g><g data-paper-data="{&quot;index&quot;:null}"><g><path d="M331.7901,140.6c0,0 10.4,-3.7 21.1,12c0,0 -3.1,-2.6 -5,-2.6c0,0 4.9,1.7 6.1,10c0,0 -1.8,-3.3 -3.2,-3.6c0,0 6.8,9.4 -3.3,11.1c-10.2,1.7 -18.1,-24.7 -15.7,-26.9z" fill="#8d674a"/><path d="M352.8901,152.5c0,0 -0.2,-0.3 -0.6,-0.8c-0.4,-0.5 -1,-1.2 -1.7,-2c-0.7,-0.8 -1.6,-1.7 -2.5,-2.7c-0.5,-0.5 -1,-0.9 -1.5,-1.4c-0.5,-0.5 -1.1,-0.9 -1.7,-1.3c-0.6,-0.4 -1.2,-0.8 -1.7,-1.2c-0.6,-0.3 -1.2,-0.7 -1.8,-1c-0.6,-0.2 -1.2,-0.6 -1.8,-0.7c-0.6,-0.2 -1.1,-0.4 -1.7,-0.5c-0.5,-0.1 -1,-0.2 -1.4,-0.3c-0.4,-0.1 -0.8,0 -1.1,-0.1c-0.6,0 -1,-0.1 -1,-0.1c0,0 0.4,0 1,-0.1c0.3,0 0.7,-0.1 1.2,-0.1c0.4,0 0.9,0.1 1.5,0.1c0.5,0.1 1.1,0.3 1.7,0.4c0.6,0.1 1.2,0.4 1.9,0.7c0.6,0.3 1.2,0.6 1.9,1c0.6,0.4 1.2,0.8 1.8,1.2c0.6,0.5 1.2,0.9 1.7,1.4c0.5,0.5 1.1,1 1.5,1.5c1,1 1.7,2 2.4,2.9c1.2,1.9 1.9,3.1 1.9,3.1z" fill="#59402f"/><path d="M347.8901,150c0,0 0.7,0.3 1.6,1.1c0.5,0.4 0.9,0.8 1.4,1.3c0.5,0.5 1,1.1 1.4,1.8c0.4,0.7 0.8,1.3 1,2c0.1,0.3 0.2,0.7 0.3,1c0.1,0.3 0.2,0.6 0.2,0.9c0.1,0.6 0.1,1 0.1,1.4c0,0.3 0,0.5 0,0.5c0,0 0,-0.2 -0.1,-0.5c0,-0.2 -0.1,-0.4 -0.1,-0.6c-0.1,-0.2 -0.1,-0.5 -0.2,-0.7c-0.1,-0.3 -0.2,-0.5 -0.3,-0.8c-0.1,-0.3 -0.2,-0.6 -0.4,-0.9c-0.1,-0.3 -0.3,-0.6 -0.5,-0.9c-0.2,-0.3 -0.4,-0.6 -0.6,-0.9c-0.8,-1.3 -1.7,-2.4 -2.5,-3.2c-0.7,-1 -1.3,-1.5 -1.3,-1.5z" fill="#59402f"/><path d="M350.6901,156.4c0,0 0.5,0.4 1,1.1c0.3,0.4 0.6,0.8 0.8,1.3c0.3,0.5 0.4,1.1 0.6,1.7c0.1,0.6 0.2,1.2 0.1,1.8c0,0.3 -0.1,0.6 -0.2,0.8c-0.1,0.3 -0.1,0.5 -0.2,0.7c-0.2,0.4 -0.4,0.7 -0.5,1c-0.2,0.2 -0.2,0.3 -0.2,0.3c0,0 0,-0.1 0.1,-0.4c0,-0.1 0.1,-0.3 0.2,-0.4c0,-0.2 0.1,-0.4 0.1,-0.6c0.1,-0.2 0.1,-0.4 0.1,-0.7c0,-0.2 0.1,-0.5 0.1,-0.8c0,-0.3 0,-0.5 0,-0.8c0,-0.3 -0.1,-0.6 -0.1,-0.8c-0.1,-0.6 -0.3,-1.1 -0.5,-1.6c-0.2,-0.5 -0.4,-1 -0.6,-1.4c-0.4,-0.7 -0.8,-1.2 -0.8,-1.2z" fill="#59402f"/></g><g><path d="M217.0901,196.7c-3,2 -9.8,-3.8 -9.8,-3.8l-1.2,2c0,-3.4 -7.4,-8 -7.4,-8l0.8,2.6c-6.6,-2.6 -7.6,-11.4 -7.6,-11.4l-0.2,2.8c-3.4,-3.2 -3.4,-11 -3.4,-11" fill="#8d674a"/><g><path d="M212.1901,114.7c18,-5.7 41.7,3.6 53,7.7c16.4,6 36.2,-10.1 63.1,11.7c26.9,21.8 21.8,54.8 1.8,71c-22.4,18.1 -101.9,18.6 -116.1,-9.7c0,0 -26.4,-10.1 -27.7,-37.4" fill="#8d674a"/><path d="M188.1901,170c0,0 0.2,0.7 0.4,1.7c0.2,1 0.5,2.4 0.8,3.8c0.1,0.3 0.2,0.7 0.3,1c0.1,0.3 0.2,0.7 0.3,1c0.2,0.6 0.4,1.2 0.6,1.7c0.1,0.2 0.2,0.5 0.3,0.6c0.1,0.2 0.2,0.4 0.3,0.5c0.2,0.2 0.3,0.4 0.3,0.4c0,0 -0.1,-0.1 -0.4,-0.3c-0.1,-0.1 -0.3,-0.2 -0.4,-0.4c-0.2,-0.2 -0.3,-0.4 -0.5,-0.6c-0.3,-0.4 -0.6,-1 -0.8,-1.6c-0.3,-0.6 -0.4,-1.3 -0.6,-2c-0.3,-1.4 -0.5,-2.8 -0.5,-3.9c-0.2,-1.2 -0.1,-1.9 -0.1,-1.9z" fill="#59402f"/><path d="M191.8901,178c0,0 0.2,0.9 0.6,2.1c0.2,0.6 0.5,1.4 0.8,2.1c0.1,0.4 0.4,0.8 0.5,1.1c0.2,0.4 0.4,0.8 0.6,1.1c0.2,0.4 0.4,0.8 0.7,1.1c0.3,0.3 0.5,0.7 0.8,1c0.3,0.3 0.5,0.6 0.8,0.9c0.3,0.2 0.5,0.5 0.8,0.7c0.3,0.2 0.5,0.4 0.7,0.6c0.2,0.1 0.4,0.3 0.6,0.4c0.3,0.2 0.5,0.3 0.5,0.3c0,0 -0.2,-0.1 -0.6,-0.2c-0.2,-0.1 -0.4,-0.2 -0.7,-0.3c-0.2,-0.1 -0.5,-0.3 -0.8,-0.5c-0.3,-0.2 -0.6,-0.4 -0.9,-0.6c-0.3,-0.2 -0.6,-0.5 -0.9,-0.8c-0.3,-0.3 -0.6,-0.7 -0.9,-1c-0.3,-0.4 -0.5,-0.8 -0.8,-1.1c-0.4,-0.8 -0.9,-1.6 -1.1,-2.4c-0.3,-0.8 -0.5,-1.6 -0.6,-2.2c-0.1,-1.4 -0.1,-2.3 -0.1,-2.3z" fill="#59402f"/><path d="M198.6901,187c0,0 0.7,0.2 1.6,0.7c0.5,0.3 1,0.6 1.5,1c0.5,0.4 1.1,0.8 1.6,1.3c0.5,0.5 1,1 1.4,1.6c0.4,0.5 0.7,1.1 0.9,1.6c0.1,0.3 0.2,0.5 0.2,0.7c0.1,0.2 0.1,0.4 0.1,0.5c0.1,0.3 0.1,0.5 0.1,0.5c0,0 -0.1,-0.2 -0.2,-0.4c0,-0.2 0,-0.4 -0.2,-0.5c-0.1,-0.2 -0.2,-0.4 -0.3,-0.6c-0.1,-0.2 -0.3,-0.4 -0.5,-0.7c-0.2,-0.2 -0.4,-0.5 -0.6,-0.7c-0.4,-0.5 -0.9,-1 -1.4,-1.5c-0.5,-0.5 -1,-0.9 -1.5,-1.3c-0.5,-0.4 -1,-0.8 -1.4,-1.1c-0.7,-0.7 -1.3,-1.1 -1.3,-1.1z" fill="#59402f"/><path d="M207.2901,192.9c0,0 0.6,0.4 1.5,1c0.5,0.3 1,0.6 1.5,0.9c0.6,0.3 1.2,0.7 1.8,1c0.6,0.3 1.3,0.6 1.9,0.8c0.3,0.1 0.6,0.2 0.9,0.3c0.3,0.1 0.6,0.1 0.8,0.2c0.3,0 0.5,0.1 0.7,0.1c0.2,0 0.4,0 0.6,0c0.3,0 0.5,0 0.5,0c0,0 -0.2,0 -0.5,0.1c-0.2,0 -0.3,0.1 -0.6,0.1c-0.2,0 -0.5,0 -0.7,0c-0.5,0 -1.2,-0.1 -1.8,-0.3c-0.7,-0.2 -1.3,-0.4 -2,-0.8c-0.6,-0.3 -1.3,-0.7 -1.8,-1.1c-0.6,-0.4 -1.1,-0.8 -1.5,-1.1c-0.8,-0.6 -1.3,-1.2 -1.3,-1.2z" fill="#59402f"/><path d="M231.8901,113.4c0,0 3.1,0.2 7.7,1c2.3,0.4 5,0.9 7.8,1.7c2.8,0.7 5.8,1.6 8.7,2.6c2.9,1.1 5.7,2.4 8.4,3.4c1.4,0.5 2.7,0.8 4,1.1c1.3,0.3 2.5,0.4 3.7,0.5c1.1,0.1 2.2,0.1 3.1,0.2c0.9,0 1.8,0 2.4,0c1.4,0 2.1,0 2.1,0c0,0 -0.8,0.1 -2.1,0.1c-0.7,0 -1.5,0 -2.4,0.1c-0.9,0 -2,0 -3.2,-0.1c-1.2,-0.1 -2.4,-0.2 -3.7,-0.4c-1.3,-0.2 -2.7,-0.6 -4.1,-1c-1.4,-0.4 -2.8,-1 -4.2,-1.6c-1.4,-0.6 -2.8,-1.2 -4.3,-1.7c-1.5,-0.5 -2.9,-1 -4.4,-1.4c-1.5,-0.4 -2.9,-0.9 -4.3,-1.2c-2.8,-0.7 -5.4,-1.3 -7.7,-1.8c-2.3,-0.5 -4.2,-0.8 -5.5,-1.1c-1.3,-0.3 -2,-0.4 -2,-0.4z" fill="#59402f"/><path d="M305.8901,123.1c0,0 1.2,0.2 3.2,0.9c2,0.6 4.9,1.6 8.3,3.1c3.3,1.5 7.1,3.6 10.8,6.4c3.7,2.8 7.2,6.2 10,10.2c1.4,2 2.6,4.2 3.6,6.4c1.1,2.1 2,4.3 2.8,6.5c0.8,2.2 1.5,4.3 1.9,6.3c0.4,2.1 0.6,4.1 0.7,5.9c0,3.7 -0.6,6.7 -0.9,8.8c-0.4,2.1 -0.6,3.3 -0.6,3.3c0,0 0.2,-1.2 0.5,-3.3c0.3,-2.1 0.7,-5.1 0.6,-8.8c-0.1,-1.8 -0.3,-3.8 -0.8,-5.8c-0.5,-2 -1.2,-4.1 -1.9,-6.2c-0.8,-2.1 -1.8,-4.3 -2.8,-6.4c-1,-2.2 -2.2,-4.3 -3.6,-6.3c-2.7,-4 -6.2,-7.4 -9.8,-10.2c-3.6,-2.8 -7.3,-4.9 -10.6,-6.5c-3.3,-1.6 -6.1,-2.7 -8.1,-3.4c-2.2,-0.6 -3.3,-0.9 -3.3,-0.9z" fill="#59402f"/><path d="M219.3901,202.8c0,0 0.4,0.3 1,0.7c0.7,0.5 1.7,1.1 3,1.9c0.7,0.4 1.4,0.8 2.2,1.2c0.8,0.4 1.7,0.9 2.6,1.3c1,0.4 2,0.9 3.1,1.4c1.1,0.5 2.2,0.9 3.4,1.4c1.2,0.5 2.5,0.9 3.8,1.4c1.3,0.5 2.7,0.9 4.1,1.3c2.9,0.8 5.9,1.6 9.1,2.2c0.8,0.2 1.6,0.3 2.4,0.5c0.8,0.1 1.6,0.2 2.5,0.4c0.8,0.1 1.7,0.2 2.5,0.4c0.8,0.1 1.7,0.2 2.5,0.3c0.8,0.1 1.7,0.2 2.6,0.2c0.9,0.1 1.7,0.2 2.6,0.2c1.7,0.1 3.5,0.1 5.2,0.2c3.5,-0.1 6.9,-0.1 10.3,-0.3c3.4,-0.2 6.8,-0.5 10,-0.8c1.6,-0.2 3.2,-0.4 4.8,-0.6c1.6,-0.2 3.1,-0.4 4.5,-0.6c2.9,-0.5 5.7,-1 8.3,-1.6c2.5,-0.6 4.8,-1.2 6.9,-1.8c1,-0.3 1.9,-0.7 2.8,-1c0.8,-0.4 1.6,-0.6 2.3,-1c1.4,-0.6 2.4,-1.2 3.1,-1.7c0.7,-0.5 1,-0.8 1,-0.8c0,0 -0.3,0.3 -1,0.8c-0.7,0.4 -1.7,1.1 -3.1,1.7c-0.7,0.4 -1.5,0.7 -2.3,1c-0.9,0.3 -1.8,0.7 -2.8,1c-2,0.7 -4.3,1.4 -6.8,2c-2.5,0.6 -5.3,1.2 -8.3,1.7c-1.5,0.2 -3,0.5 -4.5,0.7c-1.6,0.2 -3.2,0.4 -4.8,0.6c-3.2,0.3 -6.6,0.7 -10,0.9c-3.4,0.3 -6.9,0.3 -10.4,0.4c-1.7,-0.1 -3.5,-0.1 -5.2,-0.2c-0.9,0 -1.7,-0.1 -2.6,-0.2c-0.9,-0.1 -1.7,-0.2 -2.6,-0.2c-0.9,-0.1 -1.7,-0.1 -2.5,-0.3c-0.8,-0.1 -1.7,-0.3 -2.5,-0.4c-0.8,-0.1 -1.7,-0.3 -2.5,-0.4c-0.8,-0.1 -1.6,-0.3 -2.4,-0.5c-3.2,-0.6 -6.3,-1.5 -9.1,-2.3c-1.4,-0.5 -2.8,-0.9 -4.1,-1.4c-1.3,-0.5 -2.6,-1 -3.8,-1.5c-1.2,-0.5 -2.4,-1 -3.4,-1.5c-1.1,-0.5 -2.1,-1 -3,-1.5c-0.9,-0.5 -1.8,-1 -2.6,-1.4c-0.8,-0.5 -1.5,-0.9 -2.2,-1.3c-1.3,-0.8 -2.3,-1.5 -3,-1.9c-0.7,-0.3 -1.1,-0.6 -1.1,-0.6z" fill="#59402f"/></g></g></g><g data-paper-data="{&quot;index&quot;:null}"><path d="M314.2901,188.9c0,0 6.6,11 9,11.1c0,0 -2.4,1.6 -4,-0.2c0,0 4.2,2.3 4.7,6.9l-2.8,-1.3c0,0 3.3,6.8 2.4,11l-2.5,-3.4c0,0 2.6,6.8 -2.1,9.9" fill="#856045"/><path d="M323.0901,199.9c0,0 -0.2,0 -0.5,-0.1c-0.3,-0.1 -0.7,-0.4 -1.2,-0.7c-0.9,-0.7 -2,-1.8 -2.9,-3.1c-0.5,-0.6 -0.9,-1.2 -1.3,-1.8c-0.4,-0.6 -0.7,-1.2 -1,-1.7c-0.5,-1 -0.9,-1.7 -0.9,-1.7c0,0 0.5,0.6 1.2,1.5c0.7,0.9 1.6,2.1 2.5,3.3c0.4,0.6 0.9,1.2 1.3,1.7c0.4,0.5 0.9,1 1.2,1.4c0.4,0.4 0.7,0.7 1,0.9c0.5,0.3 0.6,0.3 0.6,0.3z" fill="#59402f"/><path d="M323.7901,206.6c0,0 -0.2,-0.4 -0.4,-1c-0.3,-0.6 -0.6,-1.4 -1,-2.2c-0.2,-0.4 -0.4,-0.7 -0.7,-1.1c-0.2,-0.3 -0.5,-0.6 -0.7,-0.9c-0.2,-0.2 -0.4,-0.5 -0.6,-0.6c-0.1,-0.1 -0.2,-0.2 -0.2,-0.2c0,0 0.1,0 0.3,0.1c0.2,0.1 0.5,0.2 0.7,0.4c0.3,0.2 0.6,0.5 0.9,0.8c0.3,0.3 0.6,0.7 0.8,1.1c0.2,0.4 0.4,0.8 0.5,1.2c0.1,0.4 0.2,0.8 0.3,1.1c0.2,0.8 0.1,1.3 0.1,1.3z" fill="#59402f"/><path d="M323.3901,215.9c0,0 0.2,-0.7 0.1,-1.7c0,-0.5 -0.1,-1.1 -0.2,-1.7c-0.1,-0.6 -0.2,-1.3 -0.4,-1.9c-0.2,-0.7 -0.4,-1.3 -0.6,-1.9c-0.2,-0.6 -0.4,-1.2 -0.5,-1.7c-0.2,-0.5 -0.3,-0.9 -0.4,-1.2c-0.1,-0.3 -0.1,-0.5 -0.1,-0.5c0,0 0.1,0.1 0.3,0.4c0.1,0.3 0.4,0.6 0.6,1.1c0.2,0.5 0.5,1 0.7,1.6c0.3,0.6 0.5,1.3 0.6,1.9c0.2,0.7 0.3,1.4 0.4,2c0.1,0.7 0.1,1.3 0,1.8c-0.1,0.5 -0.2,1 -0.3,1.2c-0.1,0.4 -0.2,0.6 -0.2,0.6z" fill="#59402f"/><path d="M320.2901,221.7c0,0 0.1,-0.1 0.2,-0.3c0.1,-0.2 0.3,-0.5 0.4,-0.9c0.2,-0.8 0.4,-1.8 0.4,-2.9c0,-1.1 -0.1,-2.2 -0.1,-3c-0.1,-0.8 -0.1,-1.4 -0.1,-1.4c0,0 0.1,0.1 0.1,0.4c0.1,0.2 0.2,0.6 0.3,1c0.1,0.4 0.2,0.9 0.3,1.4c0,0.3 0.1,0.5 0.1,0.8c0,0.3 0,0.6 0,0.8c0,0.6 -0.1,1.1 -0.2,1.7c-0.1,0.5 -0.3,1 -0.5,1.4c-0.2,0.4 -0.5,0.7 -0.6,0.8c-0.2,0.1 -0.3,0.2 -0.3,0.2z" fill="#59402f"/></g><g data-paper-data="{&quot;index&quot;:null}"><path d="M302.2901,141.7c14,-10.7 26.6,-2.2 31.8,3.8c5.2,6 4.1,22.6 5.8,31.7c1.7,9.1 2.6,21.4 5.9,33.7c4.5,16.3 4.3,38.7 2.8,40c-3.7,3.2 -23.2,9.6 -25.1,8.5c-1.9,-1.2 3.1,-7.4 4.1,-10.4c1,-3 -15.5,-24.4 -17.7,-28c-6.9,-11.2 -15.2,-45.2 -15.2,-45.2c-2,-5.9 -6.2,-23.4 7.6,-34.1z" fill="#8d674a"/><g><path d="M330.8901,257.9c0,0 -0.1,-0.3 -0.1,-0.8c0,-0.5 0.2,-1.2 0.5,-1.8c0.3,-0.6 0.7,-1.1 1.1,-1.5c0.4,-0.3 0.7,-0.5 0.7,-0.5c0,0 0,0.1 -0.1,0.2c-0.1,0.1 -0.2,0.3 -0.3,0.5c-0.2,0.4 -0.5,1 -0.8,1.5c-0.3,0.6 -0.5,1.1 -0.7,1.6c-0.2,0.5 -0.3,0.8 -0.3,0.8z" fill="#59402f"/><path d="M325.3901,258.7c0,0 0,-0.4 0.1,-1c0.1,-0.6 0.3,-1.3 0.7,-2c0.2,-0.3 0.4,-0.7 0.7,-0.9c0.2,-0.3 0.5,-0.5 0.8,-0.7c0.2,-0.2 0.5,-0.3 0.6,-0.4c0.2,-0.1 0.2,-0.1 0.2,-0.1c0,0 -0.1,0.1 -0.2,0.2c-0.1,0.1 -0.3,0.3 -0.4,0.5c-0.3,0.4 -0.8,1 -1.1,1.6c-0.4,0.6 -0.7,1.3 -1,1.8c-0.3,0.7 -0.4,1 -0.4,1z" fill="#59402f"/><path d="M331.9901,259.1c-0.1,-0.6 0.3,-3.4 1.5,-3.6c1.1,-0.2 0.6,1.1 0.2,1.9c-0.5,0.8 -1.6,2.1 -1.7,1.7z" fill="#6c5f57"/><path d="M326.4901,259.5c-0.1,-0.6 0.3,-3.4 1.5,-3.6c1.1,-0.2 0.6,1.1 0.2,1.9c-0.5,0.8 -1.6,2.1 -1.7,1.7z" fill="#6c5f57"/><path d="M323.0901,259.8c-0.1,-0.6 0.3,-3.4 1.5,-3.6c1.1,-0.2 0.6,1.1 0.2,1.9c-0.5,0.8 -1.6,2.1 -1.7,1.7z" fill="#6c5f57"/></g><g><path d="M341.0901,187.5c0,0 6.9,10.8 9.3,10.9c0,0 -2.4,1.6 -4,-0.1c0,0 4.2,2.2 4.9,6.7l-2.8,-1.2c0,0 3.4,6.7 2.6,11l-2.5,-3.4c0,0 2.7,6.7 -1.8,9.9" fill="#8d674a"/><path d="M350.1901,198.3c0,0 -0.2,0 -0.5,-0.1c-0.3,-0.1 -0.7,-0.4 -1.2,-0.7c-0.9,-0.7 -2,-1.8 -3,-3c-0.5,-0.6 -0.9,-1.2 -1.3,-1.8c-0.4,-0.6 -0.7,-1.2 -1,-1.6c-0.6,-1 -0.9,-1.7 -0.9,-1.7c0,0 0.5,0.6 1.2,1.5c0.7,0.9 1.6,2.1 2.6,3.2c0.5,0.6 0.9,1.2 1.4,1.7c0.5,0.5 0.9,1 1.3,1.4c0.4,0.4 0.7,0.7 1,0.9c0.2,0.2 0.4,0.2 0.4,0.2z" fill="#59402f"/><path d="M350.9901,204.9c0,0 -0.2,-0.4 -0.4,-1c-0.3,-0.6 -0.6,-1.4 -1.1,-2.1c-0.2,-0.4 -0.5,-0.7 -0.7,-1c-0.2,-0.3 -0.5,-0.6 -0.7,-0.8c-0.2,-0.2 -0.4,-0.4 -0.6,-0.6c-0.1,-0.1 -0.2,-0.2 -0.2,-0.2c0,0 0.1,0 0.3,0.1c0.2,0.1 0.5,0.2 0.7,0.4c0.3,0.2 0.6,0.4 0.9,0.8c0.3,0.3 0.6,0.7 0.8,1.1c0.2,0.4 0.4,0.8 0.6,1.2c0.1,0.4 0.2,0.8 0.3,1.1c0.1,0.6 0.1,1 0.1,1z" fill="#59402f"/><path d="M350.7901,214.2c0,0 0.2,-0.7 0.1,-1.7c0,-0.5 -0.1,-1.1 -0.2,-1.7c-0.1,-0.6 -0.3,-1.3 -0.5,-1.9c-0.2,-0.6 -0.4,-1.3 -0.6,-1.9c-0.2,-0.6 -0.4,-1.2 -0.6,-1.6c-0.2,-0.5 -0.3,-0.9 -0.4,-1.2c-0.1,-0.3 -0.2,-0.5 -0.2,-0.5c0,0 0.1,0.1 0.3,0.4c0.2,0.3 0.4,0.6 0.7,1.1c0.2,0.5 0.5,1 0.8,1.6c0.3,0.6 0.5,1.3 0.7,1.9c0.2,0.7 0.3,1.4 0.4,2c0.1,0.7 0.1,1.3 0,1.8c0,0.5 -0.2,1 -0.3,1.2c-0.1,0.4 -0.2,0.5 -0.2,0.5z" fill="#59402f"/><path d="M347.7901,220.1c0,0 0.1,-0.1 0.2,-0.3c0.1,-0.2 0.3,-0.5 0.4,-0.9c0.2,-0.8 0.3,-1.8 0.3,-2.9c0,-1.1 -0.1,-2.2 -0.2,-3c-0.1,-0.8 -0.1,-1.4 -0.1,-1.4c0,0 0.1,0.1 0.1,0.4c0.1,0.2 0.2,0.6 0.3,1c0.1,0.4 0.3,0.9 0.3,1.4c0,0.3 0.1,0.5 0.1,0.8c0,0.3 0,0.6 0.1,0.8c0,0.6 0,1.1 -0.1,1.7c-0.1,0.5 -0.3,1 -0.5,1.4c-0.2,0.4 -0.4,0.7 -0.6,0.8c-0.1,0.2 -0.3,0.2 -0.3,0.2z" fill="#59402f"/></g><path d="M346.8901,211.4c0,0 0.4,2.6 0.9,6.6c0.2,2 0.5,4.3 0.8,6.8c0.2,2.5 0.5,5.1 0.7,7.8c0.2,2.7 0.3,5.3 0.4,7.8c0.1,2.5 0,4.8 -0.1,6.8c-0.1,1 -0.2,1.9 -0.4,2.7c0,0.2 -0.1,0.4 -0.2,0.6c-0.1,0.2 -0.1,0.4 -0.3,0.5c-0.3,0.3 -0.6,0.4 -0.8,0.5c-1,0.5 -1.7,0.8 -1.7,0.8c0,0 0.6,-0.3 1.6,-0.9c0.2,-0.2 0.5,-0.3 0.7,-0.6c0.1,-0.1 0.1,-0.3 0.2,-0.5c0.1,-0.2 0.1,-0.4 0.1,-0.6c0.2,-0.8 0.2,-1.7 0.3,-2.7c0.1,-2 0,-4.3 -0.1,-6.8c-0.1,-2.5 -0.3,-5.1 -0.4,-7.8c-0.2,-2.7 -0.4,-5.3 -0.6,-7.8c-0.2,-2.5 -0.4,-4.8 -0.6,-6.8c-0.3,-3.7 -0.5,-6.4 -0.5,-6.4z" fill="#59402f"/><path d="M299.7901,195.2c0,0 1.1,3.9 3.2,9.6c1,2.9 2.2,6.2 3.8,9.6c0.8,1.7 1.6,3.5 2.6,5.2l0.8,1.2l0.9,1.2c0.6,0.8 1.2,1.6 1.8,2.4c2.4,3.3 4.8,6.5 6.9,9.7c2.2,3.1 4.1,6.1 5.5,8.8c0.8,1.3 1.3,2.6 1.9,3.7c0.3,0.5 0.6,1 0.7,1.6c0.1,0.6 0,1.1 -0.2,1.5c-0.3,0.8 -0.7,1.4 -1,1.8c-0.3,0.4 -0.4,0.6 -0.4,0.6c0,0 0.1,-0.2 0.4,-0.6c0.2,-0.4 0.6,-1 0.9,-1.8c0.1,-0.4 0.3,-0.9 0.1,-1.4c-0.1,-0.5 -0.5,-1 -0.8,-1.5c-0.7,-1.1 -1.2,-2.3 -2,-3.6c-1.5,-2.6 -3.5,-5.5 -5.7,-8.6c-2.2,-3.1 -4.6,-6.3 -7,-9.6c-0.6,-0.8 -1.2,-1.6 -1.8,-2.5l-0.9,-1.2l-0.8,-1.3c-1,-1.7 -1.9,-3.5 -2.6,-5.2c-0.8,-1.7 -1.4,-3.5 -2,-5.1c-0.6,-1.6 -1.1,-3.2 -1.6,-4.6c-0.9,-2.9 -1.6,-5.3 -2.1,-7c-0.4,-1.9 -0.6,-2.9 -0.6,-2.9z" fill="#59402f"/></g><g data-paper-data="{&quot;index&quot;:null}"><g fill="#8d674a"><path d="M252.1901,197.6c-3.8,22.7 -26.5,58.3 -29.7,59.4c-3.2,1.2 -28.2,-0.3 -26.8,-3.3c1.4,-3 5.9,-5.6 7.9,-8.1c2,-2.5 7.8,-25.9 8.5,-32.4c0.6,-6.5 -4.1,-13.4 -2.5,-36.2c1.6,-22.8 47.6,-26.1 42.6,20.6z"/><path d="M250.0901,175.4c0,0 4.7,11.9 7,12.4c0,0 -2.7,1.1 -3.9,-0.9c0,0 3.7,3 3.5,7.5l-2.5,-1.8c0,0 2.1,7.2 0.5,11.3l-1.8,-3.8c0,0 1.4,7.1 -3.7,9.4"/></g><g fill="#59402f"><path d="M257.6901,188.3c0,0 -0.2,0 -0.5,-0.2c-0.3,-0.2 -0.6,-0.5 -1,-1c-0.8,-0.9 -1.6,-2.2 -2.2,-3.6c-0.3,-0.7 -0.6,-1.4 -0.9,-2c-0.3,-0.7 -0.5,-1.3 -0.7,-1.8c-0.3,-1.1 -0.5,-1.8 -0.5,-1.8c0,0 0.4,0.7 0.9,1.7c0.5,1 1.1,2.4 1.8,3.7c0.3,0.7 0.7,1.3 1,2c0.3,0.6 0.6,1.2 0.9,1.7c0.3,0.5 0.6,0.9 0.8,1.1c0.3,0.1 0.4,0.2 0.4,0.2z"/><path d="M257.0901,194.9c0,0 -0.1,-0.5 -0.2,-1.1c-0.1,-0.6 -0.3,-1.5 -0.6,-2.3c-0.1,-0.4 -0.3,-0.8 -0.5,-1.2c-0.2,-0.4 -0.3,-0.7 -0.5,-1c-0.2,-0.3 -0.3,-0.5 -0.4,-0.7c-0.1,-0.2 -0.2,-0.3 -0.2,-0.3c0,0 0.1,0.1 0.3,0.2c0.2,0.1 0.4,0.3 0.6,0.5c0.2,0.2 0.5,0.6 0.7,0.9c0.2,0.4 0.4,0.8 0.6,1.2c0.1,0.4 0.2,0.9 0.3,1.3c0.1,0.4 0.1,0.8 0,1.2c0,0.9 -0.1,1.3 -0.1,1.3z"/><path d="M254.8901,204c0,0 0.3,-0.6 0.4,-1.6c0.1,-0.5 0.1,-1.1 0.1,-1.7c0,-0.6 0,-1.3 0,-2c0,-0.7 -0.1,-1.3 -0.2,-2c-0.1,-0.6 -0.2,-1.2 -0.2,-1.7c-0.1,-0.5 -0.1,-0.9 -0.2,-1.2c0,-0.3 0,-0.5 0,-0.5c0,0 0.1,0.2 0.2,0.4c0.1,0.3 0.3,0.7 0.4,1.2c0.1,0.5 0.3,1.1 0.4,1.7c0.1,0.6 0.2,1.3 0.3,2c0,0.7 0,1.4 0,2.1c-0.1,0.7 -0.2,1.3 -0.4,1.8c-0.2,0.5 -0.4,0.9 -0.5,1.2c-0.2,0.2 -0.3,0.3 -0.3,0.3z"/><path d="M249.4901,209.7c0,0 0.6,-0.3 1.2,-1c0.3,-0.3 0.6,-0.8 0.8,-1.3c0.3,-0.5 0.5,-1.1 0.6,-1.7c0.1,-0.3 0.2,-0.6 0.2,-0.9c0.1,-0.3 0.1,-0.6 0.2,-0.9c0.1,-0.6 0.2,-1.1 0.3,-1.6c0.1,-0.5 0.1,-0.9 0.2,-1.1c0,-0.3 0.1,-0.4 0.1,-0.4c0,0 0,0.2 0.1,0.4c0,0.3 0.1,0.7 0.1,1.2c0,0.5 0,1 -0.1,1.6c0,0.3 -0.1,0.6 -0.1,0.9c-0.1,0.3 -0.1,0.6 -0.2,0.9c-0.2,0.6 -0.4,1.2 -0.8,1.8c-0.1,0.3 -0.4,0.5 -0.5,0.7c-0.2,0.2 -0.4,0.4 -0.6,0.6c-0.4,0.3 -0.8,0.5 -1,0.6c-0.3,0.2 -0.5,0.2 -0.5,0.2z"/></g></g><path d="M198.5901,250.1c0,0 0,0 0.1,-0.1c0.1,-0.1 0.2,-0.2 0.4,-0.4c0.3,-0.3 0.9,-0.7 1.6,-1.3c0.7,-0.5 1.5,-1.2 2.3,-2.1c0.8,-0.9 1.4,-2.1 1.8,-3.5c1.5,-5.7 4,-13.3 5.6,-21c0.4,-1.9 0.8,-3.9 1,-5.8c0.2,-1.9 0.4,-3.8 0.2,-5.7c-0.2,-3.7 -0.8,-7.1 -1.3,-10c-0.3,-1.5 -0.5,-2.8 -0.6,-4c-0.1,-1.2 -0.2,-2.3 -0.2,-3.1c0,-0.9 0,-1.5 0,-2c0,-0.5 0,-0.7 0,-0.7c0,0 0,0.2 0,0.7c0,0.5 0,1.1 0.1,2c0.1,0.9 0.2,1.9 0.4,3.1c0.2,1.2 0.4,2.5 0.7,4c0.6,2.9 1.3,6.3 1.5,10.1c0.1,1.8 0,3.8 -0.2,5.8c-0.2,2 -0.6,3.9 -1,5.8c-0.9,3.9 -1.9,7.7 -3,11.3c-1.1,3.6 -2.2,6.8 -3,9.7c-0.4,1.4 -1.2,2.7 -2,3.5c-0.8,0.9 -1.7,1.5 -2.4,2c-0.7,0.5 -1.3,0.9 -1.6,1.2c-0.2,0.1 -0.3,0.3 -0.4,0.4c0,0.1 0,0.1 0,0.1z" data-paper-data="{&quot;index&quot;:null}" fill="#59402f"/><g data-paper-data="{&quot;index&quot;:null}"><path d="M202.7901,256.1c0,0 0,-0.3 0,-0.8c0.1,-0.5 0.3,-1.1 0.7,-1.7c0.4,-0.6 0.9,-1 1.3,-1.3c0.4,-0.3 0.7,-0.4 0.7,-0.4c0,0 0,0.1 -0.1,0.2c-0.1,0.1 -0.2,0.3 -0.3,0.5c-0.3,0.4 -0.7,0.9 -1,1.4c-0.4,0.5 -0.7,1 -0.9,1.4c-0.3,0.4 -0.4,0.7 -0.4,0.7z" fill="#59402f"/><path d="M197.5901,255.1c0,0 0,-0.4 0.1,-0.9c0.1,-0.5 0.5,-1.2 0.9,-1.7c0.5,-0.5 1.1,-1 1.5,-1.2c0.5,-0.2 0.8,-0.3 0.8,-0.3c0,0 -0.1,0.1 -0.2,0.2c-0.1,0.1 -0.3,0.2 -0.5,0.4c-0.4,0.3 -0.8,0.8 -1.2,1.3c-0.4,0.5 -0.8,1 -1.1,1.4c-0.2,0.5 -0.3,0.8 -0.3,0.8z" fill="#59402f"/><path d="M203.6901,257.4c0,-0.6 0.9,-3.3 2,-3.3c1.1,0 0.4,1.1 -0.1,1.9c-0.6,0.7 -1.9,1.8 -1.9,1.4z" fill="#6c5f57"/><path d="M198.1901,256.9c0,-0.6 0.9,-3.3 2,-3.3c1.1,0 0.4,1.1 -0.1,1.9c-0.5,0.8 -1.9,1.8 -1.9,1.4z" fill="#6c5f57"/><path d="M195.0901,255.7c0,-0.6 0.9,-3.3 2,-3.3c1.1,0 0.4,1.1 -0.1,1.9c-0.5,0.8 -1.9,1.8 -1.9,1.4z" fill="#6c5f57"/></g><path d="M220.6901,257.1c0,0 0.2,0.2 0.7,0.1c0.4,-0.1 1.1,-0.3 1.7,-0.9c0.7,-0.5 1.4,-1.3 2.1,-2.2c0.7,-0.9 1.5,-2 2.3,-3.2c1.7,-2.4 3.5,-5.3 5.4,-8.3c1.9,-3.1 3.9,-6.4 5.8,-9.9c0.9,-1.7 1.9,-3.4 2.7,-5.1c0.9,-1.7 1.7,-3.4 2.4,-5.1c1.5,-3.3 2.7,-6.5 3.7,-9.2c1,-2.7 1.9,-5 2.4,-6.6c0.5,-1.6 0.8,-2.6 0.8,-2.6c0,0 -0.2,1 -0.7,2.6c-0.5,1.6 -1.2,4 -2.2,6.7c-0.5,1.4 -1,2.9 -1.6,4.4c-0.6,1.6 -1.2,3.2 -1.9,4.9c-0.7,1.7 -1.5,3.4 -2.4,5.1c-0.8,1.7 -1.7,3.5 -2.7,5.2c-1.9,3.4 -3.9,6.8 -5.8,9.8c-2,3.1 -3.9,5.9 -5.6,8.3c-1.7,2.4 -3.3,4.3 -4.7,5.3c-0.7,0.5 -1.3,0.8 -1.8,0.8c-0.4,0.1 -0.6,-0.1 -0.6,-0.1z" data-paper-data="{&quot;index&quot;:null}" fill="#59402f"/><g data-paper-data="{&quot;index&quot;:null}"><g><path d="M217.9901,143.1c-0.1,6.5 2.5,10.3 2.5,10.3c-2.7,0 -5.4,-4.9 -5.4,-4.9c3.9,9 -2.2,15.2 -2.2,15.2c0.6,-5.7 -1.4,-7.5 -1.4,-7.5c3,10.9 -8.4,13.5 -8.4,13.5c1.7,-1.2 2.9,-5.5 2.9,-5.5c-8.8,9.8 -26.2,7.7 -35.9,8.2c-9.7,0.5 -16.8,-0.4 -25.1,-1c-8.3,-0.6 -14.9,-10.5 -15.3,-14.7c-0.4,-4.2 20.1,-15 20.1,-15c0,0 0.6,-13.2 3.7,-18.8c3.1,-5.6 25.9,-17.5 46.2,-14.7c17,2.4 18.2,28.5 18.3,34.9z" fill="#8d674a"/><path d="M224.9901,131.8c-0.1,6.5 -4.6,21.7 -4.6,21.7c-2.7,0 -5.4,-4.9 -5.4,-4.9c3.9,9 -2.2,15.2 -2.2,15.2c0.6,-5.7 -1.4,-7.5 -1.4,-7.5c3,10.9 -8.4,13.5 -8.4,13.5c1.7,-1.2 2.9,-5.5 2.9,-5.5c-8.8,9.8 -24.8,9.4 -34.4,10c-9.6,0.6 -18.2,-2.3 -26.5,-2.9c-8.3,-0.6 -14.9,-10.5 -15.3,-14.7c-0.4,-4.2 20,-15 20,-15c0,0 0.6,-13.1 3.7,-18.8c3.1,-5.7 22.8,-17.6 43.2,-15.6c14.4,1.4 28.5,18 28.4,24.5z" fill="#8d674a"/><path d="M149.8901,141.7c15,12.2 -1.1,23.3 -1.1,23.3c-0.2,2.7 -3,4.7 -5.5,6.1c-7.5,-1.7 -13.2,-10.4 -13.6,-14.4c-0.4,-4.2 20.1,-14.9 20.2,-15z" fill="#9e7b5c"/><path d="M130.5901,159.9c-0.9,-1.6 -2.3,-3.2 -1.4,-4.6c0.5,-0.8 1.7,-2.3 2.7,-2.3c1,0 2.5,3 -0.5,4.5c0.4,1.6 -0.2,2.1 -0.8,2.4z" fill="#332721"/><path d="M135.9901,166.7c0,0 0.5,-0.3 1.3,-0.7c0.4,-0.2 0.9,-0.3 1.4,-0.5c0.5,-0.1 1.1,-0.3 1.7,-0.3c0.6,-0.1 1.2,-0.1 1.8,-0.1c0.6,0 1.1,0.1 1.5,0.2c0.4,0.1 0.8,0.2 1,0.3c0.2,0.1 0.4,0.2 0.4,0.2c0,0 -0.2,0 -0.4,0c-0.3,0 -0.6,-0.1 -1,-0.1c-0.2,0 -0.4,0 -0.7,0c-0.2,0 -0.5,0 -0.8,0c-0.5,0 -1.1,0.1 -1.7,0.1c-1.1,0.1 -2.3,0.3 -3.1,0.5c-0.8,0.3 -1.4,0.4 -1.4,0.4z" fill="#59402f"/><path d="M158.09788,141.25644c-0.13173,-1.42991 0.51939,-2.65891 1.45433,-2.74504c0.93494,-0.08613 1.79965,1.00321 1.93139,2.43312c0.13173,1.42991 -0.51939,2.65891 -1.45433,2.74504c-0.93494,0.08613 -1.79965,-1.00321 -1.93139,-2.43312z" fill="#332010"/><path d="M162.9901,134.3c0.1,1.1 -3,1.8 -4.4,1.9c-1.4,0.1 -2.7,-0.6 -2.8,-1.7c-0.1,-1.1 1,-2 2.4,-2.2c1.5,-0.1 4.7,0.9 4.8,2z" fill="#9e7b5c"/><path d="M149.7901,141.8c0,0 0,-0.8 0,-2.3c0.1,-1.4 0.1,-3.5 0.4,-6c0.1,-1.2 0.3,-2.6 0.6,-4c0.3,-1.4 0.6,-2.9 1.2,-4.3c0.3,-0.7 0.6,-1.5 1,-2.2c0.5,-0.7 0.9,-1.3 1.5,-2c1.1,-1.2 2.3,-2.4 3.6,-3.4c1.3,-1 2.7,-1.9 4.1,-2.7c1.4,-0.8 2.8,-1.6 4.2,-2.2c1.4,-0.7 2.8,-1.2 4.1,-1.7c1.3,-0.5 2.6,-0.9 3.8,-1.3c1.2,-0.4 2.3,-0.7 3.3,-0.9c1,-0.2 1.8,-0.5 2.5,-0.6c1.4,-0.3 2.2,-0.5 2.2,-0.5c0,0 -0.7,0.3 -2.1,0.6c-1.4,0.4 -3.4,1 -5.7,1.7c-1.2,0.4 -2.4,0.8 -3.7,1.4c-1.3,0.5 -2.7,1.1 -4.1,1.8c-1.4,0.7 -2.8,1.4 -4.2,2.2c-1.4,0.8 -2.7,1.8 -4,2.7c-1.3,1 -2.5,2.1 -3.6,3.3c-0.5,0.6 -1,1.2 -1.4,1.9c-0.4,0.7 -0.7,1.4 -1,2.1c-1.1,2.9 -1.6,5.7 -1.9,8.1c-0.7,5 -0.8,8.3 -0.8,8.3z" fill="#59402f"/><path d="M202.9901,169.8c0,0 0.3,-0.1 0.7,-0.2c0.5,-0.1 1.1,-0.4 1.9,-0.8c0.4,-0.2 0.8,-0.4 1.2,-0.7c0.4,-0.2 0.8,-0.6 1.2,-0.9c0.4,-0.3 0.8,-0.7 1.2,-1.1c0.4,-0.4 0.7,-0.8 1,-1.3c0.3,-0.4 0.5,-1 0.8,-1.4c0.2,-0.5 0.3,-1 0.5,-1.5c0.1,-0.5 0.1,-1 0.2,-1.5c0.1,-0.5 0,-0.9 0,-1.4c0,-0.4 0,-0.8 -0.1,-1.2c0,-0.3 -0.1,-0.6 -0.1,-0.9c-0.1,-0.5 -0.1,-0.8 -0.1,-0.8c0,0 0.1,0.3 0.2,0.8c0.1,0.2 0.2,0.5 0.2,0.9c0.1,0.3 0.2,0.7 0.2,1.2c0,0.4 0.1,0.9 0.1,1.4c0,0.5 0,1 -0.1,1.6c-0.2,0.5 -0.2,1.1 -0.5,1.6c-0.2,0.5 -0.4,1.1 -0.8,1.6c-0.3,0.5 -0.7,0.9 -1.1,1.4c-0.4,0.4 -0.9,0.8 -1.3,1.1c-0.9,0.6 -1.8,1.1 -2.6,1.4c-1.5,0.7 -2.7,0.7 -2.7,0.7z" fill="#59402f"/><path d="M212.7901,163.8c0,0 0.7,-0.7 1.5,-2.1c0.2,-0.3 0.4,-0.7 0.6,-1.1c0.2,-0.4 0.4,-0.8 0.5,-1.3c0.1,-0.2 0.2,-0.4 0.2,-0.7c0.1,-0.2 0.1,-0.5 0.2,-0.7c0.1,-0.5 0.2,-1 0.3,-1.5c0.1,-0.5 0.1,-1 0.1,-1.5c0,-0.5 0,-1 -0.1,-1.5c-0.1,-0.5 -0.1,-0.9 -0.2,-1.4c-0.1,-0.4 -0.2,-0.8 -0.3,-1.2c-0.1,-0.4 -0.2,-0.7 -0.3,-1c-0.1,-0.3 -0.2,-0.6 -0.2,-0.8c-0.1,-0.4 -0.2,-0.7 -0.2,-0.7c0,0 0.1,0.2 0.3,0.6c0.1,0.2 0.2,0.5 0.4,0.7c0.2,0.3 0.3,0.6 0.4,1c0.1,0.4 0.3,0.8 0.4,1.2c0.1,0.4 0.2,0.9 0.3,1.4c0,0.5 0.1,1 0.1,1.5c0,0.5 0,1 -0.1,1.6c-0.1,0.5 -0.2,1 -0.3,1.5c-0.1,0.2 -0.1,0.5 -0.2,0.7c-0.1,0.2 -0.2,0.5 -0.3,0.7c-0.2,0.5 -0.4,0.9 -0.6,1.3c-0.2,0.4 -0.5,0.7 -0.7,1.1c-0.5,0.6 -0.9,1.1 -1.3,1.4c-0.3,0.6 -0.5,0.8 -0.5,0.8z" fill="#59402f"/><path d="M220.2901,153.5c0,0 -0.2,-0.2 -0.4,-0.5c-0.2,-0.4 -0.6,-0.9 -0.9,-1.6c-0.3,-0.7 -0.6,-1.5 -0.8,-2.4c-0.2,-0.9 -0.4,-1.9 -0.5,-2.8c-0.1,-0.5 -0.1,-1 -0.1,-1.5c0,-0.5 -0.1,-1 -0.1,-1.4c-0.1,-0.9 0,-1.8 0,-2.5c0,-0.7 0.1,-1.3 0.1,-1.8c0,-0.4 0.1,-0.7 0.1,-0.7c0,0 0,0.2 0.1,0.7c0,0.4 0.1,1 0.1,1.8c0,0.7 0.1,1.6 0.2,2.5c0.1,0.9 0.2,1.9 0.3,2.8c0.1,1 0.2,1.9 0.4,2.8c0.2,0.9 0.4,1.7 0.6,2.4c0.2,0.7 0.4,1.2 0.6,1.6c0.2,0.4 0.3,0.6 0.3,0.6z" fill="#59402f"/><path d="M193.8901,107.3c0,0 0.4,-0.1 1.1,-0.2c0.3,0 0.8,0 1.2,0c0.5,0 1,0.1 1.6,0.2c0.6,0.1 1.2,0.2 1.9,0.4c0.6,0.2 1.3,0.3 2,0.6c0.7,0.2 1.4,0.5 2.1,0.8c0.7,0.3 1.4,0.7 2.1,1c0.7,0.3 1.4,0.8 2,1.1c0.7,0.4 1.3,0.8 1.9,1.2c1.2,0.8 2.3,1.6 3.2,2.3c0.5,0.3 0.9,0.7 1.2,1c0.4,0.3 0.7,0.6 0.9,0.8c0.5,0.4 0.8,0.7 0.8,0.7c0,0 -0.3,-0.2 -0.9,-0.6c-0.3,-0.2 -0.6,-0.4 -1,-0.7c-0.4,-0.3 -0.8,-0.6 -1.3,-0.9c-0.5,-0.3 -1,-0.7 -1.6,-1c-0.5,-0.4 -1.2,-0.7 -1.8,-1.1c-0.6,-0.4 -1.2,-0.8 -1.9,-1.1c-0.7,-0.4 -1.3,-0.8 -2,-1.1c-0.7,-0.3 -1.4,-0.7 -2.1,-1c-0.7,-0.3 -1.4,-0.6 -2,-0.9c-1.3,-0.5 -2.6,-0.9 -3.8,-1.2c-0.6,-0.1 -1.1,-0.2 -1.6,-0.3c-0.5,-0.1 -0.9,-0.1 -1.2,-0.1c-0.4,0 -0.8,0.1 -0.8,0.1z" fill="#59402f"/></g><g><path d="M180.8901,110.2c0,0 1.7,-8.2 6.3,-8.8c4.6,-0.6 15.3,3.9 7.2,16.6" fill="#8d674a"/><path d="M187.3901,103.9c0,0 0.4,0.6 0.7,1.5c0.2,0.5 0.4,1 0.5,1.6c0.2,0.6 0.3,1.2 0.3,1.9c0,0.3 0,0.7 0,1c-0.1,0.3 -0.1,0.7 -0.2,1c-0.1,0.3 -0.2,0.6 -0.3,0.9c-0.1,0.3 -0.2,0.5 -0.4,0.7c-0.3,0.4 -0.5,0.7 -0.8,0.9c-0.2,0.2 -0.3,0.3 -0.3,0.3c0,0 0.1,-0.1 0.2,-0.4c0.1,-0.1 0.2,-0.3 0.3,-0.4c0.1,-0.2 0.2,-0.4 0.3,-0.6c0.1,-0.2 0.2,-0.5 0.2,-0.7c0.1,-0.3 0.1,-0.5 0.2,-0.8c0.1,-0.3 0.1,-0.6 0.1,-0.9c0,-0.3 0,-0.6 0,-0.9c0,-0.6 -0.1,-1.3 -0.2,-1.8c-0.1,-0.6 -0.2,-1.1 -0.3,-1.6c-0.1,-1.1 -0.3,-1.7 -0.3,-1.7z" fill="#59402f"/><g fill="#59402f"><path d="M189.6901,112.9c0,0 0,0.2 -0.1,0.3c-0.1,0.2 -0.2,0.4 -0.4,0.6c-0.2,0.2 -0.4,0.4 -0.6,0.5c-0.2,0.1 -0.3,0.1 -0.3,0.1c0,0 0,-0.2 0.1,-0.3c0.1,-0.2 0.2,-0.4 0.4,-0.6c0.2,-0.2 0.4,-0.4 0.6,-0.5c0.1,-0.1 0.3,-0.1 0.3,-0.1z"/><path d="M190.8901,114.2c0,0 0,0.1 -0.1,0.3c-0.1,0.2 -0.2,0.3 -0.3,0.5c-0.1,0.1 -0.3,0.3 -0.5,0.3c-0.2,0.1 -0.3,0.1 -0.3,0.1c0,0 0,-0.1 0.1,-0.3c0.1,-0.2 0.2,-0.3 0.3,-0.5c0.1,-0.1 0.3,-0.3 0.5,-0.3c0.1,-0.1 0.3,-0.1 0.3,-0.1z"/></g><path d="M193.7901,103c0,0 -0.3,-0.1 -0.7,-0.4c-0.5,-0.2 -1.2,-0.5 -2,-0.7c-0.2,-0.1 -0.4,-0.1 -0.7,-0.2c-0.2,0 -0.5,-0.1 -0.7,-0.1c-0.2,0 -0.5,0 -0.8,0c-0.3,0 -0.5,0 -0.8,0c-0.3,0 -0.5,0.1 -0.8,0.1c-0.2,0.1 -0.4,0.2 -0.7,0.3c-0.3,0.1 -0.5,0.2 -0.8,0.3c-0.2,0.1 -0.5,0.2 -0.7,0.4c-0.4,0.4 -0.9,0.7 -1.2,1.1c-0.4,0.4 -0.7,0.8 -1,1.3c-0.2,0.5 -0.6,0.9 -0.7,1.4c-0.2,0.5 -0.4,0.9 -0.6,1.3c-0.2,0.4 -0.3,0.8 -0.4,1.1c-0.1,0.3 -0.2,0.6 -0.3,0.9c-0.2,0.5 -0.3,0.8 -0.3,0.8c0,0 0,-0.3 0.1,-0.8c0,-0.3 0.1,-0.6 0.2,-0.9c0.1,-0.4 0.1,-0.8 0.3,-1.2c0.1,-0.4 0.3,-0.9 0.5,-1.4c0.2,-0.3 0.5,-0.8 0.8,-1.3c0.2,-0.5 0.6,-1 1,-1.5c0.3,-0.5 0.9,-0.9 1.3,-1.3c0.2,-0.2 0.5,-0.3 0.8,-0.5c0.3,-0.1 0.5,-0.3 0.8,-0.4c0.3,-0.1 0.6,-0.2 0.9,-0.2c0.3,0 0.6,-0.1 0.9,-0.1c0.3,0 0.6,0 0.8,0c0.3,0 0.5,0 0.8,0.1c0.3,0.1 0.5,0.1 0.7,0.2c0.2,0.1 0.5,0.2 0.7,0.2c0.4,0.1 0.8,0.3 1.1,0.5c0.3,0.2 0.6,0.3 0.8,0.5c0.5,0.4 0.7,0.5 0.7,0.5z" fill="#59402f"/></g></g></g></g></svg>