<svg version="1.1" xmlns="http://www.w3.org/2000/svg" xmlns:xlink="http://www.w3.org/1999/xlink" width="227.9058" height="158.68519" viewBox="0,0,227.9058,158.68519"><g transform="translate(-127.08431,-100.9)"><g data-paper-data="{&quot;isPaintingLayer&quot;:true}" fill-rule="nonzero" stroke="none" stroke-width="1" stroke-linecap="butt" stroke-linejoin="miter" stroke-miterlimit="10" stroke-dasharray="" stroke-dashoffset="0" style="mix-blend-mode: normal"><g data-paper-data="{&quot;index&quot;:null}"><path d="M314.07441,146.8c15.5,-8.3 23.4,3.7 27.5,10.4c4.1,6.7 1.2,24.3 1.4,33.5c0.2,9.2 4.6,15.9 7.6,28.2c3,12.3 1.8,36 0.1,37.1c-4.2,2.6 -23.8,3 -25.5,1.6c-1.7,-1.4 3.7,-4 5.1,-6.8c1.4,-2.7 -5.4,-13.2 -15,-25.1c-19.1,-23.6 -14.3,-46.5 -14.3,-46.5c-1.1,-6.1 -2.4,-24.1 13.1,-32.4z" fill="#856045"/><path d="M333.37441,258.2c0,0 0,-0.3 0.1,-0.8c0.1,-0.5 0.4,-1.1 0.7,-1.7c0.4,-0.6 0.9,-1 1.3,-1.3c0.4,-0.3 0.7,-0.4 0.7,-0.4c0,0 0,0.1 -0.1,0.2c-0.1,0.1 -0.2,0.3 -0.3,0.5c-0.3,0.4 -0.7,0.9 -1,1.4c-0.4,0.5 -0.7,1 -0.9,1.4c-0.3,0.4 -0.5,0.7 -0.5,0.7z" fill="#59402f"/><path d="M327.77441,258.1c0,0 0,-0.4 0.2,-0.9c0.2,-0.6 0.5,-1.2 1.1,-1.8c0.3,-0.3 0.5,-0.6 0.8,-0.8c0.3,-0.2 0.6,-0.4 0.8,-0.5c0.3,-0.1 0.5,-0.2 0.7,-0.2c0.2,0 0.3,-0.1 0.3,-0.1c0,0 -0.1,0.1 -0.2,0.2c-0.1,0.1 -0.3,0.3 -0.5,0.5c-0.4,0.4 -0.9,0.9 -1.4,1.4c-0.5,0.5 -0.9,1.1 -1.2,1.6c-0.4,0.2 -0.6,0.6 -0.6,0.6z" fill="#59402f"/><path d="M334.27441,259.5c0,-0.6 0.9,-3.3 2,-3.3c1.1,0 0.4,1.1 -0.1,1.9c-0.6,0.7 -1.9,1.8 -1.9,1.4z" fill="#665a52"/><path d="M328.77441,259c0,-0.6 0.9,-3.3 2,-3.3c1.1,0 0.4,1.1 -0.1,1.9c-0.5,0.7 -1.9,1.8 -1.9,1.4z" fill="#665a52"/><path d="M325.37441,258.8c0,-0.6 0.9,-3.3 2,-3.3c1.1,0 0.4,1.1 -0.1,1.9c-0.6,0.6 -1.9,1.8 -1.9,1.4z" fill="#665a52"/><g><path d="M342.17441,192c0,0 8,10 10.4,9.8c0,0 -2.2,1.9 -4,0.3c0,0 4.4,1.8 5.5,6.2l-2.9,-0.9c0,0 4.1,6.3 3.8,10.6l-2.9,-3.1c0,0 3.4,6.4 -0.8,10.1" fill="#856045"/><path d="M352.37441,201.8c0,0 -0.2,0 -0.5,-0.1c-0.3,-0.1 -0.8,-0.3 -1.3,-0.6c-1,-0.6 -2.2,-1.6 -3.2,-2.7c-0.5,-0.5 -1,-1.1 -1.5,-1.7c-0.5,-0.5 -0.9,-1.1 -1.2,-1.5c-0.7,-0.9 -1.1,-1.6 -1.1,-1.6c0,0 0.6,0.5 1.4,1.3c0.8,0.8 1.8,1.9 2.9,3c0.5,0.5 1.1,1.1 1.6,1.5c0.5,0.5 1,0.9 1.4,1.3c0.4,0.4 0.8,0.6 1.1,0.8c0.2,0.3 0.4,0.3 0.4,0.3z" fill="#59402f"/><path d="M353.87441,208.3c0,0 -0.2,-0.4 -0.6,-1c-0.3,-0.6 -0.8,-1.3 -1.3,-2c-0.3,-0.3 -0.5,-0.7 -0.8,-1c-0.3,-0.3 -0.5,-0.6 -0.8,-0.8c-0.2,-0.2 -0.5,-0.4 -0.6,-0.5c-0.2,-0.1 -0.2,-0.2 -0.2,-0.2c0,0 0.1,0 0.3,0.1c0.2,0.1 0.5,0.1 0.8,0.3c0.3,0.2 0.7,0.4 1,0.7c0.3,0.3 0.6,0.6 0.9,1c0.3,0.4 0.5,0.8 0.7,1.2c0.2,0.4 0.3,0.8 0.4,1.1c0.2,0.6 0.2,1.1 0.2,1.1z" fill="#59402f"/><path d="M354.77441,217.8c0,0 0.1,-0.7 -0.2,-1.7c-0.1,-0.5 -0.2,-1.1 -0.4,-1.7c-0.2,-0.6 -0.4,-1.3 -0.7,-1.9c-0.3,-0.6 -0.5,-1.3 -0.8,-1.9c-0.3,-0.6 -0.5,-1.1 -0.8,-1.6c-0.2,-0.5 -0.4,-0.9 -0.6,-1.1c-0.1,-0.3 -0.2,-0.4 -0.2,-0.4c0,0 0.1,0.1 0.3,0.4c0.2,0.2 0.5,0.6 0.8,1c0.3,0.4 0.7,0.9 1,1.5c0.3,0.6 0.6,1.2 0.9,1.9c0.5,1.3 0.9,2.7 0.9,3.8c0,0.5 0,1 -0.1,1.3c0,0.2 -0.1,0.4 -0.1,0.4z" fill="#59402f"/><path d="M352.27441,223.7c0,0 0.1,-0.1 0.2,-0.3c0.1,-0.2 0.2,-0.5 0.3,-0.9c0.1,-0.8 0.1,-1.9 0,-2.9c-0.1,-1.1 -0.4,-2.1 -0.5,-3c-0.2,-0.8 -0.2,-1.4 -0.2,-1.4c0,0 0.1,0.1 0.2,0.3c0.1,0.2 0.3,0.5 0.4,0.9c0.1,0.4 0.3,0.9 0.5,1.4c0.1,0.3 0.2,0.5 0.2,0.8c0,0.3 0.1,0.6 0.1,0.8c0.1,0.6 0.1,1.1 0,1.7c0,0.5 -0.2,1 -0.3,1.4c-0.2,0.4 -0.4,0.7 -0.5,0.9c-0.3,0.3 -0.4,0.3 -0.4,0.3z" fill="#59402f"/></g><path d="M350.87441,218.9c0,0 0.4,2.5 0.8,6.3c0.2,1.9 0.4,4.1 0.6,6.5c0.2,2.4 0.3,4.9 0.4,7.4c0.1,2.5 0.1,5.1 0,7.5c-0.1,2.4 -0.4,4.6 -0.8,6.5c-0.2,0.9 -0.5,1.8 -0.8,2.5c-0.1,0.2 -0.2,0.3 -0.3,0.5c-0.1,0.2 -0.2,0.3 -0.4,0.4c-0.3,0.2 -0.6,0.3 -0.9,0.4c-1.1,0.3 -1.7,0.5 -1.7,0.5c0,0 0.6,-0.2 1.6,-0.6c0.3,-0.1 0.5,-0.2 0.8,-0.4c0.3,-0.1 0.4,-0.5 0.5,-0.8c0.3,-0.7 0.5,-1.5 0.7,-2.5c0.3,-1.9 0.5,-4.1 0.5,-6.4c0.1,-2.4 0,-4.9 -0.1,-7.4c-0.1,-2.5 -0.2,-5.1 -0.3,-7.4c-0.1,-2.4 -0.3,-4.6 -0.4,-6.5c0,-4 -0.2,-6.5 -0.2,-6.5z" fill="#59402f"/><path d="M299.67441,193c0,0 1.4,4.2 3.8,10.3c1.2,3.1 2.6,6.6 4.3,10.4c0.8,1.9 1.8,3.8 2.8,5.7c0.5,0.9 1.1,1.9 1.7,2.8c0.6,0.9 1.3,1.7 2,2.6c2.8,3.4 5.5,6.8 8,10.1c2.5,3.3 4.7,6.5 6.3,9.4c0.4,0.7 0.8,1.4 1.1,2.1c0.3,0.7 0.5,1.4 0.6,2.1c0.1,0.7 0.3,1.3 0.2,1.9c0,0.6 -0.3,1.1 -0.7,1.5c-0.6,0.7 -1.2,1.2 -1.6,1.6c-0.4,0.4 -0.6,0.5 -0.6,0.5c0,0 0.2,-0.2 0.6,-0.6c0.4,-0.4 0.9,-0.9 1.5,-1.6c0.3,-0.4 0.6,-0.8 0.6,-1.4c0,-0.6 -0.1,-1.2 -0.3,-1.8c-0.2,-0.6 -0.4,-1.3 -0.7,-2c-0.3,-0.7 -0.7,-1.4 -1.1,-2.1c-1.7,-2.8 -4,-5.9 -6.4,-9.2c-2.5,-3.3 -5.3,-6.7 -8.1,-10.1c-0.7,-0.8 -1.4,-1.7 -2,-2.6c-0.6,-0.9 -1.2,-1.9 -1.7,-2.8c-1,-1.9 -1.9,-3.9 -2.8,-5.7c-1.6,-3.8 -3,-7.4 -4.2,-10.5c-1.1,-3.1 -2,-5.7 -2.6,-7.5c-0.3,-2.1 -0.7,-3.1 -0.7,-3.1z" fill="#59402f"/></g><g data-paper-data="{&quot;index&quot;:null}"><g><path d="M245.07441,189.7c1,23 -14.4,63.6 -17.3,65.4c-2.9,1.8 -27.3,3.2 -26.6,0c0.7,-3.3 5.1,-5.4 6.5,-8.3c1.4,-2.8 2.2,-26.9 1.4,-33.4c-0.8,-6.5 -6.9,-12.3 -10.1,-34.9c-3.2,-22.7 41,-35.6 46.1,11.2z" fill="#856045"/><path d="M237.77441,168.7c0,0 7.1,10.7 9.5,10.7c0,0 -2.4,1.7 -4,0c0,0 4.3,2.1 5,6.6l-2.8,-1.2c0,0 3.6,6.6 2.8,10.9l-2.6,-3.3c0,0 2.8,6.6 -1.7,10" fill="#8d674a"/></g><path d="M247.07441,179.3c0,0 -0.2,0 -0.5,-0.1c-0.3,-0.1 -0.8,-0.3 -1.2,-0.7c-1,-0.7 -2,-1.8 -3,-2.9c-0.5,-0.6 -0.9,-1.2 -1.4,-1.8c-0.4,-0.6 -0.8,-1.1 -1.1,-1.6c-0.6,-1 -0.9,-1.7 -0.9,-1.7c0,0 0.5,0.6 1.2,1.4c0.7,0.9 1.7,2 2.6,3.2c0.5,0.6 1,1.1 1.4,1.7c0.5,0.5 0.9,1 1.3,1.4c0.4,0.4 0.8,0.7 1,0.9c0.4,0.1 0.6,0.2 0.6,0.2z" fill="#59402f"/><path d="M247.97441,185.9c0,0 -0.2,-0.4 -0.5,-1c-0.3,-0.6 -0.7,-1.4 -1.1,-2.1c-0.2,-0.4 -0.5,-0.7 -0.7,-1c-0.2,-0.3 -0.5,-0.6 -0.7,-0.8c-0.2,-0.2 -0.4,-0.4 -0.6,-0.6c-0.1,-0.1 -0.2,-0.2 -0.2,-0.2c0,0 0.1,0 0.3,0.1c0.2,0.1 0.5,0.2 0.8,0.4c0.3,0.2 0.6,0.4 0.9,0.7c0.3,0.3 0.6,0.7 0.8,1.1c0.2,0.4 0.4,0.8 0.6,1.2c0.2,0.4 0.3,0.8 0.3,1.1c0.1,0.6 0.1,1.1 0.1,1.1z" fill="#59402f"/><path d="M247.97441,195.2c0,0 0.1,-0.7 0,-1.7c0,-0.5 -0.1,-1.1 -0.3,-1.7c-0.1,-0.6 -0.3,-1.3 -0.5,-1.9c-0.2,-0.6 -0.4,-1.3 -0.6,-1.9c-0.2,-0.6 -0.4,-1.2 -0.6,-1.6c-0.2,-0.5 -0.3,-0.9 -0.4,-1.2c-0.1,-0.3 -0.2,-0.4 -0.2,-0.4c0,0 0.1,0.1 0.3,0.4c0.2,0.3 0.4,0.6 0.7,1.1c0.3,0.5 0.6,1 0.8,1.6c0.3,0.6 0.5,1.2 0.7,1.9c0.2,0.7 0.4,1.4 0.4,2c0.1,0.7 0.1,1.3 0.1,1.8c0,0.5 -0.1,1 -0.2,1.3c-0.1,0.1 -0.2,0.3 -0.2,0.3z" fill="#59402f"/><path d="M226.27441,255.6c0,0 0.2,0 0.7,-0.2c0.4,-0.2 1.1,-0.5 1.5,-1.2c0.5,-0.7 1,-1.6 1.5,-2.7c0.5,-1.1 0.9,-2.4 1.4,-3.8c1,-2.8 2.2,-6 3.5,-9.4c1.3,-3.5 2.6,-7.1 3.7,-10.9c0.6,-1.9 1.2,-3.7 1.7,-5.6c0.3,-0.9 0.5,-1.8 0.7,-2.8c0.2,-0.9 0.4,-1.8 0.6,-2.7c0.4,-1.8 0.7,-3.5 1,-5.2c0.3,-1.7 0.5,-3.2 0.7,-4.7c0.4,-2.9 0.8,-5.3 1,-7c0.2,-1.7 0.2,-2.7 0.2,-2.7c0,0 0,1 -0.1,2.7c-0.1,1.7 -0.3,4.2 -0.7,7.1c-0.2,1.5 -0.4,3 -0.6,4.7c-0.2,1.7 -0.5,3.4 -0.9,5.2c-0.2,0.9 -0.4,1.8 -0.6,2.7c-0.2,0.9 -0.5,1.9 -0.7,2.8c-0.5,1.9 -1.1,3.8 -1.7,5.6c-1.2,3.7 -2.5,7.4 -3.8,10.9c-1.3,3.4 -2.6,6.6 -3.7,9.4c-0.5,1.4 -1,2.7 -1.5,3.7c-0.5,1.1 -1.1,2 -1.6,2.7c-0.5,0.7 -1.2,1 -1.6,1.2c-0.5,0.1 -0.7,0.2 -0.7,0.2z" fill="#59402f"/><path d="M244.17441,202c0,0 0.5,-0.4 0.9,-1.2c0.2,-0.4 0.4,-0.9 0.5,-1.5c0.1,-0.6 0.2,-1.2 0.2,-1.8c0,-0.3 0,-0.6 0,-0.9c0,-0.3 0,-0.6 0,-0.9c0,-0.6 -0.1,-1.1 -0.1,-1.6c0,-0.5 -0.1,-0.9 -0.1,-1.1c0,-0.3 0,-0.4 0,-0.4c0,0 0.1,0.1 0.2,0.4c0.1,0.3 0.3,0.6 0.4,1.1c0.1,0.5 0.3,1 0.3,1.6c0,0.3 0.1,0.6 0.1,0.9c0,0.3 0,0.6 0,1c0,0.7 -0.1,1.3 -0.3,1.9c-0.1,0.3 -0.2,0.6 -0.3,0.8c-0.1,0.3 -0.3,0.5 -0.4,0.7c-0.3,0.4 -0.6,0.7 -0.9,0.8c-0.4,0.2 -0.5,0.2 -0.5,0.2z" fill="#59402f"/><path d="M208.47441,256.6c0,0 0,-0.3 0,-0.8c0.1,-0.5 0.3,-1.1 0.7,-1.7c0.4,-0.6 0.9,-1 1.3,-1.3c0.4,-0.3 0.7,-0.4 0.7,-0.4c0,0 0,0.1 -0.1,0.2c-0.1,0.1 -0.2,0.3 -0.3,0.5c-0.3,0.4 -0.7,0.9 -1,1.4c-0.3,0.5 -0.7,1 -0.9,1.4c-0.2,0.4 -0.4,0.7 -0.4,0.7z" fill="#59402f"/><path d="M202.87441,256.1c0,0 0,-0.4 0.2,-0.9c0.2,-0.6 0.5,-1.3 1,-1.9c0.3,-0.3 0.5,-0.6 0.8,-0.8c0.3,-0.2 0.6,-0.4 0.8,-0.5c0.3,-0.1 0.5,-0.2 0.7,-0.3c0.2,0 0.3,-0.1 0.3,-0.1c0,0 -0.1,0.1 -0.2,0.2c-0.1,0.1 -0.3,0.3 -0.5,0.5c-0.4,0.4 -0.9,0.9 -1.4,1.5c-0.5,0.5 -0.9,1.1 -1.2,1.6c-0.3,0.4 -0.5,0.7 -0.5,0.7z" fill="#59402f"/><path d="M204.47441,250.4c0,0 0.7,-0.6 1.8,-2c0.3,-0.3 0.6,-0.7 0.8,-1.1c0.3,-0.4 0.5,-0.9 0.7,-1.5c0.4,-1.1 0.6,-2.4 0.7,-3.8c0.2,-2.9 0.4,-6.3 0.6,-9.9c0.2,-3.6 0.3,-7.5 0.2,-11.3c-0.1,-1.9 -0.1,-3.9 -0.4,-5.7c-0.2,-1.9 -0.6,-3.7 -1.1,-5.4c-1,-3.5 -2.3,-6.6 -3.3,-9.3c-1.1,-2.7 -1.8,-5 -2.3,-6.7c-0.2,-0.8 -0.4,-1.5 -0.4,-1.9c-0.1,-0.4 -0.1,-0.7 -0.1,-0.7c0,0 0.1,0.2 0.2,0.7c0.1,0.4 0.3,1.1 0.5,1.9c0.2,0.8 0.6,1.8 1,2.9c0.4,1.1 0.9,2.3 1.5,3.7c1.1,2.7 2.6,5.8 3.6,9.3c0.5,1.8 0.9,3.6 1.2,5.5c0.3,1.9 0.4,3.8 0.4,5.8c0.1,3.9 0,7.8 -0.3,11.4c-0.2,3.6 -0.6,7 -0.8,9.9c-0.1,1.4 -0.4,2.8 -0.8,3.9c-0.2,0.6 -0.5,1.1 -0.7,1.5c-0.3,0.4 -0.6,0.8 -0.9,1.1c-1.3,1.1 -2.1,1.7 -2.1,1.7z" fill="#59402f"/><path d="M209.37441,257.9c0,-0.6 0.9,-3.3 2,-3.3c1.1,0 0.4,1.1 -0.1,1.9c-0.5,0.7 -1.9,1.8 -1.9,1.4z" fill="#665a52"/><path d="M203.87441,257.5c0,-0.6 0.9,-3.3 2,-3.3c1.1,0 0.4,1.1 -0.1,1.9c-0.5,0.8 -1.9,1.8 -1.9,1.4z" fill="#665a52"/><path d="M200.47441,256.6c0,-0.6 0.9,-3.3 2,-3.3c1.1,0 0.4,1.1 -0.1,1.9c-0.6,0.7 -1.9,1.8 -1.9,1.4z" fill="#665a52"/></g><g data-paper-data="{&quot;index&quot;:null}"><g><path d="M330.07441,141.2c0,0 10.4,-3.6 21,12.1c0,0 -3.1,-2.6 -5,-2.6c0,0 4.9,1.8 6,10.1c0,0 -1.8,-3.3 -3.2,-3.6c0,0 6.8,9.4 -3.4,11.1c-10.1,1.6 -17.8,-24.8 -15.4,-27.1z" fill="#8d674a"/><path d="M351.07441,153.3c0,0 -0.2,-0.3 -0.6,-0.8c-0.4,-0.5 -1,-1.2 -1.7,-2c-0.7,-0.8 -1.6,-1.7 -2.5,-2.7c-0.5,-0.5 -1,-1 -1.5,-1.4c-0.5,-0.5 -1.1,-0.9 -1.7,-1.3c-0.6,-0.4 -1.2,-0.8 -1.7,-1.2c-0.6,-0.3 -1.2,-0.7 -1.8,-1c-0.6,-0.2 -1.2,-0.6 -1.8,-0.8c-0.6,-0.2 -1.1,-0.4 -1.7,-0.5c-0.5,-0.1 -1,-0.2 -1.4,-0.3c-0.4,-0.1 -0.8,-0.1 -1.1,-0.1c-0.6,0 -1,-0.1 -1,-0.1c0,0 0.4,0 1,-0.1c0.3,0 0.7,-0.1 1.2,0c0.4,0 0.9,0.1 1.5,0.1c0.5,0.1 1.1,0.3 1.7,0.4c0.6,0.1 1.2,0.4 1.9,0.7c0.6,0.3 1.2,0.7 1.9,1c0.6,0.4 1.2,0.8 1.8,1.2c0.6,0.5 1.2,0.9 1.7,1.4c0.5,0.5 1,1 1.5,1.5c1,1 1.7,2 2.4,2.9c1.2,1.8 1.9,3.1 1.9,3.1z" fill="#59402f"/><path d="M346.07441,150.7c0,0 0.7,0.3 1.6,1.1c0.5,0.4 0.9,0.8 1.4,1.4c0.5,0.5 1,1.1 1.4,1.8c0.4,0.7 0.8,1.3 1,2c0.1,0.3 0.2,0.7 0.3,1c0.1,0.3 0.2,0.6 0.2,0.9c0.1,0.6 0.1,1 0.1,1.4c0,0.3 0,0.5 0,0.5c0,0 0,-0.2 -0.1,-0.5c0,-0.2 -0.1,-0.4 -0.1,-0.6c-0.1,-0.2 -0.1,-0.5 -0.2,-0.7c-0.1,-0.3 -0.2,-0.5 -0.3,-0.8c-0.1,-0.3 -0.2,-0.6 -0.4,-0.9c-0.1,-0.3 -0.3,-0.6 -0.5,-1c-0.2,-0.3 -0.4,-0.6 -0.6,-0.9c-0.8,-1.3 -1.7,-2.4 -2.5,-3.2c-0.7,-1 -1.3,-1.5 -1.3,-1.5z" fill="#59402f"/><path d="M348.87441,157.1c0,0 0.5,0.4 1,1.1c0.3,0.4 0.6,0.8 0.8,1.4c0.2,0.5 0.4,1.1 0.6,1.7c0.1,0.6 0.2,1.2 0.1,1.8c0,0.3 -0.1,0.6 -0.2,0.8c-0.1,0.3 -0.1,0.5 -0.2,0.7c-0.2,0.4 -0.4,0.7 -0.5,1c-0.2,0.2 -0.2,0.3 -0.2,0.3c0,0 0,-0.1 0.1,-0.4c0,-0.1 0.1,-0.3 0.2,-0.4c0,-0.2 0.1,-0.4 0.1,-0.6c0.1,-0.2 0.1,-0.4 0.1,-0.7c0,-0.2 0.1,-0.5 0.1,-0.8c0,-0.3 0,-0.5 0,-0.8c0,-0.3 -0.1,-0.6 -0.1,-0.8c-0.1,-0.6 -0.3,-1.1 -0.4,-1.6c-0.2,-0.5 -0.4,-1 -0.6,-1.4c-0.6,-0.7 -0.9,-1.3 -0.9,-1.3z" fill="#59402f"/></g><g><path d="M214.87441,196.6c-3,2 -9.8,-3.8 -9.8,-3.8l-1.2,2c0.1,-3.4 -7.3,-8 -7.3,-8l0.8,2.6c-6.5,-2.6 -7.5,-11.4 -7.5,-11.4l-0.2,2.8c-3.3,-3.2 -3.3,-11 -3.3,-11" fill="#8d674a"/><g><path d="M210.47441,114.8c18,-5.6 41.7,3.8 53,8c16.4,6.1 36.2,-9.9 63.1,12.1c26.9,22 21.5,54.9 1.4,71c-22.5,18 -102,18.1 -116.1,-10.3c0,0 -26.3,-10.2 -27.5,-37.5" fill="#8d674a"/><path d="M186.17441,169.9c0,0 0.2,0.7 0.4,1.7c0.2,1 0.5,2.4 0.8,3.8c0.1,0.3 0.2,0.7 0.2,1c0.1,0.3 0.2,0.7 0.3,1c0.2,0.6 0.4,1.2 0.6,1.7c0.1,0.2 0.2,0.5 0.3,0.6c0.1,0.2 0.2,0.4 0.3,0.5c0.2,0.2 0.3,0.4 0.3,0.4c0,0 -0.1,-0.1 -0.4,-0.3c-0.1,-0.1 -0.3,-0.2 -0.4,-0.4c-0.2,-0.2 -0.3,-0.4 -0.5,-0.6c-0.3,-0.4 -0.6,-1 -0.8,-1.7c-0.3,-0.6 -0.4,-1.3 -0.6,-2c-0.3,-1.4 -0.5,-2.8 -0.5,-3.9c0,-1.1 0,-1.8 0,-1.8z" fill="#59402f"/><path d="M189.97441,177.9c0,0 0.2,0.9 0.6,2.1c0.2,0.6 0.5,1.4 0.8,2.1c0.1,0.4 0.4,0.8 0.5,1.2c0.2,0.4 0.4,0.8 0.6,1.1c0.2,0.4 0.4,0.8 0.7,1.1c0.3,0.3 0.5,0.7 0.8,1c0.3,0.3 0.5,0.6 0.8,0.9c0.3,0.2 0.5,0.5 0.8,0.7c0.3,0.2 0.5,0.4 0.7,0.6c0.2,0.1 0.4,0.3 0.6,0.4c0.3,0.2 0.5,0.3 0.5,0.3c0,0 -0.2,-0.1 -0.6,-0.2c-0.2,-0.1 -0.4,-0.2 -0.7,-0.3c-0.2,-0.1 -0.5,-0.3 -0.8,-0.5c-0.3,-0.2 -0.6,-0.4 -0.9,-0.6c-0.3,-0.2 -0.6,-0.5 -0.9,-0.8c-0.3,-0.3 -0.6,-0.7 -0.9,-1c-0.3,-0.4 -0.5,-0.8 -0.8,-1.1c-0.4,-0.8 -0.8,-1.6 -1.1,-2.4c-0.3,-0.8 -0.5,-1.6 -0.6,-2.2c-0.1,-1.5 -0.1,-2.4 -0.1,-2.4z" fill="#59402f"/><path d="M196.67441,186.9c0,0 0.7,0.2 1.6,0.8c0.5,0.3 1,0.6 1.5,1c0.5,0.4 1.1,0.8 1.6,1.3c0.5,0.5 1,1 1.4,1.6c0.4,0.5 0.7,1.1 0.9,1.6c0.1,0.3 0.2,0.5 0.2,0.7c0.1,0.2 0.1,0.4 0.1,0.5c0.1,0.3 0.1,0.5 0.1,0.5c0,0 -0.1,-0.2 -0.2,-0.4c-0.1,-0.1 -0.1,-0.3 -0.2,-0.5c-0.1,-0.2 -0.2,-0.4 -0.3,-0.6c-0.1,-0.2 -0.3,-0.4 -0.5,-0.7c-0.2,-0.2 -0.4,-0.5 -0.6,-0.7c-0.4,-0.5 -0.9,-1 -1.4,-1.5c-0.5,-0.5 -1,-0.9 -1.5,-1.4c-0.5,-0.4 -1,-0.8 -1.4,-1.1c-0.7,-0.6 -1.3,-1.1 -1.3,-1.1z" fill="#59402f"/><path d="M205.27441,192.9c0,0 0.6,0.4 1.5,1c0.5,0.3 1,0.6 1.5,0.9c0.6,0.3 1.2,0.7 1.8,1c0.6,0.3 1.3,0.6 1.9,0.8c0.3,0.1 0.6,0.2 0.9,0.3c0.3,0.1 0.6,0.1 0.8,0.2c0.3,0 0.5,0.1 0.7,0.1c0.2,0 0.4,0 0.6,0c0.3,0 0.5,0 0.5,0c0,0 -0.2,0 -0.5,0.1c-0.2,0 -0.3,0.1 -0.6,0.1c-0.2,0 -0.5,0 -0.7,0c-0.5,0 -1.2,-0.1 -1.8,-0.3c-0.7,-0.2 -1.3,-0.5 -2,-0.8c-0.6,-0.3 -1.3,-0.7 -1.8,-1.1c-0.6,-0.4 -1,-0.8 -1.5,-1.1c-0.9,-0.6 -1.3,-1.2 -1.3,-1.2z" fill="#59402f"/><path d="M230.17441,113.5c0,0 3.1,0.2 7.7,1.1c2.3,0.4 5,1 7.8,1.8c1.4,0.4 2.9,0.8 4.3,1.2c1.5,0.4 3,0.9 4.4,1.4c2.9,1.1 5.8,2.4 8.5,3.3c1.4,0.5 2.7,0.9 4,1.2c1.3,0.3 2.5,0.5 3.7,0.6c1.2,0.1 2.2,0.2 3.2,0.2c0.9,0 1.8,0 2.4,0c1.4,-0.1 2.1,-0.1 2.1,-0.1c0,0 -0.8,0.1 -2.1,0.2c-0.7,0.1 -1.5,0.1 -2.5,0.1c-0.9,0 -2,0 -3.2,-0.1c-1.2,-0.1 -2.4,-0.3 -3.7,-0.5c-1.3,-0.3 -2.7,-0.6 -4.1,-1.1c-2.8,-0.9 -5.6,-2.2 -8.5,-3.2c-1.4,-0.5 -2.9,-0.9 -4.4,-1.4c-1.5,-0.4 -2.9,-0.8 -4.3,-1.2c-2.8,-0.8 -5.4,-1.4 -7.7,-1.9c-2.3,-0.5 -4.2,-0.9 -5.5,-1.2c-1.3,-0.3 -2.1,-0.4 -2.1,-0.4z" fill="#59402f"/><path d="M304.17441,123.6c0,0 1.2,0.3 3.2,0.9c2,0.6 4.9,1.6 8.2,3.2c3.3,1.6 7.1,3.6 10.7,6.4c3.7,2.8 7.2,6.2 10,10.3c1.4,2 2.6,4.2 3.6,6.4c1,2.2 2,4.4 2.8,6.5c0.8,2.2 1.4,4.3 1.8,6.4c0.4,2.1 0.6,4.1 0.6,5.9c0,3.7 -0.6,6.7 -1,8.8c-0.4,2.1 -0.6,3.3 -0.6,3.3c0,0 0.2,-1.2 0.5,-3.3c0.3,-2.1 0.8,-5.1 0.7,-8.8c-0.1,-1.8 -0.3,-3.8 -0.7,-5.8c-0.4,-2 -1.1,-4.1 -1.9,-6.3c-0.8,-2.1 -1.7,-4.3 -2.8,-6.4c-1,-2.2 -2.2,-4.3 -3.6,-6.3c-2.7,-4 -6.2,-7.4 -9.8,-10.2c-3.6,-2.8 -7.3,-4.9 -10.5,-6.5c-3.3,-1.6 -6.1,-2.7 -8.1,-3.4c-1.9,-0.8 -3.1,-1.1 -3.1,-1.1z" fill="#59402f"/><path d="M217.37441,202.9c0,0 0.3,0.3 1,0.7c0.7,0.5 1.7,1.1 3,1.9c0.7,0.4 1.4,0.8 2.2,1.2c0.8,0.4 1.7,0.9 2.6,1.3c1,0.4 2,0.9 3.1,1.4c1.1,0.5 2.2,0.9 3.4,1.4c1.2,0.5 2.5,0.9 3.8,1.4c1.3,0.5 2.7,0.9 4.1,1.3c2.9,0.8 5.9,1.6 9.1,2.3c0.8,0.2 1.6,0.4 2.4,0.5c0.8,0.1 1.6,0.3 2.5,0.4c0.8,0.1 1.7,0.3 2.5,0.4c0.8,0.1 1.7,0.2 2.5,0.3c0.8,0.1 1.7,0.2 2.6,0.2c0.9,0.1 1.7,0.2 2.6,0.2c1.7,0.1 3.5,0.1 5.2,0.2c3.5,-0.1 6.9,0 10.3,-0.3c3.4,-0.2 6.8,-0.5 10,-0.8c1.6,-0.2 3.2,-0.4 4.8,-0.5c1.6,-0.2 3.1,-0.4 4.5,-0.6c2.9,-0.4 5.7,-0.9 8.3,-1.5c2.5,-0.6 4.8,-1.2 6.9,-1.8c1,-0.3 1.9,-0.6 2.8,-1c0.8,-0.4 1.6,-0.6 2.3,-1c1.4,-0.6 2.4,-1.2 3.1,-1.6c0.7,-0.5 1,-0.7 1,-0.7c0,0 -0.3,0.3 -1,0.8c-0.7,0.4 -1.7,1.1 -3.1,1.7c-0.7,0.4 -1.5,0.6 -2.3,1c-0.9,0.3 -1.8,0.7 -2.8,1c-2,0.7 -4.3,1.3 -6.9,1.9c-2.5,0.6 -5.3,1.1 -8.3,1.6c-1.5,0.2 -3,0.5 -4.6,0.7c-1.6,0.2 -3.2,0.4 -4.8,0.6c-3.3,0.3 -6.6,0.6 -10,0.8c-3.4,0.3 -6.9,0.3 -10.4,0.3c-1.7,-0.1 -3.5,-0.2 -5.2,-0.2c-0.9,0 -1.7,-0.1 -2.6,-0.2c-0.9,-0.1 -1.7,-0.2 -2.6,-0.3c-0.9,-0.1 -1.7,-0.2 -2.5,-0.3c-0.8,-0.1 -1.7,-0.3 -2.5,-0.4c-0.8,-0.1 -1.7,-0.3 -2.5,-0.4c-0.8,-0.1 -1.6,-0.3 -2.4,-0.5c-3.2,-0.6 -6.3,-1.5 -9.1,-2.4c-1.4,-0.5 -2.8,-0.9 -4.1,-1.4c-1.3,-0.5 -2.6,-1 -3.8,-1.5c-1.2,-0.5 -2.4,-1 -3.4,-1.5c-1.1,-0.5 -2.1,-1 -3,-1.5c-0.9,-0.5 -1.8,-1 -2.6,-1.4c-0.8,-0.5 -1.5,-0.9 -2.2,-1.3c-1.3,-0.8 -2.3,-1.5 -3,-1.9c-0.6,-0.2 -0.9,-0.5 -0.9,-0.5z" fill="#59402f"/></g></g></g><path d="M325.77441,189c-2.1,9 -0.9,13.4 -1.3,26.1c-0.4,12.7 -10,35.9 -11.9,36.5c-4.7,1.4 -25.2,-1 -26.4,-2.8c-1.2,-1.8 6,-5.4 8.1,-7.7c2.1,-2.3 2.3,-7 -3.8,-21c-2,-4.7 -2.9,-7.4 -4.4,-11.3c-3.4,-9 7.9,-42.6 7.9,-42.6c0.6,-6.2 39.4,-10.2 31.8,22.8z" data-paper-data="{&quot;index&quot;:null}" fill="#8d674a"/><g data-paper-data="{&quot;index&quot;:null}"><path d="M293.37441,250.6c0,0 0,-0.3 0.3,-0.8c0.2,-0.5 0.6,-1 1.2,-1.4c0.5,-0.4 1.1,-0.7 1.6,-0.9c0.5,-0.2 0.8,-0.2 0.8,-0.2c0,0 -0.1,0.1 -0.2,0.2c-0.1,0.1 -0.3,0.2 -0.5,0.4c-0.4,0.3 -0.9,0.7 -1.3,1.1c-0.5,0.4 -0.9,0.8 -1.3,1.1c-0.4,0.2 -0.6,0.5 -0.6,0.5z" fill="#59402f"/><path d="M287.97441,249c0,0 0.1,-0.4 0.5,-0.9c0.3,-0.5 0.9,-1.1 1.5,-1.5c0.3,-0.2 0.7,-0.4 1,-0.5c0.3,-0.1 0.7,-0.2 1,-0.3c0.3,-0.1 0.5,-0.1 0.7,-0.1c0.2,0 0.3,0 0.3,0c0,0 -0.1,0.1 -0.2,0.1c-0.2,0.1 -0.4,0.2 -0.6,0.3c-0.5,0.3 -1.1,0.6 -1.7,1c-0.6,0.4 -1.2,0.9 -1.6,1.2c-0.6,0.4 -0.9,0.7 -0.9,0.7z" fill="#59402f"/><path d="M293.87441,252.1c0.2,-0.6 1.7,-2.9 2.8,-2.6c1.1,0.3 0.1,1.2 -0.6,1.7c-0.7,0.6 -2.3,1.3 -2.2,0.9z" fill="#6c5f57"/><path d="M288.77441,250.2c0.2,-0.6 1.7,-2.9 2.8,-2.6c1.1,0.3 0.1,1.2 -0.6,1.7c-0.8,0.5 -2.4,1.2 -2.2,0.9z" fill="#6c5f57"/><path d="M285.47441,249c0.2,-0.6 1.7,-2.9 2.8,-2.6c1.1,0.3 0.1,1.2 -0.6,1.7c-0.7,0.6 -2.3,1.3 -2.2,0.9z" fill="#6c5f57"/></g><g data-paper-data="{&quot;index&quot;:null}"><path d="M324.77441,191.7c0,0 3.9,12.2 6.2,12.9c0,0 -2.7,0.9 -3.9,-1.1c0,0 3.5,3.2 3,7.8l-2.4,-1.9c0,0 1.6,7.4 -0.3,11.3l-1.6,-3.9c0,0 0.9,7.2 -4.3,9.1" fill="#8d674a"/><path d="M330.77441,204.5c0,0 -0.2,0 -0.5,-0.3c-0.3,-0.2 -0.6,-0.5 -1,-1c-0.7,-0.9 -1.5,-2.2 -2.1,-3.6c-0.3,-0.7 -0.6,-1.4 -0.8,-2.1c-0.2,-0.7 -0.4,-1.3 -0.6,-1.9c-0.3,-1.1 -0.4,-1.8 -0.4,-1.8c0,0 0.3,0.7 0.8,1.7c0.5,1 1,2.4 1.7,3.8c0.3,0.7 0.6,1.4 0.9,2c0.3,0.6 0.6,1.2 0.9,1.7c0.3,0.5 0.5,0.9 0.7,1.1c0.3,0.3 0.4,0.4 0.4,0.4z" fill="#59402f"/><path d="M329.87441,211.1c0,0 -0.1,-0.5 -0.2,-1.1c-0.1,-0.7 -0.3,-1.5 -0.5,-2.3c-0.1,-0.4 -0.3,-0.8 -0.4,-1.2c-0.1,-0.4 -0.3,-0.7 -0.5,-1c-0.2,-0.3 -0.3,-0.5 -0.4,-0.7c-0.1,-0.2 -0.2,-0.3 -0.2,-0.3c0,0 0.1,0.1 0.3,0.2c0.2,0.1 0.4,0.3 0.6,0.6c0.2,0.3 0.5,0.6 0.7,1c0.2,0.4 0.4,0.8 0.5,1.3c0.1,0.4 0.2,0.9 0.2,1.3c0,0.4 0,0.8 0,1.2c0.1,0.6 -0.1,1 -0.1,1z" fill="#59402f"/><path d="M327.37441,220.3c0,0 0.3,-0.6 0.5,-1.7c0.1,-0.5 0.2,-1.1 0.2,-1.7c0,-0.6 0.1,-1.3 0,-2c0,-0.7 0,-1.4 -0.1,-2c0,-0.6 -0.1,-1.3 -0.1,-1.8c0,-0.5 -0.1,-1 -0.1,-1.3c0,-0.3 0,-0.5 0,-0.5c0,0 0.1,0.2 0.2,0.5c0.1,0.3 0.3,0.7 0.4,1.2c0.1,0.5 0.3,1.1 0.4,1.8c0.1,0.7 0.2,1.4 0.2,2.1c0,1.4 -0.2,2.9 -0.5,3.9c-0.2,0.5 -0.4,0.9 -0.6,1.2c-0.4,0.2 -0.5,0.3 -0.5,0.3z" fill="#59402f"/><path d="M322.97441,225c0,0 0.1,-0.1 0.3,-0.2c0.2,-0.2 0.4,-0.4 0.6,-0.8c0.4,-0.7 0.8,-1.7 1,-2.8c0.3,-1.1 0.4,-2.1 0.6,-3c0.1,-0.8 0.3,-1.4 0.3,-1.4c0,0 0,0.1 0.1,0.4c0,0.2 0.1,0.6 0.1,1c0,0.4 0,0.9 0,1.4c0,0.3 0,0.5 -0.1,0.8c-0.1,0.3 -0.1,0.6 -0.2,0.8c-0.2,0.6 -0.3,1.1 -0.6,1.6c-0.2,0.5 -0.5,0.9 -0.8,1.2c-0.3,0.3 -0.6,0.5 -0.8,0.7c-0.4,0.3 -0.5,0.3 -0.5,0.3z" fill="#59402f"/></g><path d="M324.17441,219.6c0,0 -0.5,2.3 -1.4,5.7c-0.5,1.7 -1,3.7 -1.6,5.8c-0.6,2.1 -1.3,4.3 -2.1,6.6c-0.8,2.2 -1.6,4.4 -2.4,6.4c-0.4,1 -0.8,2 -1.3,2.9c-0.4,0.9 -0.9,1.8 -1.3,2.5c-0.4,0.8 -0.9,1.4 -1.4,2c-0.1,0.1 -0.2,0.3 -0.4,0.3c-0.2,0.1 -0.3,0.1 -0.5,0.1c-0.3,0 -0.6,0.1 -0.8,0.1c-1,0.1 -1.6,0 -1.6,0c0,0 0.6,0 1.6,-0.2c0.3,0 0.5,-0.1 0.8,-0.1c0.3,-0.1 0.6,-0.1 0.8,-0.4c0.5,-0.5 0.9,-1.2 1.3,-2c0.8,-1.5 1.6,-3.4 2.4,-5.5c0.8,-2 1.6,-4.2 2.3,-6.4c0.8,-2.2 1.5,-4.4 2.1,-6.5c0.7,-2.1 1.3,-4 1.8,-5.7c1,-3.3 1.7,-5.6 1.7,-5.6z" data-paper-data="{&quot;index&quot;:null}" fill="#59402f"/><path d="M290.57441,176.9c0,0 -0.3,1.1 -0.8,2.9c-0.5,1.9 -1.1,4.5 -1.8,7.7c-0.3,1.6 -0.7,3.4 -1,5.2c-0.3,1.9 -0.6,3.8 -0.8,5.8c-0.2,2 -0.3,4.1 -0.3,6.3c0,2.1 0.5,4.2 1.2,6.3c1.3,4.2 3.1,8.2 4.7,11.9c0.8,1.9 1.5,3.7 2.2,5.5c0.6,1.8 1.1,3.5 1.4,5.1c0.1,0.8 0.2,1.6 0.2,2.4c0,0.7 0,1.5 -0.1,2.1c-0.1,0.7 -0.3,1.3 -0.6,1.8c-0.3,0.5 -0.6,0.9 -1,1.3c-0.7,0.7 -1.3,1.1 -1.8,1.4c-0.4,0.3 -0.7,0.4 -0.7,0.4c0,0 0.2,-0.2 0.6,-0.5c0.4,-0.3 1,-0.7 1.7,-1.4c0.7,-0.7 1.3,-1.7 1.4,-3c0.1,-0.7 0,-1.4 0,-2.1c0,-0.7 -0.1,-1.5 -0.2,-2.3c-0.6,-3.2 -2.1,-6.7 -3.7,-10.5c-1.6,-3.8 -3.4,-7.8 -4.8,-12c-0.6,-2.1 -1.1,-4.3 -1.1,-6.5c-0.1,-2.2 0.1,-4.3 0.3,-6.4c0.2,-2.1 0.5,-4 0.9,-5.9c0.3,-1.9 0.7,-3.6 1.1,-5.2c0.7,-3.2 1.5,-5.8 2,-7.7c0.7,-1.6 1,-2.6 1,-2.6z" data-paper-data="{&quot;index&quot;:null}" fill="#59402f"/><g data-paper-data="{&quot;index&quot;:null}"><g><path d="M216.07441,143.1c-0.1,6.5 2.5,10.3 2.5,10.3c-2.7,0 -5.4,-4.9 -5.4,-4.9c3.9,9 -2.2,15.2 -2.2,15.2c0.6,-5.7 -1.4,-7.5 -1.4,-7.5c3,10.9 -8.4,13.5 -8.4,13.5c1.7,-1.2 2.9,-5.5 2.9,-5.5c-8.8,9.8 -26.1,7.6 -35.8,8.1c-9.7,0.5 -16.8,-0.3 -25.1,-1c-8.3,-0.6 -14.9,-10.5 -15.3,-14.7c-0.4,-4.2 20.1,-15 20.1,-15c0,0 0.6,-13.2 3.7,-18.8c3.1,-5.6 25.9,-17.5 46.2,-14.7c17,2.4 18.2,28.5 18.2,35z" fill="#8d674a"/><path d="M223.17441,131.7c-0.1,6.5 -4.6,21.7 -4.6,21.7c-2.7,0 -5.4,-4.9 -5.4,-4.9c3.9,9 -2.2,15.2 -2.2,15.2c0.6,-5.7 -1.4,-7.5 -1.4,-7.5c3,10.9 -8.4,13.5 -8.4,13.5c1.7,-1.2 2.9,-5.5 2.9,-5.5c-8.8,9.8 -24.8,9.4 -34.4,10c-9.6,0.6 -18.2,-2.2 -26.5,-2.9c-8.3,-0.6 -14.9,-10.5 -15.3,-14.7c-0.4,-4.2 20,-14.9 20,-14.9c0,0 0.6,-13.1 3.7,-18.8c3.1,-5.7 22.8,-17.6 43.2,-15.6c14.4,1.4 28.5,17.9 28.4,24.4z" fill="#8d674a"/><path d="M148.07441,141.6c15,12.2 -1.1,23.3 -1.1,23.3c-0.2,2.7 -3,4.7 -5.5,6.1c-7.5,-1.7 -13.2,-10.4 -13.6,-14.4c-0.4,-4.2 20.1,-14.9 20.2,-15z" fill="#9e7b5c"/><path d="M128.77441,159.9c-0.9,-1.6 -2.3,-3.2 -1.4,-4.6c0.5,-0.9 1.7,-2.4 2.7,-2.3c1,0 2.5,3 -0.5,4.5c0.4,1.5 -0.2,2 -0.8,2.4z" fill="#332721"/><path d="M134.17441,166.6c0,0 0.5,-0.3 1.3,-0.7c0.4,-0.2 0.9,-0.3 1.4,-0.5c0.5,-0.1 1.1,-0.3 1.7,-0.3c0.6,-0.1 1.2,-0.1 1.8,-0.1c0.6,0 1.1,0.1 1.5,0.2c0.4,0.1 0.8,0.2 1,0.3c0.2,0.1 0.4,0.2 0.4,0.2c0,0 -0.2,0 -0.4,0c-0.3,0 -0.6,-0.1 -1,-0.1c-0.2,0 -0.4,0 -0.7,0c-0.2,0 -0.5,0 -0.8,0c-0.5,0 -1.1,0.1 -1.7,0.1c-1.1,0.1 -2.3,0.3 -3.1,0.5c-0.8,0.3 -1.4,0.4 -1.4,0.4z" fill="#59402f"/><path d="M156.28211,141.15637c-0.13173,-1.42991 0.5194,-2.6589 1.45434,-2.74504c0.93494,-0.08614 1.79965,1.00321 1.93138,2.43312c0.13174,1.42991 -0.51939,2.6589 -1.45433,2.74504c-0.93494,0.08614 -1.79966,-1.00321 -1.93139,-2.43312z" fill="#332010"/><path d="M161.17441,134.2c0.1,1.1 -3,1.8 -4.4,1.9c-1.4,0.1 -2.7,-0.6 -2.8,-1.7c-0.1,-1.1 1,-2 2.4,-2.2c1.5,0 4.7,0.9 4.8,2z" fill="#9e7b5c"/><path d="M147.97441,141.7c0,0 0,-0.8 0,-2.3c0.1,-1.4 0.1,-3.5 0.4,-6c0.1,-1.2 0.3,-2.6 0.6,-4c0.3,-1.4 0.6,-2.9 1.2,-4.3c0.3,-0.7 0.6,-1.5 1,-2.2c0.5,-0.7 0.9,-1.3 1.5,-2c1.1,-1.2 2.3,-2.4 3.6,-3.4c1.3,-1 2.7,-1.9 4.1,-2.7c1.4,-0.8 2.8,-1.6 4.2,-2.2c1.4,-0.7 2.8,-1.2 4.1,-1.7c1.4,-0.5 2.7,-0.9 3.9,-1.2c1.2,-0.4 2.3,-0.7 3.3,-0.9c1,-0.2 1.8,-0.5 2.5,-0.6c1.4,-0.3 2.2,-0.5 2.2,-0.5c0,0 -0.8,0.2 -2.2,0.6c-1.4,0.4 -3.4,1 -5.7,1.7c-1.2,0.4 -2.4,0.8 -3.7,1.4c-1.3,0.5 -2.7,1.1 -4.1,1.8c-1.4,0.7 -2.8,1.4 -4.2,2.2c-1.4,0.8 -2.7,1.8 -4,2.7c-1.3,1 -2.5,2.1 -3.6,3.3c-0.5,0.6 -1,1.2 -1.4,1.9c-0.4,0.7 -0.7,1.4 -1,2.1c-1.1,2.9 -1.6,5.7 -1.9,8.1c-0.7,4.9 -0.8,8.2 -0.8,8.2z" fill="#59402f"/><path d="M201.17441,169.8c0,0 0.3,-0.1 0.7,-0.2c0.5,-0.1 1.1,-0.4 1.9,-0.8c0.4,-0.2 0.8,-0.4 1.2,-0.7c0.4,-0.2 0.8,-0.6 1.2,-0.9c0.4,-0.3 0.8,-0.7 1.2,-1.1c0.4,-0.4 0.7,-0.8 1,-1.3c0.3,-0.4 0.5,-1 0.8,-1.4c0.2,-0.5 0.3,-1 0.5,-1.5c0.1,-0.5 0.1,-1 0.2,-1.5c0.1,-0.5 0,-0.9 0,-1.4c0,-0.4 0,-0.8 -0.1,-1.2c0,-0.3 -0.1,-0.6 -0.1,-0.9c-0.1,-0.5 -0.1,-0.8 -0.1,-0.8c0,0 0.1,0.3 0.2,0.8c0.1,0.2 0.2,0.5 0.2,0.9c0.1,0.3 0.2,0.7 0.2,1.2c0,0.4 0.1,0.9 0.1,1.4c0,0.5 0,1 -0.1,1.6c-0.2,0.5 -0.2,1.1 -0.5,1.6c-0.2,0.5 -0.4,1.1 -0.8,1.6c-0.3,0.5 -0.7,0.9 -1.1,1.4c-0.4,0.4 -0.9,0.8 -1.3,1.1c-0.9,0.6 -1.8,1.1 -2.6,1.4c-1.5,0.6 -2.7,0.7 -2.7,0.7z" fill="#59402f"/><path d="M210.97441,163.7c0,0 0.7,-0.7 1.5,-2.1c0.2,-0.3 0.4,-0.7 0.6,-1.1c0.2,-0.4 0.4,-0.8 0.5,-1.3c0.1,-0.2 0.2,-0.4 0.2,-0.7c0.1,-0.2 0.1,-0.5 0.2,-0.7c0.1,-0.5 0.2,-1 0.3,-1.5c0.1,-0.5 0.1,-1 0.1,-1.5c0,-0.5 0,-1 -0.1,-1.5c-0.1,-0.5 -0.1,-0.9 -0.2,-1.4c-0.1,-0.4 -0.2,-0.8 -0.3,-1.2c-0.1,-0.4 -0.2,-0.7 -0.3,-1c-0.1,-0.3 -0.2,-0.6 -0.2,-0.8c-0.1,-0.4 -0.2,-0.7 -0.2,-0.7c0,0 0.1,0.2 0.3,0.6c0.1,0.2 0.2,0.5 0.4,0.7c0.2,0.3 0.3,0.6 0.4,1c0.1,0.4 0.3,0.8 0.4,1.2c0.1,0.4 0.2,0.9 0.3,1.4c0,0.5 0.1,1 0.1,1.5c0,0.5 0,1 -0.1,1.6c-0.1,0.5 -0.2,1 -0.3,1.5c-0.1,0.2 -0.1,0.5 -0.2,0.7c-0.1,0.2 -0.2,0.5 -0.3,0.7c-0.2,0.5 -0.4,0.9 -0.6,1.3c-0.2,0.4 -0.5,0.7 -0.7,1.1c-0.5,0.6 -0.9,1.1 -1.3,1.4c-0.3,0.7 -0.5,0.8 -0.5,0.8z" fill="#59402f"/><path d="M218.47441,153.4c0,0 -0.2,-0.2 -0.4,-0.5c-0.2,-0.4 -0.6,-0.9 -0.9,-1.6c-0.3,-0.7 -0.6,-1.5 -0.8,-2.4c-0.2,-0.9 -0.4,-1.9 -0.5,-2.8c-0.1,-0.5 -0.1,-1 -0.1,-1.5c0,-0.5 -0.1,-1 -0.1,-1.4c-0.1,-0.9 0,-1.8 0,-2.5c0,-0.7 0.1,-1.3 0.1,-1.8c0,-0.4 0.1,-0.7 0.1,-0.7c0,0 0,0.2 0.1,0.7c0,0.4 0.1,1 0.1,1.8c0,0.7 0.1,1.6 0.2,2.5c0.1,0.9 0.2,1.9 0.3,2.8c0.1,1 0.2,1.9 0.4,2.8c0.2,0.9 0.4,1.7 0.6,2.4c0.2,0.7 0.4,1.2 0.6,1.6c0.2,0.4 0.3,0.6 0.3,0.6z" fill="#59402f"/><path d="M192.07441,107.2c0,0 0.4,-0.1 1.1,-0.2c0.3,0 0.8,0 1.2,0c0.5,0 1,0.1 1.6,0.2c0.6,0.1 1.2,0.2 1.9,0.4c0.6,0.2 1.3,0.3 2,0.6c0.7,0.2 1.4,0.5 2.1,0.8c0.7,0.3 1.4,0.7 2.1,1c0.7,0.3 1.4,0.8 2,1.1c0.7,0.4 1.3,0.8 1.9,1.2c1.2,0.8 2.3,1.6 3.2,2.3c0.5,0.3 0.9,0.7 1.2,1c0.4,0.3 0.7,0.6 0.9,0.8c0.5,0.4 0.8,0.7 0.8,0.7c0,0 -0.3,-0.2 -0.9,-0.6c-0.3,-0.2 -0.6,-0.4 -1,-0.7c-0.4,-0.3 -0.8,-0.6 -1.3,-0.9c-0.5,-0.3 -1,-0.7 -1.6,-1c-0.5,-0.4 -1.2,-0.7 -1.8,-1.1c-0.6,-0.4 -1.2,-0.8 -1.9,-1.1c-0.7,-0.4 -1.3,-0.8 -2,-1.1c-0.7,-0.3 -1.4,-0.7 -2.1,-1c-0.7,-0.3 -1.4,-0.6 -2,-0.9c-1.3,-0.5 -2.6,-0.9 -3.8,-1.2c-0.6,-0.1 -1.1,-0.2 -1.6,-0.3c-0.5,-0.1 -0.9,-0.1 -1.2,-0.1c-0.4,0 -0.8,0.1 -0.8,0.1z" fill="#59402f"/></g><g><path d="M179.07441,110.1c0,0 1.7,-8.2 6.3,-8.8c4.6,-0.6 15.3,3.9 7.2,16.6" fill="#8d674a"/><path d="M185.57441,103.8c0,0 0.4,0.6 0.7,1.5c0.2,0.5 0.4,1 0.5,1.6c0.2,0.6 0.3,1.2 0.3,1.9c0,0.3 0,0.7 0,1c-0.1,0.3 -0.1,0.7 -0.2,1c-0.1,0.3 -0.2,0.6 -0.3,0.9c-0.1,0.3 -0.2,0.5 -0.4,0.7c-0.3,0.4 -0.5,0.7 -0.8,0.9c-0.2,0.2 -0.3,0.3 -0.3,0.3c0,0 0.1,-0.1 0.2,-0.4c0.1,-0.1 0.2,-0.3 0.3,-0.4c0.1,-0.2 0.2,-0.4 0.3,-0.6c0.1,-0.2 0.2,-0.5 0.2,-0.7c0.1,-0.3 0.1,-0.5 0.2,-0.8c0.1,-0.3 0.1,-0.6 0.1,-0.9c0,-0.3 0,-0.6 0,-0.9c0,-0.6 -0.1,-1.3 -0.2,-1.8c-0.1,-0.6 -0.2,-1.1 -0.3,-1.6c-0.1,-1.1 -0.3,-1.7 -0.3,-1.7z" fill="#59402f"/><g fill="#59402f"><path d="M187.87441,112.8c0,0 0,0.2 -0.1,0.3c-0.1,0.2 -0.2,0.4 -0.4,0.6c-0.2,0.2 -0.4,0.4 -0.6,0.5c-0.2,0.1 -0.3,0.1 -0.3,0.1c0,0 0,-0.2 0.1,-0.3c0.1,-0.2 0.2,-0.4 0.4,-0.6c0.2,-0.2 0.4,-0.4 0.6,-0.5c0.1,0 0.3,-0.1 0.3,-0.1z"/><path d="M189.07441,114.1c0,0 0,0.1 -0.1,0.3c-0.1,0.2 -0.2,0.3 -0.3,0.5c-0.1,0.1 -0.3,0.3 -0.5,0.3c-0.2,0.1 -0.3,0.1 -0.3,0.1c0,0 0,-0.1 0.1,-0.3c0.1,-0.2 0.2,-0.3 0.3,-0.5c0.1,-0.1 0.3,-0.3 0.5,-0.3c0.1,-0.1 0.3,-0.1 0.3,-0.1z"/></g><path d="M191.97441,103c0,0 -0.3,-0.1 -0.7,-0.4c-0.5,-0.2 -1.2,-0.5 -2,-0.7c-0.2,-0.1 -0.4,-0.1 -0.7,-0.2c-0.2,0 -0.5,-0.1 -0.7,-0.1c-0.2,0 -0.5,0 -0.8,0c-0.3,0 -0.5,0 -0.8,0c-0.3,0 -0.5,0.1 -0.8,0.1c-0.3,0.1 -0.5,0.2 -0.8,0.2c-0.2,0.1 -0.4,0.2 -0.6,0.4c-0.2,0.1 -0.5,0.2 -0.7,0.4c-0.4,0.4 -0.9,0.7 -1.2,1.1c-0.4,0.4 -0.7,0.8 -1,1.3c-0.2,0.5 -0.6,0.9 -0.7,1.4c-0.2,0.5 -0.4,0.9 -0.6,1.3c-0.2,0.4 -0.3,0.8 -0.4,1.1c-0.1,0.3 -0.2,0.6 -0.3,0.9c-0.2,0.5 -0.3,0.8 -0.3,0.8c0,0 0,-0.3 0.1,-0.8c0,-0.3 0.1,-0.6 0.2,-0.9c0.1,-0.4 0.1,-0.8 0.3,-1.2c0.1,-0.4 0.3,-0.9 0.5,-1.4c0.1,-0.5 0.4,-1 0.7,-1.5c0.2,-0.5 0.6,-1 1,-1.5c0.3,-0.5 0.9,-0.9 1.3,-1.3c0.2,-0.2 0.5,-0.3 0.8,-0.5c0.3,-0.1 0.5,-0.3 0.8,-0.4c0.3,-0.1 0.6,-0.2 0.9,-0.2c0.3,0.2 0.6,0.1 0.9,0.1c0.3,0 0.6,0 0.8,0c0.3,0 0.5,0 0.8,0.1c0.3,0.1 0.5,0.1 0.7,0.2c0.2,0.1 0.5,0.2 0.7,0.2c0.4,0.1 0.8,0.3 1.1,0.5c0.3,0.2 0.6,0.3 0.8,0.5c0.5,0.3 0.7,0.5 0.7,0.5z" fill="#59402f"/></g></g><g data-paper-data="{&quot;index&quot;:null}"><path d="M270.87441,189.6c1.1,23.1 -17.3,24.4 -20.2,26.2c-1.4,0.9 -18.1,14.9 -18.1,14.9c0,0 4.5,8.8 -0.2,13.6c-4.9,5 -20.4,-16.6 -18.3,-24.6c0.8,-3.1 17.9,-19.5 17.9,-19.5c0,0 -4.6,-5.5 -7.2,-21.8c-3.6,-22.6 41,-35.6 46.1,11.2z" fill="#8d674a"/><path d="M263.47441,168.6c0,0 7.1,10.7 9.5,10.7c0,0 -2.4,1.7 -4,0c0,0 4.3,2.1 5,6.6l-2.8,-1.2c0,0 3.6,6.6 2.8,10.9l-2.6,-3.3c0,0 2.8,6.6 -1.7,10" fill="#8d674a"/><path d="M272.77441,179.2c0,0 -0.2,0 -0.5,-0.1c-0.3,-0.1 -0.8,-0.3 -1.2,-0.7c-1,-0.7 -2,-1.8 -3,-2.9c-0.5,-0.6 -0.9,-1.2 -1.4,-1.8c-0.4,-0.6 -0.8,-1.1 -1.1,-1.6c-0.6,-1 -0.9,-1.7 -0.9,-1.7c0,0 0.5,0.6 1.2,1.4c0.7,0.9 1.7,2 2.6,3.2c0.5,0.6 1,1.1 1.4,1.7c0.5,0.5 0.9,1 1.3,1.4c0.4,0.4 0.8,0.7 1,0.9c0.5,0.2 0.6,0.2 0.6,0.2z" fill="#59402f"/><path d="M273.97441,186c0,0 -0.2,-0.4 -0.5,-1.1c-0.3,-0.6 -0.7,-1.4 -1.2,-2.2c-0.2,-0.4 -0.5,-0.7 -0.7,-1.1c-0.1,-0.2 -0.2,-0.3 -0.4,-0.5c-0.1,-0.1 -0.2,-0.3 -0.4,-0.4c-0.2,-0.2 -0.4,-0.5 -0.6,-0.6c-0.2,-0.1 -0.2,-0.2 -0.2,-0.2c0,0 0.1,0 0.3,0.1c0.2,0.1 0.5,0.2 0.8,0.4c0.2,0.1 0.3,0.2 0.5,0.3c0.2,0.1 0.3,0.3 0.5,0.4c0.3,0.3 0.6,0.7 0.9,1.1c0.5,0.8 0.8,1.7 1,2.4c0,0.9 0,1.4 0,1.4z" fill="#59402f"/><path d="M274.07441,195.6c0,0 0.1,-0.7 -0.1,-1.8c-0.1,-1.1 -0.4,-2.4 -0.9,-3.8c-0.2,-0.7 -0.4,-1.4 -0.7,-2c-0.2,-0.6 -0.5,-1.2 -0.6,-1.7c-0.2,-0.5 -0.4,-0.9 -0.5,-1.2c-0.1,-0.3 -0.2,-0.5 -0.2,-0.5c0,0 0.1,0.1 0.3,0.4c0.2,0.3 0.4,0.6 0.7,1.1c0.6,0.9 1.2,2.3 1.6,3.7c0.2,0.7 0.4,1.4 0.5,2.1c0.1,0.7 0.1,1.3 0.1,1.9c0,0.6 -0.1,1 -0.2,1.3c0.1,0.4 0,0.5 0,0.5z" fill="#59402f"/><path d="M232.77441,230.4c0,0 2.5,-2.2 6.1,-5.4c1.8,-1.6 4,-3.5 6.3,-5.6c1.2,-1 2.4,-2.1 3.7,-3c1.3,-0.9 2.9,-1.7 4.5,-2.1c0.8,-0.2 1.6,-0.4 2.3,-0.7c0.8,-0.3 1.5,-0.6 2.2,-0.9c1.4,-0.7 2.7,-1.6 4,-2.4c0.6,-0.5 1.2,-0.9 1.8,-1.3c0.6,-0.4 1.1,-0.9 1.6,-1.4c1,-1 1.7,-2.1 2.3,-3.2c1.2,-2.1 1.8,-4.1 2.1,-5.5c0.3,-1.4 0.4,-2.2 0.4,-2.2c0,0 0,0.8 -0.3,2.2c-0.3,1.4 -0.8,3.4 -1.9,5.7c-0.6,1.1 -1.3,2.3 -2.2,3.3c-0.9,1.1 -2.2,2 -3.4,2.9c-1.3,0.9 -2.6,1.8 -4.1,2.6c-1.5,0.8 -3.1,1.2 -4.7,1.6c-3.1,0.8 -5.8,2.8 -8.2,4.7c-2.3,2 -4.5,3.9 -6.4,5.5c-3.6,3.1 -6.1,5.2 -6.1,5.2z" fill="#59402f"/><path d="M270.07441,202c0,0 0.5,-0.4 0.9,-1.3c0.2,-0.4 0.4,-0.9 0.5,-1.5c0.1,-0.3 0.1,-0.6 0.1,-0.9c0.1,-0.3 0.1,-0.6 0.1,-0.9c0,-0.3 0,-0.6 0,-0.9c0,-0.3 0,-0.6 0,-0.9c0,-0.6 -0.1,-1.1 -0.1,-1.6c0,-0.5 -0.1,-0.9 -0.1,-1.1c0,-0.3 0,-0.4 0,-0.4c0,0 0.1,0.1 0.2,0.4c0.1,0.3 0.3,0.6 0.4,1.1c0.1,0.5 0.3,1 0.3,1.6c0,0.3 0.1,0.6 0.1,0.9c0,0.3 0,0.6 0,1c0,0.7 -0.1,1.3 -0.3,1.9c-0.1,0.3 -0.2,0.6 -0.3,0.8c-0.1,0.3 -0.3,0.5 -0.4,0.7c-0.3,0.4 -0.6,0.7 -0.8,0.9c-0.4,0.2 -0.6,0.2 -0.6,0.2z" fill="#59402f"/><path d="M215.17441,227.7c-0.4,-0.6 -0.7,-1.3 -0.9,-2c-0.2,-0.7 -0.4,-1.4 -0.5,-2.1c-0.1,-0.7 -0.1,-1.5 -0.2,-2.2c0,-0.4 0,-0.7 0,-1.1c0,-0.4 0.2,-0.8 0.4,-1.1c0.7,-1.3 1.6,-2.5 2.4,-3.7c0.9,-1.2 1.8,-2.3 2.8,-3.4c1.9,-2.2 4,-4.3 6,-6.4c2,-2.1 4.1,-4.1 6.3,-6.1v0.4c-1.3,-2 -2.3,-4.1 -3.1,-6.3c-0.4,-1.1 -0.8,-2.2 -1.1,-3.4c-0.2,-0.6 -0.3,-1.1 -0.4,-1.7c-0.1,-0.6 -0.2,-1.2 -0.3,-1.7c0.3,1.1 0.6,2.3 1,3.4c0.4,1.1 0.8,2.2 1.2,3.3c0.4,1.1 1,2.1 1.5,3.2c0.5,1 1.1,2.1 1.7,3l0.1,0.2l-0.2,0.2c-2.1,2 -4.2,4.1 -6.2,6.1c-2.1,2.1 -4.1,4.1 -6,6.3c-1,1.1 -1.9,2.2 -2.9,3.3c-0.9,1.1 -1.8,2.3 -2.5,3.5c-0.2,0.3 -0.3,0.6 -0.3,1c0,0.3 0,0.7 0,1.1c0,0.7 0,1.4 0.1,2.2c0.1,0.7 0.2,1.4 0.3,2.1c0.2,0.6 0.4,1.3 0.8,1.9z" fill="#59402f"/><g><path d="M234.07441,237.4c0,0 -0.3,0 -0.8,0c-0.5,-0.1 -1.1,-0.3 -1.7,-0.7c-0.6,-0.4 -1,-0.9 -1.3,-1.3c-0.3,-0.4 -0.4,-0.7 -0.4,-0.7c0,0 0.1,0 0.2,0.1c0.1,0.1 0.3,0.2 0.5,0.3c0.4,0.3 0.9,0.7 1.4,1c0.5,0.4 1,0.7 1.4,0.9c0.4,0.2 0.7,0.4 0.7,0.4z" fill="#59402f"/><path d="M233.57441,243c0,0 -0.4,0 -0.9,-0.2c-0.6,-0.2 -1.3,-0.5 -1.9,-1.1c-0.3,-0.3 -0.6,-0.5 -0.8,-0.8c-0.2,-0.3 -0.4,-0.6 -0.5,-0.8c-0.1,-0.3 -0.2,-0.5 -0.3,-0.7c0,-0.2 -0.1,-0.3 -0.1,-0.3c0,0 0.1,0.1 0.2,0.2c0.1,0.1 0.3,0.3 0.5,0.5c0.4,0.4 0.9,0.9 1.4,1.4c0.5,0.5 1.1,0.9 1.6,1.2c0.5,0.4 0.8,0.6 0.8,0.6z" fill="#59402f"/><path d="M235.47441,236.4c-0.6,0 -3.3,-0.9 -3.3,-2c0,-1.1 1.1,-0.4 1.9,0.1c0.8,0.5 1.8,1.9 1.4,1.9z" fill="#6c5f57"/><path d="M234.97441,241.9c-0.6,0 -3.3,-0.9 -3.3,-2c0,-1.1 1.1,-0.4 1.9,0.1c0.7,0.6 1.8,1.9 1.4,1.9z" fill="#6c5f57"/><path d="M234.07441,245.4c-0.6,0 -3.3,-0.9 -3.3,-2c0,-1.1 1.1,-0.4 1.9,0.1c0.7,0.6 1.8,1.9 1.4,1.9z" fill="#6c5f57"/></g><path d="M229.67441,202.3c0,0 0.1,-0.4 0.5,-1c0.2,-0.3 0.5,-0.6 0.8,-0.9c0.3,-0.3 0.7,-0.6 1.1,-0.8c0.4,-0.2 0.8,-0.4 1.2,-0.6c0.4,-0.1 0.8,-0.2 1.1,-0.3c0.3,-0.1 0.6,0 0.8,-0.1c0.2,0 0.3,0 0.3,0c0,0 -0.1,0.1 -0.3,0.1c-0.2,0.1 -0.4,0.2 -0.7,0.3c-0.3,0.1 -0.7,0.3 -1,0.5c-0.4,0.2 -0.7,0.4 -1.1,0.6c-0.7,0.4 -1.4,0.9 -1.9,1.4c-0.5,0.4 -0.8,0.8 -0.8,0.8z" fill="#59402f"/></g></g></g></svg>