<svg version="1.1" xmlns="http://www.w3.org/2000/svg" xmlns:xlink="http://www.w3.org/1999/xlink" width="225.2901" height="159.05488" viewBox="0,0,225.2901,159.05488"><g transform="translate(-128.7,-102.4)"><g data-paper-data="{&quot;isPaintingLayer&quot;:true}" fill-rule="nonzero" stroke="none" stroke-width="1" stroke-linecap="butt" stroke-linejoin="miter" stroke-miterlimit="10" stroke-dasharray="" stroke-dashoffset="0" style="mix-blend-mode: normal"><g data-paper-data="{&quot;index&quot;:null}"><path d="M257.9901,180.9c2.2,6.5 1.9,18.6 2.4,27.3c1.1,20.3 4,39.1 2.4,40.9c-2.3,2.5 -25.8,8.5 -26,5.2c-0.1,-3.3 3.8,-4.5 4.4,-7.7c0.6,-3.2 -13.1,-22.7 -15.5,-28.7c-2.5,-6.1 -5.3,-10.1 -11.2,-34.8c-5.4,-22.3 26,-45.9 43.5,-2.2z" fill="#856045"/><path d="M261.7901,249.7c0,0 0.3,0 0.6,-0.4c0.3,-0.4 0.4,-1 0.5,-1.9c0.1,-0.8 0.1,-1.9 0,-3.1c-0.1,-1.2 -0.2,-2.5 -0.3,-4c-0.3,-2.9 -0.7,-6.3 -1.1,-10c-0.4,-3.7 -0.7,-7.6 -1,-11.5c-0.3,-3.9 -0.4,-7.8 -0.6,-11.5c-0.1,-3.7 -0.2,-7.1 -0.2,-10c0,-5.9 0.1,-9.8 0.1,-9.8c0,0 0,3.9 0.2,9.8c0.1,2.9 0.2,6.4 0.4,10c0.2,3.7 0.4,7.6 0.7,11.5c0.3,3.9 0.7,7.8 1,11.5c0.3,3.7 0.7,7.1 0.9,10c0.2,2.9 0.3,5.4 0,7.1c-0.1,0.9 -0.4,1.5 -0.6,1.9c-0.3,0.5 -0.6,0.4 -0.6,0.4z" fill="#59402f"/><path d="M239.7901,249c0,0 0.2,-0.1 0.4,-0.5c0.2,-0.3 0.6,-0.9 0.7,-1.6c0.1,-0.8 0,-1.7 -0.4,-2.7c-0.5,-0.9 -1.2,-2 -1.9,-3.1c-1.4,-2.3 -3,-5 -4.6,-7.9c-0.8,-1.4 -1.7,-3 -2.5,-4.5c-0.8,-1.5 -1.7,-3.1 -2.5,-4.7c-1.7,-3.2 -3.2,-6.4 -4.7,-9.4c-1.5,-3 -2.8,-5.8 -3.9,-8.3c-2.3,-4.9 -3.8,-8.1 -3.8,-8.1c0,0 1.7,3.2 4.1,7.9c2.4,4.8 5.6,11.2 8.9,17.5c1.7,3.2 3.5,6.2 5.1,9.2c1.6,2.9 3.2,5.6 4.5,8c0.6,1.2 1.3,2.2 1.8,3.2c0.4,1 0.5,2.1 0.3,2.8c-0.2,0.8 -0.5,1.3 -0.8,1.6c-0.5,0.4 -0.7,0.6 -0.7,0.6z" fill="#59402f"/><g><path d="M244.4901,255.3c0,0 -0.1,-0.3 -0.1,-0.8c0,-0.5 0.2,-1.2 0.5,-1.8c0.3,-0.6 0.7,-1.1 1.1,-1.5c0.4,-0.3 0.7,-0.5 0.7,-0.5c0,0 0,0.1 -0.1,0.2c-0.1,0.1 -0.2,0.3 -0.3,0.5c-0.2,0.4 -0.5,1 -0.8,1.5c-0.3,0.6 -0.5,1.1 -0.7,1.6c-0.2,0.5 -0.3,0.8 -0.3,0.8z" fill="#59402f"/><path d="M238.8901,255.5c0,0 0,-0.4 0.1,-1c0.1,-0.6 0.4,-1.3 0.8,-2c0.2,-0.3 0.4,-0.6 0.7,-0.9c0.3,-0.3 0.5,-0.5 0.8,-0.6c0.2,-0.2 0.5,-0.3 0.6,-0.3c0.2,-0.1 0.2,-0.1 0.2,-0.1c0,0 -0.1,0.1 -0.2,0.2c-0.1,0.1 -0.3,0.3 -0.4,0.5c-0.3,0.4 -0.8,1 -1.2,1.6c-0.4,0.6 -0.7,1.3 -1,1.7c-0.2,0.6 -0.4,0.9 -0.4,0.9z" fill="#59402f"/><path d="M245.5901,256.5c-0.1,-0.6 0.4,-3.4 1.5,-3.6c1.1,-0.2 0.5,1.1 0.1,1.9c-0.3,0.8 -1.5,2.1 -1.6,1.7z" fill="#665a52"/><path d="M240.0901,256.8c-0.1,-0.6 0.4,-3.4 1.5,-3.6c1.1,-0.2 0.5,1.1 0.1,1.9c-0.4,0.8 -1.5,2.1 -1.6,1.7z" fill="#665a52"/><path d="M236.5901,256.4c-0.1,-0.6 0.4,-3.4 1.5,-3.6c1.1,-0.2 0.5,1.1 0.1,1.9c-0.4,0.8 -1.5,2.1 -1.6,1.7z" fill="#665a52"/></g></g><g data-paper-data="{&quot;index&quot;:null}"><path d="M297.6901,141.5c14,-10.5 23.7,0 28.8,6c5.1,6 4.9,23.8 6.5,32.9c1.6,9.1 1.5,17.6 8.3,28.3c8.7,13.8 10.3,28.5 8.7,29.7c-13.5,10 -20.7,13.1 -22.6,12c-1.8,-1.1 1.1,-5.6 2.1,-8.6c1,-2.9 -7.3,-8.7 -18.6,-19c-22.5,-20.5 -21.3,-47.3 -21.3,-47.3c-2,-5.9 -6,-23.4 8.1,-34z" fill="#856045"/><g><path d="M336.7901,247.3c0,0 -0.2,-0.3 -0.2,-0.8c-0.1,-0.5 -0.1,-1.2 0.1,-1.8c0.2,-0.7 0.5,-1.3 0.8,-1.7c0.3,-0.4 0.6,-0.6 0.6,-0.6c0,0 0,0.1 -0.1,0.2c0,0.1 -0.1,0.3 -0.2,0.6c-0.1,0.5 -0.3,1.1 -0.5,1.7c-0.2,0.6 -0.3,1.2 -0.4,1.7c0,0.3 -0.1,0.7 -0.1,0.7z" fill="#59402f"/><path d="M331.5901,249.2c0,0 -0.1,-0.4 -0.1,-1c0,-0.6 0.1,-1.4 0.3,-2.1c0.1,-0.4 0.3,-0.7 0.5,-1c0.2,-0.3 0.4,-0.6 0.6,-0.8c0.2,-0.2 0.4,-0.4 0.5,-0.5c0.1,-0.1 0.2,-0.2 0.2,-0.2c0,0 0,0.1 -0.1,0.2c-0.1,0.1 -0.2,0.4 -0.3,0.6c-0.2,0.5 -0.5,1.2 -0.8,1.8c-0.2,0.7 -0.4,1.4 -0.6,1.9c-0.1,0.7 -0.2,1.1 -0.2,1.1z" fill="#59402f"/><path d="M338.1901,248.2c-0.2,-0.6 -0.3,-3.4 0.7,-3.8c1.1,-0.4 0.8,0.9 0.5,1.8c-0.2,0.9 -1.1,2.4 -1.2,2z" fill="#665a52"/><path d="M332.8901,249.7c-0.2,-0.6 -0.3,-3.4 0.7,-3.8c1.1,-0.4 0.8,0.9 0.5,1.8c-0.3,0.9 -1.1,2.4 -1.2,2z" fill="#665a52"/><path d="M329.5901,250.7c-0.2,-0.6 -0.3,-3.4 0.7,-3.8c1.1,-0.4 0.8,0.9 0.5,1.8c-0.3,0.9 -1.1,2.4 -1.2,2z" fill="#665a52"/></g><g><path d="M325.0901,182.3c0,0 10.3,7.6 12.6,6.8c0,0 -1.7,2.4 -3.8,1.4c0,0 4.7,0.6 6.9,4.6l-3.1,-0.1c0,0 5.6,5 6.4,9.3l-3.6,-2.2c0,0 4.9,5.3 1.8,9.9" fill="#856045"/><path d="M337.3901,189.2c0,0 -0.2,0.1 -0.5,0.1c-0.3,0 -0.8,-0.1 -1.4,-0.2c-1.1,-0.3 -2.5,-1 -3.8,-1.7c-0.7,-0.4 -1.3,-0.8 -1.9,-1.2c-0.6,-0.4 -1.1,-0.8 -1.6,-1.2c-0.9,-0.7 -1.4,-1.2 -1.4,-1.2c0,0 0.7,0.3 1.7,0.9c1,0.6 2.3,1.4 3.6,2.1c0.6,0.4 1.3,0.7 1.9,1.1c0.6,0.3 1.2,0.6 1.7,0.9c0.5,0.2 0.9,0.4 1.3,0.5c0.2,-0.1 0.4,-0.1 0.4,-0.1z" fill="#59402f"/><path d="M340.5901,195c0,0 -0.3,-0.3 -0.8,-0.8c-0.5,-0.5 -1.1,-1.1 -1.8,-1.6c-0.3,-0.3 -0.7,-0.5 -1,-0.7c-0.3,-0.2 -0.7,-0.4 -1,-0.5c-0.3,-0.1 -0.5,-0.3 -0.7,-0.3c-0.2,-0.1 -0.3,-0.1 -0.3,-0.1c0,0 0.1,0 0.3,0c0.2,0 0.5,0 0.8,0.1c0.3,0.1 0.7,0.2 1.1,0.4c0.4,0.2 0.8,0.4 1.2,0.7c0.4,0.3 0.7,0.6 1,0.9c0.3,0.3 0.5,0.7 0.7,1c0.3,0.5 0.5,0.9 0.5,0.9z" fill="#59402f"/><path d="M343.6901,203.8c0,0 -0.1,-0.7 -0.5,-1.6c-0.2,-0.5 -0.5,-1 -0.8,-1.5c-0.3,-0.5 -0.7,-1.1 -1.1,-1.6c-0.4,-0.5 -0.8,-1.1 -1.2,-1.6c-0.4,-0.5 -0.8,-0.9 -1.1,-1.3c-0.3,-0.4 -0.6,-0.7 -0.8,-0.9c-0.2,-0.2 -0.3,-0.4 -0.3,-0.4c0,0 0.1,0.1 0.4,0.3c0.2,0.2 0.6,0.4 1,0.8c0.4,0.3 0.9,0.7 1.3,1.2c0.5,0.5 0.9,1 1.3,1.5c0.4,0.6 0.8,1.1 1.1,1.7c0.3,0.6 0.5,1.2 0.7,1.7c0.2,0.5 0.2,1 0.2,1.3c-0.1,0.2 -0.2,0.4 -0.2,0.4z" fill="#59402f"/><path d="M342.9901,210.4c0,0 0.1,-0.1 0.1,-0.4c0,-0.2 0.1,-0.6 0,-1c-0.1,-0.8 -0.4,-1.8 -0.8,-2.8c-0.4,-1 -0.9,-2 -1.3,-2.7c-0.4,-0.7 -0.6,-1.3 -0.6,-1.3c0,0 0.1,0.1 0.3,0.3c0.2,0.2 0.4,0.4 0.7,0.8c0.2,0.3 0.6,0.7 0.8,1.2c0.1,0.2 0.3,0.5 0.4,0.7c0.1,0.3 0.2,0.5 0.4,0.8c0.2,0.5 0.4,1.1 0.5,1.6c0.1,0.5 0.1,1 0.1,1.5c0,0.4 -0.2,0.8 -0.3,1c-0.2,0.2 -0.3,0.3 -0.3,0.3z" fill="#59402f"/></g><path d="M341.7901,209.6c0,0 1.2,1.9 2.7,5c0.8,1.5 1.6,3.3 2.4,5.3c0.8,2 1.7,4.1 2.3,6.3c0.7,2.2 1.3,4.4 1.5,6.5c0.1,1.1 0.2,2.1 0.1,3.1c0,0.5 -0.1,1 -0.2,1.4c0,0.2 -0.1,0.4 -0.2,0.7c0,0.1 0,0.2 -0.1,0.3c-0.1,0.1 -0.2,0.2 -0.2,0.3c-0.6,0.6 -1.3,1 -1.8,1.4c-0.6,0.4 -1.1,0.7 -1.5,1c-0.8,0.6 -1.3,0.9 -1.3,0.9c0,0 0.5,-0.3 1.3,-0.9c0.4,-0.3 0.9,-0.7 1.4,-1.1c0.5,-0.4 1.2,-0.9 1.8,-1.5c0.2,-0.2 0.3,-0.3 0.3,-0.5c0,-0.2 0.1,-0.4 0.1,-0.7c0,-0.5 0.1,-0.9 0.1,-1.4c0,-1 -0.1,-2 -0.3,-3c-0.4,-2.1 -0.9,-4.3 -1.6,-6.4c-0.7,-2.1 -1.5,-4.3 -2.3,-6.3c-0.8,-2 -1.6,-3.8 -2.2,-5.4c-1.4,-2.9 -2.3,-5 -2.3,-5z" fill="#59402f"/><path d="M290.4901,189.3c0,0 2,3.8 5.3,9.5c1.6,2.8 3.6,6.1 5.8,9.5c1.1,1.7 2.3,3.4 3.6,5.1c1.3,1.7 2.7,3.3 4.3,4.7c3.2,2.9 6.3,6 9.1,9c2.8,3 5.3,5.8 7.4,8.3c1,1.3 2,2.4 2.7,3.6c0.4,0.6 0.7,1.1 0.9,1.7c0.2,0.6 0.2,1.1 0.1,1.6c-0.2,0.9 -0.7,1.6 -0.9,2c-0.3,0.4 -0.4,0.7 -0.4,0.7c0,0 0.1,-0.2 0.4,-0.7c0.2,-0.5 0.6,-1.1 0.8,-2c0.2,-0.9 -0.3,-2 -1.1,-3.1c-0.8,-1.1 -1.7,-2.2 -2.7,-3.5c-2.1,-2.5 -4.7,-5.2 -7.5,-8.2c-2.8,-2.9 -5.9,-6 -9.1,-8.9c-1.7,-1.4 -3.1,-3.1 -4.4,-4.8c-1.3,-1.7 -2.5,-3.5 -3.6,-5.2c-2.2,-3.5 -4,-6.8 -5.6,-9.6c-3.3,-5.8 -5.1,-9.7 -5.1,-9.7z" fill="#59402f"/></g><g data-paper-data="{&quot;index&quot;:null}"><g><path d="M331.5901,139.2c0,0 10.3,-3.8 21.2,11.7c0,0 -3.1,-2.5 -5,-2.5c0,0 4.9,1.7 6.2,10c0,0 -1.9,-3.3 -3.3,-3.6c0,0 6.9,9.3 -3.2,11.1c-10.1,1.9 -18.3,-24.4 -15.9,-26.7z" fill="#8d674a"/><path d="M352.7901,150.9c0,0 -0.2,-0.3 -0.6,-0.8c-0.4,-0.5 -1,-1.2 -1.7,-2c-0.7,-0.8 -1.6,-1.7 -2.6,-2.6c-0.5,-0.5 -1,-0.9 -1.5,-1.4c-0.5,-0.5 -1.1,-0.9 -1.7,-1.3c-0.6,-0.4 -1.2,-0.8 -1.8,-1.2c-0.6,-0.3 -1.2,-0.7 -1.8,-1c-0.6,-0.2 -1.2,-0.6 -1.8,-0.7c-0.6,-0.2 -1.1,-0.4 -1.7,-0.5c-0.5,-0.1 -1,-0.2 -1.4,-0.2c-0.4,-0.1 -0.8,0 -1.1,-0.1c-0.6,0 -1,0 -1,0c0,0 0.4,0 1,-0.1c0.3,0 0.7,-0.1 1.2,-0.1c0.4,0 0.9,0.1 1.5,0.1c0.5,0.1 1.1,0.2 1.7,0.4c0.6,0.1 1.2,0.4 1.9,0.7c0.6,0.3 1.3,0.6 1.9,1c0.6,0.4 1.2,0.8 1.8,1.2c0.6,0.5 1.2,0.9 1.7,1.4c0.5,0.5 1.1,1 1.5,1.4c1,1 1.8,2 2.4,2.8c1.4,1.7 2.1,3 2.1,3z" fill="#59402f"/><path d="M347.7901,148.4c0,0 0.7,0.3 1.6,1c0.5,0.3 1,0.8 1.4,1.3c0.5,0.5 1,1.1 1.4,1.8c0.4,0.7 0.8,1.3 1,2c0.1,0.3 0.3,0.7 0.3,1c0.1,0.3 0.2,0.6 0.2,0.9c0.1,0.6 0.1,1 0.1,1.4c0,0.3 0,0.5 0,0.5c0,0 -0.1,-0.2 -0.1,-0.5c0,-0.2 -0.1,-0.4 -0.1,-0.6c-0.1,-0.2 -0.2,-0.5 -0.2,-0.7c-0.1,-0.3 -0.2,-0.5 -0.3,-0.8c-0.1,-0.3 -0.2,-0.6 -0.4,-0.9c-0.1,-0.3 -0.3,-0.6 -0.5,-0.9c-0.2,-0.3 -0.4,-0.6 -0.6,-0.9c-0.8,-1.2 -1.8,-2.4 -2.5,-3.2c-0.8,-0.9 -1.3,-1.4 -1.3,-1.4z" fill="#59402f"/><path d="M350.6901,154.8c0,0 0.5,0.4 1,1.1c0.3,0.4 0.6,0.8 0.8,1.3c0.3,0.5 0.5,1.1 0.6,1.7c0.1,0.6 0.2,1.2 0.1,1.8c0,0.3 -0.1,0.6 -0.1,0.8c-0.1,0.3 -0.1,0.5 -0.2,0.7c-0.2,0.4 -0.4,0.8 -0.5,1c-0.1,0.2 -0.2,0.3 -0.2,0.3c0,0 0,-0.1 0.1,-0.4c0,-0.1 0.1,-0.3 0.1,-0.4c0,-0.2 0.1,-0.4 0.1,-0.6c0.1,-0.2 0.1,-0.4 0.1,-0.7c0,-0.2 0.1,-0.5 0,-0.8c0,-0.3 0,-0.5 0,-0.8c0,-0.3 -0.1,-0.6 -0.1,-0.8c-0.1,-0.6 -0.3,-1.1 -0.5,-1.6c-0.2,-0.5 -0.4,-1 -0.6,-1.4c-0.4,-0.7 -0.7,-1.2 -0.7,-1.2z" fill="#59402f"/></g><g><path d="M217.4901,196.5c-3,2 -9.8,-3.7 -9.8,-3.7l-1.2,2c-0.1,-3.4 -7.5,-7.9 -7.5,-7.9l0.8,2.6c-6.6,-2.5 -7.7,-11.3 -7.7,-11.3l-0.2,2.8c-3.4,-3.1 -3.5,-10.9 -3.5,-10.9" fill="#8d674a"/><g><path d="M210.4901,115c19.3,-6.5 42.9,2.8 54.2,6.8c16.5,5.8 36.1,-10.5 63.3,11.1c27.2,21.6 22.4,54.5 2.5,71c-22.2,18.4 -101.7,19.7 -116.2,-8.4c0,0 -26.5,-9.8 -28.1,-37.1" fill="#8d674a"/><path d="M188.1901,170.1c0,0 0.2,0.7 0.4,1.7c0.2,1 0.5,2.4 0.9,3.8c0.1,0.3 0.2,0.7 0.3,1c0.1,0.3 0.2,0.7 0.3,1c0.2,0.6 0.4,1.2 0.6,1.6c0.1,0.2 0.2,0.5 0.3,0.6c0.1,0.2 0.2,0.4 0.3,0.4c0.2,0.2 0.3,0.4 0.3,0.4c0,0 -0.1,-0.1 -0.4,-0.3c-0.1,-0.1 -0.3,-0.2 -0.4,-0.4c-0.2,-0.2 -0.3,-0.4 -0.5,-0.6c-0.3,-0.4 -0.6,-1 -0.9,-1.6c-0.3,-0.6 -0.5,-1.3 -0.7,-2c-0.3,-1.4 -0.5,-2.8 -0.6,-3.9c0.1,-0.9 0.1,-1.7 0.1,-1.7z" fill="#59402f"/><path d="M192.0901,178.1c0,0 0.2,0.9 0.7,2.1c0.2,0.6 0.5,1.4 0.8,2.1c0.2,0.4 0.4,0.8 0.6,1.1c0.2,0.4 0.4,0.8 0.6,1.1c0.2,0.4 0.5,0.7 0.7,1.1c0.3,0.3 0.5,0.7 0.8,1c0.3,0.3 0.5,0.6 0.8,0.8c0.3,0.2 0.5,0.5 0.8,0.7c0.3,0.2 0.5,0.4 0.7,0.5c0.2,0.1 0.4,0.3 0.6,0.4c0.3,0.2 0.5,0.3 0.5,0.3c0,0 -0.2,-0.1 -0.6,-0.2c-0.2,-0.1 -0.4,-0.2 -0.7,-0.3c-0.2,-0.1 -0.5,-0.3 -0.8,-0.4c-0.3,-0.2 -0.6,-0.4 -0.9,-0.6c-0.3,-0.2 -0.6,-0.5 -0.9,-0.8c-0.3,-0.3 -0.6,-0.6 -0.9,-1c-0.3,-0.3 -0.5,-0.7 -0.8,-1.1c-0.5,-0.8 -0.9,-1.6 -1.2,-2.4c-0.3,-0.8 -0.5,-1.6 -0.7,-2.2c-0.1,-1.3 -0.1,-2.2 -0.1,-2.2z" fill="#59402f"/><path d="M198.9901,187c0,0 0.7,0.2 1.6,0.7c0.5,0.3 1,0.6 1.5,1c0.5,0.4 1.1,0.8 1.6,1.3c0.5,0.5 1,1 1.4,1.6c0.4,0.5 0.7,1.1 0.9,1.6c0.1,0.3 0.2,0.5 0.2,0.7c0.1,0.2 0.1,0.4 0.1,0.5c0.1,0.3 0.1,0.5 0.1,0.5c0,0 -0.1,-0.2 -0.2,-0.4c-0.1,-0.1 -0.1,-0.3 -0.2,-0.5c-0.1,-0.2 -0.2,-0.4 -0.4,-0.6c-0.1,-0.2 -0.3,-0.4 -0.5,-0.7c-0.2,-0.2 -0.4,-0.5 -0.6,-0.7c-0.4,-0.5 -0.9,-1 -1.4,-1.4c-0.5,-0.5 -1,-0.9 -1.5,-1.3c-0.5,-0.4 -1,-0.8 -1.4,-1.1c-0.7,-0.8 -1.2,-1.2 -1.2,-1.2z" fill="#59402f"/><path d="M207.5901,192.9c0,0 0.6,0.4 1.5,1c0.5,0.3 1,0.6 1.6,0.9c0.6,0.3 1.2,0.7 1.8,0.9c0.6,0.3 1.3,0.6 1.9,0.8c0.3,0.1 0.6,0.2 0.9,0.3c0.3,0.1 0.6,0.1 0.8,0.2c0.3,0 0.5,0.1 0.7,0.1c0.2,0 0.4,0 0.6,0c0.3,0 0.5,0 0.5,0c0,0 -0.2,0 -0.5,0.1c-0.2,0 -0.3,0.1 -0.6,0.1c-0.2,0 -0.5,0 -0.7,0c-0.5,0 -1.2,-0.1 -1.8,-0.3c-0.7,-0.2 -1.3,-0.4 -2,-0.7c-0.7,-0.3 -1.3,-0.7 -1.8,-1.1c-0.6,-0.4 -1.1,-0.8 -1.5,-1.1c-0.9,-0.7 -1.4,-1.2 -1.4,-1.2z" fill="#59402f"/><path d="M231.2901,113c0,0 3.1,0.2 7.7,0.9c2.3,0.4 4.9,0.9 7.8,1.6c2.8,0.7 5.8,1.5 8.7,2.5c2.9,1 5.7,2.3 8.5,3.2c1.4,0.4 2.7,0.8 4,1c1.3,0.2 2.5,0.4 3.7,0.5c1.1,0.1 2.2,0.1 3.1,0.2c0.9,0 1.8,0 2.4,0c1.4,0 2.1,-0.1 2.1,-0.1c0,0 -0.8,0.1 -2.1,0.2c-0.7,0.1 -1.5,0.1 -2.4,0.1c-0.9,0 -2,0 -3.2,0c-1.2,-0.1 -2.4,-0.2 -3.7,-0.4c-1.3,-0.2 -2.7,-0.5 -4.1,-0.9c-2.8,-0.8 -5.6,-2.2 -8.5,-3.1c-1.5,-0.5 -2.9,-0.9 -4.4,-1.3c-1.5,-0.4 -2.9,-0.8 -4.3,-1.2c-2.8,-0.7 -5.4,-1.3 -7.7,-1.8c-2.3,-0.5 -4.2,-0.8 -5.5,-1c-1.3,-0.2 -2.1,-0.4 -2.1,-0.4z" fill="#59402f"/><path d="M305.3901,122c0,0 1.2,0.2 3.2,0.8c2,0.6 5,1.6 8.3,3.1c3.3,1.5 7.1,3.5 10.8,6.2c3.7,2.7 7.3,6.1 10.2,10.1c1.4,2 2.7,4.2 3.7,6.3c1.1,2.1 2,4.3 2.9,6.5c0.8,2.1 1.5,4.3 1.9,6.3c0.4,2.1 0.7,4 0.7,5.9c0.1,3.7 -0.5,6.7 -0.8,8.8c-0.4,2.1 -0.6,3.3 -0.6,3.3c0,0 0.2,-1.2 0.4,-3.3c0.3,-2.1 0.7,-5.1 0.5,-8.8c-0.1,-1.8 -0.4,-3.8 -0.8,-5.8c-0.5,-2 -1.2,-4.1 -2,-6.2c-0.9,-2.1 -1.8,-4.2 -2.9,-6.4c-1,-2.2 -2.2,-4.2 -3.7,-6.2c-2.8,-3.9 -6.3,-7.3 -10,-10.1c-3.6,-2.7 -7.4,-4.8 -10.6,-6.4c-3.3,-1.6 -6.1,-2.6 -8.2,-3.3c-1.8,-0.6 -3,-0.8 -3,-0.8z" fill="#59402f"/><path d="M219.8901,202.6c0,0 0.4,0.3 1,0.7c0.7,0.4 1.7,1.1 3,1.8c0.7,0.4 1.4,0.8 2.2,1.2c0.8,0.4 1.7,0.8 2.7,1.3c1,0.4 2,0.9 3.1,1.4c1.1,0.4 2.3,0.9 3.5,1.4c1.2,0.5 2.5,0.9 3.8,1.4c1.3,0.5 2.7,0.8 4.2,1.3c2.9,0.8 5.9,1.5 9.1,2.1c0.8,0.1 1.6,0.3 2.4,0.5c0.8,0.1 1.6,0.2 2.5,0.3c0.8,0.1 1.7,0.2 2.5,0.3c0.8,0.1 1.7,0.2 2.5,0.2c0.8,0.1 1.7,0.1 2.6,0.2c0.9,0.1 1.7,0.1 2.6,0.1c1.7,0 3.5,0.1 5.2,0.1c3.5,-0.1 6.9,-0.1 10.3,-0.5c3.4,-0.2 6.8,-0.6 10,-0.9c1.6,-0.2 3.2,-0.4 4.8,-0.6c1.6,-0.2 3.1,-0.5 4.5,-0.7c2.9,-0.5 5.7,-1 8.2,-1.6c2.5,-0.6 4.8,-1.3 6.8,-1.9c1,-0.3 1.9,-0.7 2.8,-1c0.8,-0.4 1.6,-0.6 2.3,-1c1.4,-0.6 2.4,-1.3 3.1,-1.7c0.7,-0.5 1,-0.8 1,-0.8c0,0 -0.3,0.3 -1,0.8c-0.7,0.5 -1.7,1.1 -3.1,1.8c-0.7,0.4 -1.5,0.7 -2.3,1.1c-0.9,0.3 -1.8,0.7 -2.8,1.1c-2,0.7 -4.3,1.4 -6.8,2c-2.5,0.6 -5.3,1.2 -8.2,1.8c-1.5,0.2 -3,0.5 -4.5,0.8c-1.6,0.2 -3.1,0.4 -4.8,0.6c-3.2,0.3 -6.6,0.7 -10,1c-3.4,0.3 -6.9,0.4 -10.4,0.5c-1.7,0 -3.5,-0.1 -5.2,-0.1c-0.9,0 -1.7,-0.1 -2.6,-0.2c-0.9,-0.1 -1.7,-0.1 -2.6,-0.2c-0.9,-0.1 -1.7,-0.1 -2.5,-0.2c-0.8,-0.1 -1.7,-0.2 -2.5,-0.4c-0.8,-0.1 -1.7,-0.2 -2.5,-0.4c-0.8,-0.1 -1.6,-0.3 -2.4,-0.5c-3.2,-0.6 -6.3,-1.4 -9.1,-2.2c-1.4,-0.5 -2.8,-0.8 -4.2,-1.3c-1.3,-0.5 -2.6,-0.9 -3.8,-1.4c-1.2,-0.5 -2.4,-1 -3.5,-1.4c-1.1,-0.5 -2.1,-1 -3.1,-1.4c-0.9,-0.5 -1.8,-0.9 -2.6,-1.4c-0.8,-0.5 -1.5,-0.9 -2.2,-1.2c-1.3,-0.8 -2.3,-1.4 -3,-1.9c-0.7,-0.6 -1,-0.9 -1,-0.9z" fill="#59402f"/></g></g></g><path d="M304.3901,140.3c16.1,-7.1 26.4,4.1 30,11.2c3.6,7.1 -1.4,23 -1.9,32.2c-0.5,9.2 -2.7,21.4 -2.3,34.1c0.4,16.9 -5,38.6 -6.8,39.5c-4.3,2.2 -24.8,3.8 -26.4,2.3c-1.5,-1.5 4.9,-6.4 6.5,-9.1c1.6,-2.6 -10.9,-28.1 -12.2,-32.1c-4,-12.5 -2.5,-46.8 -2.5,-46.8c-0.6,-6.3 -0.5,-24.2 15.6,-31.3z" data-paper-data="{&quot;index&quot;:null}" fill="#8d674a"/><g data-paper-data="{&quot;index&quot;:null}"><path d="M304.5901,259.9c0,0 0,-0.3 0.1,-0.8c0.1,-0.5 0.4,-1.1 0.9,-1.6c0.4,-0.5 1,-0.9 1.4,-1.2c0.4,-0.2 0.8,-0.3 0.8,-0.3c0,0 0,0.1 -0.1,0.2c-0.1,0.1 -0.2,0.3 -0.4,0.4c-0.3,0.4 -0.7,0.8 -1.1,1.3c-0.4,0.5 -0.8,1 -1,1.4c-0.5,0.4 -0.6,0.6 -0.6,0.6z" fill="#59402f"/><path d="M298.9901,259.4c0,0 0.1,-0.4 0.3,-0.9c0.2,-0.5 0.6,-1.2 1.2,-1.8c0.3,-0.3 0.6,-0.5 0.9,-0.7c0.3,-0.2 0.6,-0.4 0.9,-0.5c0.3,-0.1 0.5,-0.2 0.7,-0.2c0.2,0 0.3,0 0.3,0c0,0 -0.1,0.1 -0.2,0.2c-0.1,0.1 -0.3,0.2 -0.5,0.4c-0.4,0.3 -1,0.8 -1.5,1.3c-0.5,0.5 -1,1.1 -1.3,1.5c-0.6,0.4 -0.8,0.7 -0.8,0.7z" fill="#59402f"/><path d="M305.3901,261.4c0.1,-0.6 1.1,-3.2 2.3,-3.1c1.1,0.1 0.3,1.2 -0.3,1.8c-0.6,0.6 -2.1,1.6 -2,1.3z" fill="#6c5f57"/><path d="M299.8901,260.4c0.1,-0.6 1.1,-3.2 2.3,-3.1c1.1,0.1 0.3,1.2 -0.3,1.8c-0.6,0.6 -2,1.7 -2,1.3z" fill="#6c5f57"/><path d="M296.4901,259.9c0.1,-0.6 1.1,-3.2 2.3,-3.1c1.1,0.1 0.3,1.2 -0.3,1.8c-0.6,0.6 -2,1.7 -2,1.3z" fill="#6c5f57"/></g><g data-paper-data="{&quot;index&quot;:null}"><path d="M331.0901,193.9c0,0 4.2,12.1 6.5,12.7c0,0 -2.7,1 -3.9,-1c0,0 3.6,3.2 3.1,7.7l-2.5,-1.9c0,0 1.7,7.3 0,11.3l-1.7,-3.9c0,0 1.1,7.1 -4.1,9.2" fill="#8d674a"/><path d="M337.3901,206.6c0,0 -0.2,0 -0.5,-0.2c-0.3,-0.2 -0.6,-0.5 -1,-1c-0.8,-0.9 -1.5,-2.2 -2.2,-3.6c-0.3,-0.7 -0.6,-1.4 -0.9,-2.1c-0.3,-0.7 -0.5,-1.3 -0.6,-1.8c-0.3,-1.1 -0.5,-1.8 -0.5,-1.8c0,0 0.4,0.7 0.8,1.7c0.5,1 1.1,2.4 1.7,3.8c0.3,0.7 0.6,1.4 1,2c0.3,0.6 0.6,1.2 0.9,1.7c0.3,0.5 0.5,0.9 0.8,1.1c0.3,0.1 0.5,0.2 0.5,0.2z" fill="#59402f"/><path d="M336.5901,213.2c0,0 -0.1,-0.5 -0.2,-1.1c-0.1,-0.7 -0.3,-1.5 -0.5,-2.3c-0.1,-0.4 -0.3,-0.8 -0.4,-1.2c-0.2,-0.4 -0.3,-0.7 -0.5,-1c-0.2,-0.3 -0.3,-0.5 -0.4,-0.7c-0.1,-0.2 -0.2,-0.3 -0.2,-0.3c0,0 0.1,0.1 0.3,0.2c0.2,0.1 0.4,0.3 0.6,0.5c0.2,0.2 0.5,0.6 0.7,1c0.2,0.4 0.4,0.8 0.5,1.3c0.1,0.4 0.2,0.9 0.3,1.3c0,0.4 0,0.8 0,1.2c0,0.7 -0.2,1.1 -0.2,1.1z" fill="#59402f"/><path d="M334.1901,222.2c0,0 0.3,-0.6 0.5,-1.6c0.1,-0.5 0.1,-1.1 0.2,-1.7c0,-0.6 0,-1.3 0,-2c0,-0.7 -0.1,-1.3 -0.1,-2c0,-0.6 -0.1,-1.2 -0.2,-1.7c-0.1,-0.5 -0.1,-0.9 -0.1,-1.2c0,-0.3 0,-0.5 0,-0.5c0,0 0.1,0.2 0.2,0.4c0.1,0.3 0.3,0.7 0.4,1.2c0.1,0.5 0.3,1.1 0.4,1.7c0.1,0.6 0.2,1.3 0.2,2c0,0.7 0,1.4 -0.1,2.1c-0.1,0.7 -0.2,1.3 -0.4,1.8c-0.2,0.5 -0.4,0.9 -0.5,1.2c-0.3,0.2 -0.5,0.3 -0.5,0.3z" fill="#59402f"/><path d="M329.8901,227.2c0,0 0.1,-0.1 0.3,-0.2c0.2,-0.2 0.4,-0.4 0.6,-0.8c0.4,-0.7 0.7,-1.7 1,-2.8c0.2,-1.1 0.4,-2.1 0.5,-3c0.1,-0.8 0.2,-1.4 0.2,-1.4c0,0 0,0.1 0.1,0.4c0,0.2 0.1,0.6 0.1,1c0,0.4 0,0.9 0,1.4c0,0.3 0,0.5 -0.1,0.8c0,0.3 -0.1,0.6 -0.1,0.8c-0.1,0.6 -0.3,1.1 -0.5,1.6c-0.2,0.5 -0.5,0.9 -0.8,1.3c-0.3,0.3 -0.6,0.5 -0.8,0.7c-0.3,0.2 -0.5,0.2 -0.5,0.2z" fill="#59402f"/></g><path d="M331.0901,218.6c0,0 -0.2,2.7 -0.7,6.6c-0.2,2 -0.5,4.3 -0.9,6.8c-0.4,2.5 -0.8,5.1 -1.2,7.7c-0.5,2.6 -1,5.2 -1.5,7.7c-0.5,2.4 -1.1,4.7 -1.8,6.6c-0.3,1 -0.6,1.8 -1,2.5c-0.1,0.2 -0.2,0.4 -0.3,0.5c-0.1,0.1 -0.2,0.3 -0.4,0.4c-0.3,0.2 -0.7,0.3 -0.9,0.3c-1.1,0.3 -1.8,0.3 -1.8,0.3c0,0 0.7,-0.1 1.8,-0.5c0.3,-0.1 0.6,-0.2 0.9,-0.4c0.1,-0.1 0.2,-0.2 0.3,-0.4c0.1,-0.2 0.2,-0.3 0.3,-0.5c0.3,-0.7 0.6,-1.6 0.9,-2.5c0.6,-1.9 1,-4.2 1.5,-6.6c0.5,-2.4 1,-5.1 1.4,-7.7c0.5,-2.6 0.9,-5.2 1.3,-7.7c0.4,-2.5 0.8,-4.8 1.1,-6.7c0.6,-3.8 1,-6.4 1,-6.4z" data-paper-data="{&quot;index&quot;:null}" fill="#59402f"/><path d="M290.0901,191.4c0,0 -0.3,4.1 -0.3,10.2c0,3 0.1,6.6 0.6,10.4c0.2,1.9 0.6,3.8 1.2,5.7c0.7,1.8 1.5,3.7 2.3,5.6c1.6,3.7 3.3,7.5 4.8,11c1.5,3.5 2.8,6.8 3.8,9.7c0.5,1.5 0.9,2.8 1.2,4c0.2,0.6 0.3,1.2 0.3,1.7c0,0.6 -0.3,1 -0.5,1.4c-0.5,0.7 -1,1.2 -1.4,1.6c-0.3,0.3 -0.5,0.5 -0.5,0.5c0,0 0.2,-0.2 0.5,-0.5c0.3,-0.4 0.8,-0.9 1.3,-1.6c0.2,-0.4 0.4,-0.8 0.4,-1.3c0,-0.5 -0.2,-1.1 -0.3,-1.7c-0.4,-1.2 -0.8,-2.5 -1.3,-3.9c-1,-2.9 -2.4,-6.1 -3.9,-9.6c-1.5,-3.5 -3.2,-7.2 -4.9,-10.9c-0.8,-1.9 -1.6,-3.7 -2.3,-5.6c-0.6,-1.9 -0.9,-3.9 -1.2,-5.8c-0.4,-3.8 -0.4,-7.4 -0.4,-10.5c0.1,-3.1 0.3,-5.6 0.4,-7.4c0.1,-2 0.2,-3 0.2,-3z" data-paper-data="{&quot;index&quot;:null}" fill="#59402f"/><g data-paper-data="{&quot;index&quot;:null}" fill="#8d674a"><path d="M248.1901,202c-7.1,21.9 -35.2,52.8 -37.9,53.4c-3.3,0.8 -27.8,-4.4 -26,-7.2c1.8,-2.8 6.6,-4.6 9,-6.8c2.3,-2.2 11.5,-24.5 13.1,-30.8c1.7,-6.3 -2,-13.9 2.9,-36.2c4.9,-22.3 50.7,-17.8 38.9,27.6z"/><path d="M249.5901,178.7c0,0 2.9,12.5 5.1,13.3c0,0 -2.8,0.7 -3.8,-1.4c0,0 3.2,3.5 2.3,8l-2.2,-2.1c0,0 1,7.5 -1.2,11.2l-1.3,-4c0,0 0.3,7.2 -5.1,8.7"/></g><path d="M254.5901,192c0,0 -0.2,-0.1 -0.4,-0.3c-0.2,-0.2 -0.6,-0.6 -0.9,-1.1c-0.7,-1 -1.3,-2.4 -1.8,-3.8c-0.2,-0.7 -0.5,-1.4 -0.6,-2.1c-0.2,-0.7 -0.3,-1.3 -0.4,-1.9c-0.2,-1.1 -0.3,-1.9 -0.3,-1.9c0,0 0.3,0.7 0.7,1.8c0.4,1.1 0.8,2.5 1.3,3.9c0.2,0.7 0.5,1.4 0.7,2.1c0.3,0.7 0.5,1.3 0.7,1.8c0.2,0.5 0.5,0.9 0.7,1.2c0.1,0.1 0.3,0.3 0.3,0.3z" data-paper-data="{&quot;index&quot;:null}" fill="#59402f"/><path d="M253.0901,198.5c0,0 0,-0.5 -0.1,-1.1c-0.1,-0.7 -0.1,-1.5 -0.3,-2.4c-0.1,-0.4 -0.2,-0.8 -0.3,-1.2c-0.1,-0.4 -0.3,-0.7 -0.4,-1c-0.1,-0.3 -0.2,-0.6 -0.3,-0.7c-0.1,-0.2 -0.1,-0.3 -0.1,-0.3c0,0 0.1,0.1 0.2,0.2c0.2,0.1 0.4,0.3 0.6,0.6c0.2,0.3 0.4,0.6 0.6,1c0.2,0.4 0.3,0.8 0.4,1.3c0.1,0.5 0.1,0.9 0.1,1.4c0,0.4 0,0.8 -0.1,1.2c-0.1,0.5 -0.3,1 -0.3,1z" data-paper-data="{&quot;index&quot;:null}" fill="#59402f"/><path d="M249.8901,207.2c0,0 0.4,-0.6 0.6,-1.6c0.1,-0.5 0.3,-1.1 0.3,-1.7c0.1,-0.6 0.2,-1.3 0.2,-2c0,-0.7 0.1,-1.3 0.1,-2c0,-0.6 0,-1.2 0,-1.7c0,-0.5 0,-0.9 0,-1.2c0,-0.3 0,-0.5 0,-0.5c0,0 0.1,0.2 0.1,0.5c0.1,0.3 0.2,0.7 0.3,1.2c0.1,0.5 0.2,1.1 0.2,1.8c0.1,0.6 0,1.3 0,2c-0.1,0.7 -0.1,1.4 -0.3,2c-0.1,0.6 -0.3,1.2 -0.6,1.7c-0.2,0.5 -0.5,0.8 -0.7,1.1c-0.1,0.3 -0.2,0.4 -0.2,0.4z" data-paper-data="{&quot;index&quot;:null}" fill="#59402f"/><path d="M207.3901,255.3c0,0 0.2,0.1 0.7,0.2c0.5,0.1 1.1,0.1 2,-0.2c0.8,-0.2 1.7,-0.8 2.6,-1.6c0.9,-0.8 1.6,-1.9 2.6,-3.1c1.9,-2.3 4.2,-4.9 6.6,-7.7c2.4,-2.8 4.9,-5.9 7.4,-9c1.2,-1.5 2.5,-3.1 3.6,-4.6c1.2,-1.5 2.3,-3.1 3.4,-4.6c1.1,-1.5 2,-3 2.9,-4.4c0.9,-1.4 1.7,-2.8 2.5,-4.1c1.5,-2.6 2.7,-4.7 3.4,-6.3c0.4,-0.8 0.6,-1.4 0.8,-1.9c0.2,-0.4 0.2,-0.7 0.2,-0.7c0,0 0,0.2 -0.2,0.7c-0.1,0.4 -0.4,1.1 -0.7,1.9c-0.7,1.6 -1.7,3.8 -3.2,6.4c-0.7,1.3 -1.5,2.7 -2.4,4.2c-0.9,1.5 -1.8,3 -2.9,4.5c-1,1.5 -2.2,3.1 -3.3,4.7c-1.2,1.6 -2.4,3.1 -3.6,4.7c-2.5,3.1 -5.1,6.1 -7.5,8.9c-2.4,2.8 -4.8,5.4 -6.7,7.6c-1,1.1 -1.8,2.2 -2.8,3c-0.9,0.8 -1.9,1.3 -2.7,1.5c-0.8,0.2 -1.6,0.2 -2,0.1c-0.5,-0.1 -0.7,-0.2 -0.7,-0.2z" data-paper-data="{&quot;index&quot;:null}" fill="#59402f"/><path d="M243.7901,212.3c0,0 0.6,-0.2 1.3,-0.8c0.3,-0.3 0.7,-0.7 1,-1.2c0.3,-0.5 0.6,-1 0.8,-1.6c0.1,-0.3 0.2,-0.6 0.3,-0.9c0.1,-0.3 0.2,-0.6 0.3,-0.8c0.2,-0.6 0.3,-1.1 0.4,-1.5c0.1,-0.5 0.2,-0.8 0.3,-1.1c0.1,-0.3 0.1,-0.4 0.1,-0.4c0,0 0,0.2 0,0.4c0,0.3 0,0.7 0,1.2c-0.1,0.5 -0.1,1 -0.3,1.6c-0.1,0.3 -0.1,0.6 -0.2,0.9c-0.1,0.3 -0.2,0.6 -0.3,0.9c-0.3,0.6 -0.6,1.2 -1,1.7c-0.2,0.3 -0.4,0.5 -0.6,0.7c-0.2,0.2 -0.4,0.4 -0.6,0.5c-0.4,0.3 -0.8,0.4 -1.1,0.5c-0.2,-0.1 -0.4,-0.1 -0.4,-0.1z" data-paper-data="{&quot;index&quot;:null}" fill="#59402f"/><path d="M190.1901,243.5c0,0 0.2,-0.1 0.6,-0.3c0.4,-0.2 0.9,-0.5 1.5,-1.1c0.6,-0.5 1.3,-1.3 1.9,-2.3c0.6,-1 1,-2.2 1.6,-3.4c1.2,-2.6 2.5,-5.6 3.9,-8.8c1.4,-3.2 2.8,-6.7 4,-10.2c0.6,-1.8 1.2,-3.5 1.7,-5.3c0.5,-1.8 0.8,-3.5 0.9,-5.3c0.3,-3.5 0.3,-6.8 0.3,-9.6c0,-2.8 0.2,-5.2 0.4,-6.8c0.1,-0.8 0.2,-1.5 0.3,-1.9c0.1,-0.4 0.1,-0.7 0.1,-0.7c0,0 0,0.2 -0.1,0.7c-0.1,0.4 -0.1,1.1 -0.2,1.9c-0.1,0.8 -0.1,1.8 -0.1,3c0,1.1 0,2.4 0,3.8c0.1,2.8 0.3,6.1 -0.1,9.6c-0.1,1.7 -0.4,3.6 -0.9,5.4c-0.5,1.8 -1,3.6 -1.6,5.4c-1.3,3.6 -2.7,7 -4.1,10.2c-1.4,3.2 -2.9,6.2 -4.1,8.7c-0.6,1.3 -1.1,2.5 -1.8,3.4c-0.7,1 -1.4,1.7 -2,2.2c-0.6,0.5 -1.2,0.8 -1.6,1c-0.3,0.4 -0.6,0.4 -0.6,0.4z" data-paper-data="{&quot;index&quot;:null}" fill="#59402f"/><g data-paper-data="{&quot;index&quot;:null}"><path d="M190.8901,251.7c0,0 0,-0.3 0.2,-0.8c0.2,-0.5 0.5,-1.1 1,-1.6c0.5,-0.5 1,-0.9 1.5,-1.1c0.5,-0.2 0.8,-0.3 0.8,-0.3c0,0 -0.1,0.1 -0.2,0.2c-0.1,0.1 -0.2,0.2 -0.4,0.4c-0.3,0.3 -0.8,0.8 -1.2,1.2c-0.4,0.4 -0.8,0.9 -1.1,1.3c-0.3,0.4 -0.6,0.7 -0.6,0.7z" fill="#59402f"/><path d="M185.4901,250.3c0,0 0.1,-0.4 0.3,-0.9c0.3,-0.5 0.7,-1.2 1.3,-1.7c0.3,-0.3 0.6,-0.5 0.9,-0.7c0.3,-0.2 0.6,-0.3 0.9,-0.4c0.3,-0.1 0.5,-0.1 0.7,-0.2c0.2,0 0.3,0 0.3,0c0,0 -0.1,0.1 -0.2,0.2c-0.1,0.1 -0.3,0.2 -0.6,0.4c-0.5,0.3 -1,0.7 -1.6,1.2c-0.5,0.5 -1.1,1 -1.4,1.4c-0.4,0.4 -0.6,0.7 -0.6,0.7z" fill="#59402f"/><path d="M191.6901,253.1c0.1,-0.6 1.4,-3.1 2.5,-3c1.1,0.1 0.2,1.2 -0.4,1.8c-0.7,0.7 -2.2,1.6 -2.1,1.2z" fill="#6c5f57"/><path d="M186.2901,251.8c0.1,-0.6 1.4,-3.1 2.5,-3c1.1,0.2 0.2,1.2 -0.4,1.8c-0.7,0.7 -2.2,1.6 -2.1,1.2z" fill="#6c5f57"/><path d="M182.9901,250.5c0.1,-0.6 1.4,-3.1 2.5,-3c1.1,0.2 0.2,1.2 -0.4,1.8c-0.7,0.6 -2.1,1.6 -2.1,1.2z" fill="#6c5f57"/></g><g data-paper-data="{&quot;index&quot;:null}"><g><path d="M217.7901,144.6c-0.1,6.5 2.5,10.3 2.5,10.3c-2.7,0 -5.4,-4.9 -5.4,-4.9c3.9,9 -2.2,15.2 -2.2,15.2c0.6,-5.7 -1.4,-7.5 -1.4,-7.5c3,10.9 -8.4,13.5 -8.4,13.5c1.7,-1.2 2.9,-5.5 2.9,-5.5c-8.8,9.8 -26.2,7.7 -35.9,8.2c-9.7,0.5 -16.8,-0.4 -25.1,-1c-8.3,-0.6 -14.9,-10.4 -15.3,-14.7c-0.4,-4.3 20.1,-15 20.1,-15c0,0 0.6,-13.2 3.7,-18.8c3.1,-5.6 25.9,-17.5 46.2,-14.7c17,2.4 18.2,28.5 18.3,34.9z" fill="#8d674a"/><path d="M224.7901,133.3c-0.1,6.5 -4.6,21.7 -4.6,21.7c-2.7,0 -5.4,-4.9 -5.4,-4.9c3.9,9 -2.2,15.2 -2.2,15.2c0.6,-5.7 -1.4,-7.5 -1.4,-7.5c3,10.9 -8.4,13.5 -8.4,13.5c1.7,-1.2 2.9,-5.5 2.9,-5.5c-8.8,9.8 -24.8,9.4 -34.4,10c-9.6,0.6 -18.2,-2.3 -26.5,-2.9c-8.3,-0.6 -14.9,-10.4 -15.3,-14.7c-0.4,-4.3 20,-15 20,-15c0,0 0.6,-13.1 3.7,-18.8c3.1,-5.7 22.8,-17.6 43.2,-15.6c14.4,1.4 28.5,18 28.4,24.5z" fill="#8d674a"/><path d="M149.6901,143.2c15,12.2 -1.1,23.3 -1.1,23.3c-0.2,2.7 -3,4.7 -5.5,6.1c-7.5,-1.7 -13.2,-10.4 -13.6,-14.4c-0.4,-4.3 20.1,-15 20.2,-15z" fill="#9e7b5c"/><path d="M130.3901,161.4c-0.9,-1.6 -2.3,-3.2 -1.4,-4.6c0.5,-0.8 1.7,-2.3 2.7,-2.3c1,0 2.5,3 -0.5,4.5c0.4,1.6 -0.2,2.1 -0.8,2.4z" fill="#332721"/><path d="M135.7901,168.2c0,0 0.5,-0.3 1.3,-0.7c0.4,-0.2 0.9,-0.3 1.4,-0.5c0.5,-0.1 1.1,-0.3 1.7,-0.3c0.6,-0.1 1.2,-0.1 1.8,-0.1c0.6,0 1.1,0.1 1.5,0.2c0.4,0.1 0.8,0.2 1,0.3c0.2,0.1 0.4,0.2 0.4,0.2c0,0 -0.2,0 -0.4,0c-0.3,0 -0.6,-0.1 -1,-0.1c-0.2,0 -0.4,0 -0.7,0c-0.2,0 -0.5,0 -0.8,0c-0.5,0 -1.1,0.1 -1.7,0.1c-1.1,0.1 -2.3,0.3 -3.1,0.5c-0.8,0.3 -1.4,0.4 -1.4,0.4z" fill="#59402f"/><path d="M157.89789,142.75664c-0.13173,-1.42991 0.51939,-2.65891 1.45433,-2.74504c0.93494,-0.08613 1.79965,1.00321 1.93139,2.43312c0.13173,1.42991 -0.51939,2.65891 -1.45433,2.74504c-0.93494,0.08613 -1.79965,-1.00321 -1.93139,-2.43312z" fill="#332010"/><path d="M162.7901,135.8c0.1,1.1 -3,1.8 -4.4,1.9c-1.4,0.1 -2.7,-0.6 -2.8,-1.7c-0.1,-1.1 1,-2 2.4,-2.2c1.5,-0.1 4.7,0.9 4.8,2z" fill="#9e7b5c"/><path d="M149.5901,143.2c0,0 0,-0.8 0,-2.3c0.1,-1.4 0.1,-3.5 0.4,-6c0.1,-1.2 0.3,-2.6 0.6,-4c0.3,-1.4 0.6,-2.9 1.2,-4.3c0.3,-0.7 0.6,-1.5 1,-2.2c0.5,-0.7 0.9,-1.3 1.5,-2c1.1,-1.2 2.3,-2.4 3.6,-3.4c1.3,-1 2.7,-1.9 4.1,-2.7c1.4,-0.8 2.8,-1.6 4.2,-2.2c1.4,-0.7 2.8,-1.2 4.1,-1.7c1.3,-0.5 2.6,-0.9 3.8,-1.3c1.2,-0.4 2.3,-0.7 3.3,-0.9c1,-0.2 1.8,-0.5 2.5,-0.6c1.4,-0.3 2.2,-0.5 2.2,-0.5c0,0 -0.8,0.2 -2.2,0.6c-1.4,0.4 -3.4,1 -5.7,1.7c-1.2,0.4 -2.4,0.8 -3.7,1.4c-1.3,0.5 -2.7,1.1 -4.1,1.8c-1.4,0.7 -2.8,1.4 -4.2,2.2c-1.4,0.8 -2.7,1.8 -4,2.7c-1.3,1 -2.5,2.1 -3.6,3.3c-0.5,0.6 -1,1.2 -1.4,1.9c-0.4,0.7 -0.7,1.4 -1,2.1c-1.1,2.9 -1.6,5.7 -1.9,8.1c-0.6,5 -0.7,8.3 -0.7,8.3z" fill="#59402f"/><path d="M202.7901,171.3c0,0 0.3,-0.1 0.7,-0.2c0.5,-0.1 1.1,-0.4 1.9,-0.8c0.4,-0.2 0.8,-0.4 1.2,-0.7c0.4,-0.2 0.8,-0.6 1.2,-0.9c0.4,-0.3 0.8,-0.7 1.2,-1.1c0.4,-0.4 0.7,-0.8 1,-1.3c0.3,-0.4 0.5,-1 0.8,-1.4c0.2,-0.5 0.3,-1 0.5,-1.5c0.1,-0.5 0.1,-1 0.2,-1.5c0.1,-0.5 0,-0.9 0,-1.4c0,-0.4 0,-0.8 -0.1,-1.2c0,-0.3 -0.1,-0.6 -0.1,-0.9c-0.1,-0.5 -0.1,-0.8 -0.1,-0.8c0,0 0.1,0.3 0.2,0.8c0.1,0.2 0.2,0.5 0.2,0.9c0.1,0.3 0.2,0.7 0.2,1.2c0,0.4 0.1,0.9 0.1,1.4c0,0.5 0,1 -0.1,1.6c-0.2,0.5 -0.2,1.1 -0.5,1.6c-0.2,0.5 -0.4,1.1 -0.8,1.6c-0.3,0.5 -0.7,0.9 -1.1,1.4c-0.4,0.4 -0.9,0.8 -1.3,1.1c-0.9,0.6 -1.8,1.1 -2.6,1.4c-1.5,0.6 -2.7,0.7 -2.7,0.7z" fill="#59402f"/><path d="M212.5901,165.3c0,0 0.7,-0.7 1.5,-2.1c0.2,-0.3 0.4,-0.7 0.6,-1.1c0.2,-0.4 0.4,-0.8 0.5,-1.3c0.1,-0.2 0.2,-0.4 0.2,-0.7c0.1,-0.2 0.1,-0.5 0.2,-0.7c0.1,-0.5 0.2,-1 0.3,-1.5c0.1,-0.5 0.1,-1 0.1,-1.5c0,-0.5 0,-1 -0.1,-1.5c-0.1,-0.5 -0.1,-0.9 -0.2,-1.4c-0.1,-0.4 -0.2,-0.8 -0.3,-1.2c-0.1,-0.4 -0.2,-0.7 -0.3,-1c-0.1,-0.3 -0.2,-0.6 -0.2,-0.8c-0.1,-0.4 -0.2,-0.7 -0.2,-0.7c0,0 0.1,0.2 0.3,0.6c0.1,0.2 0.2,0.5 0.4,0.7c0.2,0.3 0.3,0.6 0.4,1c0.1,0.4 0.3,0.8 0.4,1.2c0.1,0.4 0.2,0.9 0.3,1.4c0,0.5 0.1,1 0.1,1.5c0,0.5 0,1 -0.1,1.6c-0.1,0.5 -0.2,1 -0.3,1.5c-0.1,0.2 -0.1,0.5 -0.2,0.7c-0.1,0.2 -0.2,0.5 -0.3,0.7c-0.2,0.5 -0.4,0.9 -0.6,1.3c-0.2,0.4 -0.5,0.7 -0.7,1.1c-0.5,0.6 -0.9,1.1 -1.3,1.4c-0.3,0.6 -0.5,0.8 -0.5,0.8z" fill="#59402f"/><path d="M220.0901,154.9c0,0 -0.2,-0.2 -0.4,-0.5c-0.2,-0.4 -0.6,-0.9 -0.9,-1.6c-0.3,-0.7 -0.6,-1.5 -0.8,-2.4c-0.2,-0.9 -0.4,-1.9 -0.5,-2.8c-0.1,-0.5 -0.1,-1 -0.1,-1.5c0,-0.5 -0.1,-1 -0.1,-1.4c-0.1,-0.9 0,-1.8 0,-2.5c0,-0.7 0.1,-1.3 0.1,-1.8c0,-0.4 0.1,-0.7 0.1,-0.7c0,0 0,0.2 0.1,0.7c0,0.4 0.1,1 0.1,1.8c0,0.7 0.1,1.6 0.2,2.5c0.1,0.9 0.2,1.9 0.3,2.8c0.1,1 0.2,1.9 0.4,2.8c0.2,0.9 0.4,1.7 0.6,2.4c0.2,0.7 0.4,1.2 0.6,1.6c0.2,0.4 0.3,0.6 0.3,0.6z" fill="#59402f"/><path d="M193.6901,108.8c0,0 0.4,-0.1 1.1,-0.2c0.3,0 0.8,0 1.2,0c0.5,0 1,0.1 1.6,0.2c0.6,0.1 1.2,0.2 1.9,0.4c0.6,0.2 1.3,0.3 2,0.6c0.7,0.2 1.4,0.5 2.1,0.8c0.7,0.3 1.4,0.7 2.1,1c0.7,0.3 1.4,0.8 2,1.1c0.7,0.4 1.3,0.8 1.9,1.2c1.2,0.8 2.3,1.6 3.2,2.3c0.5,0.3 0.9,0.7 1.2,1c0.4,0.3 0.7,0.6 0.9,0.8c0.5,0.4 0.8,0.7 0.8,0.7c0,0 -0.3,-0.2 -0.9,-0.6c-0.3,-0.2 -0.6,-0.4 -1,-0.7c-0.4,-0.3 -0.8,-0.6 -1.3,-0.9c-0.5,-0.3 -1,-0.7 -1.6,-1c-0.5,-0.4 -1.2,-0.7 -1.8,-1.1c-0.6,-0.4 -1.2,-0.8 -1.9,-1.1c-0.7,-0.4 -1.3,-0.8 -2,-1.1c-0.7,-0.3 -1.4,-0.7 -2.1,-1c-0.7,-0.3 -1.4,-0.6 -2,-0.9c-1.3,-0.5 -2.6,-0.9 -3.8,-1.2c-0.6,-0.1 -1.1,-0.2 -1.6,-0.3c-0.5,-0.1 -0.9,-0.1 -1.2,-0.1c-0.4,0 -0.8,0.1 -0.8,0.1z" fill="#59402f"/></g><g><path d="M180.6901,111.6c0,0 1.7,-8.2 6.3,-8.8c4.6,-0.6 15.3,3.9 7.2,16.6" fill="#8d674a"/><path d="M187.1901,105.3c0,0 0.4,0.6 0.7,1.5c0.2,0.5 0.4,1 0.5,1.6c0.2,0.6 0.3,1.3 0.3,2c0,0.3 0,0.7 0,1c-0.1,0.3 -0.1,0.7 -0.2,1c-0.1,0.3 -0.2,0.6 -0.3,0.9c-0.1,0.3 -0.2,0.5 -0.4,0.7c-0.3,0.4 -0.5,0.7 -0.8,0.9c-0.2,0.2 -0.3,0.3 -0.3,0.3c0,0 0.1,-0.1 0.2,-0.4c0.1,-0.1 0.2,-0.3 0.3,-0.4c0.1,-0.2 0.2,-0.4 0.3,-0.6c0.1,-0.2 0.2,-0.5 0.2,-0.7c0.1,-0.3 0.1,-0.5 0.2,-0.8c0.1,-0.3 0.1,-0.6 0.1,-0.9c0,-0.3 0,-0.6 0,-0.9c0,-0.6 -0.1,-1.3 -0.2,-1.8c-0.1,-0.6 -0.2,-1.1 -0.3,-1.6c-0.1,-1.1 -0.3,-1.8 -0.3,-1.8z" fill="#59402f"/><g fill="#59402f"><path d="M189.4901,114.4c0,0 0,0.2 -0.1,0.3c-0.1,0.2 -0.2,0.4 -0.4,0.6c-0.2,0.2 -0.4,0.4 -0.6,0.5c-0.2,0.1 -0.3,0.1 -0.3,0.1c0,0 0,-0.2 0.1,-0.3c0.1,-0.2 0.2,-0.4 0.4,-0.6c0.2,-0.2 0.4,-0.4 0.6,-0.5c0.1,-0.1 0.3,-0.1 0.3,-0.1z"/><path d="M190.6901,115.7c0,0 0,0.1 -0.1,0.3c-0.1,0.2 -0.2,0.3 -0.3,0.5c-0.1,0.1 -0.3,0.3 -0.5,0.3c-0.2,0.1 -0.3,0.1 -0.3,0.1c0,0 0,-0.1 0.1,-0.3c0.1,-0.2 0.2,-0.3 0.3,-0.5c0.1,-0.1 0.3,-0.3 0.5,-0.3c0.1,-0.1 0.3,-0.1 0.3,-0.1z"/></g><path d="M193.5901,104.5c0,0 -0.3,-0.1 -0.7,-0.4c-0.5,-0.2 -1.2,-0.5 -2,-0.7c-0.2,-0.1 -0.4,-0.1 -0.7,-0.2c-0.2,0 -0.5,-0.1 -0.7,-0.1c-0.2,0 -0.5,0 -0.8,0c-0.3,0 -0.5,0 -0.8,0c-0.3,0 -0.5,0.1 -0.8,0.1c-0.3,0.1 -0.5,0.2 -0.8,0.2c-0.3,0.1 -0.5,0.2 -0.8,0.3c-0.2,0.1 -0.5,0.2 -0.7,0.4c-0.3,0.6 -0.8,0.9 -1.1,1.3c-0.4,0.4 -0.7,0.8 -1,1.3c-0.2,0.5 -0.6,0.9 -0.7,1.4c-0.2,0.5 -0.4,0.9 -0.6,1.3c-0.2,0.4 -0.3,0.8 -0.4,1.1c-0.1,0.3 -0.2,0.6 -0.3,0.9c-0.2,0.5 -0.3,0.8 -0.3,0.8c0,0 0,-0.3 0.1,-0.8c0,-0.3 0.1,-0.6 0.2,-0.9c0.1,-0.4 0.1,-0.8 0.3,-1.2c0.1,-0.4 0.3,-0.9 0.5,-1.4c0.1,-0.5 0.4,-1 0.7,-1.5c0.2,-0.5 0.6,-1 1,-1.5c0.3,-0.5 0.9,-0.9 1.3,-1.3c0.2,-0.2 0.5,-0.3 0.8,-0.5c0.3,-0.1 0.5,-0.3 0.8,-0.4c0.3,-0.1 0.6,-0.2 0.9,-0.2c0.3,0 0.6,-0.1 0.9,-0.1c0.3,0 0.6,0 0.8,0c0.3,0 0.5,0 0.8,0.1c0.3,0.1 0.5,0.1 0.7,0.2c0.4,0.3 0.6,0.3 0.8,0.4c0.4,0.1 0.8,0.3 1.1,0.5c0.3,0.2 0.6,0.3 0.8,0.5c0.5,0.2 0.7,0.4 0.7,0.4z" fill="#59402f"/></g></g></g></g></svg>