<svg version="1.1" xmlns="http://www.w3.org/2000/svg" xmlns:xlink="http://www.w3.org/1999/xlink" width="227.9058" height="158.68519" viewBox="0,0,227.9058,158.68519"><g transform="translate(-127.0843,-100.9)"><g data-paper-data="{&quot;isPaintingLayer&quot;:true}" fill-rule="nonzero" stroke="none" stroke-width="1" stroke-linecap="butt" stroke-linejoin="miter" stroke-miterlimit="10" stroke-dasharray="" stroke-dashoffset="0" style="mix-blend-mode: normal"><g><path d="M181.1,179.2c0,0 4.8,22.9 -14.3,46.5c-9.6,11.9 -16.4,22.4 -15,25.1c1.4,2.8 6.8,5.4 5.1,6.8c-1.7,1.4 -21.3,1 -25.5,-1.6c-1.7,-1.1 -2.9,-24.8 0.1,-37.1c3,-12.3 7.4,-19 7.6,-28.2c0.2,-9.2 -2.7,-26.8 1.4,-33.5c4.1,-6.7 12,-18.7 27.5,-10.4c15.5,8.3 14.2,26.3 13.1,32.4z" fill="#856045"/><path d="M148.2,257.5c-0.2,-0.4 -0.5,-0.9 -0.9,-1.4c-0.3,-0.5 -0.7,-1 -1,-1.4c-0.1,-0.2 -0.2,-0.4 -0.3,-0.5c-0.1,-0.1 -0.1,-0.2 -0.1,-0.2c0,0 0.3,0.1 0.7,0.4c0.4,0.3 0.9,0.7 1.3,1.3c0.3,0.6 0.6,1.2 0.7,1.7c0.1,0.5 0.1,0.8 0.1,0.8c0,0 -0.2,-0.3 -0.5,-0.7z" fill="#59402f"/><path d="M153.7,257.5c-0.3,-0.5 -0.7,-1.1 -1.2,-1.6c-0.5,-0.5 -1,-1 -1.4,-1.4c-0.2,-0.2 -0.4,-0.4 -0.5,-0.5c-0.1,-0.1 -0.2,-0.2 -0.2,-0.2c0,0 0.1,0.1 0.3,0.1c0.2,0 0.4,0.1 0.7,0.2c0.2,0.1 0.5,0.3 0.8,0.5c0.3,0.2 0.5,0.5 0.8,0.8c0.6,0.6 0.9,1.2 1.1,1.8c0.2,0.5 0.2,0.9 0.2,0.9c0,0 -0.2,-0.4 -0.6,-0.6z" fill="#59402f"/><path d="M145.9,258.1c-0.5,-0.8 -1.2,-1.9 -0.1,-1.9c1.1,0 2,2.7 2,3.3c0,0.4 -1.3,-0.7 -1.9,-1.4z" fill="#665a52"/><path d="M151.4,257.6c-0.5,-0.8 -1.2,-1.9 -0.1,-1.9c1.1,0 2,2.7 2,3.3c0,0.4 -1.4,-0.7 -1.9,-1.4z" fill="#665a52"/><path d="M154.8,257.4c-0.5,-0.8 -1.2,-1.9 -0.1,-1.9c1.1,0 2,2.7 2,3.3c0,0.4 -1.3,-0.8 -1.9,-1.4z" fill="#665a52"/><g><path d="M130.8,225c-4.2,-3.7 -0.8,-10.1 -0.8,-10.1l-2.9,3.1c-0.3,-4.3 3.8,-10.6 3.8,-10.6l-2.9,0.9c1.1,-4.4 5.5,-6.2 5.5,-6.2c-1.8,1.6 -4,-0.3 -4,-0.3c2.4,0.2 10.4,-9.8 10.4,-9.8" fill="#856045"/><path d="M130.1,201.5c0.3,-0.2 0.7,-0.4 1.1,-0.8c0.4,-0.4 0.9,-0.8 1.4,-1.3c0.5,-0.4 1.1,-1 1.6,-1.5c1.1,-1.1 2.1,-2.2 2.9,-3c0.8,-0.8 1.4,-1.3 1.4,-1.3c0,0 -0.4,0.7 -1.1,1.6c-0.3,0.4 -0.7,1 -1.2,1.5c-0.5,0.6 -1,1.2 -1.5,1.7c-1,1.1 -2.2,2.1 -3.2,2.7c-0.5,0.3 -1,0.5 -1.3,0.6c-0.3,0.1 -0.5,0.1 -0.5,0.1c0,0 0.2,0 0.4,-0.3z" fill="#59402f"/><path d="M128.4,207.2c0.1,-0.3 0.2,-0.7 0.4,-1.1c0.2,-0.4 0.4,-0.8 0.7,-1.2c0.3,-0.4 0.6,-0.7 0.9,-1c0.3,-0.3 0.7,-0.5 1,-0.7c0.3,-0.2 0.6,-0.2 0.8,-0.3c0.2,-0.1 0.3,-0.1 0.3,-0.1c0,0 0,0.1 -0.2,0.2c-0.1,0.1 -0.4,0.3 -0.6,0.5c-0.3,0.2 -0.5,0.5 -0.8,0.8c-0.3,0.3 -0.5,0.7 -0.8,1c-0.5,0.7 -1,1.4 -1.3,2c-0.4,0.6 -0.6,1 -0.6,1c0,0 0,-0.5 0.2,-1.1z" fill="#59402f"/><path d="M127.2,217.4c-0.1,-0.3 -0.1,-0.8 -0.1,-1.3c0,-1.1 0.4,-2.5 0.9,-3.8c0.3,-0.7 0.6,-1.3 0.9,-1.9c0.3,-0.6 0.7,-1.1 1,-1.5c0.3,-0.4 0.6,-0.8 0.8,-1c0.2,-0.3 0.3,-0.4 0.3,-0.4c0,0 -0.1,0.1 -0.2,0.4c-0.2,0.2 -0.4,0.6 -0.6,1.1c-0.3,0.5 -0.5,1 -0.8,1.6c-0.3,0.6 -0.5,1.3 -0.8,1.9c-0.3,0.6 -0.5,1.3 -0.7,1.9c-0.2,0.6 -0.3,1.2 -0.4,1.7c-0.3,1 -0.2,1.7 -0.2,1.7c0,0 -0.1,-0.2 -0.1,-0.4z" fill="#59402f"/><path d="M129.4,223.4c-0.1,-0.2 -0.3,-0.5 -0.5,-0.9c-0.1,-0.4 -0.3,-0.9 -0.3,-1.4c-0.1,-0.6 -0.1,-1.1 0,-1.7c0,-0.2 0.1,-0.5 0.1,-0.8c0,-0.3 0.1,-0.5 0.2,-0.8c0.2,-0.5 0.4,-1 0.5,-1.4c0.1,-0.4 0.3,-0.7 0.4,-0.9c0.1,-0.2 0.2,-0.3 0.2,-0.3c0,0 0,0.6 -0.2,1.4c-0.1,0.9 -0.4,1.9 -0.5,3c-0.1,1 -0.1,2.1 0,2.9c0.1,0.4 0.2,0.7 0.3,0.9c0.1,0.2 0.2,0.3 0.2,0.3c0,0 -0.1,0 -0.4,-0.3z" fill="#59402f"/></g><path d="M131,225.4c-0.1,1.9 -0.3,4.1 -0.4,6.5c-0.1,2.3 -0.2,4.9 -0.3,7.4c-0.1,2.5 -0.2,5 -0.1,7.4c0,2.3 0.2,4.5 0.5,6.4c0.2,1 0.4,1.8 0.7,2.5c0.1,0.3 0.2,0.7 0.5,0.8c0.3,0.2 0.5,0.3 0.8,0.4c1,0.4 1.6,0.6 1.6,0.6c0,0 -0.6,-0.2 -1.7,-0.5c-0.3,-0.1 -0.6,-0.2 -0.9,-0.4c-0.2,-0.1 -0.3,-0.2 -0.4,-0.4c-0.1,-0.2 -0.2,-0.3 -0.3,-0.5c-0.3,-0.7 -0.6,-1.6 -0.8,-2.5c-0.4,-1.9 -0.7,-4.1 -0.8,-6.5c-0.1,-2.4 -0.1,-5 0,-7.5c0.1,-2.5 0.2,-5 0.4,-7.4c0.2,-2.4 0.4,-4.6 0.6,-6.5c0.4,-3.8 0.8,-6.3 0.8,-6.3c0,0 -0.2,2.5 -0.2,6.5z" fill="#59402f"/><path d="M181.7,196.1c-0.6,1.8 -1.5,4.4 -2.6,7.5c-1.2,3.1 -2.6,6.7 -4.2,10.5c-0.9,1.8 -1.8,3.8 -2.8,5.7c-0.5,0.9 -1.1,1.9 -1.7,2.8c-0.6,0.9 -1.3,1.8 -2,2.6c-2.8,3.4 -5.6,6.8 -8.1,10.1c-2.4,3.3 -4.7,6.4 -6.4,9.2c-0.4,0.7 -0.8,1.4 -1.1,2.1c-0.3,0.7 -0.5,1.4 -0.7,2c-0.2,0.6 -0.3,1.2 -0.3,1.8c0,0.6 0.3,1 0.6,1.4c0.6,0.7 1.1,1.2 1.5,1.6c0.4,0.4 0.6,0.6 0.6,0.6c0,0 -0.2,-0.1 -0.6,-0.5c-0.4,-0.4 -1,-0.9 -1.6,-1.6c-0.4,-0.4 -0.7,-0.9 -0.7,-1.5c-0.1,-0.6 0.1,-1.2 0.2,-1.9c0.1,-0.7 0.3,-1.4 0.6,-2.1c0.3,-0.7 0.7,-1.4 1.1,-2.1c1.6,-2.9 3.8,-6.1 6.3,-9.4c2.5,-3.3 5.2,-6.7 8,-10.1c0.7,-0.9 1.4,-1.7 2,-2.6c0.6,-0.9 1.2,-1.9 1.7,-2.8c1,-1.9 2,-3.8 2.8,-5.7c1.7,-3.8 3.1,-7.3 4.3,-10.4c2.4,-6.1 3.8,-10.3 3.8,-10.3c0,0 -0.4,1 -0.7,3.1z" fill="#59402f"/></g><g><g><path d="M283.1,178.5c-3.2,22.6 -9.3,28.4 -10.1,34.9c-0.8,6.5 0,30.6 1.4,33.4c1.4,2.9 5.8,5 6.5,8.3c0.7,3.2 -23.7,1.8 -26.6,0c-2.9,-1.8 -18.3,-42.4 -17.3,-65.4c5.1,-46.8 49.3,-33.9 46.1,-11.2z" fill="#856045"/><path d="M238.1,202.4c-4.5,-3.4 -1.7,-10 -1.7,-10l-2.6,3.3c-0.8,-4.3 2.8,-10.9 2.8,-10.9l-2.8,1.2c0.7,-4.5 5,-6.6 5,-6.6c-1.6,1.7 -4,0 -4,0c2.4,0 9.5,-10.7 9.5,-10.7" fill="#8d674a"/></g><path d="M235.6,179.1c0.2,-0.2 0.6,-0.5 1,-0.9c0.4,-0.4 0.8,-0.9 1.3,-1.4c0.4,-0.6 0.9,-1.1 1.4,-1.7c0.9,-1.2 1.9,-2.3 2.6,-3.2c0.7,-0.8 1.2,-1.4 1.2,-1.4c0,0 -0.3,0.7 -0.9,1.7c-0.3,0.5 -0.7,1 -1.1,1.6c-0.5,0.6 -0.9,1.2 -1.4,1.8c-1,1.1 -2,2.2 -3,2.9c-0.4,0.4 -0.9,0.6 -1.2,0.7c-0.3,0.1 -0.5,0.1 -0.5,0.1c0,0 0.2,-0.1 0.6,-0.2z" fill="#59402f"/><path d="M234.2,184.8c0,-0.3 0.1,-0.7 0.3,-1.1c0.2,-0.4 0.4,-0.8 0.6,-1.2c0.2,-0.4 0.5,-0.8 0.8,-1.1c0.3,-0.3 0.6,-0.5 0.9,-0.7c0.3,-0.2 0.6,-0.3 0.8,-0.4c0.2,-0.1 0.3,-0.1 0.3,-0.1c0,0 -0.1,0.1 -0.2,0.2c-0.2,0.2 -0.4,0.4 -0.6,0.6c-0.2,0.2 -0.5,0.5 -0.7,0.8c-0.2,0.3 -0.5,0.6 -0.7,1c-0.4,0.7 -0.8,1.5 -1.1,2.1c-0.3,0.6 -0.5,1 -0.5,1c0,0 0,-0.5 0.1,-1.1z" fill="#59402f"/><path d="M233.9,194.9c-0.1,-0.3 -0.2,-0.8 -0.2,-1.3c0,-0.5 0,-1.1 0.1,-1.8c0,-0.6 0.2,-1.3 0.4,-2c0.2,-0.7 0.4,-1.3 0.7,-1.9c0.2,-0.6 0.5,-1.1 0.8,-1.6c0.3,-0.5 0.5,-0.8 0.7,-1.1c0.2,-0.3 0.3,-0.4 0.3,-0.4c0,0 -0.1,0.1 -0.2,0.4c-0.1,0.3 -0.2,0.7 -0.4,1.2c-0.2,0.4 -0.4,1 -0.6,1.6c-0.2,0.6 -0.4,1.3 -0.6,1.9c-0.2,0.6 -0.4,1.3 -0.5,1.9c-0.2,0.6 -0.3,1.2 -0.3,1.7c-0.1,1 0,1.7 0,1.7c0,0 -0.1,-0.2 -0.2,-0.3z" fill="#59402f"/><path d="M255.1,255.4c-0.4,-0.2 -1.1,-0.5 -1.6,-1.2c-0.5,-0.7 -1.1,-1.6 -1.6,-2.7c-0.5,-1 -1,-2.3 -1.5,-3.7c-1.1,-2.8 -2.4,-6 -3.7,-9.4c-1.3,-3.5 -2.6,-7.2 -3.8,-10.9c-0.6,-1.8 -1.2,-3.7 -1.7,-5.6c-0.2,-0.9 -0.5,-1.9 -0.7,-2.8c-0.2,-0.9 -0.4,-1.8 -0.6,-2.7c-0.4,-1.8 -0.7,-3.5 -0.9,-5.2c-0.2,-1.7 -0.4,-3.2 -0.6,-4.7c-0.4,-2.9 -0.6,-5.4 -0.7,-7.1c-0.1,-1.7 -0.1,-2.7 -0.1,-2.7c0,0 0,1 0.2,2.7c0.2,1.7 0.6,4.1 1,7c0.2,1.5 0.4,3 0.7,4.7c0.3,1.7 0.6,3.4 1,5.2c0.2,0.9 0.4,1.8 0.6,2.7c0.2,1 0.4,1.9 0.7,2.8c0.5,1.9 1.1,3.7 1.7,5.6c1.1,3.8 2.4,7.4 3.7,10.9c1.3,3.4 2.5,6.6 3.5,9.4c0.5,1.4 0.9,2.7 1.4,3.8c0.5,1.1 1,2 1.5,2.7c0.4,0.7 1.1,1 1.5,1.2c0.5,0.2 0.7,0.2 0.7,0.2c0,0 -0.2,-0.1 -0.7,-0.2z" fill="#59402f"/><path d="M237.4,201.8c-0.3,-0.1 -0.6,-0.4 -0.9,-0.8c-0.1,-0.2 -0.3,-0.4 -0.4,-0.7c-0.1,-0.2 -0.2,-0.5 -0.3,-0.8c-0.2,-0.6 -0.3,-1.2 -0.3,-1.9c0,-0.4 0,-0.7 0,-1c0,-0.3 0.1,-0.6 0.1,-0.9c0,-0.6 0.2,-1.1 0.3,-1.6c0.1,-0.5 0.3,-0.8 0.4,-1.1c0.1,-0.3 0.2,-0.4 0.2,-0.4c0,0 0,0.1 0,0.4c0,0.2 -0.1,0.6 -0.1,1.1c0,0.5 -0.1,1 -0.1,1.6c0,0.3 0,0.6 0,0.9c0,0.3 0,0.6 0,0.9c0,0.6 0.1,1.2 0.2,1.8c0.1,0.6 0.3,1.1 0.5,1.5c0.4,0.8 0.9,1.2 0.9,1.2c0,0 -0.1,0 -0.5,-0.2z" fill="#59402f"/><path d="M273.2,255.9c-0.2,-0.4 -0.6,-0.9 -0.9,-1.4c-0.3,-0.5 -0.7,-1 -1,-1.4c-0.1,-0.2 -0.2,-0.4 -0.3,-0.5c-0.1,-0.1 -0.1,-0.2 -0.1,-0.2c0,0 0.3,0.1 0.7,0.4c0.4,0.3 0.9,0.7 1.3,1.3c0.4,0.6 0.6,1.2 0.7,1.7c0,0.5 0,0.8 0,0.8c0,0 -0.2,-0.3 -0.4,-0.7z" fill="#59402f"/><path d="M278.7,255.4c-0.3,-0.5 -0.7,-1.1 -1.2,-1.6c-0.5,-0.6 -1,-1.1 -1.4,-1.5c-0.2,-0.2 -0.4,-0.4 -0.5,-0.5c-0.1,-0.1 -0.2,-0.2 -0.2,-0.2c0,0 0.1,0.1 0.3,0.1c0.2,0.1 0.4,0.2 0.7,0.3c0.2,0.1 0.5,0.3 0.8,0.5c0.3,0.2 0.5,0.5 0.8,0.8c0.5,0.6 0.8,1.3 1,1.9c0.2,0.5 0.2,0.9 0.2,0.9c0,0 -0.2,-0.3 -0.5,-0.7z" fill="#59402f"/><path d="M275.5,248.7c-0.3,-0.3 -0.6,-0.7 -0.9,-1.1c-0.2,-0.4 -0.5,-0.9 -0.7,-1.5c-0.4,-1.1 -0.7,-2.5 -0.8,-3.9c-0.2,-2.9 -0.6,-6.3 -0.8,-9.9c-0.3,-3.6 -0.4,-7.5 -0.3,-11.4c0,-2 0.1,-3.9 0.4,-5.8c0.3,-1.9 0.7,-3.7 1.2,-5.5c1,-3.5 2.5,-6.6 3.6,-9.3c0.6,-1.4 1.1,-2.6 1.5,-3.7c0.4,-1.1 0.8,-2.1 1,-2.9c0.2,-0.8 0.4,-1.5 0.5,-1.9c0.1,-0.5 0.2,-0.7 0.2,-0.7c0,0 0,0.3 -0.1,0.7c0,0.4 -0.2,1.1 -0.4,1.9c-0.5,1.7 -1.2,4 -2.3,6.7c-1,2.7 -2.3,5.8 -3.3,9.3c-0.5,1.7 -0.9,3.5 -1.1,5.4c-0.3,1.8 -0.3,3.8 -0.4,5.7c-0.1,3.8 0,7.7 0.2,11.3c0.2,3.6 0.4,7 0.6,9.9c0.1,1.4 0.3,2.7 0.7,3.8c0.2,0.6 0.4,1.1 0.7,1.5c0.2,0.4 0.5,0.8 0.8,1.1c1.1,1.4 1.8,2 1.8,2c0,0 -0.8,-0.6 -2.1,-1.7z" fill="#59402f"/><path d="M270.8,256.5c-0.5,-0.8 -1.2,-1.9 -0.1,-1.9c1.1,0 2,2.7 2,3.3c0,0.4 -1.4,-0.7 -1.9,-1.4z" fill="#665a52"/><path d="M276.3,256.1c-0.5,-0.8 -1.2,-1.9 -0.1,-1.9c1.1,0 2,2.7 2,3.3c0,0.4 -1.4,-0.6 -1.9,-1.4z" fill="#665a52"/><path d="M279.7,255.2c-0.5,-0.8 -1.2,-1.9 -0.1,-1.9c1.1,0 2,2.7 2,3.3c0,0.4 -1.3,-0.7 -1.9,-1.4z" fill="#665a52"/></g><g><g><path d="M136.6,168.3c-10.2,-1.7 -3.4,-11.1 -3.4,-11.1c-1.4,0.3 -3.2,3.6 -3.2,3.6c1.1,-8.3 6,-10.1 6,-10.1c-1.9,0 -5,2.6 -5,2.6c10.6,-15.7 21,-12.1 21,-12.1c2.4,2.3 -5.3,28.7 -15.4,27.1z" fill="#8d674a"/><path d="M132.9,150.2c0.7,-0.9 1.4,-1.9 2.4,-2.9c0.5,-0.5 1,-1 1.5,-1.5c0.5,-0.5 1.1,-0.9 1.7,-1.4c0.6,-0.4 1.2,-0.8 1.8,-1.2c0.7,-0.3 1.3,-0.7 1.9,-1c0.7,-0.3 1.3,-0.6 1.9,-0.7c0.6,-0.1 1.2,-0.3 1.7,-0.4c0.6,0 1.1,-0.1 1.5,-0.1c0.5,-0.1 0.9,0 1.2,0c0.6,0.1 1,0.1 1,0.1c0,0 -0.4,0.1 -1,0.1c-0.3,0 -0.7,0 -1.1,0.1c-0.4,0.1 -0.9,0.2 -1.4,0.3c-0.6,0.1 -1.1,0.3 -1.7,0.5c-0.6,0.2 -1.2,0.6 -1.8,0.8c-0.6,0.3 -1.2,0.7 -1.8,1c-0.5,0.4 -1.1,0.8 -1.7,1.2c-0.6,0.4 -1.2,0.8 -1.7,1.3c-0.5,0.4 -1,0.9 -1.5,1.4c-0.9,1 -1.8,1.9 -2.5,2.7c-0.7,0.8 -1.3,1.5 -1.7,2c-0.4,0.5 -0.6,0.8 -0.6,0.8c0,0 0.7,-1.3 1.9,-3.1z" fill="#59402f"/><path d="M134.7,152.2c-0.8,0.8 -1.7,1.9 -2.5,3.2c-0.2,0.3 -0.4,0.6 -0.6,0.9c-0.2,0.4 -0.4,0.7 -0.5,1c-0.2,0.3 -0.3,0.6 -0.4,0.9c-0.1,0.3 -0.2,0.5 -0.3,0.8c-0.1,0.2 -0.1,0.5 -0.2,0.7c0,0.2 -0.1,0.4 -0.1,0.6c-0.1,0.3 -0.1,0.5 -0.1,0.5c0,0 0,-0.2 0,-0.5c0,-0.4 0,-0.8 0.1,-1.4c0,-0.3 0.1,-0.6 0.2,-0.9c0.1,-0.3 0.2,-0.7 0.3,-1c0.2,-0.7 0.6,-1.3 1,-2c0.4,-0.7 0.9,-1.3 1.4,-1.8c0.5,-0.6 0.9,-1 1.4,-1.4c0.9,-0.8 1.6,-1.1 1.6,-1.1c0,0 -0.6,0.5 -1.3,1.5z" fill="#59402f"/><path d="M132.3,158.4c-0.2,0.4 -0.4,0.9 -0.6,1.4c-0.1,0.5 -0.3,1 -0.4,1.6c0,0.2 -0.1,0.5 -0.1,0.8c0,0.3 0,0.5 0,0.8c0,0.3 0.1,0.6 0.1,0.8c0,0.3 0,0.5 0.1,0.7c0,0.2 0.1,0.4 0.1,0.6c0.1,0.1 0.2,0.3 0.2,0.4c0.1,0.3 0.1,0.4 0.1,0.4c0,0 0,-0.1 -0.2,-0.3c-0.1,-0.3 -0.3,-0.6 -0.5,-1c-0.1,-0.2 -0.1,-0.4 -0.2,-0.7c-0.1,-0.2 -0.2,-0.5 -0.2,-0.8c-0.1,-0.6 0,-1.2 0.1,-1.8c0.2,-0.6 0.4,-1.2 0.6,-1.7c0.2,-0.6 0.5,-1 0.8,-1.4c0.5,-0.7 1,-1.1 1,-1.1c0,0 -0.3,0.6 -0.9,1.3z" fill="#59402f"/></g><g><path d="M295.7,169.8c0,0 0,7.8 -3.3,11l-0.2,-2.8c0,0 -1,8.8 -7.5,11.4l0.8,-2.6c0,0 -7.4,4.6 -7.3,8l-1.2,-2c0,0 -6.8,5.8 -9.8,3.8" fill="#8d674a"/><g><path d="M297.7,158.1c-1.2,27.3 -27.5,37.5 -27.5,37.5c-14.1,28.4 -93.6,28.3 -116.1,10.3c-20.1,-16.1 -25.5,-49 1.4,-71c26.9,-22 46.7,-6 63.1,-12.1c11.3,-4.2 35,-13.6 53,-8" fill="#8d674a"/><path d="M295.9,171.7c0,1.1 -0.2,2.5 -0.5,3.9c-0.2,0.7 -0.3,1.4 -0.6,2c-0.2,0.7 -0.5,1.3 -0.8,1.7c-0.2,0.2 -0.3,0.4 -0.5,0.6c-0.1,0.2 -0.3,0.3 -0.4,0.4c-0.3,0.2 -0.4,0.3 -0.4,0.3c0,0 0.1,-0.2 0.3,-0.4c0.1,-0.1 0.2,-0.3 0.3,-0.5c0.1,-0.1 0.2,-0.4 0.3,-0.6c0.2,-0.5 0.4,-1.1 0.6,-1.7c0.1,-0.3 0.2,-0.7 0.3,-1c0,-0.3 0.1,-0.7 0.2,-1c0.3,-1.4 0.6,-2.8 0.8,-3.8c0.2,-1 0.4,-1.7 0.4,-1.7c0,0 0,0.7 0,1.8z" fill="#59402f"/><path d="M292,180.3c-0.1,0.6 -0.3,1.4 -0.6,2.2c-0.3,0.8 -0.7,1.6 -1.1,2.4c-0.3,0.3 -0.5,0.7 -0.8,1.1c-0.3,0.3 -0.6,0.7 -0.9,1c-0.3,0.3 -0.6,0.6 -0.9,0.8c-0.3,0.2 -0.6,0.4 -0.9,0.6c-0.3,0.2 -0.6,0.4 -0.8,0.5c-0.3,0.1 -0.5,0.2 -0.7,0.3c-0.4,0.1 -0.6,0.2 -0.6,0.2c0,0 0.2,-0.1 0.5,-0.3c0.2,-0.1 0.4,-0.3 0.6,-0.4c0.2,-0.2 0.4,-0.4 0.7,-0.6c0.3,-0.2 0.5,-0.5 0.8,-0.7c0.3,-0.3 0.5,-0.6 0.8,-0.9c0.3,-0.3 0.5,-0.7 0.8,-1c0.3,-0.3 0.5,-0.7 0.7,-1.1c0.2,-0.3 0.4,-0.7 0.6,-1.1c0.1,-0.4 0.4,-0.8 0.5,-1.2c0.3,-0.7 0.6,-1.5 0.8,-2.1c0.4,-1.2 0.6,-2.1 0.6,-2.1c0,0 0,0.9 -0.1,2.4z" fill="#59402f"/><path d="M284.1,188c-0.4,0.3 -0.9,0.7 -1.4,1.1c-0.5,0.5 -1,0.9 -1.5,1.4c-0.5,0.5 -1,1 -1.4,1.5c-0.2,0.2 -0.4,0.5 -0.6,0.7c-0.2,0.3 -0.4,0.5 -0.5,0.7c-0.1,0.2 -0.2,0.4 -0.3,0.6c-0.1,0.2 -0.1,0.4 -0.2,0.5c-0.1,0.2 -0.2,0.4 -0.2,0.4c0,0 0,-0.2 0.1,-0.5c0,-0.1 0,-0.3 0.1,-0.5c0,-0.2 0.1,-0.4 0.2,-0.7c0.2,-0.5 0.5,-1.1 0.9,-1.6c0.4,-0.6 0.9,-1.1 1.4,-1.6c0.5,-0.5 1.1,-0.9 1.6,-1.3c0.5,-0.4 1,-0.7 1.5,-1c0.9,-0.6 1.6,-0.8 1.6,-0.8c0,0 -0.6,0.5 -1.3,1.1z" fill="#59402f"/><path d="M275.5,194.1c-0.5,0.3 -0.9,0.7 -1.5,1.1c-0.5,0.4 -1.2,0.8 -1.8,1.1c-0.7,0.3 -1.3,0.6 -2,0.8c-0.6,0.2 -1.3,0.3 -1.8,0.3c-0.2,0 -0.5,0 -0.7,0c-0.3,0 -0.4,-0.1 -0.6,-0.1c-0.3,-0.1 -0.5,-0.1 -0.5,-0.1c0,0 0.2,0 0.5,0c0.2,0 0.4,0 0.6,0c0.2,0 0.4,-0.1 0.7,-0.1c0.2,-0.1 0.5,-0.1 0.8,-0.2c0.3,-0.1 0.6,-0.2 0.9,-0.3c0.6,-0.2 1.3,-0.5 1.9,-0.8c0.6,-0.3 1.2,-0.7 1.8,-1c0.5,-0.3 1,-0.6 1.5,-0.9c0.9,-0.6 1.5,-1 1.5,-1c0,0 -0.4,0.6 -1.3,1.2z" fill="#59402f"/><path d="M249.8,113.9c-1.3,0.3 -3.2,0.7 -5.5,1.2c-2.3,0.5 -4.9,1.1 -7.7,1.9c-1.4,0.4 -2.8,0.8 -4.3,1.2c-1.5,0.5 -3,0.9 -4.4,1.4c-2.9,1 -5.7,2.3 -8.5,3.2c-1.4,0.5 -2.8,0.8 -4.1,1.1c-1.3,0.2 -2.5,0.4 -3.7,0.5c-1.2,0.1 -2.3,0.1 -3.2,0.1c-1,0 -1.8,0 -2.5,-0.1c-1.3,-0.1 -2.1,-0.2 -2.1,-0.2c0,0 0.7,0 2.1,0.1c0.6,0 1.5,0 2.4,0c1,0 2,-0.1 3.2,-0.2c1.2,-0.1 2.4,-0.3 3.7,-0.6c1.3,-0.3 2.6,-0.7 4,-1.2c2.7,-0.9 5.6,-2.2 8.5,-3.3c1.4,-0.5 2.9,-1 4.4,-1.4c1.4,-0.4 2.9,-0.8 4.3,-1.2c2.8,-0.8 5.5,-1.4 7.8,-1.8c4.6,-0.9 7.7,-1.1 7.7,-1.1c0,0 -0.8,0.1 -2.1,0.4z" fill="#59402f"/><path d="M174.8,124.7c-2,0.7 -4.8,1.8 -8.1,3.4c-3.2,1.6 -6.9,3.7 -10.5,6.5c-3.6,2.8 -7.1,6.2 -9.8,10.2c-1.4,2 -2.6,4.1 -3.6,6.3c-1.1,2.1 -2,4.3 -2.8,6.4c-0.8,2.2 -1.5,4.3 -1.9,6.3c-0.4,2 -0.6,4 -0.7,5.8c-0.1,3.7 0.4,6.7 0.7,8.8c0.3,2.1 0.5,3.3 0.5,3.3c0,0 -0.2,-1.2 -0.6,-3.3c-0.4,-2.1 -1,-5.1 -1,-8.8c0,-1.8 0.2,-3.8 0.6,-5.9c0.4,-2.1 1,-4.2 1.8,-6.4c0.8,-2.1 1.8,-4.3 2.8,-6.5c1,-2.2 2.2,-4.4 3.6,-6.4c2.8,-4.1 6.3,-7.5 10,-10.3c3.6,-2.8 7.4,-4.8 10.7,-6.4c3.3,-1.6 6.2,-2.6 8.2,-3.2c2,-0.6 3.2,-0.9 3.2,-0.9c0,0 -1.2,0.3 -3.1,1.1z" fill="#59402f"/><path d="M263.8,203.4c-0.7,0.4 -1.7,1.1 -3,1.9c-0.7,0.4 -1.4,0.8 -2.2,1.3c-0.8,0.4 -1.7,0.9 -2.6,1.4c-0.9,0.5 -1.9,1 -3,1.5c-1,0.5 -2.2,1 -3.4,1.5c-1.2,0.5 -2.5,1 -3.8,1.5c-1.3,0.5 -2.7,0.9 -4.1,1.4c-2.8,0.9 -5.9,1.8 -9.1,2.4c-0.8,0.2 -1.6,0.4 -2.4,0.5c-0.8,0.1 -1.7,0.3 -2.5,0.4c-0.8,0.1 -1.7,0.3 -2.5,0.4c-0.8,0.1 -1.6,0.2 -2.5,0.3c-0.9,0.1 -1.7,0.2 -2.6,0.3c-0.9,0.1 -1.7,0.2 -2.6,0.2c-1.7,0 -3.5,0.1 -5.2,0.2c-3.5,0 -7,0 -10.4,-0.3c-3.4,-0.2 -6.7,-0.5 -10,-0.8c-1.6,-0.2 -3.2,-0.4 -4.8,-0.6c-1.6,-0.2 -3.1,-0.5 -4.6,-0.7c-3,-0.5 -5.8,-1 -8.3,-1.6c-2.6,-0.6 -4.9,-1.2 -6.9,-1.9c-1,-0.3 -1.9,-0.7 -2.8,-1c-0.8,-0.4 -1.6,-0.6 -2.3,-1c-1.4,-0.6 -2.4,-1.3 -3.1,-1.7c-0.7,-0.5 -1,-0.8 -1,-0.8c0,0 0.3,0.2 1,0.7c0.7,0.4 1.7,1 3.1,1.6c0.7,0.4 1.5,0.6 2.3,1c0.9,0.4 1.8,0.7 2.8,1c2.1,0.6 4.4,1.2 6.9,1.8c2.6,0.6 5.4,1.1 8.3,1.5c1.4,0.2 2.9,0.4 4.5,0.6c1.6,0.1 3.2,0.3 4.8,0.5c3.2,0.3 6.6,0.6 10,0.8c3.4,0.3 6.8,0.2 10.3,0.3c1.7,-0.1 3.5,-0.1 5.2,-0.2c0.9,0 1.7,-0.1 2.6,-0.2c0.9,0 1.8,-0.1 2.6,-0.2c0.8,-0.1 1.7,-0.2 2.5,-0.3c0.8,-0.1 1.7,-0.3 2.5,-0.4c0.9,-0.1 1.7,-0.3 2.5,-0.4c0.8,-0.1 1.6,-0.3 2.4,-0.5c3.2,-0.7 6.2,-1.5 9.1,-2.3c1.4,-0.4 2.8,-0.8 4.1,-1.3c1.3,-0.5 2.6,-0.9 3.8,-1.4c1.2,-0.5 2.3,-0.9 3.4,-1.4c1.1,-0.5 2.1,-1 3.1,-1.4c0.9,-0.4 1.8,-0.9 2.6,-1.3c0.8,-0.4 1.5,-0.8 2.2,-1.2c1.3,-0.8 2.3,-1.4 3,-1.9c0.7,-0.4 1,-0.7 1,-0.7c0,0 -0.3,0.3 -0.9,0.5z" fill="#59402f"/></g></g></g><path d="M188.1,166.2c0,0 11.3,33.6 7.9,42.6c-1.5,3.9 -2.4,6.6 -4.4,11.3c-6.1,14 -5.9,18.7 -3.8,21c2.1,2.3 9.3,5.9 8.1,7.7c-1.2,1.8 -21.7,4.2 -26.4,2.8c-1.9,-0.6 -11.5,-23.8 -11.9,-36.5c-0.4,-12.7 0.8,-17.1 -1.3,-26.1c-7.6,-33 31.2,-29 31.8,-22.8z" fill="#8d674a"/><g><path d="M188.1,250.1c-0.4,-0.3 -0.8,-0.7 -1.3,-1.1c-0.4,-0.4 -0.9,-0.8 -1.3,-1.1c-0.2,-0.2 -0.4,-0.3 -0.5,-0.4c-0.1,-0.1 -0.2,-0.2 -0.2,-0.2c0,0 0.3,0 0.8,0.2c0.5,0.2 1.1,0.5 1.6,0.9c0.6,0.4 1,0.9 1.2,1.4c0.3,0.5 0.3,0.8 0.3,0.8c0,0 -0.2,-0.3 -0.6,-0.5z" fill="#59402f"/><path d="M193.2,248.3c-0.4,-0.3 -1,-0.8 -1.6,-1.2c-0.6,-0.4 -1.2,-0.7 -1.7,-1c-0.2,-0.1 -0.4,-0.2 -0.6,-0.3c-0.1,0 -0.2,-0.1 -0.2,-0.1c0,0 0.1,0 0.3,0c0.2,0 0.4,0 0.7,0.1c0.3,0.1 0.7,0.2 1,0.3c0.3,0.1 0.7,0.3 1,0.5c0.6,0.4 1.2,1 1.5,1.5c0.4,0.5 0.5,0.9 0.5,0.9c0,0 -0.3,-0.3 -0.9,-0.7z" fill="#59402f"/><path d="M186,251.2c-0.7,-0.5 -1.7,-1.4 -0.6,-1.7c1.1,-0.3 2.6,2 2.8,2.6c0.1,0.4 -1.5,-0.3 -2.2,-0.9z" fill="#6c5f57"/><path d="M191.1,249.3c-0.7,-0.5 -1.7,-1.4 -0.6,-1.7c1.1,-0.3 2.6,2 2.8,2.6c0.2,0.3 -1.4,-0.4 -2.2,-0.9z" fill="#6c5f57"/><path d="M194.4,248.1c-0.7,-0.5 -1.7,-1.4 -0.6,-1.7c1.1,-0.3 2.6,2 2.8,2.6c0.1,0.4 -1.5,-0.3 -2.2,-0.9z" fill="#6c5f57"/></g><g><path d="M160.6,225.9c-5.2,-1.9 -4.3,-9.1 -4.3,-9.1l-1.6,3.9c-1.9,-3.9 -0.3,-11.3 -0.3,-11.3l-2.4,1.9c-0.5,-4.6 3,-7.8 3,-7.8c-1.2,2 -3.9,1.1 -3.9,1.1c2.3,-0.7 6.2,-12.9 6.2,-12.9" fill="#8d674a"/><path d="M151.7,204.1c0.2,-0.2 0.4,-0.6 0.7,-1.1c0.3,-0.5 0.6,-1.1 0.9,-1.7c0.3,-0.6 0.6,-1.3 0.9,-2c0.7,-1.4 1.2,-2.8 1.7,-3.8c0.5,-1 0.8,-1.7 0.8,-1.7c0,0 -0.1,0.7 -0.4,1.8c-0.2,0.6 -0.4,1.2 -0.6,1.9c-0.2,0.7 -0.5,1.4 -0.8,2.1c-0.6,1.4 -1.4,2.7 -2.1,3.6c-0.4,0.5 -0.7,0.8 -1,1c-0.3,0.3 -0.5,0.3 -0.5,0.3c0,0 0.1,-0.1 0.4,-0.4z" fill="#59402f"/><path d="M152.1,210.1c0,-0.4 0,-0.8 0,-1.2c0,-0.4 0.1,-0.9 0.2,-1.3c0.1,-0.5 0.3,-0.9 0.5,-1.3c0.2,-0.4 0.5,-0.7 0.7,-1c0.2,-0.3 0.4,-0.5 0.6,-0.6c0.2,-0.1 0.3,-0.2 0.3,-0.2c0,0 -0.1,0.1 -0.2,0.3c-0.1,0.2 -0.2,0.4 -0.4,0.7c-0.2,0.3 -0.4,0.6 -0.5,1c-0.1,0.4 -0.3,0.8 -0.4,1.2c-0.2,0.8 -0.4,1.6 -0.5,2.3c-0.1,0.6 -0.2,1.1 -0.2,1.1c0,0 -0.2,-0.4 -0.1,-1z" fill="#59402f"/><path d="M154.2,220c-0.2,-0.3 -0.4,-0.7 -0.6,-1.2c-0.3,-1 -0.5,-2.5 -0.5,-3.9c0,-0.7 0.1,-1.4 0.2,-2.1c0.1,-0.7 0.3,-1.3 0.4,-1.8c0.1,-0.5 0.3,-0.9 0.4,-1.2c0.1,-0.3 0.2,-0.5 0.2,-0.5c0,0 0,0.2 0,0.5c0,0.3 -0.1,0.8 -0.1,1.3c0,0.5 -0.1,1.2 -0.1,1.8c-0.1,0.6 -0.1,1.3 -0.1,2c-0.1,0.7 0,1.4 0,2c0,0.6 0.1,1.2 0.2,1.7c0.2,1.1 0.5,1.7 0.5,1.7c0,0 -0.1,-0.1 -0.5,-0.3z" fill="#59402f"/><path d="M158.6,224.7c-0.2,-0.2 -0.5,-0.4 -0.8,-0.7c-0.3,-0.3 -0.6,-0.7 -0.8,-1.2c-0.3,-0.5 -0.4,-1 -0.6,-1.6c-0.1,-0.2 -0.1,-0.5 -0.2,-0.8c-0.1,-0.3 -0.1,-0.5 -0.1,-0.8c0,-0.5 0,-1 0,-1.4c0,-0.4 0.1,-0.8 0.1,-1c0.1,-0.3 0.1,-0.4 0.1,-0.4c0,0 0.2,0.6 0.3,1.4c0.2,0.9 0.3,1.9 0.6,3c0.2,1.1 0.6,2.1 1,2.8c0.2,0.4 0.4,0.6 0.6,0.8c0.2,0.1 0.3,0.2 0.3,0.2c0,0 -0.1,0 -0.5,-0.3z" fill="#59402f"/></g><path d="M159.6,225.2c0.5,1.7 1.1,3.6 1.8,5.7c0.6,2.1 1.3,4.3 2.1,6.5c0.7,2.2 1.5,4.4 2.3,6.4c0.8,2.1 1.6,4 2.4,5.5c0.4,0.8 0.8,1.5 1.3,2c0.2,0.3 0.5,0.3 0.8,0.4c0.3,0 0.5,0.1 0.8,0.1c1,0.2 1.6,0.2 1.6,0.2c0,0 -0.6,0.1 -1.6,0c-0.2,0 -0.5,-0.1 -0.8,-0.1c-0.2,0 -0.3,0 -0.5,-0.1c-0.2,0 -0.3,-0.2 -0.4,-0.3c-0.5,-0.6 -1,-1.2 -1.4,-2c-0.4,-0.7 -0.9,-1.6 -1.3,-2.5c-0.5,-0.9 -0.9,-1.9 -1.3,-2.9c-0.8,-2 -1.6,-4.2 -2.4,-6.4c-0.8,-2.3 -1.5,-4.5 -2.1,-6.6c-0.6,-2.1 -1.1,-4.1 -1.6,-5.8c-0.9,-3.4 -1.4,-5.7 -1.4,-5.7c0,0 0.7,2.3 1.7,5.6z" fill="#59402f"/><path d="M192.5,179.5c0.5,1.9 1.3,4.5 2,7.7c0.4,1.6 0.8,3.3 1.1,5.2c0.4,1.9 0.7,3.8 0.9,5.9c0.2,2.1 0.4,4.2 0.3,6.4c0,2.2 -0.5,4.4 -1.1,6.5c-1.4,4.2 -3.2,8.2 -4.8,12c-1.6,3.8 -3.1,7.3 -3.7,10.5c-0.1,0.8 -0.2,1.6 -0.2,2.3c0,0.7 -0.1,1.4 0,2.1c0.1,1.3 0.7,2.3 1.4,3c0.7,0.7 1.3,1.1 1.7,1.4c0.4,0.3 0.6,0.5 0.6,0.5c0,0 -0.3,-0.1 -0.7,-0.4c-0.5,-0.3 -1.1,-0.7 -1.8,-1.4c-0.4,-0.4 -0.7,-0.8 -1,-1.3c-0.3,-0.5 -0.5,-1.1 -0.6,-1.8c-0.1,-0.6 -0.1,-1.4 -0.1,-2.1c0,-0.8 0.1,-1.6 0.2,-2.4c0.3,-1.6 0.8,-3.3 1.4,-5.1c0.7,-1.8 1.4,-3.6 2.2,-5.5c1.6,-3.7 3.4,-7.7 4.7,-11.9c0.7,-2.1 1.2,-4.2 1.2,-6.3c0,-2.2 -0.1,-4.3 -0.3,-6.3c-0.2,-2 -0.5,-3.9 -0.8,-5.8c-0.3,-1.8 -0.7,-3.6 -1,-5.2c-0.7,-3.2 -1.3,-5.8 -1.8,-7.7c-0.5,-1.8 -0.8,-2.9 -0.8,-2.9c0,0 0.3,1 1,2.6z" fill="#59402f"/><g><g><path d="M284.2,108.1c20.3,-2.8 43.1,9.1 46.2,14.7c3.1,5.6 3.7,18.8 3.7,18.8c0,0 20.5,10.8 20.1,15c-0.4,4.2 -7,14.1 -15.3,14.7c-8.3,0.7 -15.4,1.5 -25.1,1c-9.7,-0.5 -27,1.7 -35.8,-8.1c0,0 1.2,4.3 2.9,5.5c0,0 -11.4,-2.6 -8.4,-13.5c0,0 -2,1.8 -1.4,7.5c0,0 -6.1,-6.2 -2.2,-15.2c0,0 -2.7,4.9 -5.4,4.9c0,0 2.6,-3.8 2.5,-10.3c0,-6.5 1.2,-32.6 18.2,-35z" fill="#8d674a"/><path d="M287.3,107.3c20.4,-2 40.1,9.9 43.2,15.6c3.1,5.7 3.7,18.8 3.7,18.8c0,0 20.4,10.7 20,14.9c-0.4,4.2 -7,14.1 -15.3,14.7c-8.3,0.7 -16.9,3.5 -26.5,2.9c-9.6,-0.6 -25.6,-0.2 -34.4,-10c0,0 1.2,4.3 2.9,5.5c0,0 -11.4,-2.6 -8.4,-13.5c0,0 -2,1.8 -1.4,7.5c0,0 -6.1,-6.2 -2.2,-15.2c0,0 -2.7,4.9 -5.4,4.9c0,0 -4.5,-15.2 -4.6,-21.7c-0.1,-6.5 14,-23 28.4,-24.4z" fill="#8d674a"/><path d="M354.2,156.6c-0.4,4 -6.1,12.7 -13.6,14.4c-2.5,-1.4 -5.3,-3.4 -5.5,-6.1c0,0 -16.1,-11.1 -1.1,-23.3c0.1,0.1 20.6,10.8 20.2,15z" fill="#9e7b5c"/><path d="M352.5,157.5c-3,-1.5 -1.5,-4.5 -0.5,-4.5c1,-0.1 2.2,1.4 2.7,2.3c0.9,1.4 -0.5,3 -1.4,4.6c-0.6,-0.4 -1.2,-0.9 -0.8,-2.4z" fill="#332721"/><path d="M346.5,166.2c-0.8,-0.2 -2,-0.4 -3.1,-0.5c-0.6,0 -1.2,-0.1 -1.7,-0.1c-0.3,0 -0.6,0 -0.8,0c-0.3,0 -0.5,0 -0.7,0c-0.4,0 -0.7,0.1 -1,0.1c-0.2,0 -0.4,0 -0.4,0c0,0 0.2,-0.1 0.4,-0.2c0.2,-0.1 0.6,-0.2 1,-0.3c0.4,-0.1 0.9,-0.2 1.5,-0.2c0.6,0 1.2,0 1.8,0.1c0.6,0 1.2,0.2 1.7,0.3c0.5,0.2 1,0.3 1.4,0.5c0.8,0.4 1.3,0.7 1.3,0.7c0,0 -0.6,-0.1 -1.4,-0.4z" fill="#59402f"/><path d="M323.86091,143.58949c-0.93494,-0.08614 -1.58607,-1.31513 -1.45433,-2.74504c0.13173,-1.42991 0.99644,-2.51926 1.93138,-2.43312c0.93494,0.08614 1.58607,1.31513 1.45434,2.74504c-0.13173,1.42991 -0.99645,2.51926 -1.93139,2.43312z" fill="#332010"/><path d="M325.7,132.2c1.4,0.2 2.5,1.1 2.4,2.2c-0.1,1.1 -1.4,1.8 -2.8,1.7c-1.4,-0.1 -4.5,-0.8 -4.4,-1.9c0.1,-1.1 3.3,-2 4.8,-2z" fill="#9e7b5c"/><path d="M333.3,133.5c-0.3,-2.4 -0.8,-5.2 -1.9,-8.1c-0.3,-0.7 -0.6,-1.4 -1,-2.1c-0.4,-0.7 -0.9,-1.3 -1.4,-1.9c-1.1,-1.2 -2.3,-2.3 -3.6,-3.3c-1.3,-0.9 -2.6,-1.9 -4,-2.7c-1.4,-0.8 -2.8,-1.5 -4.2,-2.2c-1.4,-0.7 -2.8,-1.3 -4.1,-1.8c-1.3,-0.6 -2.5,-1 -3.7,-1.4c-2.3,-0.7 -4.3,-1.3 -5.7,-1.7c-1.4,-0.4 -2.2,-0.6 -2.2,-0.6c0,0 0.8,0.2 2.2,0.5c0.7,0.1 1.5,0.4 2.5,0.6c1,0.2 2.1,0.5 3.3,0.9c1.2,0.3 2.5,0.7 3.9,1.2c1.3,0.5 2.7,1 4.1,1.7c1.4,0.6 2.8,1.4 4.2,2.2c1.4,0.8 2.8,1.7 4.1,2.7c1.3,1 2.5,2.2 3.6,3.4c0.6,0.7 1,1.3 1.5,2c0.4,0.7 0.7,1.5 1,2.2c0.6,1.4 0.9,2.9 1.2,4.3c0.3,1.4 0.5,2.8 0.6,4c0.3,2.5 0.3,4.6 0.4,6c0,1.5 0,2.3 0,2.3c0,0 -0.1,-3.3 -0.8,-8.2z" fill="#59402f"/><path d="M278.2,169.1c-0.8,-0.3 -1.7,-0.8 -2.6,-1.4c-0.4,-0.3 -0.9,-0.7 -1.3,-1.1c-0.4,-0.5 -0.8,-0.9 -1.1,-1.4c-0.4,-0.5 -0.6,-1.1 -0.8,-1.6c-0.3,-0.5 -0.3,-1.1 -0.5,-1.6c-0.1,-0.6 -0.1,-1.1 -0.1,-1.6c0,-0.5 0.1,-1 0.1,-1.4c0,-0.5 0.1,-0.9 0.2,-1.2c0,-0.4 0.1,-0.7 0.2,-0.9c0.1,-0.5 0.2,-0.8 0.2,-0.8c0,0 0,0.3 -0.1,0.8c0,0.3 -0.1,0.6 -0.1,0.9c-0.1,0.4 -0.1,0.8 -0.1,1.2c0,0.5 -0.1,0.9 0,1.4c0.1,0.5 0.1,1 0.2,1.5c0.2,0.5 0.3,1 0.5,1.5c0.3,0.4 0.5,1 0.8,1.4c0.3,0.5 0.6,0.9 1,1.3c0.4,0.4 0.8,0.8 1.2,1.1c0.4,0.3 0.8,0.7 1.2,0.9c0.4,0.3 0.8,0.5 1.2,0.7c0.8,0.4 1.4,0.7 1.9,0.8c0.4,0.1 0.7,0.2 0.7,0.2c0,0 -1.2,-0.1 -2.7,-0.7z" fill="#59402f"/><path d="M270.6,162.9c-0.4,-0.3 -0.8,-0.8 -1.3,-1.4c-0.2,-0.4 -0.5,-0.7 -0.7,-1.1c-0.2,-0.4 -0.4,-0.8 -0.6,-1.3c-0.1,-0.2 -0.2,-0.5 -0.3,-0.7c-0.1,-0.2 -0.1,-0.5 -0.2,-0.7c-0.1,-0.5 -0.2,-1 -0.3,-1.5c-0.1,-0.6 -0.1,-1.1 -0.1,-1.6c0,-0.5 0.1,-1 0.1,-1.5c0.1,-0.5 0.2,-1 0.3,-1.4c0.1,-0.4 0.3,-0.8 0.4,-1.2c0.1,-0.4 0.2,-0.7 0.4,-1c0.2,-0.2 0.3,-0.5 0.4,-0.7c0.2,-0.4 0.3,-0.6 0.3,-0.6c0,0 -0.1,0.3 -0.2,0.7c0,0.2 -0.1,0.5 -0.2,0.8c-0.1,0.3 -0.2,0.6 -0.3,1c-0.1,0.4 -0.2,0.8 -0.3,1.2c-0.1,0.5 -0.1,0.9 -0.2,1.4c-0.1,0.5 -0.1,1 -0.1,1.5c0,0.5 0,1 0.1,1.5c0.1,0.5 0.2,1 0.3,1.5c0.1,0.2 0.1,0.5 0.2,0.7c0,0.3 0.1,0.5 0.2,0.7c0.1,0.5 0.3,0.9 0.5,1.3c0.2,0.4 0.4,0.8 0.6,1.1c0.8,1.4 1.5,2.1 1.5,2.1c0,0 -0.2,-0.1 -0.5,-0.8z" fill="#59402f"/><path d="M263.9,152.8c0.2,-0.4 0.4,-0.9 0.6,-1.6c0.2,-0.7 0.4,-1.5 0.6,-2.4c0.2,-0.9 0.3,-1.8 0.4,-2.8c0.1,-0.9 0.2,-1.9 0.3,-2.8c0.1,-0.9 0.2,-1.8 0.2,-2.5c0,-0.8 0.1,-1.4 0.1,-1.8c0.1,-0.5 0.1,-0.7 0.1,-0.7c0,0 0.1,0.3 0.1,0.7c0,0.5 0.1,1.1 0.1,1.8c0,0.7 0.1,1.6 0,2.5c0,0.4 -0.1,0.9 -0.1,1.4c0,0.5 0,1 -0.1,1.5c-0.1,0.9 -0.3,1.9 -0.5,2.8c-0.2,0.9 -0.5,1.7 -0.8,2.4c-0.3,0.7 -0.7,1.2 -0.9,1.6c-0.2,0.3 -0.4,0.5 -0.4,0.5c0,0 0.1,-0.2 0.3,-0.6z" fill="#59402f"/><path d="M289.2,107.1c-0.3,0 -0.7,0 -1.2,0.1c-0.5,0.1 -1,0.2 -1.6,0.3c-1.2,0.3 -2.5,0.7 -3.8,1.2c-0.6,0.3 -1.3,0.6 -2,0.9c-0.7,0.3 -1.4,0.7 -2.1,1c-0.7,0.3 -1.3,0.7 -2,1.1c-0.7,0.3 -1.3,0.7 -1.9,1.1c-0.6,0.4 -1.3,0.7 -1.8,1.1c-0.6,0.3 -1.1,0.7 -1.6,1c-0.5,0.3 -0.9,0.6 -1.3,0.9c-0.4,0.3 -0.7,0.5 -1,0.7c-0.6,0.4 -0.9,0.6 -0.9,0.6c0,0 0.3,-0.3 0.8,-0.7c0.2,-0.2 0.5,-0.5 0.9,-0.8c0.3,-0.3 0.7,-0.7 1.2,-1c0.9,-0.7 2,-1.5 3.2,-2.3c0.6,-0.4 1.2,-0.8 1.9,-1.2c0.6,-0.3 1.3,-0.8 2,-1.1c0.7,-0.3 1.4,-0.7 2.1,-1c0.7,-0.3 1.4,-0.6 2.1,-0.8c0.7,-0.3 1.4,-0.4 2,-0.6c0.7,-0.2 1.3,-0.3 1.9,-0.4c0.6,-0.1 1.1,-0.2 1.6,-0.2c0.4,0 0.9,0 1.2,0c0.7,0.1 1.1,0.2 1.1,0.2c0,0 -0.4,-0.1 -0.8,-0.1z" fill="#59402f"/></g><g><path d="M289.5,117.9c-8.1,-12.7 2.6,-17.2 7.2,-16.6c4.6,0.6 6.3,8.8 6.3,8.8" fill="#8d674a"/><path d="M296.2,105.5c-0.1,0.5 -0.2,1 -0.3,1.6c-0.1,0.5 -0.2,1.2 -0.2,1.8c0,0.3 0,0.6 0,0.9c0,0.3 0,0.6 0.1,0.9c0.1,0.3 0.1,0.5 0.2,0.8c0,0.2 0.1,0.5 0.2,0.7c0.1,0.2 0.2,0.4 0.3,0.6c0.1,0.1 0.2,0.3 0.3,0.4c0.1,0.3 0.2,0.4 0.2,0.4c0,0 -0.1,-0.1 -0.3,-0.3c-0.3,-0.2 -0.5,-0.5 -0.8,-0.9c-0.2,-0.2 -0.3,-0.4 -0.4,-0.7c-0.1,-0.3 -0.2,-0.6 -0.3,-0.9c-0.1,-0.3 -0.1,-0.7 -0.2,-1c0,-0.3 0,-0.7 0,-1c0,-0.7 0.1,-1.3 0.3,-1.9c0.1,-0.6 0.3,-1.1 0.5,-1.6c0.3,-0.9 0.7,-1.5 0.7,-1.5c0,0 -0.2,0.6 -0.3,1.7z" fill="#59402f"/><g fill="#59402f"><path d="M294.5,112.9c0.2,0.1 0.4,0.3 0.6,0.5c0.2,0.2 0.3,0.4 0.4,0.6c0.1,0.1 0.1,0.3 0.1,0.3c0,0 -0.1,0 -0.3,-0.1c-0.2,-0.1 -0.4,-0.3 -0.6,-0.5c-0.2,-0.2 -0.3,-0.4 -0.4,-0.6c-0.1,-0.1 -0.1,-0.3 -0.1,-0.3c0,0 0.2,0.1 0.3,0.1z"/><path d="M293.3,114.2c0.2,0 0.4,0.2 0.5,0.3c0.1,0.2 0.2,0.3 0.3,0.5c0.1,0.2 0.1,0.3 0.1,0.3c0,0 -0.1,0 -0.3,-0.1c-0.2,0 -0.4,-0.2 -0.5,-0.3c-0.1,-0.2 -0.2,-0.3 -0.3,-0.5c-0.1,-0.2 -0.1,-0.3 -0.1,-0.3c0,0 0.2,0 0.3,0.1z"/></g><path d="M290.8,102.5c0.2,-0.2 0.5,-0.3 0.8,-0.5c0.3,-0.2 0.7,-0.4 1.1,-0.5c0.2,0 0.5,-0.1 0.7,-0.2c0.2,-0.1 0.4,-0.1 0.7,-0.2c0.3,-0.1 0.5,-0.1 0.8,-0.1c0.2,0 0.5,0 0.8,0c0.3,0 0.6,0.1 0.9,-0.1c0.3,0 0.6,0.1 0.9,0.2c0.3,0.1 0.5,0.3 0.8,0.4c0.3,0.2 0.6,0.3 0.8,0.5c0.4,0.4 1,0.8 1.3,1.3c0.4,0.5 0.8,1 1,1.5c0.3,0.5 0.6,1 0.7,1.5c0.2,0.5 0.4,1 0.5,1.4c0.2,0.4 0.2,0.8 0.3,1.2c0.1,0.3 0.2,0.6 0.2,0.9c0.1,0.5 0.1,0.8 0.1,0.8c0,0 -0.1,-0.3 -0.3,-0.8c-0.1,-0.3 -0.2,-0.6 -0.3,-0.9c-0.1,-0.3 -0.2,-0.7 -0.4,-1.1c-0.2,-0.4 -0.4,-0.8 -0.6,-1.3c-0.1,-0.5 -0.5,-0.9 -0.7,-1.4c-0.3,-0.5 -0.6,-0.9 -1,-1.3c-0.3,-0.4 -0.8,-0.7 -1.2,-1.1c-0.2,-0.2 -0.5,-0.3 -0.7,-0.4c-0.2,-0.2 -0.4,-0.3 -0.6,-0.4c-0.3,0 -0.5,-0.1 -0.8,-0.2c-0.3,0 -0.5,-0.1 -0.8,-0.1c-0.3,0 -0.5,0 -0.8,0c-0.3,0 -0.6,0 -0.8,0c-0.2,0 -0.5,0.1 -0.7,0.1c-0.3,0.1 -0.5,0.1 -0.7,0.2c-0.8,0.2 -1.5,0.5 -2,0.7c-0.4,0.3 -0.7,0.4 -0.7,0.4c0,0 0.2,-0.2 0.7,-0.5z" fill="#59402f"/></g></g><g><path d="M257.3,178.4c-2.6,16.3 -7.2,21.8 -7.2,21.8c0,0 17.1,16.4 17.9,19.5c2.1,8 -13.4,29.6 -18.3,24.6c-4.7,-4.8 -0.2,-13.6 -0.2,-13.6c0,0 -16.7,-14 -18.1,-14.9c-2.9,-1.8 -21.3,-3.1 -20.2,-26.2c5.1,-46.8 49.7,-33.8 46.1,-11.2z" fill="#8d674a"/><path d="M212.4,202.3c-4.5,-3.4 -1.7,-10 -1.7,-10l-2.6,3.3c-0.8,-4.3 2.8,-10.9 2.8,-10.9l-2.8,1.2c0.7,-4.5 5,-6.6 5,-6.6c-1.6,1.7 -4,0 -4,0c2.4,0 9.5,-10.7 9.5,-10.7" fill="#8d674a"/><path d="M209.9,179c0.2,-0.2 0.6,-0.5 1,-0.9c0.4,-0.4 0.8,-0.9 1.3,-1.4c0.4,-0.6 0.9,-1.1 1.4,-1.7c0.9,-1.2 1.9,-2.3 2.6,-3.2c0.7,-0.8 1.2,-1.4 1.2,-1.4c0,0 -0.3,0.7 -0.9,1.7c-0.3,0.5 -0.7,1 -1.1,1.6c-0.5,0.6 -0.9,1.2 -1.4,1.8c-1,1.1 -2,2.2 -3,2.9c-0.4,0.4 -0.9,0.6 -1.2,0.7c-0.3,0.1 -0.5,0.1 -0.5,0.1c0,0 0.1,0 0.6,-0.2z" fill="#59402f"/><path d="M208.1,184.6c0.2,-0.7 0.5,-1.6 1,-2.4c0.3,-0.4 0.6,-0.8 0.9,-1.1c0.2,-0.1 0.3,-0.3 0.5,-0.4c0.2,-0.1 0.3,-0.2 0.5,-0.3c0.3,-0.2 0.6,-0.3 0.8,-0.4c0.2,-0.1 0.3,-0.1 0.3,-0.1c0,0 0,0.1 -0.2,0.2c-0.2,0.1 -0.4,0.4 -0.6,0.6c-0.2,0.1 -0.3,0.3 -0.4,0.4c-0.2,0.2 -0.3,0.3 -0.4,0.5c-0.2,0.4 -0.5,0.7 -0.7,1.1c-0.5,0.8 -0.9,1.6 -1.2,2.2c-0.3,0.7 -0.5,1.1 -0.5,1.1c0,0 0,-0.5 0,-1.4z" fill="#59402f"/><path d="M208,195.1c-0.1,-0.3 -0.2,-0.7 -0.2,-1.3c0,-0.6 0,-1.2 0.1,-1.9c0.1,-0.7 0.3,-1.4 0.5,-2.1c0.4,-1.4 1,-2.8 1.6,-3.7c0.3,-0.5 0.5,-0.8 0.7,-1.1c0.2,-0.3 0.3,-0.4 0.3,-0.4c0,0 -0.1,0.2 -0.2,0.5c-0.1,0.3 -0.3,0.7 -0.5,1.2c-0.1,0.5 -0.4,1.1 -0.6,1.7c-0.3,0.6 -0.5,1.3 -0.7,2c-0.5,1.4 -0.8,2.7 -0.9,3.8c-0.2,1.1 -0.1,1.8 -0.1,1.8c0,0 -0.1,-0.1 0,-0.5z" fill="#59402f"/><path d="M243.2,225.2c-1.9,-1.6 -4.1,-3.5 -6.4,-5.5c-2.4,-1.9 -5.1,-3.9 -8.2,-4.7c-1.6,-0.4 -3.2,-0.8 -4.7,-1.6c-1.5,-0.8 -2.8,-1.7 -4.1,-2.6c-1.2,-0.9 -2.5,-1.8 -3.4,-2.9c-0.9,-1 -1.6,-2.2 -2.2,-3.3c-1.1,-2.3 -1.6,-4.3 -1.9,-5.7c-0.3,-1.4 -0.3,-2.2 -0.3,-2.2c0,0 0.1,0.8 0.4,2.2c0.3,1.4 0.9,3.4 2.1,5.5c0.6,1.1 1.3,2.2 2.3,3.2c0.5,0.5 1,1 1.6,1.4c0.6,0.4 1.2,0.8 1.8,1.3c1.3,0.8 2.6,1.7 4,2.4c0.7,0.3 1.4,0.6 2.2,0.9c0.7,0.3 1.5,0.5 2.3,0.7c1.6,0.4 3.2,1.2 4.5,2.1c1.3,0.9 2.5,2 3.7,3c2.3,2.1 4.5,4 6.3,5.6c3.6,3.2 6.1,5.4 6.1,5.4c0,0 -2.5,-2.1 -6.1,-5.2z" fill="#59402f"/><path d="M211.4,201.8c-0.2,-0.2 -0.5,-0.5 -0.8,-0.9c-0.1,-0.2 -0.3,-0.4 -0.4,-0.7c-0.1,-0.2 -0.2,-0.5 -0.3,-0.8c-0.2,-0.6 -0.3,-1.2 -0.3,-1.9c0,-0.4 0,-0.7 0,-1c0,-0.3 0.1,-0.6 0.1,-0.9c0,-0.6 0.2,-1.1 0.3,-1.6c0.1,-0.5 0.3,-0.8 0.4,-1.1c0.1,-0.3 0.2,-0.4 0.2,-0.4c0,0 0,0.1 0,0.4c0,0.2 -0.1,0.6 -0.1,1.1c0,0.5 -0.1,1 -0.1,1.6c0,0.3 0,0.6 0,0.9c0,0.3 0,0.6 0,0.9c0,0.3 0,0.6 0.1,0.9c0,0.3 0,0.6 0.1,0.9c0.1,0.6 0.3,1.1 0.5,1.5c0.4,0.9 0.9,1.3 0.9,1.3c0,0 -0.2,0 -0.6,-0.2z" fill="#59402f"/><path d="M267.7,225.8c0.1,-0.7 0.2,-1.4 0.3,-2.1c0.1,-0.8 0.1,-1.5 0.1,-2.2c0,-0.4 0,-0.8 0,-1.1c0,-0.4 -0.1,-0.7 -0.3,-1c-0.7,-1.2 -1.6,-2.4 -2.5,-3.5c-1,-1.1 -1.9,-2.2 -2.9,-3.3c-1.9,-2.2 -3.9,-4.2 -6,-6.3c-2,-2 -4.1,-4.1 -6.2,-6.1l-0.2,-0.2l0.1,-0.2c0.6,-0.9 1.2,-2 1.7,-3c0.5,-1.1 1.1,-2.1 1.5,-3.2c0.4,-1.1 0.8,-2.2 1.2,-3.3c0.4,-1.1 0.7,-2.3 1,-3.4c-0.1,0.5 -0.2,1.1 -0.3,1.7c-0.1,0.6 -0.2,1.1 -0.4,1.7c-0.3,1.2 -0.7,2.3 -1.1,3.4c-0.8,2.2 -1.8,4.3 -3.1,6.3v-0.4c2.2,2 4.3,4 6.3,6.1c2,2.1 4.1,4.2 6,6.4c1,1.1 1.9,2.2 2.8,3.4c0.8,1.2 1.7,2.4 2.4,3.7c0.2,0.3 0.4,0.7 0.4,1.1c0,0.4 0,0.7 0,1.1c-0.1,0.7 -0.1,1.5 -0.2,2.2c-0.1,0.7 -0.3,1.4 -0.5,2.1c-0.2,0.7 -0.5,1.4 -0.9,2c0.4,-0.6 0.6,-1.3 0.8,-1.9z" fill="#59402f"/><g><path d="M248.7,237c0.4,-0.2 0.9,-0.5 1.4,-0.9c0.5,-0.3 1,-0.7 1.4,-1c0.2,-0.1 0.4,-0.2 0.5,-0.3c0.1,-0.1 0.2,-0.1 0.2,-0.1c0,0 -0.1,0.3 -0.4,0.7c-0.3,0.4 -0.7,0.9 -1.3,1.3c-0.6,0.4 -1.2,0.6 -1.7,0.7c-0.5,0 -0.8,0 -0.8,0c0,0 0.3,-0.2 0.7,-0.4z" fill="#59402f"/><path d="M249.3,242.4c0.5,-0.3 1.1,-0.7 1.6,-1.2c0.5,-0.5 1,-1 1.4,-1.4c0.2,-0.2 0.4,-0.4 0.5,-0.5c0.1,-0.1 0.2,-0.2 0.2,-0.2c0,0 -0.1,0.1 -0.1,0.3c-0.1,0.2 -0.2,0.4 -0.3,0.7c-0.1,0.2 -0.3,0.5 -0.5,0.8c-0.2,0.3 -0.5,0.5 -0.8,0.8c-0.6,0.6 -1.3,0.9 -1.9,1.1c-0.5,0.2 -0.9,0.2 -0.9,0.2c0,0 0.3,-0.2 0.8,-0.6z" fill="#59402f"/><path d="M248,234.5c0.8,-0.5 1.9,-1.2 1.9,-0.1c0,1.1 -2.7,2 -3.3,2c-0.4,0 0.6,-1.4 1.4,-1.9z" fill="#6c5f57"/><path d="M248.5,240c0.8,-0.5 1.9,-1.2 1.9,-0.1c0,1.1 -2.7,2 -3.3,2c-0.4,0 0.7,-1.3 1.4,-1.9z" fill="#6c5f57"/><path d="M249.4,243.5c0.8,-0.5 1.9,-1.2 1.9,-0.1c0,1.1 -2.7,2 -3.3,2c-0.4,0 0.7,-1.3 1.4,-1.9z" fill="#6c5f57"/></g><path d="M251.6,201.5c-0.5,-0.5 -1.2,-1 -1.9,-1.4c-0.4,-0.2 -0.7,-0.4 -1.1,-0.6c-0.3,-0.2 -0.7,-0.4 -1,-0.5c-0.3,-0.1 -0.5,-0.2 -0.7,-0.3c-0.2,0 -0.3,-0.1 -0.3,-0.1c0,0 0.1,0 0.3,0c0.2,0.1 0.5,0 0.8,0.1c0.3,0.1 0.7,0.2 1.1,0.3c0.4,0.2 0.8,0.4 1.2,0.6c0.4,0.2 0.8,0.5 1.1,0.8c0.3,0.3 0.6,0.6 0.8,0.9c0.4,0.6 0.5,1 0.5,1c0,0 -0.3,-0.4 -0.8,-0.8z" fill="#59402f"/></g></g></g></svg>