<svg version="1.1" xmlns="http://www.w3.org/2000/svg" xmlns:xlink="http://www.w3.org/1999/xlink" width="227.8901" height="156.48488" viewBox="0,0,227.8901,156.48488"><g transform="translate(-127.1,-102.1)"><g data-paper-data="{&quot;isPaintingLayer&quot;:true}" fill-rule="nonzero" stroke="none" stroke-width="1" stroke-linecap="butt" stroke-linejoin="miter" stroke-miterlimit="10" stroke-dasharray="" stroke-dashoffset="0" style="mix-blend-mode: normal"><g data-paper-data="{&quot;index&quot;:null}"><path d="M255.9901,180c8.3,21.5 -8.7,28.6 -10.9,31.2c-1.1,1.3 -15.8,15.5 -15.8,15.5c0,0 7.1,7 4.2,13c-3.1,6.3 -24.6,-9.2 -25.1,-17.5c-0.2,-3.2 14.1,-19.8 14.1,-19.8c0,0 -6.1,-3.8 -13.7,-18.4c-10.5,-20.3 27.7,-46.8 47.2,-4z" fill="#856045"/><path d="M242.4901,162.4c0,0 10.1,7.9 12.4,7.1c0,0 -1.7,2.3 -3.8,1.3c0,0 4.7,0.7 6.8,4.7l-3.1,-0.2c0,0 5.5,5.2 6.2,9.4l-3.5,-2.3c0,0 4.8,5.4 1.6,10" fill="#856045"/><path d="M254.6901,169.5c0,0 -0.2,0.1 -0.5,0.1c-0.3,0 -0.8,-0.1 -1.4,-0.3c-1.1,-0.3 -2.5,-1 -3.8,-1.8c-0.6,-0.4 -1.3,-0.8 -1.8,-1.3c-0.6,-0.4 -1.1,-0.8 -1.5,-1.2c-0.9,-0.7 -1.4,-1.3 -1.4,-1.3c0,0 0.7,0.4 1.6,1c1,0.6 2.2,1.4 3.5,2.2c0.6,0.4 1.3,0.8 1.9,1.1c0.6,0.3 1.2,0.7 1.7,0.9c0.5,0.2 0.9,0.4 1.2,0.5c0.3,0.1 0.5,0.1 0.5,0.1z" fill="#59402f"/><path d="M257.8901,175.6c0,0 -0.3,-0.3 -0.8,-0.8c-0.5,-0.5 -1.1,-1.1 -1.8,-1.7c-0.3,-0.3 -0.7,-0.6 -1,-0.8c-0.2,-0.1 -0.3,-0.2 -0.5,-0.3c-0.2,-0.1 -0.3,-0.2 -0.5,-0.3c-0.3,-0.2 -0.6,-0.3 -0.7,-0.4c-0.2,-0.1 -0.3,-0.1 -0.3,-0.1c0,0 0.1,0 0.3,0c0.2,0 0.5,0 0.9,0.1c0.2,0 0.4,0.1 0.6,0.2c0.2,0.1 0.4,0.2 0.6,0.3c0.4,0.2 0.8,0.5 1.2,0.8c0.7,0.6 1.3,1.4 1.7,2c0.2,0.6 0.3,1 0.3,1z" fill="#59402f"/><path d="M261.0901,184.7c0,0 -0.2,-0.7 -0.6,-1.7c-0.5,-1 -1.2,-2.2 -2,-3.3c-0.4,-0.6 -0.8,-1.1 -1.3,-1.7c-0.4,-0.5 -0.8,-1 -1.2,-1.4c-0.3,-0.4 -0.6,-0.8 -0.8,-1c-0.2,-0.2 -0.3,-0.4 -0.3,-0.4c0,0 0.2,0.1 0.4,0.3c0.2,0.2 0.6,0.5 1,0.8c0.8,0.7 1.8,1.8 2.7,3c0.4,0.6 0.8,1.2 1.1,1.8c0.3,0.6 0.6,1.2 0.7,1.7c0.2,0.5 0.2,1 0.3,1.3c0,0.4 0,0.6 0,0.6z" fill="#59402f"/><path d="M229.4901,226.6c0,0 2.4,-2.1 5.9,-5.4c0.9,-0.8 1.8,-1.7 2.8,-2.7c1,-1 1.9,-2.1 2.8,-3.3c1,-1.2 2,-2.3 3.1,-3.5c1.1,-1.2 2.3,-2.2 3.5,-3.3c1.2,-1 2.6,-1.9 3.9,-2.8c1.2,-0.9 2.2,-2.1 3,-3.4c0.4,-0.6 0.8,-1.3 1.2,-1.9c0.2,-0.3 0.3,-0.6 0.5,-0.9c0.1,-0.3 0.3,-0.6 0.4,-0.9c0.5,-1.3 0.8,-2.5 1,-3.7c0.4,-2.4 0.4,-4.4 0.3,-5.8c-0.1,-1.4 -0.2,-2.2 -0.2,-2.2c0,0 0.2,0.8 0.3,2.2c0.1,1.4 0.2,3.4 -0.1,5.8c-0.2,1.2 -0.5,2.5 -1,3.8c-0.1,0.3 -0.3,0.7 -0.4,1c-0.2,0.3 -0.3,0.6 -0.5,1c-0.4,0.7 -0.7,1.3 -1.1,1.9c-0.8,1.3 -1.8,2.6 -3.1,3.6c-1.3,1 -2.6,1.8 -3.9,2.8c-1.2,1 -2.4,2 -3.5,3.2c-1.1,1.1 -2.2,2.2 -3.2,3.3c-1,1.1 -2,2.2 -3,3.2c-1,1 -1.9,1.9 -2.8,2.7c-1.8,1.6 -3.3,2.9 -4.4,3.9c-0.9,0.9 -1.5,1.4 -1.5,1.4z" fill="#59402f"/><path d="M259.2901,192c0,0 0.3,-0.6 0.4,-1.5c0.1,-0.5 0.1,-1 0,-1.6c0,-0.3 -0.1,-0.6 -0.1,-0.9c0,-0.3 -0.1,-0.6 -0.2,-0.9c-0.1,-0.3 -0.2,-0.6 -0.3,-0.9c-0.1,-0.3 -0.2,-0.6 -0.3,-0.8c-0.2,-0.5 -0.5,-1 -0.6,-1.5c-0.2,-0.4 -0.4,-0.8 -0.5,-1c-0.1,-0.3 -0.2,-0.4 -0.2,-0.4c0,0 0.1,0.1 0.3,0.3c0.2,0.2 0.4,0.5 0.7,0.9c0.3,0.4 0.6,0.9 0.8,1.4c0.1,0.3 0.3,0.5 0.4,0.9c0.1,0.3 0.2,0.6 0.3,0.9c0.2,0.6 0.3,1.3 0.3,1.9c0,0.3 0,0.6 0,0.9c0,0.3 -0.1,0.5 -0.2,0.8c-0.1,0.5 -0.3,0.8 -0.5,1.1c-0.2,0.3 -0.3,0.4 -0.3,0.4z" fill="#59402f"/><path d="M212.1901,229.4c-1,-1 -1.7,-2.1 -2.4,-3.3c-0.3,-0.6 -0.6,-1.2 -0.9,-1.9c-0.1,-0.3 -0.3,-0.6 -0.4,-1c-0.1,-0.1 -0.1,-0.3 -0.2,-0.5c0,-0.2 0,-0.4 0,-0.6c0.1,-0.7 0.3,-1.4 0.6,-2c0.3,-0.6 0.6,-1.2 0.9,-1.8c0.7,-1.2 1.4,-2.4 2.2,-3.5c1.5,-2.3 3.2,-4.4 4.8,-6.6c1.7,-2.2 3.4,-4.2 5.2,-6.3v0.4c-1.9,-1.5 -3.5,-3.2 -5,-5c-0.7,-0.9 -1.5,-1.9 -2.1,-2.8c-0.3,-0.5 -0.6,-1 -0.9,-1.5c-0.3,-0.5 -0.6,-1 -0.9,-1.5c0.6,1 1.3,2 2,2.9c0.7,0.9 1.4,1.8 2.2,2.7c0.8,0.9 1.6,1.7 2.4,2.5c0.8,0.8 1.7,1.6 2.6,2.3l0.3,0.2l-0.2,0.2c-1.8,2.1 -3.5,4.2 -5.1,6.3c-1.7,2.1 -3.3,4.3 -4.9,6.5c-0.8,1.1 -1.5,2.2 -2.2,3.4c-0.3,0.6 -0.7,1.2 -0.9,1.8c-0.3,0.6 -0.5,1.2 -0.6,1.9c0,0.2 0,0.3 0,0.4c0,0.2 0.1,0.3 0.1,0.5c0.1,0.3 0.2,0.6 0.3,1c0.2,0.6 0.5,1.3 0.8,1.9c0.3,0.6 0.6,1.2 1,1.8c0.4,0.5 0.8,1.1 1.3,1.6z" fill="#59402f"/><g><path d="M232.9901,232.9c0,0 -0.3,0.2 -0.8,0.2c-0.5,0.1 -1.2,0 -1.8,-0.1c-0.6,-0.2 -1.2,-0.5 -1.6,-0.8c-0.4,-0.3 -0.6,-0.6 -0.6,-0.6c0,0 0.1,0 0.2,0.1c0.1,0 0.3,0.1 0.6,0.2c0.5,0.1 1,0.3 1.6,0.5c0.6,0.2 1.2,0.3 1.7,0.4c0.4,0 0.7,0.1 0.7,0.1z" fill="#59402f"/><path d="M234.2901,238.4c0,0 -0.4,0.1 -1,0.1c-0.6,0 -1.4,-0.1 -2.1,-0.4c-0.4,-0.1 -0.7,-0.3 -1,-0.5c-0.3,-0.2 -0.6,-0.4 -0.8,-0.6c-0.2,-0.2 -0.4,-0.4 -0.5,-0.5c-0.1,-0.1 -0.1,-0.2 -0.1,-0.2c0,0 0.1,0 0.2,0.1c0.1,0.1 0.4,0.2 0.6,0.3c0.5,0.3 1.1,0.6 1.8,0.8c0.7,0.3 1.4,0.5 1.9,0.6c0.7,0.1 1,0.3 1,0.3z" fill="#59402f"/><path d="M233.9901,231.6c-0.6,0.2 -3.4,0.2 -3.8,-0.8c-0.4,-1 0.9,-0.7 1.8,-0.5c0.9,0.2 2.4,1.1 2,1.3z" fill="#6c5f57"/><path d="M235.2901,236.9c-0.6,0.2 -3.4,0.2 -3.8,-0.8c-0.4,-1.1 0.9,-0.7 1.8,-0.5c0.9,0.2 2.4,1.2 2,1.3z" fill="#6c5f57"/><path d="M235.5901,240.5c-0.6,0.2 -3.4,0.2 -3.8,-0.8c-0.4,-1.1 0.9,-0.7 1.8,-0.5c0.9,0.2 2.4,1.1 2,1.3z" fill="#6c5f57"/></g><path d="M221.0901,203.8c0,0 0,-0.1 0,-0.3c0,-0.2 0.1,-0.4 0.3,-0.7c0.3,-0.5 0.8,-1.2 1.4,-1.7c0.6,-0.5 1.3,-0.9 1.8,-1.1c0.3,-0.1 0.5,-0.2 0.7,-0.2c0.2,-0.1 0.3,-0.1 0.3,-0.1c0,0 -0.1,0.1 -0.2,0.2c-0.1,0.1 -0.3,0.3 -0.5,0.5c-0.4,0.4 -1,0.8 -1.6,1.3c-0.6,0.5 -1.1,1 -1.5,1.4c-0.5,0.4 -0.7,0.7 -0.7,0.7z" fill="#59402f"/></g><g data-paper-data="{&quot;index&quot;:null}"><path d="M298.5901,144.4c17.4,-2.3 20.6,11.6 22.1,19.4c1.5,7.8 -7.4,23.2 -10.5,31.9c-3.1,8.8 -7.3,16.1 -6.7,28.8c0.8,16.4 -5,30 -7,30.2c-16.6,2 -24.4,1.2 -25.5,-0.7c-1.1,-1.9 3.7,-4.4 6,-6.5c2.3,-2.1 -2.1,-11.2 -6.9,-25.7c-9.5,-28.9 4.7,-51.7 4.7,-51.7c1.2,-6.2 6.4,-23.4 23.8,-25.7z" fill="#856045"/><g><path d="M279.1901,255.9c0,0 0,-0.3 0.2,-0.8c0.2,-0.5 0.5,-1.1 1,-1.6c0.5,-0.5 1,-0.9 1.5,-1.1c0.5,-0.2 0.8,-0.3 0.8,-0.3c0,0 -0.1,0.1 -0.2,0.2c-0.1,0.1 -0.2,0.2 -0.4,0.4c-0.3,0.3 -0.8,0.8 -1.2,1.2c-0.4,0.4 -0.8,0.9 -1.1,1.3c-0.4,0.5 -0.6,0.7 -0.6,0.7z" fill="#59402f"/><path d="M273.4901,255.2c0,0 0.1,-0.4 0.4,-0.9c0.3,-0.5 0.8,-1.2 1.4,-1.7c0.3,-0.3 0.6,-0.5 1,-0.7c0.3,-0.2 0.7,-0.3 1,-0.4c0.3,-0.1 0.5,-0.1 0.7,-0.2c0.2,0 0.3,0 0.3,0c0,0 -0.1,0.1 -0.2,0.2c-0.2,0.1 -0.4,0.2 -0.6,0.4c-0.5,0.3 -1.1,0.8 -1.6,1.3c-0.6,0.5 -1.1,1 -1.5,1.5c-0.6,0.2 -0.9,0.5 -0.9,0.5z" fill="#59402f"/><path d="M279.8901,257.4c0.1,-0.6 1.4,-3.1 2.5,-3c1.1,0.2 0.2,1.2 -0.4,1.8c-0.6,0.7 -2.1,1.6 -2.1,1.2z" fill="#665a52"/><path d="M274.5901,256.1c0.1,-0.6 1.4,-3.1 2.5,-3c1.1,0.2 0.2,1.2 -0.4,1.8c-0.7,0.7 -2.2,1.6 -2.1,1.2z" fill="#665a52"/><path d="M271.1901,255.4c0.1,-0.6 1.4,-3.1 2.5,-3c1.1,0.2 0.2,1.2 -0.4,1.8c-0.7,0.6 -2.1,1.5 -2.1,1.2z" fill="#665a52"/></g><g><path d="M298.7901,197.2c0,0 6.6,11 9,11.1c0,0 -2.4,1.6 -4,-0.2c0,0 4.2,2.3 4.7,6.9l-2.8,-1.3c0,0 3.3,6.8 2.4,11l-2.5,-3.4c0,0 2.6,6.8 -2.1,9.9" fill="#856045"/><path d="M307.5901,208.2c0,0 -0.2,0 -0.5,-0.1c-0.3,-0.1 -0.7,-0.4 -1.2,-0.7c-0.9,-0.7 -2,-1.8 -2.9,-3.1c-0.5,-0.6 -0.9,-1.2 -1.3,-1.8c-0.4,-0.6 -0.7,-1.2 -1,-1.7c-0.5,-1 -0.9,-1.7 -0.9,-1.7c0,0 0.5,0.6 1.2,1.5c0.7,0.9 1.6,2.1 2.5,3.3c0.4,0.6 0.9,1.2 1.3,1.7c0.4,0.5 0.9,1 1.2,1.4c0.4,0.4 0.7,0.7 1,0.9c0.5,0.2 0.6,0.3 0.6,0.3z" fill="#59402f"/><path d="M308.2901,214.8c0,0 -0.2,-0.4 -0.4,-1c-0.3,-0.6 -0.6,-1.4 -1,-2.2c-0.2,-0.4 -0.4,-0.7 -0.7,-1.1c-0.2,-0.3 -0.5,-0.6 -0.7,-0.9c-0.2,-0.2 -0.4,-0.5 -0.6,-0.6c-0.1,-0.1 -0.2,-0.2 -0.2,-0.2c0,0 0.1,0 0.3,0.1c0.2,0.1 0.5,0.2 0.7,0.4c0.3,0.2 0.6,0.5 0.9,0.8c0.3,0.3 0.6,0.7 0.8,1.1c0.2,0.4 0.4,0.8 0.5,1.2c0.1,0.4 0.2,0.8 0.3,1.1c0.2,0.9 0.1,1.3 0.1,1.3z" fill="#59402f"/><path d="M307.8901,224.1c0,0 0.2,-0.7 0.1,-1.7c0,-0.5 -0.1,-1.1 -0.2,-1.7c-0.1,-0.6 -0.2,-1.3 -0.4,-1.9c-0.2,-0.7 -0.4,-1.3 -0.6,-1.9c-0.2,-0.6 -0.4,-1.2 -0.5,-1.7c-0.2,-0.5 -0.3,-0.9 -0.4,-1.2c-0.1,-0.3 -0.1,-0.5 -0.1,-0.5c0,0 0.1,0.1 0.3,0.4c0.1,0.3 0.4,0.6 0.6,1.1c0.2,0.5 0.5,1 0.7,1.6c0.3,0.6 0.5,1.3 0.6,1.9c0.2,0.7 0.3,1.4 0.4,2c0.1,0.7 0.1,1.3 0,1.8c-0.1,0.5 -0.2,1 -0.3,1.2c-0.1,0.5 -0.2,0.6 -0.2,0.6z" fill="#59402f"/><path d="M304.7901,229.9c0,0 0.1,-0.1 0.2,-0.3c0.1,-0.2 0.3,-0.5 0.4,-0.9c0.2,-0.8 0.4,-1.8 0.4,-2.9c0,-1.1 -0.1,-2.2 -0.1,-3c-0.1,-0.8 -0.1,-1.4 -0.1,-1.4c0,0 0.1,0.1 0.1,0.4c0.1,0.2 0.2,0.6 0.3,1c0.1,0.4 0.2,0.9 0.3,1.4c0,0.3 0.1,0.5 0.1,0.8c0,0.3 0,0.6 0,0.8c0,0.6 -0.1,1.1 -0.2,1.7c-0.1,0.5 -0.3,1 -0.5,1.4c-0.2,0.4 -0.5,0.7 -0.6,0.8c-0.2,0.2 -0.3,0.2 -0.3,0.2z" fill="#59402f"/></g><path d="M303.5901,225.4c0,0 0.1,2.3 -0.1,5.7c-0.1,1.7 -0.2,3.7 -0.5,5.9c-0.3,2.1 -0.6,4.4 -1.1,6.7c-0.5,2.2 -1.1,4.5 -2,6.5c-0.4,1 -0.9,1.9 -1.5,2.8c-0.3,0.4 -0.6,0.8 -0.9,1.2c-0.2,0.2 -0.3,0.3 -0.5,0.5c-0.3,0.1 -0.5,0.1 -0.7,0.2c-1.7,0.3 -3.1,0.4 -4.1,0.4c-1,0.1 -1.6,0.1 -1.6,0.1c0,0 0.6,-0.1 1.6,-0.2c1,-0.1 2.4,-0.3 4.1,-0.6c0.2,0 0.4,-0.1 0.6,-0.2c0.1,-0.1 0.3,-0.3 0.4,-0.5c0.3,-0.4 0.5,-0.7 0.8,-1.2c0.5,-0.8 0.9,-1.8 1.3,-2.8c0.7,-2 1.3,-4.2 1.8,-6.4c0.4,-2.2 0.8,-4.5 1.1,-6.6c0.3,-2.1 0.5,-4.1 0.7,-5.8c0.4,-3.4 0.6,-5.7 0.6,-5.7z" fill="#59402f"/><path d="M268.8901,182.5c0,0 -0.3,4.4 -0.5,10.9c-0.1,3.3 -0.2,7.1 -0.2,11.2c0,2 0.1,4.2 0.2,6.3c0.1,2.1 0.3,4.3 0.7,6.4c0.2,1.1 0.5,2.1 0.9,3.1c0.4,1 0.8,2 1.1,3c0.8,2 1.5,4 2.2,5.9c1.4,3.8 2.7,7.4 3.6,10.6c0.4,1.6 0.7,3.1 0.8,4.4c0,0.7 0.1,1.3 0,1.9c-0.1,0.6 -0.4,1.1 -0.7,1.4c-0.7,0.7 -1.4,1 -1.8,1.3c-0.4,0.3 -0.7,0.4 -0.7,0.4c0,0 0.2,-0.2 0.6,-0.5c0.4,-0.3 1.1,-0.7 1.7,-1.4c0.3,-0.3 0.6,-0.8 0.6,-1.4c0,-0.6 0,-1.2 -0.1,-1.8c-0.1,-1.3 -0.4,-2.8 -0.9,-4.3c-0.9,-3.1 -2.3,-6.7 -3.7,-10.5c-0.7,-1.9 -1.5,-3.9 -2.3,-5.9c-0.4,-1 -0.7,-2 -1.1,-3.1c-0.4,-1 -0.7,-2.1 -0.9,-3.2c-0.4,-2.2 -0.6,-4.4 -0.7,-6.5c-0.1,-2.2 -0.1,-4.3 -0.1,-6.3c0,-4.1 0.2,-7.9 0.4,-11.2c0.4,-6.4 0.9,-10.7 0.9,-10.7z" fill="#59402f"/></g><g data-paper-data="{&quot;index&quot;:null}"><g><path d="M329.9901,139.2c0,0 10.3,-3.8 21.2,11.7c0,0 -3.1,-2.5 -5,-2.5c0,0 4.9,1.7 6.2,10c0,0 -1.9,-3.3 -3.3,-3.6c0,0 6.9,9.3 -3.2,11.1c-10.1,1.9 -18.3,-24.4 -15.9,-26.7z" fill="#8d674a"/><path d="M351.1901,150.9c0,0 -0.2,-0.3 -0.6,-0.8c-0.4,-0.5 -1,-1.2 -1.7,-2c-0.7,-0.8 -1.6,-1.7 -2.6,-2.6c-0.5,-0.5 -1,-0.9 -1.5,-1.4c-0.5,-0.5 -1.1,-0.9 -1.7,-1.3c-0.6,-0.4 -1.2,-0.8 -1.8,-1.2c-0.6,-0.3 -1.2,-0.7 -1.8,-1c-0.6,-0.2 -1.2,-0.6 -1.8,-0.7c-0.6,-0.2 -1.1,-0.4 -1.7,-0.5c-0.5,-0.1 -1,-0.2 -1.4,-0.2c-0.4,-0.1 -0.8,0 -1.1,-0.1c-0.6,0 -1,0 -1,0c0,0 0.4,0 1,-0.1c0.3,0 0.7,-0.1 1.2,-0.1c0.4,0 0.9,0.1 1.5,0.1c0.5,0.1 1.1,0.2 1.7,0.4c0.6,0.1 1.2,0.4 1.9,0.7c0.6,0.3 1.3,0.6 1.9,1c0.6,0.4 1.2,0.8 1.8,1.2c0.6,0.5 1.2,0.9 1.7,1.4c0.5,0.5 1.1,1 1.5,1.4c1,1 1.8,2 2.4,2.8c1.4,1.7 2.1,3 2.1,3z" fill="#59402f"/><path d="M346.1901,148.4c0,0 0.7,0.3 1.6,1c0.5,0.3 1,0.8 1.4,1.3c0.5,0.5 1,1.1 1.4,1.8c0.4,0.7 0.8,1.3 1,2c0.1,0.3 0.3,0.7 0.3,1c0.1,0.3 0.2,0.6 0.2,0.9c0.1,0.6 0.1,1 0.1,1.4c0,0.3 0,0.5 0,0.5c0,0 -0.1,-0.2 -0.1,-0.5c0,-0.2 -0.1,-0.4 -0.1,-0.6c-0.1,-0.2 -0.2,-0.5 -0.2,-0.7c-0.1,-0.3 -0.2,-0.5 -0.3,-0.8c-0.1,-0.3 -0.2,-0.6 -0.4,-0.9c-0.1,-0.3 -0.3,-0.6 -0.5,-0.9c-0.2,-0.3 -0.4,-0.6 -0.6,-0.9c-0.8,-1.2 -1.8,-2.4 -2.5,-3.2c-0.8,-0.9 -1.3,-1.4 -1.3,-1.4z" fill="#59402f"/><path d="M349.0901,154.8c0,0 0.5,0.4 1,1.1c0.3,0.4 0.6,0.8 0.8,1.3c0.3,0.5 0.5,1.1 0.6,1.7c0.1,0.6 0.2,1.2 0.1,1.8c0,0.3 -0.1,0.6 -0.1,0.8c-0.1,0.3 -0.1,0.5 -0.2,0.7c-0.2,0.4 -0.4,0.8 -0.5,1c-0.1,0.2 -0.2,0.3 -0.2,0.3c0,0 0,-0.1 0.1,-0.4c0,-0.1 0.1,-0.3 0.1,-0.4c0,-0.2 0.1,-0.4 0.1,-0.6c0.1,-0.2 0.1,-0.4 0.1,-0.7c0,-0.2 0.1,-0.5 0,-0.8c0,-0.3 0,-0.5 0,-0.8c0,-0.3 -0.1,-0.6 -0.1,-0.8c-0.1,-0.6 -0.3,-1.1 -0.5,-1.6c-0.2,-0.5 -0.4,-1 -0.6,-1.4c-0.4,-0.7 -0.7,-1.2 -0.7,-1.2z" fill="#59402f"/></g><g><path d="M215.8901,196.5c-3,2 -9.8,-3.7 -9.8,-3.7l-1.2,2c-0.1,-3.4 -7.5,-7.9 -7.5,-7.9l0.8,2.6c-6.6,-2.5 -7.7,-11.3 -7.7,-11.3l-0.2,2.8c-3.4,-3.1 -3.5,-10.9 -3.5,-10.9" fill="#8d674a"/><g><path d="M208.8901,114.9c18.8,-6.5 42.9,2.8 54.2,6.9c16.5,5.8 36.1,-10.5 63.3,11.1c27.2,21.6 22.4,54.5 2.5,71c-22.2,18.4 -101.7,19.7 -116.2,-8.4c0,0 -26.5,-9.8 -28.1,-37.1" fill="#8d674a"/><path d="M186.5901,170.1c0,0 0.2,0.7 0.4,1.7c0.2,1 0.5,2.4 0.9,3.8c0.1,0.3 0.2,0.7 0.3,1c0.1,0.3 0.2,0.7 0.3,1c0.2,0.6 0.4,1.2 0.6,1.6c0.1,0.2 0.2,0.5 0.3,0.6c0.1,0.2 0.2,0.4 0.3,0.4c0.2,0.2 0.3,0.4 0.3,0.4c0,0 -0.1,-0.1 -0.4,-0.3c-0.1,-0.1 -0.3,-0.2 -0.4,-0.4c-0.2,-0.2 -0.3,-0.4 -0.5,-0.6c-0.3,-0.4 -0.6,-1 -0.9,-1.6c-0.3,-0.6 -0.5,-1.3 -0.7,-2c-0.3,-1.4 -0.5,-2.8 -0.6,-3.9c0.1,-0.9 0.1,-1.7 0.1,-1.7z" fill="#59402f"/><path d="M190.4901,178.1c0,0 0.2,0.9 0.7,2.1c0.2,0.6 0.5,1.4 0.8,2.1c0.2,0.4 0.4,0.8 0.6,1.1c0.2,0.4 0.4,0.8 0.6,1.1c0.2,0.4 0.5,0.7 0.7,1.1c0.3,0.3 0.5,0.7 0.8,1c0.3,0.3 0.5,0.6 0.8,0.8c0.3,0.2 0.5,0.5 0.8,0.7c0.3,0.2 0.5,0.4 0.7,0.5c0.2,0.1 0.4,0.3 0.6,0.4c0.3,0.2 0.5,0.3 0.5,0.3c0,0 -0.2,-0.1 -0.6,-0.2c-0.2,-0.1 -0.4,-0.2 -0.7,-0.3c-0.2,-0.1 -0.5,-0.3 -0.8,-0.4c-0.3,-0.2 -0.6,-0.4 -0.9,-0.6c-0.3,-0.2 -0.6,-0.5 -0.9,-0.8c-0.3,-0.3 -0.6,-0.6 -0.9,-1c-0.3,-0.3 -0.5,-0.7 -0.8,-1.1c-0.5,-0.8 -0.9,-1.6 -1.2,-2.4c-0.3,-0.8 -0.5,-1.6 -0.7,-2.2c-0.1,-1.3 -0.1,-2.2 -0.1,-2.2z" fill="#59402f"/><path d="M197.3901,187c0,0 0.7,0.2 1.6,0.7c0.5,0.3 1,0.6 1.5,1c0.5,0.4 1.1,0.8 1.6,1.3c0.5,0.5 1,1 1.4,1.6c0.4,0.5 0.7,1.1 0.9,1.6c0.1,0.3 0.2,0.5 0.2,0.7c0.1,0.2 0.1,0.4 0.1,0.5c0.1,0.3 0.1,0.5 0.1,0.5c0,0 -0.1,-0.2 -0.2,-0.4c-0.1,-0.1 -0.1,-0.3 -0.2,-0.5c-0.1,-0.2 -0.2,-0.4 -0.4,-0.6c-0.1,-0.2 -0.3,-0.4 -0.5,-0.7c-0.2,-0.2 -0.4,-0.5 -0.6,-0.7c-0.4,-0.5 -0.9,-1 -1.4,-1.4c-0.5,-0.5 -1,-0.9 -1.5,-1.3c-0.5,-0.4 -1,-0.8 -1.4,-1.1c-0.7,-0.8 -1.2,-1.2 -1.2,-1.2z" fill="#59402f"/><path d="M205.9901,192.9c0,0 0.6,0.4 1.5,1c0.5,0.3 1,0.6 1.6,0.9c0.6,0.3 1.2,0.7 1.8,0.9c0.6,0.3 1.3,0.6 1.9,0.8c0.3,0.1 0.6,0.2 0.9,0.3c0.3,0.1 0.6,0.1 0.8,0.2c0.3,0 0.5,0.1 0.7,0.1c0.2,0 0.4,0 0.6,0c0.3,0 0.5,0 0.5,0c0,0 -0.2,0 -0.5,0.1c-0.2,0 -0.3,0.1 -0.6,0.1c-0.2,0 -0.5,0 -0.7,0c-0.5,0 -1.2,-0.1 -1.8,-0.3c-0.7,-0.2 -1.3,-0.4 -2,-0.7c-0.7,-0.3 -1.3,-0.7 -1.8,-1.1c-0.6,-0.4 -1.1,-0.8 -1.5,-1.1c-0.9,-0.7 -1.4,-1.2 -1.4,-1.2z" fill="#59402f"/><path d="M229.6901,113c0,0 3.1,0.2 7.7,1c1.1,0.2 2.4,0.4 3.7,0.7c1.3,0.3 2.7,0.6 4.1,0.9c2.8,0.7 5.8,1.5 8.7,2.5c2.9,1.1 5.7,2.4 8.5,3.2c1.4,0.4 2.7,0.8 4,1c1.3,0.2 2.5,0.4 3.7,0.5c1.1,0.1 2.2,0.1 3.1,0.2c0.9,0 1.8,0 2.4,0c1.4,0 2.1,-0.1 2.1,-0.1c0,0 -0.8,0.1 -2.1,0.2c-0.7,0.1 -1.5,0.1 -2.4,0.1c-0.9,0 -2,0 -3.2,0c-1.2,-0.1 -2.4,-0.2 -3.7,-0.4c-1.3,-0.2 -2.7,-0.5 -4.1,-0.9c-2.8,-0.8 -5.6,-2.1 -8.5,-3.1c-1.5,-0.5 -2.9,-0.9 -4.4,-1.3c-1.5,-0.4 -2.9,-0.8 -4.3,-1.2c-2.8,-0.7 -5.4,-1.3 -7.7,-1.8c-2.3,-0.5 -4.2,-0.8 -5.5,-1c-1.3,-0.3 -2.1,-0.5 -2.1,-0.5z" fill="#59402f"/><path d="M303.7901,122c0,0 1.2,0.2 3.2,0.8c2,0.6 5,1.6 8.3,3.1c3.3,1.5 7.1,3.5 10.8,6.2c3.7,2.7 7.3,6.1 10.2,10.1c1.4,2 2.7,4.2 3.7,6.3c1.1,2.1 2,4.3 2.9,6.5c0.8,2.1 1.5,4.3 1.9,6.3c0.4,2.1 0.7,4 0.7,5.9c0.1,3.7 -0.5,6.7 -0.8,8.8c-0.4,2.1 -0.6,3.3 -0.6,3.3c0,0 0.2,-1.2 0.4,-3.3c0.3,-2.1 0.7,-5.1 0.5,-8.8c-0.1,-1.8 -0.4,-3.8 -0.8,-5.8c-0.5,-2 -1.2,-4.1 -2,-6.2c-0.9,-2.1 -1.8,-4.2 -2.9,-6.4c-1,-2.2 -2.2,-4.2 -3.7,-6.2c-2.8,-3.9 -6.3,-7.3 -10,-10.1c-3.6,-2.7 -7.4,-4.8 -10.6,-6.4c-3.3,-1.6 -6.1,-2.6 -8.2,-3.3c-1.8,-0.6 -3,-0.8 -3,-0.8z" fill="#59402f"/><path d="M218.2901,202.6c0,0 0.4,0.3 1,0.7c0.7,0.4 1.7,1.1 3,1.8c0.7,0.4 1.4,0.8 2.2,1.2c0.8,0.4 1.7,0.8 2.7,1.3c1,0.4 2,0.9 3.1,1.4c1.1,0.4 2.3,0.9 3.5,1.4c1.2,0.5 2.5,0.9 3.8,1.4c1.3,0.5 2.7,0.8 4.2,1.3c2.9,0.8 5.9,1.5 9.1,2.1c0.8,0.1 1.6,0.3 2.4,0.5c0.8,0.1 1.6,0.2 2.5,0.3c0.8,0.1 1.7,0.2 2.5,0.3c0.8,0.1 1.7,0.2 2.5,0.2c0.8,0.1 1.7,0.1 2.6,0.2c0.9,0.1 1.7,0.1 2.6,0.1c1.7,0 3.5,0.1 5.2,0.1c3.5,-0.1 6.9,-0.1 10.3,-0.5c3.4,-0.2 6.8,-0.6 10,-0.9c1.6,-0.2 3.2,-0.4 4.8,-0.6c1.6,-0.2 3.1,-0.5 4.5,-0.7c2.9,-0.5 5.7,-1 8.2,-1.6c2.5,-0.6 4.8,-1.3 6.8,-1.9c1,-0.3 1.9,-0.7 2.8,-1c0.8,-0.4 1.6,-0.6 2.3,-1c1.4,-0.6 2.4,-1.3 3.1,-1.7c0.7,-0.5 1,-0.8 1,-0.8c0,0 -0.3,0.3 -1,0.8c-0.7,0.5 -1.7,1.1 -3.1,1.8c-0.7,0.4 -1.5,0.7 -2.3,1.1c-0.9,0.3 -1.8,0.7 -2.8,1.1c-2,0.7 -4.3,1.4 -6.8,2c-2.5,0.6 -5.3,1.2 -8.2,1.8c-1.5,0.2 -3,0.5 -4.5,0.8c-1.6,0.2 -3.1,0.4 -4.8,0.6c-3.2,0.3 -6.6,0.7 -10,1c-3.4,0.3 -6.9,0.4 -10.4,0.5c-1.7,0 -3.5,-0.1 -5.2,-0.1c-0.9,0 -1.7,-0.1 -2.6,-0.2c-0.9,-0.1 -1.7,-0.1 -2.6,-0.2c-0.9,-0.1 -1.7,-0.1 -2.5,-0.2c-0.8,-0.1 -1.7,-0.2 -2.5,-0.4c-0.8,-0.1 -1.7,-0.2 -2.5,-0.4c-0.8,-0.1 -1.6,-0.3 -2.4,-0.5c-3.2,-0.6 -6.3,-1.4 -9.1,-2.2c-1.4,-0.5 -2.8,-0.8 -4.2,-1.3c-1.3,-0.5 -2.6,-0.9 -3.8,-1.4c-1.2,-0.5 -2.4,-1 -3.5,-1.4c-1.1,-0.5 -2.1,-1 -3.1,-1.4c-0.9,-0.5 -1.8,-0.9 -2.6,-1.4c-0.8,-0.5 -1.5,-0.9 -2.2,-1.2c-1.3,-0.8 -2.3,-1.4 -3,-1.9c-0.7,-0.6 -1,-0.9 -1,-0.9z" fill="#59402f"/></g></g></g><g data-paper-data="{&quot;index&quot;:null}"><g><g fill="#8d674a"><path d="M254.5901,189.6c0.5,23.1 -15.7,63.1 -18.6,64.8c-3,1.8 -27.3,4.2 -26.5,1c0.8,-3.2 4.7,-6.7 6.2,-9.5c1.5,-2.9 2.9,-26.9 2.3,-33.4c-0.6,-6.5 -6.5,-12.4 -9.2,-35.1c-2.7,-22.7 41.8,-34.6 45.8,12.2z"/><path d="M248.2901,168.3c0,0 6.8,10.8 9.2,10.9c0,0 -2.4,1.6 -4,-0.1c0,0 4.2,2.2 4.8,6.8l-2.8,-1.3c0,0 3.4,6.7 2.6,11l-2.5,-3.4c0,0 2.7,6.7 -1.9,9.9"/></g><g fill="#59402f"><path d="M258.1901,179.5c0,0 -0.2,0 -0.5,-0.1c-0.3,-0.1 -0.7,-0.4 -1.2,-0.7c-0.9,-0.7 -1.9,-1.9 -2.9,-3.1c-0.5,-0.6 -0.9,-1.2 -1.3,-1.8c-0.4,-0.6 -0.7,-1.2 -1,-1.7c-0.5,-1 -0.8,-1.7 -0.8,-1.7c0,0 0.5,0.6 1.2,1.5c0.7,0.9 1.6,2.1 2.5,3.3c0.4,0.6 0.9,1.2 1.3,1.7c0.4,0.5 0.9,1 1.2,1.5c0.4,0.4 0.7,0.7 1,0.9c0.3,0.2 0.5,0.2 0.5,0.2z"/><path d="M258.7901,186.2c0,0 -0.2,-0.4 -0.4,-1c-0.3,-0.6 -0.6,-1.4 -1,-2.2c-0.2,-0.4 -0.4,-0.7 -0.7,-1.1c-0.2,-0.3 -0.5,-0.6 -0.7,-0.9c-0.2,-0.2 -0.4,-0.5 -0.5,-0.6c-0.1,-0.1 -0.2,-0.2 -0.2,-0.2c0,0 0.1,0 0.3,0.1c0.2,0.1 0.5,0.2 0.7,0.4c0.3,0.2 0.6,0.5 0.9,0.8c0.3,0.3 0.6,0.7 0.8,1.1c0.2,0.4 0.4,0.8 0.5,1.2c0.1,0.4 0.2,0.8 0.3,1.1c0,0.8 0,1.3 0,1.3z"/><path d="M258.2901,195.5c0,0 0.2,-0.7 0.1,-1.7c0,-0.5 -0.1,-1.1 -0.2,-1.7c-0.1,-0.6 -0.2,-1.3 -0.4,-1.9c-0.2,-0.7 -0.3,-1.3 -0.5,-1.9c-0.2,-0.6 -0.4,-1.2 -0.5,-1.7c-0.2,-0.5 -0.3,-0.9 -0.4,-1.2c-0.1,-0.3 -0.1,-0.5 -0.1,-0.5c0,0 0.1,0.1 0.3,0.4c0.1,0.3 0.4,0.6 0.6,1.1c0.2,0.5 0.5,1 0.7,1.6c0.3,0.6 0.5,1.3 0.6,1.9c0.2,0.7 0.3,1.4 0.3,2c0.1,0.7 0,1.3 0,1.8c-0.1,0.5 -0.2,1 -0.3,1.2c-0.1,0.4 -0.2,0.6 -0.2,0.6z"/><path d="M254.0901,202.1c0,0 0.5,-0.4 1,-1.2c0.2,-0.4 0.4,-0.9 0.6,-1.4c0.2,-0.5 0.3,-1.1 0.3,-1.8c0.1,-0.3 0,-0.6 0.1,-0.9c0,-0.3 0,-0.6 0,-0.9c0,-0.6 0,-1.1 0,-1.6c0,-0.5 0,-0.9 -0.1,-1.1c0,-0.3 0,-0.4 0,-0.4c0,0 0.1,0.1 0.1,0.4c0.1,0.3 0.2,0.6 0.3,1.1c0.1,0.5 0.2,1 0.3,1.6c0,0.3 0.1,0.6 0,0.9c0,0.3 0,0.6 0,1c-0.1,0.6 -0.2,1.3 -0.4,1.9c-0.1,0.3 -0.3,0.6 -0.4,0.8c-0.2,0.2 -0.3,0.5 -0.5,0.7c-0.3,0.4 -0.7,0.6 -0.9,0.8c-0.2,0.1 -0.4,0.1 -0.4,0.1z"/></g></g><path d="M212.2901,250.5c0,0 0.5,-0.8 1.6,-2.1c0.5,-0.7 1.2,-1.5 1.7,-2.5c0.5,-1.1 0.6,-2.4 0.7,-3.9c0.1,-1.5 0.2,-3.1 0.3,-4.7c0.1,-1.7 0.3,-3.4 0.4,-5.3c0.3,-3.6 0.5,-7.5 0.6,-11.4c0,-1.9 0,-3.9 -0.2,-5.8c-0.2,-1.9 -0.5,-3.7 -0.9,-5.5c-0.9,-3.5 -1.9,-6.8 -2.9,-9.6c-0.9,-2.8 -1.6,-5.2 -1.9,-6.8c-0.2,-0.8 -0.3,-1.5 -0.4,-2c-0.1,-0.5 -0.1,-0.7 -0.1,-0.7c0,0 0.1,0.2 0.1,0.7c0.1,0.4 0.2,1.1 0.5,1.9c0.2,0.8 0.5,1.8 0.9,3c0.4,1.1 0.8,2.4 1.3,3.8c1,2.8 2.2,6 3.1,9.6c0.5,1.8 0.8,3.7 1,5.6c0.1,1.9 0.2,3.9 0.2,5.9c0,3.9 -0.3,7.8 -0.6,11.5c-0.3,3.7 -0.7,7.1 -1,10c-0.1,1.5 -0.3,2.9 -0.8,3.9c-0.5,1.1 -1.3,1.9 -1.8,2.5c-1.2,1.1 -1.8,1.9 -1.8,1.9z" fill="#59402f"/><g><path d="M217.1901,257.3c0,0 0,-0.4 0.1,-0.9c0.1,-0.5 0.4,-1.2 0.8,-1.7c0.4,-0.6 0.9,-1.1 1.3,-1.4c0.4,-0.3 0.8,-0.4 0.8,-0.4c0,0 0,0.1 -0.1,0.2c-0.1,0.1 -0.2,0.3 -0.3,0.5c-0.3,0.4 -0.7,0.9 -1,1.5c-0.4,0.5 -0.7,1.1 -1,1.5c-0.4,0.4 -0.6,0.7 -0.6,0.7z" fill="#59402f"/><path d="M211.7901,256.9c0,0 0,-0.4 0.2,-1c0.2,-0.6 0.5,-1.3 1,-1.9c0.2,-0.3 0.5,-0.6 0.8,-0.8c0.3,-0.2 0.6,-0.4 0.8,-0.6c0.3,-0.1 0.5,-0.2 0.7,-0.3c0.2,-0.1 0.3,-0.1 0.3,-0.1c0,0 -0.1,0.1 -0.2,0.2c-0.1,0.1 -0.3,0.3 -0.5,0.5c-0.4,0.4 -0.9,0.9 -1.3,1.5c-0.5,0.6 -0.9,1.2 -1.2,1.6c-0.4,0.6 -0.6,0.9 -0.6,0.9z" fill="#59402f"/><path d="M218.3901,258.5c0,-0.6 0.8,-3.3 1.9,-3.4c1.1,0 0.4,1.1 -0.1,1.9c-0.5,0.8 -1.8,1.9 -1.8,1.5z" fill="#6c5f57"/><path d="M212.8901,258.2c0,-0.6 0.8,-3.3 1.9,-3.4c1.1,0 0.4,1.1 -0.1,1.9c-0.5,0.8 -1.8,1.9 -1.8,1.5z" fill="#6c5f57"/><path d="M209.3901,257.5c0,-0.6 0.8,-3.3 1.9,-3.4c1.1,-0.1 0.4,1.1 -0.1,1.9c-0.5,0.7 -1.7,1.9 -1.8,1.5z" fill="#6c5f57"/></g><path d="M233.0901,255.3c0,0 0.3,0 0.7,-0.1c0.5,-0.1 1.2,-0.2 1.9,-0.7c0.4,-0.2 0.7,-0.6 1,-1c0.3,-0.4 0.6,-0.9 0.9,-1.5c0.6,-1.1 1.3,-2.3 1.7,-3.7c1.1,-2.8 2.3,-6.1 3.7,-9.6c1.3,-3.5 2.7,-7.3 4,-11.1c1.3,-3.8 2.5,-7.6 3.3,-11.3c0.2,-0.9 0.4,-1.8 0.6,-2.7c0.2,-0.9 0.4,-1.7 0.5,-2.6c0.3,-1.7 0.6,-3.3 0.9,-4.8c0.6,-3 1.1,-5.4 1.4,-7.1c0.3,-1.7 0.5,-2.7 0.5,-2.7c0,0 -0.5,4 -1.5,9.9c-0.2,1.5 -0.5,3.1 -0.8,4.8c-0.3,1.7 -0.6,3.5 -1.1,5.3c-0.4,1.8 -0.9,3.7 -1.5,5.6c-0.6,1.9 -1.1,3.8 -1.8,5.7c-1.3,3.8 -2.7,7.6 -4.1,11.1c-1.4,3.5 -2.8,6.7 -3.9,9.5c-0.5,1.4 -1.3,2.6 -1.9,3.7c-0.3,0.5 -0.6,1 -0.9,1.5c-0.3,0.4 -0.7,0.7 -1.1,1c-0.8,0.5 -1.5,0.6 -1.9,0.6c-0.4,0.2 -0.6,0.2 -0.6,0.2z" fill="#59402f"/></g><g data-paper-data="{&quot;index&quot;:null}"><path d="M298.4901,142.5c12.9,-11.9 26.3,-4.6 32,0.9c5.7,5.5 6.2,22.1 8.7,31c2.5,8.9 4.4,21.1 8.9,33c5.9,15.8 7.8,38 6.4,39.5c-1.4,1.5 -7.6,6.3 -12.1,8.1c-6.3,2.5 -11,1.4 -12.2,0.8c-2,-1 2.5,-5.7 3.2,-8.8c0.7,-3.1 -17.7,-23 -20.2,-26.3c-7.9,-10.6 -19.3,-43.7 -19.3,-43.7c-2.6,-5.7 -8.3,-22.6 4.6,-34.5z" fill="#8d674a"/><g><path d="M341.0901,184.4c0,0 7.9,10.1 10.2,10c0,0 -2.2,1.8 -4,0.3c0,0 4.4,1.8 5.5,6.3l-2.9,-1c0,0 4,6.4 3.6,10.7l-2.8,-3.1c0,0 3.3,6.4 -0.9,10.1" fill="#8d674a"/><path d="M351.0901,194.4c0,0 -0.2,0 -0.5,-0.1c-0.3,-0.1 -0.8,-0.3 -1.3,-0.6c-1,-0.6 -2.2,-1.6 -3.2,-2.7c-0.5,-0.6 -1,-1.1 -1.5,-1.7c-0.5,-0.5 -0.8,-1.1 -1.2,-1.5c-0.6,-0.9 -1,-1.6 -1,-1.6c0,0 0.6,0.5 1.3,1.3c0.8,0.8 1.8,1.9 2.9,3c0.5,0.5 1,1.1 1.5,1.6c0.5,0.5 1,0.9 1.4,1.3c0.4,0.4 0.8,0.6 1.1,0.8c0.3,0.1 0.5,0.2 0.5,0.2z" fill="#59402f"/><path d="M352.5901,200.8c0,0 -0.2,-0.4 -0.5,-1c-0.3,-0.6 -0.8,-1.3 -1.3,-2c-0.3,-0.3 -0.5,-0.7 -0.8,-1c-0.3,-0.3 -0.5,-0.6 -0.8,-0.8c-0.2,-0.2 -0.5,-0.4 -0.6,-0.5c-0.2,-0.1 -0.2,-0.2 -0.2,-0.2c0,0 0.1,0 0.3,0.1c0.2,0.1 0.5,0.1 0.8,0.3c0.3,0.2 0.7,0.4 1,0.7c0.3,0.3 0.6,0.6 0.9,1c0.3,0.4 0.5,0.8 0.7,1.2c0.2,0.4 0.3,0.8 0.4,1.1c0.1,0.7 0.1,1.1 0.1,1.1z" fill="#59402f"/><path d="M353.2901,210.2c0,0 0.1,-0.7 -0.1,-1.7c-0.1,-0.5 -0.2,-1.1 -0.4,-1.7c-0.2,-0.6 -0.4,-1.2 -0.6,-1.9c-0.2,-0.6 -0.5,-1.3 -0.8,-1.8c-0.3,-0.6 -0.5,-1.1 -0.7,-1.6c-0.2,-0.5 -0.4,-0.9 -0.5,-1.1c-0.1,-0.3 -0.2,-0.4 -0.2,-0.4c0,0 0.1,0.1 0.3,0.4c0.2,0.2 0.5,0.6 0.8,1c0.3,0.4 0.6,0.9 0.9,1.5c0.3,0.6 0.6,1.2 0.9,1.9c0.2,0.7 0.5,1.3 0.6,2c0.1,0.6 0.2,1.3 0.2,1.8c0,0.5 -0.1,1 -0.1,1.3c-0.3,0.1 -0.3,0.3 -0.3,0.3z" fill="#59402f"/><path d="M350.7901,216.3c0,0 0.1,-0.1 0.2,-0.3c0.1,-0.2 0.2,-0.5 0.3,-0.9c0.1,-0.8 0.1,-1.9 0,-2.9c-0.1,-1.1 -0.3,-2.2 -0.5,-3c-0.2,-0.8 -0.2,-1.4 -0.2,-1.4c0,0 0.1,0.1 0.2,0.3c0.1,0.2 0.3,0.5 0.4,0.9c0.1,0.4 0.3,0.9 0.5,1.4c0.1,0.3 0.1,0.5 0.2,0.8c0,0.3 0.1,0.6 0.1,0.8c0,0.6 0.1,1.1 0,1.7c0,0.5 -0.2,1 -0.3,1.4c-0.2,0.4 -0.4,0.7 -0.5,0.9c-0.3,0.2 -0.4,0.3 -0.4,0.3z" fill="#59402f"/></g><path d="M349.0901,207.7c0,0 0.7,2.6 1.5,6.5c0.4,2 0.9,4.3 1.4,6.7c0.5,2.5 1,5.1 1.4,7.8c0.4,2.7 0.8,5.3 1.1,7.8c0.3,2.5 0.4,4.9 0.5,6.9c0,1 -0.1,1.9 -0.2,2.8c-0.1,0.2 -0.1,0.4 -0.2,0.6c-0.1,0.2 -0.3,0.3 -0.4,0.4c-0.3,0.2 -0.5,0.4 -0.8,0.6c-1,0.7 -1.6,1 -1.6,1c0,0 0.6,-0.4 1.5,-1.1c0.2,-0.2 0.5,-0.4 0.7,-0.6c0.1,-0.1 0.2,-0.2 0.3,-0.4c0,-0.2 0.1,-0.4 0.1,-0.6c0.1,-0.8 0.1,-1.7 0.1,-2.7c-0.1,-2 -0.4,-4.3 -0.7,-6.8c-0.3,-2.5 -0.7,-5.1 -1.2,-7.8c-0.4,-2.7 -0.9,-5.3 -1.3,-7.8c-0.4,-2.5 -0.8,-4.8 -1.2,-6.8c-0.6,-3.8 -1,-6.5 -1,-6.5z" fill="#59402f"/><path d="M300.6901,195.9c0,0 1.5,3.7 4,9.2c1.3,2.7 2.8,5.9 4.6,9.2c0.9,1.6 1.9,3.3 3.1,4.9c1.2,1.5 2.6,3 3.9,4.5c5.3,6 10.6,12.1 14,17.1c0.9,1.2 1.5,2.5 2.2,3.5c0.3,0.5 0.7,1 0.9,1.5c0.3,0.5 0.1,1.1 0,1.5c-0.3,0.8 -0.6,1.4 -0.8,1.9c-0.2,0.4 -0.3,0.6 -0.3,0.6c0,0 0.1,-0.2 0.3,-0.7c0.2,-0.4 0.5,-1.1 0.7,-1.9c0.1,-0.4 0.2,-0.9 -0.1,-1.3c-0.2,-0.4 -0.6,-0.9 -1,-1.4c-0.7,-1 -1.4,-2.2 -2.3,-3.4c-1.7,-2.4 -4,-5.1 -6.4,-8c-2.4,-2.9 -5.1,-5.9 -7.8,-8.9c-1.3,-1.5 -2.7,-3 -3.9,-4.6c-1.2,-1.6 -2.2,-3.3 -3.1,-5c-0.9,-1.7 -1.7,-3.3 -2.5,-4.9c-0.7,-1.6 -1.4,-3.1 -2,-4.4c-1.2,-2.8 -2.1,-5.1 -2.7,-6.8c-0.5,-1.7 -0.8,-2.6 -0.8,-2.6z" fill="#59402f"/></g><g data-paper-data="{&quot;index&quot;:null}"><path d="M337.0901,256.1c0,0 0,-0.3 0,-0.8c0.1,-0.5 0.3,-1.1 0.7,-1.7c0.4,-0.6 0.9,-1 1.3,-1.3c0.4,-0.3 0.7,-0.4 0.7,-0.4c0,0 0,0.1 -0.1,0.2c-0.1,0.1 -0.2,0.3 -0.3,0.5c-0.3,0.4 -0.7,0.9 -1,1.4c-0.3,0.5 -0.7,1 -0.9,1.4c-0.2,0.4 -0.4,0.7 -0.4,0.7z" fill="#59402f"/><path d="M331.4901,256c0,0 0,-0.4 0.2,-0.9c0.2,-0.6 0.5,-1.3 1,-1.9c0.3,-0.3 0.5,-0.6 0.8,-0.8c0.3,-0.2 0.6,-0.4 0.8,-0.5c0.3,-0.1 0.5,-0.2 0.7,-0.3c0.2,0 0.3,-0.1 0.3,-0.1c0,0 -0.1,0.1 -0.2,0.2c-0.1,0.1 -0.3,0.3 -0.5,0.5c-0.4,0.4 -0.9,0.9 -1.4,1.5c-0.5,0.6 -0.9,1.1 -1.2,1.6c-0.3,0.4 -0.5,0.7 -0.5,0.7z" fill="#59402f"/><path d="M338.0901,257.4c0,-0.6 0.8,-3.3 2,-3.3c1.1,0 0.4,1.1 -0.1,1.9c-0.6,0.7 -1.9,1.8 -1.9,1.4z" fill="#6c5f57"/><path d="M332.5901,257c0,-0.6 0.8,-3.3 2,-3.3c1.1,0 0.4,1.1 -0.1,1.9c-0.5,0.8 -1.9,1.8 -1.9,1.4z" fill="#6c5f57"/><path d="M329.0901,256.8c0,-0.6 0.8,-3.3 2,-3.3c1.1,0 0.4,1.1 -0.1,1.9c-0.5,0.6 -1.9,1.8 -1.9,1.4z" fill="#6c5f57"/></g><g data-paper-data="{&quot;index&quot;:null}"><g><path d="M216.1901,144.5c-0.1,6.5 2.5,10.3 2.5,10.3c-2.7,0 -5.4,-4.9 -5.4,-4.9c3.9,9 -2.2,15.2 -2.2,15.2c0.6,-5.7 -1.4,-7.5 -1.4,-7.5c3,10.9 -8.4,13.5 -8.4,13.5c1.7,-1.2 2.9,-5.5 2.9,-5.5c-8.8,9.8 -26.2,7.7 -35.9,8.2c-9.7,0.5 -16.8,-0.3 -25.1,-1c-8.3,-0.6 -14.9,-10.4 -15.3,-14.7c-0.4,-4.3 20.1,-15 20.1,-15c0,0 0.6,-13.2 3.7,-18.8c3.1,-5.6 25.9,-17.5 46.2,-14.7c17,2.4 18.2,28.5 18.3,34.9z" fill="#8d674a"/><path d="M223.1901,133.2c-0.1,6.5 -4.6,21.7 -4.6,21.7c-2.7,0 -5.4,-4.9 -5.4,-4.9c3.9,9 -2.2,15.2 -2.2,15.2c0.6,-5.7 -1.4,-7.5 -1.4,-7.5c3,10.9 -8.4,13.5 -8.4,13.5c1.7,-1.2 2.9,-5.5 2.9,-5.5c-8.8,9.8 -24.8,9.4 -34.4,10c-9.6,0.6 -18.2,-2.2 -26.5,-2.9c-8.3,-0.6 -14.9,-10.4 -15.3,-14.7c-0.4,-4.3 20,-15 20,-15c0,0 0.6,-13.1 3.7,-18.8c3.1,-5.7 22.8,-17.6 43.2,-15.6c14.4,1.4 28.5,18 28.4,24.5z" fill="#8d674a"/><path d="M148.0901,143.1c15,12.2 -1.1,23.3 -1.1,23.3c-0.2,2.7 -3,4.7 -5.5,6.1c-7.5,-1.7 -13.2,-10.4 -13.6,-14.4c-0.4,-4.3 20.1,-15 20.2,-15z" fill="#9e7b5c"/><path d="M128.7901,161.3c-0.9,-1.6 -2.3,-3.2 -1.4,-4.6c0.5,-0.8 1.7,-2.3 2.7,-2.3c1,0 2.5,3 -0.5,4.5c0.4,1.6 -0.2,2.1 -0.8,2.4z" fill="#332721"/><path d="M134.1901,168.1c0,0 0.5,-0.3 1.3,-0.7c0.4,-0.2 0.9,-0.3 1.4,-0.5c0.5,-0.1 1.1,-0.3 1.7,-0.3c0.6,-0.1 1.2,-0.1 1.8,-0.1c0.6,0 1.1,0.1 1.5,0.2c0.4,0.1 0.8,0.2 1,0.3c0.2,0.1 0.4,0.2 0.4,0.2c0,0 -0.2,0 -0.4,0c-0.3,0 -0.6,-0.1 -1,-0.1c-0.2,0 -0.4,0 -0.7,0c-0.2,0 -0.5,0 -0.8,0c-0.5,0 -1.1,0.1 -1.7,0.1c-1.1,0.1 -2.3,0.3 -3.1,0.5c-0.8,0.3 -1.4,0.4 -1.4,0.4z" fill="#59402f"/><path d="M156.29781,142.65656c-0.13173,-1.42991 0.51939,-2.65891 1.45433,-2.74504c0.93494,-0.08613 1.79965,1.00321 1.93139,2.43312c0.13173,1.42991 -0.51939,2.65891 -1.45433,2.74504c-0.93494,0.08613 -1.79965,-1.00321 -1.93139,-2.43312z" fill="#332010"/><path d="M161.1901,135.7c0.1,1.1 -3,1.8 -4.4,1.9c-1.4,0.1 -2.7,-0.6 -2.8,-1.7c-0.1,-1.1 1,-2 2.4,-2.2c1.5,-0.1 4.7,0.9 4.8,2z" fill="#9e7b5c"/><path d="M147.9901,143.1c0,0 0,-0.8 0,-2.3c0.1,-1.4 0.1,-3.5 0.4,-6c0.1,-1.2 0.3,-2.6 0.6,-4c0.3,-1.4 0.6,-2.9 1.2,-4.3c0.3,-0.7 0.6,-1.5 1,-2.2c0.5,-0.7 0.9,-1.3 1.5,-2c1.1,-1.2 2.3,-2.4 3.6,-3.4c1.3,-1 2.7,-1.9 4.1,-2.7c1.4,-0.8 2.8,-1.6 4.2,-2.2c1.4,-0.7 2.8,-1.2 4.1,-1.7c1.3,-0.5 2.6,-0.9 3.8,-1.3c1.2,-0.4 2.3,-0.7 3.3,-0.9c1,-0.2 1.8,-0.5 2.5,-0.6c1.4,-0.3 2.2,-0.5 2.2,-0.5c0,0 -0.8,0.2 -2.2,0.6c-1.4,0.4 -3.4,1 -5.7,1.7c-1.2,0.4 -2.4,0.8 -3.7,1.4c-1.3,0.5 -2.7,1.1 -4.1,1.8c-1.4,0.7 -2.8,1.4 -4.2,2.2c-1.4,0.8 -2.7,1.8 -4,2.7c-1.3,1 -2.5,2.1 -3.6,3.3c-0.5,0.6 -1,1.2 -1.4,1.9c-0.4,0.7 -0.7,1.4 -1,2.1c-1.1,2.9 -1.6,5.7 -1.9,8.1c-0.6,5 -0.7,8.3 -0.7,8.3z" fill="#59402f"/><path d="M201.1901,171.2c0,0 0.3,-0.1 0.7,-0.2c0.5,-0.1 1.1,-0.4 1.9,-0.8c0.4,-0.2 0.8,-0.4 1.2,-0.7c0.4,-0.2 0.8,-0.6 1.2,-0.9c0.4,-0.3 0.8,-0.7 1.2,-1.1c0.4,-0.4 0.7,-0.8 1,-1.3c0.3,-0.4 0.5,-1 0.8,-1.4c0.2,-0.5 0.3,-1 0.5,-1.5c0.1,-0.5 0.1,-1 0.2,-1.5c0.1,-0.5 0,-0.9 0,-1.4c0,-0.4 0,-0.8 -0.1,-1.2c0,-0.3 -0.1,-0.6 -0.1,-0.9c-0.1,-0.5 -0.1,-0.8 -0.1,-0.8c0,0 0.1,0.3 0.2,0.8c0.1,0.2 0.2,0.5 0.2,0.9c0.1,0.3 0.2,0.7 0.2,1.2c0,0.4 0.1,0.9 0.1,1.4c0,0.5 0,1 -0.1,1.6c-0.1,0.6 -0.1,1.2 -0.4,1.7c-0.2,0.5 -0.4,1.1 -0.8,1.6c-0.3,0.5 -0.7,0.9 -1.1,1.4c-0.4,0.4 -0.9,0.8 -1.3,1.1c-0.9,0.6 -1.8,1.1 -2.6,1.4c-1.6,0.5 -2.8,0.6 -2.8,0.6z" fill="#59402f"/><path d="M210.9901,165.2c0,0 0.7,-0.7 1.5,-2.1c0.2,-0.3 0.4,-0.7 0.6,-1.1c0.2,-0.4 0.4,-0.8 0.5,-1.3c0.1,-0.2 0.2,-0.4 0.2,-0.7c0.1,-0.2 0.1,-0.5 0.2,-0.7c0.1,-0.5 0.2,-1 0.3,-1.5c0.1,-0.5 0.1,-1 0.1,-1.5c0,-0.5 0,-1 -0.1,-1.5c-0.1,-0.5 -0.1,-0.9 -0.2,-1.4c-0.1,-0.4 -0.2,-0.8 -0.3,-1.2c-0.1,-0.4 -0.2,-0.7 -0.3,-1c-0.1,-0.3 -0.2,-0.6 -0.2,-0.8c-0.1,-0.2 -0.2,-0.4 -0.2,-0.4c0,0 0.1,0.2 0.3,0.6c0.1,0.2 0.2,0.5 0.4,0.7c0.2,0.3 0.3,0.6 0.4,1c0.1,0.4 0.3,0.8 0.4,1.2c0.1,0.4 0.2,0.9 0.3,1.4c0,0.5 0.1,1 0.1,1.5c0,0.5 0,1 -0.1,1.6c-0.1,0.5 -0.2,1 -0.3,1.5c-0.1,0.2 -0.1,0.5 -0.2,0.7c-0.1,0.2 -0.2,0.5 -0.3,0.7c-0.2,0.5 -0.4,0.9 -0.6,1.3c-0.2,0.4 -0.5,0.7 -0.7,1.1c-0.5,0.6 -0.9,1.1 -1.3,1.4c-0.3,0.3 -0.5,0.5 -0.5,0.5z" fill="#59402f"/><path d="M218.4901,154.9c0,0 -0.2,-0.2 -0.4,-0.5c-0.2,-0.4 -0.6,-0.9 -0.9,-1.6c-0.3,-0.7 -0.6,-1.5 -0.8,-2.4c-0.2,-0.9 -0.4,-1.9 -0.5,-2.8c-0.1,-0.5 -0.1,-1 -0.1,-1.5c0,-0.5 -0.1,-1 -0.1,-1.4c-0.1,-0.9 0,-1.8 0,-2.5c0,-0.7 0.1,-1.3 0.1,-1.8c0,-0.4 0.1,-0.7 0.1,-0.7c0,0 0,0.2 0.1,0.7c0,0.4 0.1,1 0.1,1.8c0,0.7 0.1,1.6 0.2,2.5c0.1,0.9 0.2,1.9 0.3,2.8c0.1,1 0.2,1.9 0.4,2.8c0.2,0.9 0.4,1.7 0.6,2.4c0.2,0.7 0.4,1.2 0.6,1.6c0.2,0.3 0.3,0.6 0.3,0.6z" fill="#59402f"/><path d="M192.0901,108.7c0,0 0.4,-0.1 1.1,-0.2c0.3,0 0.8,0 1.2,0c0.5,0 1,0.1 1.6,0.2c0.6,0.1 1.2,0.2 1.9,0.4c0.6,0.2 1.3,0.3 2,0.6c0.7,0.2 1.4,0.5 2.1,0.8c0.7,0.3 1.4,0.7 2.1,1c0.7,0.3 1.4,0.8 2,1.1c0.7,0.4 1.3,0.8 1.9,1.2c1.2,0.8 2.3,1.6 3.2,2.3c0.5,0.3 0.9,0.7 1.2,1c0.4,0.3 0.7,0.6 0.9,0.8c0.5,0.4 0.8,0.7 0.8,0.7c0,0 -0.3,-0.2 -0.9,-0.6c-0.3,-0.2 -0.6,-0.4 -1,-0.7c-0.4,-0.3 -0.8,-0.6 -1.3,-0.9c-0.5,-0.3 -1,-0.7 -1.6,-1c-0.5,-0.4 -1.2,-0.7 -1.8,-1.1c-0.6,-0.4 -1.2,-0.8 -1.9,-1.1c-0.7,-0.4 -1.3,-0.8 -2,-1.1c-0.7,-0.3 -1.4,-0.7 -2.1,-1c-0.7,-0.3 -1.4,-0.6 -2,-0.9c-1.2,-0.6 -2.4,-1 -3.6,-1.2c-0.6,-0.1 -1.1,-0.2 -1.6,-0.3c-0.5,-0.1 -0.9,-0.1 -1.2,-0.1c-0.6,0 -1,0.1 -1,0.1z" fill="#59402f"/></g><g><path d="M179.0901,111.5c0,0 1.7,-8.2 6.3,-8.8c4.6,-0.6 15.3,3.9 7.2,16.6" fill="#8d674a"/><path d="M185.5901,105.3c0,0 0.4,0.6 0.7,1.5c0.2,0.5 0.4,1 0.5,1.6c0.2,0.5 0.3,1.2 0.3,1.9c0,0.3 0,0.7 0,1c-0.1,0.3 -0.1,0.7 -0.2,1c-0.1,0.3 -0.2,0.6 -0.3,0.9c-0.1,0.3 -0.2,0.5 -0.4,0.7c-0.3,0.4 -0.5,0.7 -0.8,0.9c-0.2,0.2 -0.3,0.3 -0.3,0.3c0,0 0.1,-0.1 0.2,-0.4c0.1,-0.1 0.2,-0.3 0.3,-0.4c0.1,-0.2 0.2,-0.4 0.3,-0.6c0.1,-0.2 0.2,-0.5 0.2,-0.7c0.1,-0.3 0.1,-0.5 0.2,-0.8c0.1,-0.3 0.1,-0.6 0.1,-0.9c0,-0.3 0,-0.6 0,-0.9c0,-0.6 -0.1,-1.3 -0.2,-1.8c-0.1,-0.6 -0.2,-1.1 -0.3,-1.6c-0.1,-1.1 -0.3,-1.7 -0.3,-1.7z" fill="#59402f"/><g fill="#59402f"><path d="M187.8901,114.3c0,0 0,0.2 -0.1,0.3c-0.1,0.2 -0.2,0.4 -0.4,0.6c-0.2,0.2 -0.4,0.4 -0.6,0.5c-0.2,0.1 -0.3,0.1 -0.3,0.1c0,0 0,-0.2 0.1,-0.3c0.1,-0.2 0.2,-0.4 0.4,-0.6c0.2,-0.2 0.4,-0.4 0.6,-0.5c0.1,-0.1 0.3,-0.1 0.3,-0.1z"/><path d="M189.0901,115.6c0,0 0,0.1 -0.1,0.3c-0.1,0.2 -0.2,0.3 -0.3,0.5c-0.1,0.1 -0.3,0.3 -0.5,0.3c-0.2,0.1 -0.3,0.1 -0.3,0.1c0,0 0,-0.1 0.1,-0.3c0.1,-0.2 0.2,-0.3 0.3,-0.5c0.1,-0.1 0.3,-0.3 0.5,-0.3c0.1,-0.1 0.3,-0.1 0.3,-0.1z"/></g><path d="M191.9901,104.4c0,0 -0.3,-0.1 -0.7,-0.4c-0.5,-0.2 -1.2,-0.5 -2,-0.7c-0.2,-0.1 -0.4,-0.1 -0.7,-0.2c-0.2,0 -0.5,-0.1 -0.7,-0.1c-0.2,0 -0.5,0 -0.8,0c-0.3,0 -0.5,0 -0.8,0c-0.3,0 -0.5,0.1 -0.8,0.1c-0.3,0.1 -0.5,0.2 -0.8,0.2c-0.3,0.1 -0.5,0.2 -0.8,0.3c-0.2,0.1 -0.5,0.2 -0.7,0.4c-0.4,0.4 -0.9,0.7 -1.2,1.1c-0.4,0.4 -0.7,0.8 -1,1.3c-0.2,0.5 -0.6,0.9 -0.7,1.4c-0.2,0.5 -0.4,0.9 -0.6,1.3c-0.2,0.4 -0.3,0.8 -0.4,1.1c-0.1,0.3 -0.2,0.6 -0.3,0.9c-0.2,0.5 -0.3,0.8 -0.3,0.8c0,0 0,-0.3 0.1,-0.8c0,-0.3 0.1,-0.6 0.2,-0.9c0.1,-0.4 0.1,-0.8 0.3,-1.2c0.1,-0.4 0.3,-0.9 0.5,-1.4c0.1,-0.5 0.4,-1 0.7,-1.5c0.2,-0.5 0.6,-1 1,-1.5c0.3,-0.5 0.9,-0.9 1.3,-1.3c0.2,-0.2 0.5,-0.3 0.8,-0.5c0.3,-0.1 0.5,-0.3 0.8,-0.4c0.3,-0.1 0.6,-0.2 0.9,-0.2c0.3,0 0.6,-0.1 0.9,-0.1c0.3,0 0.6,0 0.8,0c0.3,0 0.5,0 0.8,0.1c0.3,0.1 0.5,0.1 0.7,0.2c0.2,0.1 0.5,0.2 0.7,0.2c0.4,0.1 0.8,0.3 1.1,0.5c0.6,0.6 0.8,0.7 1.1,0.9c0.4,0.2 0.6,0.4 0.6,0.4z" fill="#59402f"/></g></g></g></g></svg>