<svg version="1.1" xmlns="http://www.w3.org/2000/svg" xmlns:xlink="http://www.w3.org/1999/xlink" width="225.0901" height="157.57971" viewBox="0,0,225.0901,157.57971"><g transform="translate(-128.9,-102.4)"><g data-paper-data="{&quot;isPaintingLayer&quot;:true}" fill-rule="nonzero" stroke="none" stroke-width="1" stroke-linecap="butt" stroke-linejoin="miter" stroke-miterlimit="10" stroke-dasharray="" stroke-dashoffset="0" style="mix-blend-mode: normal"><g data-paper-data="{&quot;index&quot;:null}"><g fill="#856045"><path d="M247.0901,195.3c-3.8,22.7 -27.5,59.1 -30.7,60.3c-3.2,1.2 -27.4,-2.6 -26,-5.6c1.4,-3 6.1,-4.2 8.1,-6.7c2,-2.5 7.8,-25.9 8.5,-32.4c0.6,-6.5 -4.1,-13.4 -2.5,-36.2c1.6,-22.8 47.6,-26.1 42.6,20.6z"/><path d="M244.3901,173.4c0,0 4.7,11.9 7,12.4c0,0 -2.7,1.1 -3.9,-0.9c0,0 3.7,3 3.5,7.5l-2.5,-1.8c0,0 2.1,7.2 0.5,11.3l-1.8,-3.8c0,0 1.4,7.1 -3.7,9.4"/></g><path d="M251.2901,185.7c0,0 -0.2,0 -0.5,-0.2c-0.3,-0.2 -0.7,-0.5 -1,-0.9c-0.8,-0.9 -1.6,-2.1 -2.3,-3.5c-0.3,-0.7 -0.7,-1.4 -0.9,-2c-0.3,-0.7 -0.5,-1.3 -0.7,-1.8c-0.4,-1.1 -0.6,-1.8 -0.6,-1.8c0,0 0.4,0.7 0.9,1.7c0.5,1 1.2,2.3 1.9,3.7c0.3,0.7 0.7,1.3 1,1.9c0.3,0.6 0.7,1.2 1,1.6c0.3,0.5 0.6,0.8 0.8,1.1c0.2,0.1 0.4,0.2 0.4,0.2z" fill="#59402f"/><path d="M250.7901,192.3c0,0 -0.1,-0.5 -0.2,-1.1c-0.2,-0.6 -0.4,-1.5 -0.7,-2.3c-0.1,-0.4 -0.3,-0.8 -0.5,-1.2c-0.2,-0.4 -0.4,-0.7 -0.5,-1c-0.2,-0.3 -0.3,-0.5 -0.4,-0.7c-0.1,-0.2 -0.2,-0.3 -0.2,-0.3c0,0 0.1,0.1 0.3,0.2c0.2,0.1 0.4,0.3 0.7,0.5c0.3,0.2 0.5,0.6 0.8,0.9c0.2,0.4 0.4,0.8 0.6,1.2c0.1,0.4 0.3,0.9 0.3,1.3c0.1,0.4 0.1,0.8 0.1,1.2c-0.1,0.9 -0.3,1.3 -0.3,1.3z" fill="#59402f"/><path d="M248.8901,201.5c0,0 0.3,-0.6 0.4,-1.6c0.1,-0.5 0.1,-1.1 0.1,-1.7c0,-0.6 0,-1.3 -0.1,-2c-0.1,-0.7 -0.1,-1.3 -0.2,-2c-0.1,-0.6 -0.2,-1.2 -0.3,-1.7c-0.1,-0.5 -0.1,-0.9 -0.2,-1.2c0,-0.3 -0.1,-0.5 -0.1,-0.5c0,0 0.1,0.2 0.2,0.4c0.1,0.3 0.3,0.7 0.4,1.2c0.2,0.5 0.3,1.1 0.5,1.7c0.2,0.6 0.2,1.3 0.3,2c0.1,0.7 0.1,1.4 0,2.1c0,0.7 -0.2,1.3 -0.3,1.8c-0.1,0.5 -0.3,0.9 -0.5,1.2c-0.1,0.1 -0.2,0.3 -0.2,0.3z" fill="#59402f"/><path d="M215.2901,255.6c0,0 0.2,0.1 0.7,0c0.4,-0.1 1,-0.5 1.6,-1c0.6,-0.6 1.3,-1.4 1.9,-2.4c0.6,-1 1.3,-2.1 2.1,-3.4c1.6,-2.5 3.4,-5.3 5.3,-8.4c1.9,-3.1 4,-6.4 5.9,-9.8c1,-1.7 1.9,-3.4 2.8,-5.1c0.9,-1.7 1.7,-3.4 2.5,-5c0.7,-1.7 1.4,-3.3 2,-4.8c0.6,-1.6 1.2,-3 1.7,-4.4c1,-2.7 1.9,-5 2.4,-6.6c0.5,-1.6 0.8,-2.6 0.8,-2.6c0,0 -0.2,1 -0.7,2.6c-0.5,1.6 -1.2,4 -2.2,6.7c-0.5,1.4 -1,2.9 -1.6,4.4c-0.6,1.6 -1.2,3.2 -1.9,4.9c-0.7,1.7 -1.6,3.4 -2.4,5.1c-0.9,1.7 -1.8,3.4 -2.8,5.1c-1.9,3.4 -4,6.7 -6,9.8c-2,3.1 -3.9,5.9 -5.5,8.3c-0.8,1.2 -1.5,2.3 -2.2,3.3c-0.7,1 -1.4,1.7 -2,2.3c-0.7,0.6 -1.3,0.9 -1.7,1c-0.4,0.1 -0.7,0 -0.7,0z" fill="#59402f"/><path d="M243.5901,207.3c0,0 0.6,-0.3 1.2,-1c0.3,-0.4 0.6,-0.8 0.8,-1.3c0.2,-0.5 0.4,-1.1 0.6,-1.7c0.1,-0.3 0.1,-0.6 0.2,-0.9c0.1,-0.3 0.1,-0.6 0.2,-0.9c0.1,-0.6 0.1,-1.1 0.2,-1.6c0.1,-0.5 0.1,-0.9 0.1,-1.1c0,-0.3 0.1,-0.4 0.1,-0.4c0,0 0,0.2 0.1,0.4c0,0.3 0.1,0.7 0.1,1.2c0,0.5 0.1,1 0,1.6c0,0.3 0,0.6 -0.1,0.9c-0.1,0.3 -0.1,0.6 -0.2,1c-0.2,0.6 -0.4,1.3 -0.7,1.8c-0.1,0.3 -0.3,0.5 -0.5,0.7c-0.2,0.2 -0.4,0.4 -0.6,0.6c-0.4,0.3 -0.7,0.5 -1,0.6c-0.3,0.1 -0.5,0.1 -0.5,0.1z" fill="#59402f"/><path d="M197.1901,253.1c0,0 0,-0.3 0.2,-0.8c0.2,-0.5 0.6,-1 1.1,-1.5c0.5,-0.5 1.1,-0.8 1.5,-1c0.5,-0.2 0.8,-0.2 0.8,-0.2c0,0 -0.1,0.1 -0.2,0.2c-0.1,0.1 -0.3,0.2 -0.4,0.4c-0.4,0.3 -0.8,0.7 -1.3,1.1c-0.4,0.4 -0.9,0.9 -1.2,1.2c-0.3,0.3 -0.5,0.6 -0.5,0.6z" fill="#59402f"/><path d="M191.7901,251.4c0,0 0.1,-0.4 0.4,-0.9c0.3,-0.5 0.8,-1.1 1.4,-1.6c0.3,-0.2 0.6,-0.5 1,-0.6c0.3,-0.2 0.7,-0.3 0.9,-0.3c0.3,-0.1 0.5,-0.1 0.7,-0.1c0.2,0 0.3,0 0.3,0c0,0 -0.1,0.1 -0.2,0.1c-0.1,0.1 -0.3,0.2 -0.6,0.3c-0.5,0.3 -1.1,0.7 -1.6,1.1c-0.6,0.4 -1.1,0.9 -1.5,1.3c-0.5,0.4 -0.8,0.7 -0.8,0.7z" fill="#59402f"/><path d="M194.6901,246.2c0,0 0.2,-0.1 0.6,-0.3c0.4,-0.2 1,-0.5 1.6,-1.1c0.6,-0.5 1.4,-1.3 2,-2.3c0.6,-1 1,-2.2 1.3,-3.7c0.7,-2.8 1.7,-6.1 2.7,-9.6c1,-3.5 2,-7.2 2.7,-11c0.4,-1.9 0.7,-3.8 0.8,-5.7c0.1,-1.9 0.1,-3.8 -0.1,-5.6c-0.3,-3.6 -0.9,-7 -1.3,-9.8c-0.4,-2.9 -0.7,-5.3 -0.7,-7c0,-0.9 0,-1.5 0,-2c0,-0.5 0,-0.7 0,-0.7c0,0 0,0.2 0,0.7c0,0.5 0,1.1 0.1,2c0.1,0.8 0.2,1.9 0.3,3c0.2,1.2 0.4,2.5 0.6,3.9c0.5,2.9 1.2,6.2 1.5,9.8c0.2,1.8 0.3,3.7 0.1,5.6c-0.1,1.9 -0.4,3.9 -0.8,5.8c-0.8,3.8 -1.8,7.6 -2.8,11.1c-1,3.5 -2.1,6.7 -2.9,9.5c-0.2,0.7 -0.4,1.4 -0.6,2c-0.2,0.6 -0.5,1.2 -0.9,1.7c-0.7,1 -1.4,1.7 -2.1,2.3c-0.7,0.5 -1.3,0.8 -1.7,1c-0.2,0.3 -0.4,0.4 -0.4,0.4z" fill="#59402f"/><path d="M197.8901,254.6c0.1,-0.6 1.5,-3.1 2.6,-2.8c1.1,0.3 0.1,1.2 -0.5,1.8c-0.7,0.6 -2.2,1.4 -2.1,1z" fill="#6c5f57"/><path d="M192.5901,253c0.1,-0.6 1.5,-3.1 2.6,-2.8c1.1,0.3 0.1,1.2 -0.5,1.8c-0.7,0.6 -2.2,1.4 -2.1,1z" fill="#6c5f57"/><path d="M189.3901,251.4c0.1,-0.6 1.5,-3.1 2.6,-2.8c1.1,0.3 0.1,1.2 -0.5,1.8c-0.7,0.6 -2.2,1.4 -2.1,1z" fill="#6c5f57"/></g><g data-paper-data="{&quot;index&quot;:null}"><path d="M297.4901,144.4c16.8,-5.1 22.2,8.2 24.9,15.6c2.7,7.4 -5.7,24.6 -7.3,33.7c-1.6,9.1 -4.5,16.4 -0.6,28.7c5,15.6 1.3,29.3 -0.6,29.9c-16.1,4.7 -23.5,2.9 -24.9,1.2c-1.4,-1.7 1.4,-3 3.3,-5.5c2,-2.4 -5.2,-9.2 -12.3,-22.7c-14.1,-27 -1.8,-51.9 -1.8,-51.9c0.2,-6.3 2.5,-23.9 19.3,-29z" fill="#856045"/><g><path d="M297.0901,255.1c0,0 0,-0.3 0.1,-0.8c0.1,-0.5 0.4,-1.1 0.9,-1.6c0.4,-0.5 1,-0.9 1.4,-1.2c0.4,-0.2 0.8,-0.3 0.8,-0.3c0,0 0,0.1 -0.1,0.2c-0.1,0.1 -0.2,0.3 -0.4,0.4c-0.3,0.4 -0.7,0.8 -1.1,1.3c-0.4,0.5 -0.8,1 -1,1.4c-0.4,0.3 -0.6,0.6 -0.6,0.6z" fill="#59402f"/><path d="M291.5901,254.5c0,0 0.1,-0.4 0.3,-0.9c0.2,-0.5 0.7,-1.2 1.2,-1.8c0.3,-0.3 0.6,-0.5 0.9,-0.7c0.3,-0.2 0.6,-0.4 0.9,-0.5c0.3,-0.1 0.5,-0.2 0.7,-0.2c0.2,0 0.3,0 0.3,0c0,0 -0.1,0.1 -0.2,0.2c-0.1,0.1 -0.3,0.2 -0.5,0.4c-0.4,0.3 -1,0.8 -1.5,1.3c-0.5,0.5 -1,1.1 -1.4,1.5c-0.5,0.5 -0.7,0.7 -0.7,0.7z" fill="#59402f"/><path d="M297.8901,256.5c0.1,-0.6 1.2,-3.2 2.3,-3.1c1.1,0.1 0.3,1.2 -0.3,1.8c-0.6,0.7 -2,1.7 -2,1.3z" fill="#665a52"/><path d="M292.4901,255.6c0.1,-0.6 1.2,-3.2 2.3,-3.1c1.1,0.1 0.3,1.2 -0.3,1.8c-0.6,0.7 -2,1.7 -2,1.3z" fill="#665a52"/><path d="M289.0901,255.1c0.1,-0.6 1.2,-3.2 2.3,-3.1c1.1,0.1 0.3,1.2 -0.3,1.8c-0.6,0.6 -2,1.6 -2,1.3z" fill="#665a52"/></g><path d="M315.2901,223.7c0,0 0.6,2.1 1.1,5.4c0.3,1.6 0.5,3.6 0.7,5.6c0.2,2.1 0.3,4.3 0.2,6.5c0,1.1 -0.1,2.2 -0.2,3.3c-0.1,1.1 -0.3,2.2 -0.6,3.2c-0.3,1 -0.6,2 -1.1,2.8c-0.2,0.4 -0.5,0.8 -0.8,1.2c-0.4,0.2 -0.8,0.3 -1.2,0.5c-1.6,0.5 -2.9,0.9 -3.9,1.1c-0.9,0.2 -1.5,0.4 -1.5,0.4c0,0 0.5,-0.2 1.5,-0.4c0.9,-0.3 2.3,-0.7 3.8,-1.2c0.4,-0.1 0.8,-0.3 1.2,-0.5c0.2,-0.3 0.5,-0.7 0.7,-1.1c0.4,-0.9 0.7,-1.8 0.9,-2.8c0.4,-2 0.6,-4.2 0.6,-6.4c0,-2.2 0,-4.4 -0.2,-6.5c-0.1,-2.1 -0.3,-4 -0.5,-5.6c-0.4,-3.3 -0.7,-5.5 -0.7,-5.5z" fill="#59402f"/><path d="M274.2901,186.5c0,0 0.1,4.3 0.6,10.8c0.2,3.2 0.5,7 1,11.1c0.5,4 1,8.4 2.3,12.5c0.3,1 0.7,2 1.2,2.9c0.5,0.9 1.1,1.9 1.6,2.8c1.1,1.8 2.3,3.6 3.4,5.2c2.3,3.4 4.5,6.5 6.2,9.3c0.8,1.4 1.6,2.7 2.1,4c0.3,0.6 0.4,1.3 0.3,1.9c-0.1,0.6 -0.4,1.1 -0.7,1.5c-0.6,0.7 -1.3,1.1 -1.7,1.4c-0.4,0.3 -0.7,0.4 -0.7,0.4c0,0 0.2,-0.2 0.6,-0.5c0.4,-0.3 1,-0.7 1.6,-1.5c0.3,-0.4 0.5,-0.8 0.6,-1.4c0,-0.5 -0.1,-1.1 -0.4,-1.7c-0.5,-1.2 -1.3,-2.5 -2.1,-3.9c-1.7,-2.7 -4,-5.8 -6.3,-9.2c-1.2,-1.7 -2.3,-3.4 -3.5,-5.2c-0.6,-0.9 -1.1,-1.9 -1.6,-2.8c-0.5,-1 -0.9,-2 -1.3,-3.1c-0.6,-2.1 -1,-4.3 -1.4,-6.4c-0.3,-2.1 -0.6,-4.2 -0.8,-6.2c-0.4,-4.1 -0.6,-7.9 -0.8,-11.1c-0.2,-6.4 -0.2,-10.8 -0.2,-10.8z" fill="#59402f"/></g><g data-paper-data="{&quot;index&quot;:null}"><g><path d="M331.7901,139.8c0,0 10.4,-3.7 21.1,11.8c0,0 -3.1,-2.5 -5,-2.5c0,0 4.9,1.7 6.1,10c0,0 -1.9,-3.3 -3.3,-3.6c0,0 6.9,9.3 -3.2,11.1c-10,1.8 -18.1,-24.5 -15.7,-26.8z" fill="#8d674a"/><path d="M352.9901,151.6c0,0 -0.2,-0.3 -0.6,-0.8c-0.4,-0.5 -1,-1.2 -1.7,-2c-0.7,-0.8 -1.6,-1.7 -2.6,-2.7c-0.5,-0.5 -1,-0.9 -1.5,-1.4c-0.5,-0.5 -1.1,-0.9 -1.7,-1.3c-0.6,-0.4 -1.2,-0.8 -1.8,-1.2c-0.6,-0.3 -1.2,-0.7 -1.8,-1c-0.6,-0.2 -1.2,-0.6 -1.8,-0.7c-0.6,-0.2 -1.1,-0.4 -1.7,-0.5c-0.5,-0.1 -1,-0.2 -1.4,-0.3c-0.4,-0.1 -0.8,0 -1.1,-0.1c-0.6,0 -1,0 -1,0c0,0 0.4,0 1,-0.1c0.3,0 0.7,-0.1 1.2,-0.1c0.4,0 0.9,0.1 1.5,0.1c0.5,0.1 1.1,0.3 1.7,0.4c0.6,0.1 1.2,0.4 1.9,0.7c0.6,0.3 1.2,0.6 1.9,1c0.6,0.4 1.2,0.8 1.8,1.2c0.6,0.5 1.2,0.9 1.7,1.4c0.5,0.5 1.1,1 1.5,1.5c1,1 1.8,2 2.4,2.8c1.4,1.8 2.1,3.1 2.1,3.1z" fill="#59402f"/><path d="M347.9901,149.1c0,0 0.7,0.3 1.6,1c0.5,0.4 0.9,0.8 1.4,1.3c0.5,0.5 1,1.1 1.4,1.8c0.4,0.7 0.8,1.3 1,2c0.1,0.3 0.2,0.7 0.3,1c0.1,0.3 0.2,0.6 0.2,0.9c0.1,0.6 0.1,1 0.1,1.4c0,0.3 0,0.5 0,0.5c0,0 0,-0.2 -0.1,-0.5c0,-0.2 -0.1,-0.4 -0.1,-0.6c-0.1,-0.2 -0.2,-0.5 -0.2,-0.7c-0.1,-0.3 -0.2,-0.5 -0.3,-0.8c-0.1,-0.3 -0.2,-0.6 -0.4,-0.9c-0.1,-0.3 -0.3,-0.6 -0.5,-0.9c-0.2,-0.3 -0.4,-0.6 -0.6,-0.9c-0.8,-1.2 -1.8,-2.4 -2.5,-3.2c-0.8,-0.9 -1.3,-1.4 -1.3,-1.4z" fill="#59402f"/><path d="M350.7901,155.5c0,0 0.5,0.4 1,1.1c0.3,0.4 0.6,0.8 0.8,1.3c0.3,0.5 0.5,1.1 0.6,1.7c0.1,0.6 0.2,1.2 0.1,1.8c0,0.3 -0.1,0.6 -0.2,0.8c-0.1,0.3 -0.1,0.5 -0.2,0.7c-0.2,0.4 -0.4,0.8 -0.5,1c-0.1,0.2 -0.2,0.3 -0.2,0.3c0,0 0,-0.1 0.1,-0.4c0,-0.1 0.1,-0.3 0.2,-0.4c0,-0.2 0.1,-0.4 0.1,-0.6c0.1,-0.2 0.1,-0.4 0.1,-0.7c0,-0.2 0.1,-0.5 0.1,-0.8c0,-0.3 0,-0.5 0,-0.8c0,-0.3 -0.1,-0.6 -0.1,-0.8c-0.1,-0.6 -0.3,-1.1 -0.5,-1.6c-0.2,-0.5 -0.4,-1 -0.6,-1.4c-0.4,-0.7 -0.8,-1.2 -0.8,-1.2z" fill="#59402f"/></g><g><path d="M217.3901,196.4c-3,2 -9.8,-3.7 -9.8,-3.7l-1.2,2c0,-3.4 -7.4,-7.9 -7.4,-7.9l0.8,2.6c-6.5,-2.5 -7.6,-11.3 -7.6,-11.3l-0.2,2.8c-3.5,-3.1 -3.5,-10.9 -3.5,-10.9" fill="#8d674a"/><g><path d="M210.6901,115c18.8,-6.4 43,3 54.4,7.1c16.5,5.9 36.1,-10.3 63.2,11.4c27.1,21.7 22.2,54.6 2.2,71c-22.3,18.3 -101.8,19.2 -116.2,-9c0,0 -26.4,-9.9 -27.9,-37.2" fill="#8d674a"/><path d="M188.2901,170.1c0,0 0.2,0.7 0.4,1.7c0.2,1 0.5,2.4 0.8,3.8c0.1,0.3 0.2,0.7 0.3,1c0.1,0.3 0.2,0.7 0.3,1c0.2,0.6 0.4,1.2 0.6,1.7c0.1,0.2 0.2,0.5 0.3,0.6c0.1,0.2 0.2,0.4 0.3,0.4c0.2,0.2 0.3,0.4 0.3,0.4c0,0 -0.1,-0.1 -0.4,-0.3c-0.1,-0.1 -0.3,-0.2 -0.4,-0.4c-0.2,-0.2 -0.3,-0.4 -0.5,-0.6c-0.3,-0.4 -0.6,-1 -0.9,-1.6c-0.3,-0.6 -0.5,-1.3 -0.6,-2c-0.3,-1.4 -0.5,-2.8 -0.6,-3.9c0.1,-1.1 0.1,-1.8 0.1,-1.8z" fill="#59402f"/><path d="M192.1901,178.1c0,0 0.2,0.9 0.7,2.1c0.2,0.6 0.5,1.4 0.8,2.1c0.2,0.4 0.4,0.8 0.5,1.1c0.2,0.4 0.4,0.8 0.6,1.1c0.2,0.4 0.5,0.7 0.7,1.1c0.3,0.3 0.5,0.7 0.8,1c0.3,0.3 0.5,0.6 0.8,0.9c0.3,0.2 0.5,0.5 0.8,0.7c0.3,0.2 0.5,0.4 0.7,0.6c0.2,0.1 0.4,0.3 0.6,0.4c0.3,0.2 0.5,0.3 0.5,0.3c0,0 -0.2,-0.1 -0.6,-0.2c-0.2,-0.1 -0.4,-0.2 -0.7,-0.3c-0.2,-0.1 -0.5,-0.3 -0.8,-0.4c-0.3,-0.2 -0.6,-0.4 -0.9,-0.6c-0.3,-0.2 -0.6,-0.5 -0.9,-0.8c-0.3,-0.3 -0.6,-0.6 -0.9,-1c-0.3,-0.3 -0.5,-0.7 -0.8,-1.1c-0.5,-0.8 -0.9,-1.6 -1.2,-2.4c-0.3,-0.8 -0.5,-1.6 -0.7,-2.2c0,-1.5 0,-2.4 0,-2.4z" fill="#59402f"/><path d="M198.9901,187c0,0 0.7,0.2 1.6,0.7c0.5,0.3 1,0.6 1.5,1c0.5,0.4 1.1,0.8 1.6,1.3c0.5,0.5 1,1 1.4,1.6c0.4,0.5 0.7,1.1 0.9,1.6c0.1,0.3 0.2,0.5 0.2,0.7c0.1,0.2 0.1,0.4 0.1,0.5c0.1,0.3 0.1,0.5 0.1,0.5c0,0 -0.1,-0.2 -0.2,-0.4c-0.1,-0.1 -0.1,-0.3 -0.2,-0.5c-0.1,-0.2 -0.2,-0.4 -0.4,-0.6c-0.1,-0.2 -0.3,-0.4 -0.5,-0.7c-0.2,-0.2 -0.4,-0.5 -0.6,-0.7c-0.4,-0.5 -0.9,-1 -1.4,-1.4c-0.5,-0.5 -1,-0.9 -1.5,-1.3c-0.5,-0.4 -1,-0.8 -1.4,-1.1c-0.6,-0.8 -1.2,-1.2 -1.2,-1.2z" fill="#59402f"/><path d="M207.5901,192.9c0,0 0.6,0.4 1.5,1c0.5,0.3 1,0.6 1.6,0.9c0.6,0.3 1.2,0.7 1.8,1c0.6,0.3 1.3,0.6 1.9,0.8c0.3,0.1 0.6,0.2 0.9,0.3c0.3,0.1 0.6,0.1 0.8,0.2c0.3,0 0.5,0.1 0.7,0.1c0.2,0 0.4,0 0.6,0c0.3,0 0.5,0 0.5,0c0,0 -0.2,0 -0.5,0.1c-0.2,0 -0.3,0.1 -0.6,0.1c-0.2,0 -0.5,0 -0.7,0c-0.5,0 -1.2,-0.1 -1.8,-0.3c-0.7,-0.2 -1.3,-0.4 -2,-0.7c-0.6,-0.3 -1.3,-0.7 -1.8,-1.1c-0.6,-0.4 -1.1,-0.8 -1.5,-1.1c-0.9,-0.8 -1.4,-1.3 -1.4,-1.3z" fill="#59402f"/><path d="M231.6901,113.2c0,0 3.1,0.2 7.7,1c2.3,0.4 5,0.9 7.8,1.6c2.8,0.7 5.8,1.5 8.8,2.5c3,1 5.8,2.3 8.5,3.3c1.4,0.5 2.7,0.9 4,1.1c0.6,0.1 1.3,0.2 1.9,0.3c0.6,0.1 1.2,0.1 1.8,0.2c1.1,0.1 2.2,0.1 3.1,0.2c0.9,0 1.8,0 2.4,0c1.4,0 2.1,0 2.1,0c0,0 -0.8,0.1 -2.1,0.2c-0.7,0.1 -1.5,0.1 -2.4,0.1c-0.9,0 -2,0 -3.2,0c-0.6,0 -1.2,-0.1 -1.8,-0.1c-0.6,-0.1 -1.3,-0.2 -1.9,-0.3c-1.3,-0.2 -2.7,-0.6 -4.1,-1c-1.4,-0.4 -2.8,-1 -4.2,-1.6c-1.4,-0.6 -2.8,-1.1 -4.3,-1.6c-1.5,-0.5 -2.9,-0.9 -4.4,-1.3c-1.5,-0.4 -2.9,-0.8 -4.3,-1.2c-2.8,-0.7 -5.4,-1.3 -7.7,-1.8c-2.3,-0.5 -4.2,-0.8 -5.5,-1.1c-1.5,-0.4 -2.2,-0.5 -2.2,-0.5z" fill="#59402f"/><path d="M305.6901,122.4c0,0 1.2,0.2 3.2,0.8c2,0.6 4.9,1.6 8.3,3.1c3.3,1.5 7.1,3.5 10.8,6.3c3.7,2.7 7.3,6.2 10.1,10.2c1.4,2 2.6,4.2 3.7,6.3c1.1,2.1 2,4.3 2.8,6.5c0.8,2.2 1.5,4.3 1.9,6.3c0.4,2.1 0.7,4.1 0.7,5.9c0.1,3.7 -0.5,6.7 -0.9,8.8c-0.4,2.1 -0.6,3.3 -0.6,3.3c0,0 0.2,-1.2 0.4,-3.3c0.3,-2.1 0.7,-5.1 0.6,-8.8c-0.1,-1.8 -0.3,-3.8 -0.8,-5.8c-0.5,-2 -1.2,-4.1 -2,-6.2c-0.9,-2.1 -1.8,-4.3 -2.9,-6.4c-1,-2.2 -2.2,-4.2 -3.6,-6.2c-2.8,-4 -6.3,-7.4 -9.9,-10.1c-3.6,-2.7 -7.3,-4.9 -10.6,-6.4c-3.3,-1.6 -6.1,-2.7 -8.2,-3.3c-1.8,-0.7 -3,-1 -3,-1z" fill="#59402f"/><path d="M219.7901,202.7c0,0 0.4,0.3 1,0.7c0.7,0.4 1.7,1.1 3,1.8c0.7,0.4 1.4,0.8 2.2,1.2c0.8,0.4 1.7,0.8 2.7,1.3c1,0.4 2,0.9 3.1,1.4c1.1,0.4 2.3,0.9 3.5,1.4c1.2,0.5 2.5,0.9 3.8,1.4c1.3,0.5 2.7,0.8 4.1,1.3c2.9,0.8 5.9,1.6 9.1,2.2c0.8,0.2 1.6,0.3 2.4,0.5c0.8,0.1 1.6,0.2 2.5,0.4c0.8,0.1 1.7,0.2 2.5,0.4c0.8,0.1 1.7,0.2 2.5,0.2c0.8,0.1 1.7,0.1 2.6,0.2c0.9,0.1 1.7,0.2 2.6,0.2c1.7,0 3.5,0.1 5.2,0.1c3.5,-0.1 6.9,-0.1 10.3,-0.4c3.4,-0.2 6.8,-0.6 10,-0.9c1.6,-0.2 3.2,-0.4 4.8,-0.6c1.6,-0.2 3.1,-0.5 4.5,-0.7c2.9,-0.5 5.7,-1 8.2,-1.6c2.5,-0.6 4.8,-1.2 6.8,-1.9c1,-0.3 1.9,-0.7 2.8,-1c0.8,-0.4 1.6,-0.6 2.3,-1c1.4,-0.6 2.4,-1.2 3.1,-1.7c0.7,-0.5 1,-0.8 1,-0.8c0,0 -0.3,0.3 -1,0.8c-0.7,0.5 -1.7,1.1 -3.1,1.8c-0.7,0.4 -1.5,0.7 -2.3,1c-0.9,0.3 -1.8,0.7 -2.8,1.1c-2,0.7 -4.3,1.4 -6.8,2c-2.5,0.6 -5.3,1.2 -8.3,1.7c-1.5,0.2 -3,0.5 -4.5,0.7c-1.6,0.2 -3.1,0.4 -4.8,0.6c-3.2,0.3 -6.6,0.7 -10,0.9c-3.4,0.3 -6.9,0.3 -10.4,0.5c-1.7,-0.1 -3.5,-0.1 -5.2,-0.2c-0.9,0 -1.7,-0.1 -2.6,-0.2c-0.9,-0.1 -1.7,-0.2 -2.6,-0.2c-0.9,-0.1 -1.7,-0.1 -2.5,-0.3c-0.8,-0.1 -1.7,-0.2 -2.5,-0.4c-0.8,-0.1 -1.7,-0.2 -2.5,-0.4c-0.8,-0.1 -1.6,-0.3 -2.4,-0.5c-3.2,-0.6 -6.3,-1.4 -9.1,-2.3c-1.4,-0.5 -2.8,-0.9 -4.1,-1.3c-1.3,-0.5 -2.6,-0.9 -3.8,-1.4c-1.2,-0.5 -2.4,-1 -3.4,-1.5c-1.1,-0.5 -2.1,-1 -3,-1.5c-0.9,-0.5 -1.8,-1 -2.6,-1.4c-0.8,-0.5 -1.5,-0.9 -2.2,-1.3c-1.3,-0.8 -2.3,-1.4 -3,-1.9c-0.7,-0.1 -1.1,-0.4 -1.1,-0.4z" fill="#59402f"/></g></g></g><g data-paper-data="{&quot;index&quot;:null}"><path d="M303.3901,194.3c0,0 8.9,9.3 11.2,8.8c0,0 -2,2.1 -4,0.7c0,0 4.6,1.3 6.1,5.7l-3,-0.7c0,0 4.7,5.9 4.7,10.2l-3.2,-2.8c0,0 4,6 0.1,10.1" fill="#856045"/><path d="M314.3901,203.1c0,0 -0.2,0 -0.5,0c-0.3,-0.1 -0.8,-0.2 -1.3,-0.5c-1.1,-0.5 -2.3,-1.4 -3.5,-2.3c-0.6,-0.5 -1.1,-1 -1.6,-1.5c-0.5,-0.5 -1,-1 -1.3,-1.4c-0.7,-0.9 -1.2,-1.5 -1.2,-1.5c0,0 0.6,0.5 1.5,1.2c0.9,0.7 2,1.7 3.2,2.7c0.6,0.5 1.1,1 1.7,1.4c0.5,0.4 1.1,0.8 1.5,1.1c0.5,0.3 0.9,0.6 1.2,0.7c0.1,0.1 0.3,0.1 0.3,0.1z" fill="#59402f"/><path d="M316.4901,209.5c0,0 -0.3,-0.4 -0.6,-0.9c-0.4,-0.5 -0.9,-1.2 -1.5,-1.9c-0.3,-0.3 -0.6,-0.6 -0.9,-0.9c-0.3,-0.3 -0.6,-0.5 -0.9,-0.7c-0.3,-0.2 -0.5,-0.4 -0.7,-0.4c-0.2,-0.1 -0.3,-0.2 -0.3,-0.2c0,0 0.1,0 0.3,0c0.2,0 0.5,0.1 0.8,0.2c0.3,0.1 0.7,0.3 1,0.6c0.4,0.2 0.7,0.6 1,0.9c0.3,0.3 0.6,0.7 0.8,1.1c0.2,0.4 0.4,0.7 0.5,1.1c0.5,0.6 0.5,1.1 0.5,1.1z" fill="#59402f"/><path d="M318.1901,218.6c0,0 0,-0.7 -0.3,-1.7c-0.1,-0.5 -0.3,-1 -0.6,-1.6c-0.2,-0.6 -0.5,-1.2 -0.8,-1.8c-0.3,-0.6 -0.6,-1.2 -1,-1.7c-0.3,-0.6 -0.6,-1.1 -0.9,-1.5c-0.3,-0.4 -0.5,-0.8 -0.6,-1.1c-0.2,-0.3 -0.2,-0.4 -0.2,-0.4c0,0 0.1,0.1 0.3,0.3c0.2,0.2 0.5,0.5 0.9,0.9c0.3,0.4 0.7,0.9 1.1,1.4c0.4,0.5 0.7,1.1 1.1,1.8c0.3,0.6 0.6,1.3 0.8,1.9c0.2,0.6 0.3,1.2 0.4,1.8c0.1,0.5 0,1 0,1.3c-0.2,0.3 -0.2,0.4 -0.2,0.4z" fill="#59402f"/><path d="M316.3901,225c0,0 0.1,-0.1 0.2,-0.3c0.1,-0.2 0.2,-0.6 0.2,-1c0.1,-0.8 -0.1,-1.9 -0.3,-2.9c-0.2,-1.1 -0.6,-2.1 -0.8,-2.9c-0.2,-0.8 -0.4,-1.3 -0.4,-1.3c0,0 0.1,0.1 0.2,0.3c0.1,0.2 0.3,0.5 0.5,0.9c0.2,0.4 0.4,0.8 0.6,1.3c0.1,0.3 0.2,0.5 0.3,0.8c0.1,0.3 0.2,0.5 0.2,0.8c0.1,0.6 0.2,1.1 0.2,1.7c0,0.5 -0.1,1.1 -0.2,1.5c-0.1,0.4 -0.3,0.7 -0.5,0.9c-0.1,0.1 -0.2,0.2 -0.2,0.2z" fill="#59402f"/></g><path d="M305.5901,158.4c4.8,-12.7 33.2,2.5 31.2,11.5c-2.7,12 -4.3,26.8 3.7,36.7c12.6,15.6 12.1,31.6 10.7,33.1c-1.3,1.5 -7.5,6.5 -11.9,8.4c-6.2,2.7 -10.9,1.6 -12.1,1.1c-2,-0.9 2.4,-5.9 3,-8.9c0.6,-3 -23.4,-20.1 -29.6,-26.5c-5.8,-6 -4.2,-31 5,-55.4z" data-paper-data="{&quot;index&quot;:null}" fill="#8d674a"/><g data-paper-data="{&quot;index&quot;:null}"><path d="M326.8901,185.1c0,0 10.3,7.6 12.6,6.8c0,0 -1.7,2.4 -3.8,1.4c0,0 4.7,0.5 7,4.5l-3.1,-0.1c0,0 5.6,5 6.4,9.3l-3.6,-2.2c0,0 4.9,5.3 1.8,9.9" fill="#8d674a"/><path d="M339.2901,191.8c0,0 -0.2,0.1 -0.5,0.1c-0.3,0 -0.8,-0.1 -1.4,-0.2c-1.1,-0.3 -2.5,-1 -3.8,-1.7c-0.7,-0.4 -1.3,-0.8 -1.9,-1.2c-0.6,-0.4 -1.1,-0.8 -1.6,-1.2c-0.9,-0.7 -1.4,-1.2 -1.4,-1.2c0,0 0.7,0.3 1.7,0.9c1,0.6 2.3,1.3 3.6,2.1c0.6,0.4 1.3,0.7 1.9,1.1c0.6,0.3 1.2,0.6 1.7,0.9c0.5,0.2 0.9,0.4 1.3,0.5c0.2,0 0.4,-0.1 0.4,-0.1z" fill="#59402f"/><path d="M342.3901,197.7c0,0 -0.3,-0.3 -0.8,-0.8c-0.5,-0.5 -1.1,-1.1 -1.8,-1.6c-0.3,-0.3 -0.7,-0.5 -1,-0.7c-0.3,-0.2 -0.7,-0.4 -1,-0.5c-0.3,-0.1 -0.5,-0.3 -0.7,-0.3c-0.2,-0.1 -0.3,-0.1 -0.3,-0.1c0,0 0.1,0 0.3,0c0.2,0 0.5,0 0.8,0.1c0.3,0.1 0.7,0.2 1.1,0.4c0.4,0.2 0.8,0.4 1.2,0.7c0.4,0.3 0.7,0.6 1,0.9c0.3,0.3 0.5,0.7 0.7,1c0.4,0.5 0.5,0.9 0.5,0.9z" fill="#59402f"/><path d="M345.5901,206.5c0,0 -0.1,-0.7 -0.6,-1.6c-0.2,-0.5 -0.5,-1 -0.8,-1.5c-0.3,-0.5 -0.7,-1.1 -1.1,-1.6c-0.4,-0.5 -0.8,-1.1 -1.2,-1.6c-0.4,-0.5 -0.8,-0.9 -1.1,-1.3c-0.3,-0.4 -0.6,-0.7 -0.8,-0.9c-0.2,-0.2 -0.3,-0.4 -0.3,-0.4c0,0 0.1,0.1 0.4,0.3c0.2,0.2 0.6,0.4 1,0.8c0.4,0.3 0.9,0.7 1.3,1.2c0.5,0.5 0.9,1 1.3,1.5c0.4,0.6 0.8,1.1 1.1,1.7c0.3,0.6 0.5,1.2 0.7,1.7c0.2,0.5 0.2,1 0.2,1.3c0,0.2 -0.1,0.4 -0.1,0.4z" fill="#59402f"/><path d="M344.8901,213c0,0 0.1,-0.1 0.1,-0.4c0,-0.2 0.1,-0.6 0,-1c-0.1,-0.8 -0.4,-1.8 -0.8,-2.8c-0.4,-1 -0.9,-2 -1.3,-2.7c-0.4,-0.7 -0.6,-1.3 -0.6,-1.3c0,0 0.1,0.1 0.3,0.3c0.2,0.2 0.4,0.4 0.7,0.8c0.2,0.3 0.6,0.7 0.8,1.2c0.1,0.2 0.3,0.5 0.4,0.7c0.1,0.3 0.2,0.5 0.4,0.8c0.2,0.5 0.4,1.1 0.5,1.6c0.1,0.5 0.1,1 0.1,1.5c0,0.4 -0.2,0.8 -0.3,1c-0.1,0.2 -0.3,0.3 -0.3,0.3z" fill="#59402f"/></g><path d="M341.4901,208c0,0 1.7,1.7 3.6,4.7c1,1.5 2,3.3 3,5.3c0.5,1 0.9,2.1 1.3,3.2c0.4,1.1 0.8,2.2 1.1,3.4c0.3,1.1 0.6,2.3 0.8,3.5c0.2,1.2 0.4,2.3 0.5,3.4c0.1,1.1 0.2,2.2 0.2,3.2c0,1 0,2 -0.1,2.9c0,0.4 -0.1,0.9 -0.1,1.3c-0.1,0.5 -0.3,0.8 -0.5,1.1c-0.5,0.6 -1,1 -1.4,1.3c-0.8,0.6 -1.3,0.9 -1.3,0.9c0,0 0.5,-0.3 1.3,-1c0.4,-0.3 0.9,-0.7 1.3,-1.3c0.2,-0.3 0.4,-0.6 0.5,-1c0,-0.4 0,-0.8 0,-1.3c0,-0.9 0,-1.8 -0.1,-2.8c0,-1 -0.1,-2.1 -0.3,-3.2c-0.1,-1.1 -0.3,-2.2 -0.5,-3.3c-0.2,-1.1 -0.5,-2.3 -0.8,-3.4c-0.6,-2.3 -1.4,-4.5 -2.3,-6.5c-0.9,-2 -1.8,-3.8 -2.7,-5.4c-2,-3.1 -3.5,-5 -3.5,-5z" data-paper-data="{&quot;index&quot;:null}" fill="#59402f"/><path d="M298.7901,179.8c0,0 -0.6,4.9 -1,12.2c-0.2,3.7 -0.3,8 0.2,12.5c0.2,2.3 0.6,4.6 1.4,6.9c0.4,1.1 1,2.1 1.9,2.9c0.8,0.9 1.7,1.7 2.6,2.5c3.7,3.3 7.6,6.2 11.2,9c3.7,2.8 7.1,5.4 9.9,7.8c1.4,1.2 2.6,2.4 3.7,3.4c0.5,0.5 1,1.1 1.3,1.7c0.3,0.6 0.4,1.2 0.3,1.8c-0.2,1.1 -0.6,1.8 -0.9,2.3c-0.3,0.5 -0.4,0.8 -0.4,0.8c0,0 0.1,-0.3 0.4,-0.8c0.2,-0.5 0.6,-1.3 0.8,-2.3c0,-0.5 0,-1.1 -0.4,-1.7c-0.3,-0.5 -0.8,-1 -1.3,-1.5c-1.1,-1 -2.3,-2.2 -3.7,-3.3c-2.8,-2.3 -6.3,-4.9 -10,-7.6c-1.8,-1.4 -3.7,-2.8 -5.6,-4.3c-1.9,-1.5 -3.8,-3 -5.7,-4.7c-0.9,-0.8 -1.8,-1.7 -2.7,-2.6c-0.9,-0.9 -1.6,-2 -2,-3.2c-0.9,-2.3 -1.2,-4.7 -1.4,-7c-0.2,-2.3 -0.2,-4.5 -0.2,-6.7c0,-2.1 0.1,-4.1 0.2,-6c0.2,-3.7 0.6,-6.7 0.9,-8.9c0.3,-2 0.5,-3.2 0.5,-3.2z" data-paper-data="{&quot;index&quot;:null}" fill="#59402f"/><g data-paper-data="{&quot;index&quot;:null}"><path d="M334.7901,250c0,0 -0.1,-0.3 0,-0.8c0.1,-0.5 0.3,-1.1 0.7,-1.7c0.4,-0.6 0.8,-1 1.3,-1.3c0.4,-0.3 0.7,-0.4 0.7,-0.4c0,0 0,0.1 -0.1,0.2c-0.1,0.1 -0.2,0.3 -0.3,0.5c-0.3,0.4 -0.6,0.9 -1,1.4c-0.3,0.5 -0.6,1.1 -0.9,1.5c-0.3,0.3 -0.4,0.6 -0.4,0.6z" fill="#59402f"/><path d="M329.0901,250.1c0,0 0,-0.4 0.2,-1c0.2,-0.6 0.5,-1.3 1,-1.9c0.2,-0.3 0.5,-0.6 0.8,-0.8c0.3,-0.2 0.6,-0.4 0.8,-0.6c0.3,-0.1 0.5,-0.2 0.7,-0.3c0.2,-0.1 0.3,-0.1 0.3,-0.1c0,0 -0.1,0.1 -0.2,0.2c-0.1,0.1 -0.3,0.3 -0.5,0.5c-0.4,0.4 -0.9,0.9 -1.3,1.5c-0.4,0.6 -0.9,1.2 -1.2,1.6c-0.3,0.6 -0.6,0.9 -0.6,0.9z" fill="#59402f"/><path d="M335.6901,251.3c0,-0.6 0.8,-3.3 1.9,-3.4c1.1,0 0.4,1.1 -0.1,1.9c-0.5,0.8 -1.8,1.9 -1.8,1.5z" fill="#6c5f57"/><path d="M330.1901,251c0,-0.6 0.8,-3.3 1.9,-3.4c1.1,-0.1 0.4,1.1 -0.1,1.9c-0.5,0.8 -1.8,1.9 -1.8,1.5z" fill="#6c5f57"/><path d="M326.7901,251c0,-0.6 0.8,-3.3 1.9,-3.4c1.1,0 0.4,1.1 -0.1,1.9c-0.5,0.7 -1.8,1.8 -1.8,1.5z" fill="#6c5f57"/></g><g data-paper-data="{&quot;index&quot;:null}"><g fill="#8d674a"><path d="M261.9901,188c5.9,24.4 -2.1,64.9 -4.6,67.2c-2.5,2.3 -28.1,5.6 -28,2.3c0.1,-3.3 5.2,-4 6.1,-7.1c0.9,-3.1 -2.5,-26.3 -4.4,-32.5c-2,-6.2 -9,-10.7 -16.4,-32.4c-7.4,-21.7 33.7,-42.6 47.3,2.5z"/><path d="M251.3901,168.2c0,0 9,9.2 11.3,8.7c0,0 -2,2.1 -4,0.7c0,0 4.6,1.3 6.1,5.6l-3,-0.6c0,0 4.7,5.9 4.8,10.2l-3.2,-2.8c0,0 4,6 0.2,10.1"/></g><g fill="#59402f"><path d="M263.3901,177.2c0,0 -0.2,0 -0.5,0c-0.3,-0.1 -0.8,-0.2 -1.3,-0.5c-1,-0.5 -2.3,-1.4 -3.4,-2.4c-0.6,-0.5 -1.1,-1 -1.6,-1.5c-0.5,-0.5 -0.9,-1 -1.3,-1.4c-0.7,-0.9 -1.2,-1.5 -1.2,-1.5c0,0 0.6,0.5 1.5,1.2c0.9,0.7 2,1.8 3.1,2.7c0.6,0.5 1.1,1 1.7,1.4c0.5,0.4 1.1,0.8 1.5,1.2c0.5,0.3 0.9,0.6 1.2,0.7c0.1,0.1 0.3,0.1 0.3,0.1z"/><path d="M265.3901,183.5c0,0 -0.2,-0.4 -0.6,-0.9c-0.4,-0.5 -0.9,-1.3 -1.4,-1.9c-0.3,-0.3 -0.6,-0.6 -0.9,-0.9c-0.3,-0.3 -0.6,-0.5 -0.8,-0.7c-0.3,-0.2 -0.5,-0.4 -0.7,-0.5c-0.2,-0.1 -0.3,-0.2 -0.3,-0.2c0,0 0.1,0 0.3,0.1c0.2,0 0.5,0.1 0.8,0.2c0.3,0.1 0.7,0.3 1,0.6c0.4,0.2 0.7,0.6 1,0.9c0.3,0.4 0.6,0.7 0.8,1.1c0.2,0.4 0.4,0.7 0.5,1.1c0.3,0.7 0.3,1.1 0.3,1.1z"/><path d="M266.8901,192.7c0,0 0,-0.7 -0.2,-1.7c-0.1,-0.5 -0.3,-1 -0.5,-1.6c-0.2,-0.6 -0.5,-1.2 -0.8,-1.8c-0.3,-0.6 -0.6,-1.2 -0.9,-1.8c-0.3,-0.6 -0.6,-1.1 -0.9,-1.5c-0.3,-0.4 -0.5,-0.8 -0.6,-1.1c-0.1,-0.3 -0.2,-0.4 -0.2,-0.4c0,0 0.1,0.1 0.3,0.3c0.2,0.2 0.5,0.5 0.8,0.9c0.3,0.4 0.7,0.9 1.1,1.4c0.4,0.5 0.7,1.1 1,1.8c0.3,0.6 0.6,1.3 0.8,1.9c0.2,0.6 0.3,1.2 0.4,1.8c0.1,0.5 0,1 0,1.3c-0.2,0.4 -0.3,0.5 -0.3,0.5z"/><path d="M264.1901,200.1c0,0 0.4,-0.5 0.7,-1.4c0.1,-0.4 0.2,-1 0.3,-1.5c0,-0.6 0,-1.2 -0.1,-1.8c0,-0.3 -0.1,-0.6 -0.1,-0.9c0,-0.3 -0.1,-0.6 -0.2,-0.9c-0.1,-0.6 -0.3,-1.1 -0.4,-1.6c-0.1,-0.5 -0.2,-0.8 -0.3,-1.1c-0.1,-0.3 -0.1,-0.4 -0.1,-0.4c0,0 0.1,0.1 0.2,0.4c0.1,0.2 0.4,0.6 0.6,1c0.2,0.4 0.4,1 0.6,1.5c0.1,0.3 0.2,0.6 0.2,0.9c0.1,0.3 0.1,0.6 0.2,1c0.1,0.7 0.1,1.3 0,1.9c0,0.3 -0.1,0.6 -0.2,0.9c-0.1,0.3 -0.2,0.5 -0.3,0.7c-0.2,0.4 -0.5,0.8 -0.7,1c-0.3,0.3 -0.4,0.3 -0.4,0.3z"/></g></g><path d="M231.5901,254.1c0,0 0.2,-0.1 0.6,-0.4c0.4,-0.3 0.9,-0.6 1.5,-1.2c0.6,-0.6 1.2,-1.4 1.7,-2.5c0.2,-0.5 0.3,-1.1 0.3,-1.8c0,-0.6 -0.1,-1.3 -0.2,-2c-0.3,-2.9 -0.8,-6.2 -1.3,-9.8c-0.5,-3.6 -1.1,-7.4 -1.9,-11.1c-0.4,-1.9 -0.9,-3.7 -1.4,-5.5c-0.6,-1.8 -1.3,-3.5 -2.1,-5.1c-1.6,-3.2 -3.3,-6.1 -4.8,-8.6c-1.5,-2.5 -2.6,-4.7 -3.2,-6.2c-0.3,-0.8 -0.6,-1.4 -0.8,-1.8c-0.2,-0.4 -0.3,-0.6 -0.3,-0.6c0,0 0.1,0.2 0.3,0.6c0.2,0.4 0.5,1 0.8,1.8c0.4,0.8 0.9,1.7 1.4,2.7c0.6,1 1.3,2.1 2,3.4c1.5,2.5 3.4,5.3 5,8.6c0.8,1.6 1.6,3.4 2.2,5.2c0.6,1.8 1.1,3.7 1.5,5.6c0.8,3.8 1.4,7.6 1.9,11.2c0.5,3.6 0.8,6.9 1.1,9.8c0.1,0.7 0.2,1.4 0.1,2.1c0,0.7 -0.2,1.3 -0.4,1.9c-0.5,1.1 -1.2,1.9 -1.8,2.5c-0.6,0.6 -1.2,0.9 -1.6,1.2c-0.4,-0.1 -0.6,0 -0.6,0z" data-paper-data="{&quot;index&quot;:null}" fill="#59402f"/><g data-paper-data="{&quot;index&quot;:null}"><path d="M237.2901,258.6c0,0 -0.1,-0.3 0,-0.8c0.1,-0.5 0.3,-1.1 0.6,-1.7c0.4,-0.6 0.8,-1.1 1.2,-1.4c0.4,-0.3 0.7,-0.4 0.7,-0.4c0,0 0,0.1 -0.1,0.2c-0.1,0.1 -0.2,0.3 -0.3,0.5c-0.3,0.4 -0.6,0.9 -0.9,1.4c-0.3,0.5 -0.6,1.1 -0.9,1.5c-0.1,0.4 -0.3,0.7 -0.3,0.7z" fill="#59402f"/><path d="M231.6901,258.3c0,0 0,-0.4 0.2,-1c0.2,-0.6 0.5,-1.3 1,-1.9c0.2,-0.3 0.5,-0.6 0.8,-0.8c0.3,-0.2 0.6,-0.4 0.8,-0.6c0.3,-0.1 0.5,-0.2 0.6,-0.3c0.2,-0.1 0.3,-0.1 0.3,-0.1c0,0 -0.1,0.1 -0.2,0.2c-0.1,0.1 -0.3,0.3 -0.5,0.5c-0.4,0.4 -0.9,0.9 -1.3,1.5c-0.4,0.6 -0.8,1.2 -1.1,1.7c-0.4,0.5 -0.6,0.8 -0.6,0.8z" fill="#59402f"/><path d="M238.2901,259.9c0,-0.6 0.7,-3.3 1.8,-3.4c1.1,-0.1 0.5,1.1 0,1.9c-0.5,0.7 -1.7,1.9 -1.8,1.5z" fill="#6c5f57"/><path d="M232.7901,259.7c0,-0.6 0.7,-3.3 1.8,-3.4c1.1,-0.1 0.5,1.1 0,1.9c-0.5,0.7 -1.8,1.9 -1.8,1.5z" fill="#6c5f57"/><path d="M229.2901,259c0,-0.6 0.7,-3.3 1.8,-3.4c1.1,-0.1 0.5,1.1 0,1.9c-0.5,0.7 -1.7,1.9 -1.8,1.5z" fill="#6c5f57"/></g><path d="M256.3901,255.6c0,0 0.1,0 0.2,0c0.1,0 0.3,-0.1 0.4,-0.3c0.3,-0.3 0.7,-0.9 1.1,-1.6c0.7,-1.5 1.3,-3.9 1.8,-6.8c0.6,-2.9 1.2,-6.2 1.7,-9.8c0.6,-3.6 1.1,-7.5 1.5,-11.4c0.2,-1.9 0.4,-3.9 0.5,-5.8c0.1,-1.9 0.2,-3.8 0.3,-5.6c0,-1.8 0,-3.6 0,-5.3c0,-1.7 -0.1,-3.3 -0.1,-4.7c-0.1,-2.9 -0.2,-5.4 -0.4,-7.1c-0.1,-1.7 -0.3,-2.7 -0.3,-2.7c0,0 0.2,1 0.4,2.7c0.2,1.7 0.4,4.1 0.6,7.1c0.1,1.5 0.2,3.1 0.3,4.7c0.1,1.7 0.2,3.5 0.1,5.3c0,1.8 -0.1,3.7 -0.2,5.7c-0.1,1.9 -0.3,3.9 -0.5,5.8c-0.4,3.9 -1,7.8 -1.6,11.4c-0.6,3.6 -1.3,7 -2,9.8c-0.6,2.9 -1.3,5.2 -2.1,6.8c-0.4,0.8 -0.8,1.3 -1.2,1.6c-0.2,0.1 -0.3,0.2 -0.5,0.2z" data-paper-data="{&quot;index&quot;:null}" fill="#59402f"/><g data-paper-data="{&quot;index&quot;:null}"><g><path d="M217.9901,144.6c-0.1,6.5 2.5,10.3 2.5,10.3c-2.7,0 -5.4,-4.9 -5.4,-4.9c3.9,9 -2.2,15.2 -2.2,15.2c0.6,-5.7 -1.4,-7.5 -1.4,-7.5c3,10.9 -8.4,13.5 -8.4,13.5c1.7,-1.2 2.9,-5.5 2.9,-5.5c-8.8,9.8 -26.2,7.7 -35.9,8.2c-9.7,0.5 -16.8,-0.4 -25.1,-1c-8.3,-0.6 -14.9,-10.4 -15.3,-14.7c-0.4,-4.3 20.1,-15 20.1,-15c0,0 0.6,-13.2 3.7,-18.8c3.1,-5.6 25.9,-17.5 46.2,-14.7c17,2.4 18.2,28.5 18.3,34.9z" fill="#8d674a"/><path d="M224.9901,133.3c-0.1,6.5 -4.6,21.7 -4.6,21.7c-2.7,0 -5.4,-4.9 -5.4,-4.9c3.9,9 -2.2,15.2 -2.2,15.2c0.6,-5.7 -1.4,-7.5 -1.4,-7.5c3,10.9 -8.4,13.5 -8.4,13.5c1.7,-1.2 2.9,-5.5 2.9,-5.5c-8.8,9.8 -24.8,9.4 -34.4,10c-9.6,0.6 -18.2,-2.3 -26.5,-2.9c-8.3,-0.6 -14.9,-10.4 -15.3,-14.7c-0.4,-4.3 20,-15 20,-15c0,0 0.6,-13.1 3.7,-18.8c3.1,-5.7 22.8,-17.6 43.2,-15.6c14.4,1.4 28.5,18 28.4,24.5z" fill="#8d674a"/><path d="M149.8901,143.2c15,12.2 -1.1,23.3 -1.1,23.3c-0.2,2.7 -3,4.7 -5.5,6.1c-7.5,-1.7 -13.2,-10.4 -13.6,-14.4c-0.4,-4.3 20.1,-15 20.2,-15z" fill="#9e7b5c"/><path d="M130.5901,161.4c-0.9,-1.6 -2.3,-3.2 -1.4,-4.6c0.5,-0.8 1.7,-2.3 2.7,-2.3c1,0 2.5,3 -0.5,4.5c0.4,1.6 -0.2,2.1 -0.8,2.4z" fill="#332721"/><path d="M135.9901,168.2c0,0 0.5,-0.3 1.3,-0.7c0.4,-0.2 0.9,-0.3 1.4,-0.5c0.5,-0.1 1.1,-0.3 1.7,-0.3c0.6,-0.1 1.2,-0.1 1.8,-0.1c0.6,0 1.1,0.1 1.5,0.2c0.4,0.1 0.8,0.2 1,0.3c0.2,0.1 0.4,0.2 0.4,0.2c0,0 -0.2,0 -0.4,0c-0.3,0 -0.6,-0.1 -1,-0.1c-0.2,0 -0.4,0 -0.7,0c-0.2,0 -0.5,0 -0.8,0c-0.5,0 -1.1,0.1 -1.7,0.1c-1.1,0.1 -2.3,0.3 -3.1,0.5c-0.8,0.3 -1.4,0.4 -1.4,0.4z" fill="#59402f"/><path d="M158.09789,142.75664c-0.13173,-1.42991 0.51939,-2.65891 1.45433,-2.74504c0.93494,-0.08613 1.79965,1.00321 1.93139,2.43312c0.13173,1.42991 -0.51939,2.65891 -1.45433,2.74504c-0.93494,0.08613 -1.79965,-1.00321 -1.93139,-2.43312z" fill="#332010"/><path d="M162.9901,135.8c0.1,1.1 -3,1.8 -4.4,1.9c-1.4,0.1 -2.7,-0.6 -2.8,-1.7c-0.1,-1.1 1,-2 2.4,-2.2c1.5,-0.1 4.7,0.9 4.8,2z" fill="#9e7b5c"/><path d="M149.7901,143.2c0,0 0,-0.8 0,-2.3c0.1,-1.4 0.1,-3.5 0.4,-6c0.1,-1.2 0.3,-2.6 0.6,-4c0.3,-1.4 0.6,-2.9 1.2,-4.3c0.3,-0.7 0.6,-1.5 1,-2.2c0.5,-0.7 0.9,-1.3 1.5,-2c1.1,-1.2 2.3,-2.4 3.6,-3.4c1.3,-1 2.7,-1.9 4.1,-2.7c1.4,-0.8 2.8,-1.6 4.2,-2.2c1.4,-0.7 2.8,-1.2 4.1,-1.7c1.3,-0.5 2.6,-0.9 3.8,-1.3c1.2,-0.4 2.3,-0.7 3.3,-0.9c1,-0.2 1.8,-0.5 2.5,-0.6c1.4,-0.3 2.2,-0.5 2.2,-0.5c0,0 -0.8,0.2 -2.2,0.6c-1.4,0.4 -3.4,1 -5.7,1.7c-1.2,0.4 -2.4,0.8 -3.7,1.4c-1.3,0.5 -2.7,1.1 -4.1,1.8c-1.4,0.7 -2.8,1.4 -4.2,2.2c-1.4,0.8 -2.7,1.8 -4,2.7c-1.3,1 -2.5,2.1 -3.6,3.3c-0.5,0.6 -1,1.2 -1.4,1.9c-0.4,0.7 -0.7,1.4 -1,2.1c-1.1,2.9 -1.6,5.7 -1.9,8.1c-0.6,5 -0.7,8.3 -0.7,8.3z" fill="#59402f"/><path d="M202.9901,171.3c0,0 0.3,-0.1 0.7,-0.2c0.5,-0.1 1.1,-0.4 1.9,-0.8c0.4,-0.2 0.8,-0.4 1.2,-0.7c0.4,-0.2 0.8,-0.6 1.2,-0.9c0.4,-0.3 0.8,-0.7 1.2,-1.1c0.4,-0.4 0.7,-0.8 1,-1.3c0.3,-0.4 0.5,-1 0.8,-1.4c0.2,-0.5 0.3,-1 0.5,-1.5c0.1,-0.5 0.1,-1 0.2,-1.5c0.1,-0.5 0,-0.9 0,-1.4c0,-0.4 0,-0.8 -0.1,-1.2c0,-0.3 -0.1,-0.6 -0.1,-0.9c-0.1,-0.5 -0.1,-0.8 -0.1,-0.8c0,0 0.1,0.3 0.2,0.8c0.1,0.2 0.2,0.5 0.2,0.9c0.1,0.3 0.2,0.7 0.2,1.2c0,0.4 0.1,0.9 0.1,1.4c0,0.5 0,1 -0.1,1.6c-0.2,0.5 -0.2,1.1 -0.5,1.6c-0.2,0.5 -0.4,1.1 -0.8,1.6c-0.3,0.5 -0.7,0.9 -1.1,1.4c-0.4,0.4 -0.9,0.8 -1.3,1.1c-0.9,0.6 -1.8,1.1 -2.6,1.4c-1.5,0.6 -2.7,0.7 -2.7,0.7z" fill="#59402f"/><path d="M212.7901,165.3c0,0 0.7,-0.7 1.5,-2.1c0.2,-0.3 0.4,-0.7 0.6,-1.1c0.2,-0.4 0.4,-0.8 0.5,-1.3c0.1,-0.2 0.2,-0.4 0.2,-0.7c0.1,-0.2 0.1,-0.5 0.2,-0.7c0.1,-0.5 0.2,-1 0.3,-1.5c0.1,-0.5 0.1,-1 0.1,-1.5c0,-0.5 0,-1 -0.1,-1.5c-0.1,-0.5 -0.1,-0.9 -0.2,-1.4c-0.1,-0.4 -0.2,-0.8 -0.3,-1.2c-0.1,-0.4 -0.2,-0.7 -0.3,-1c-0.1,-0.3 -0.2,-0.6 -0.2,-0.8c-0.1,-0.4 -0.2,-0.7 -0.2,-0.7c0,0 0.1,0.2 0.3,0.6c0.1,0.2 0.2,0.5 0.4,0.7c0.2,0.3 0.3,0.6 0.4,1c0.1,0.4 0.3,0.8 0.4,1.2c0.1,0.4 0.2,0.9 0.3,1.4c0,0.5 0.1,1 0.1,1.5c0,0.5 0,1 -0.1,1.6c-0.1,0.5 -0.2,1 -0.3,1.5c-0.1,0.2 -0.1,0.5 -0.2,0.7c-0.1,0.2 -0.2,0.5 -0.3,0.7c-0.2,0.5 -0.4,0.9 -0.6,1.3c-0.2,0.4 -0.5,0.7 -0.7,1.1c-0.5,0.6 -0.9,1.1 -1.3,1.4c-0.3,0.6 -0.5,0.8 -0.5,0.8z" fill="#59402f"/><path d="M220.2901,154.9c0,0 -0.2,-0.2 -0.4,-0.5c-0.2,-0.4 -0.6,-0.9 -0.9,-1.6c-0.3,-0.7 -0.6,-1.5 -0.8,-2.4c-0.2,-0.9 -0.4,-1.9 -0.5,-2.8c-0.1,-0.5 -0.1,-1 -0.1,-1.5c0,-0.5 -0.1,-1 -0.1,-1.4c-0.1,-0.9 0,-1.8 0,-2.5c0,-0.7 0.1,-1.3 0.1,-1.8c0,-0.4 0.1,-0.7 0.1,-0.7c0,0 0,0.2 0.1,0.7c0,0.4 0.1,1 0.1,1.8c0,0.7 0.1,1.6 0.2,2.5c0.1,0.9 0.2,1.9 0.3,2.8c0.1,1 0.2,1.9 0.4,2.8c0.2,0.9 0.4,1.7 0.6,2.4c0.2,0.7 0.4,1.2 0.6,1.6c0.2,0.4 0.3,0.6 0.3,0.6z" fill="#59402f"/><path d="M193.8901,108.8c0,0 0.4,-0.1 1.1,-0.2c0.3,0 0.8,0 1.2,0c0.5,0 1,0.1 1.6,0.2c0.6,0.1 1.2,0.2 1.9,0.4c0.6,0.2 1.3,0.3 2,0.6c0.7,0.2 1.4,0.5 2.1,0.8c0.7,0.3 1.4,0.7 2.1,1c0.7,0.3 1.4,0.8 2,1.1c0.7,0.4 1.3,0.8 1.9,1.2c1.2,0.8 2.3,1.6 3.2,2.3c0.5,0.3 0.9,0.7 1.2,1c0.4,0.3 0.7,0.6 0.9,0.8c0.5,0.4 0.8,0.7 0.8,0.7c0,0 -0.3,-0.2 -0.9,-0.6c-0.3,-0.2 -0.6,-0.4 -1,-0.7c-0.4,-0.3 -0.8,-0.6 -1.3,-0.9c-0.5,-0.3 -1,-0.7 -1.6,-1c-0.5,-0.4 -1.2,-0.7 -1.8,-1.1c-0.6,-0.4 -1.2,-0.8 -1.9,-1.1c-0.7,-0.4 -1.3,-0.8 -2,-1.1c-0.7,-0.3 -1.4,-0.7 -2.1,-1c-0.7,-0.3 -1.4,-0.6 -2,-0.9c-1.3,-0.5 -2.6,-0.9 -3.8,-1.2c-0.6,-0.1 -1.1,-0.2 -1.6,-0.3c-0.5,-0.1 -0.9,-0.1 -1.2,-0.1c-0.4,0 -0.8,0.1 -0.8,0.1z" fill="#59402f"/></g><g><path d="M180.8901,111.6c0,0 1.7,-8.2 6.3,-8.8c4.6,-0.6 15.3,3.9 7.2,16.6" fill="#8d674a"/><path d="M187.3901,105.3c0,0 0.4,0.6 0.7,1.5c0.2,0.5 0.4,1 0.5,1.6c0.2,0.6 0.3,1.3 0.3,2c0,0.3 0,0.7 0,1c-0.1,0.3 -0.1,0.7 -0.2,1c-0.1,0.3 -0.2,0.6 -0.3,0.9c-0.1,0.3 -0.2,0.5 -0.4,0.7c-0.3,0.4 -0.5,0.7 -0.8,0.9c-0.2,0.2 -0.3,0.3 -0.3,0.3c0,0 0.1,-0.1 0.2,-0.4c0.1,-0.1 0.2,-0.3 0.3,-0.4c0.1,-0.2 0.2,-0.4 0.3,-0.6c0.1,-0.2 0.2,-0.5 0.2,-0.7c0.1,-0.3 0.1,-0.5 0.2,-0.8c0.1,-0.3 0.1,-0.6 0.1,-0.9c0,-0.3 0,-0.6 0,-0.9c0,-0.6 -0.1,-1.3 -0.2,-1.8c-0.1,-0.6 -0.2,-1.1 -0.3,-1.6c-0.1,-1.1 -0.3,-1.8 -0.3,-1.8z" fill="#59402f"/><g fill="#59402f"><path d="M189.6901,114.4c0,0 0,0.2 -0.1,0.3c-0.1,0.2 -0.2,0.4 -0.4,0.6c-0.2,0.2 -0.4,0.4 -0.6,0.5c-0.2,0.1 -0.3,0.1 -0.3,0.1c0,0 0,-0.2 0.1,-0.3c0.1,-0.2 0.2,-0.4 0.4,-0.6c0.2,-0.2 0.4,-0.4 0.6,-0.5c0.1,-0.1 0.3,-0.1 0.3,-0.1z"/><path d="M190.8901,115.7c0,0 0,0.1 -0.1,0.3c-0.1,0.2 -0.2,0.3 -0.3,0.5c-0.1,0.1 -0.3,0.3 -0.5,0.3c-0.2,0.1 -0.3,0.1 -0.3,0.1c0,0 0,-0.1 0.1,-0.3c0.1,-0.2 0.2,-0.3 0.3,-0.5c0.1,-0.1 0.3,-0.3 0.5,-0.3c0.1,-0.1 0.3,-0.1 0.3,-0.1z"/></g><path d="M193.7901,104.5c0,0 -0.3,-0.1 -0.7,-0.4c-0.5,-0.2 -1.2,-0.5 -2,-0.7c-0.2,-0.1 -0.4,-0.1 -0.7,-0.2c-0.2,0 -0.5,-0.1 -0.7,-0.1c-0.2,0 -0.5,0 -0.8,0c-0.3,0 -0.5,0 -0.8,0c-0.3,0 -0.5,0.1 -0.8,0.1c-0.3,0.1 -0.5,0.2 -0.8,0.2c-0.3,0.1 -0.5,0.2 -0.8,0.3c-0.2,0.1 -0.5,0.2 -0.7,0.4c-0.3,0.6 -0.8,0.9 -1.1,1.3c-0.4,0.4 -0.7,0.8 -1,1.3c-0.2,0.5 -0.6,0.9 -0.7,1.4c-0.2,0.5 -0.4,0.9 -0.6,1.3c-0.2,0.4 -0.3,0.8 -0.4,1.1c-0.1,0.3 -0.2,0.6 -0.3,0.9c-0.2,0.5 -0.3,0.8 -0.3,0.8c0,0 0,-0.3 0.1,-0.8c0,-0.3 0.1,-0.6 0.2,-0.9c0.1,-0.4 0.1,-0.8 0.3,-1.2c0.1,-0.4 0.3,-0.9 0.5,-1.4c0.1,-0.5 0.4,-1 0.7,-1.5c0.2,-0.5 0.6,-1 1,-1.5c0.3,-0.5 0.9,-0.9 1.3,-1.3c0.2,-0.2 0.5,-0.3 0.8,-0.5c0.3,-0.1 0.5,-0.3 0.8,-0.4c0.3,-0.1 0.6,-0.2 0.9,-0.2c0.3,0 0.6,-0.1 0.9,-0.1c0.3,0 0.6,0 0.8,0c0.3,0 0.5,0 0.8,0.1c0.3,0.1 0.5,0.1 0.7,0.2c0.4,0.3 0.6,0.3 0.8,0.4c0.4,0.1 0.8,0.3 1.1,0.5c0.3,0.2 0.6,0.3 0.8,0.5c0.5,0.2 0.7,0.4 0.7,0.4z" fill="#59402f"/></g></g><g data-paper-data="{&quot;index&quot;:null}"><g><path d="M217.9901,144.6c-0.1,6.5 2.5,10.3 2.5,10.3c-2.7,0 -5.4,-4.9 -5.4,-4.9c3.9,9 -2.2,15.2 -2.2,15.2c0.6,-5.7 -1.4,-7.5 -1.4,-7.5c3,10.9 -8.4,13.5 -8.4,13.5c1.7,-1.2 2.9,-5.5 2.9,-5.5c-8.8,9.8 -26.3,7.7 -35.9,8.2c-9.7,0.5 -16.8,-0.4 -25.1,-1c-8.3,-0.6 -14.9,-10.5 -15.3,-14.7c-0.4,-4.2 20.1,-15 20.1,-15c0,0 0.6,-13.2 3.7,-18.8c3.1,-5.6 25.9,-17.5 46.2,-14.7c17,2.4 18.2,28.5 18.3,34.9z" fill="#8d674a"/><path d="M224.9901,133.3c-0.1,6.5 -4.6,21.7 -4.6,21.7c-2.7,0 -5.4,-4.9 -5.4,-4.9c3.9,9 -2.2,15.2 -2.2,15.2c0.6,-5.7 -1.4,-7.5 -1.4,-7.5c3,10.9 -8.4,13.5 -8.4,13.5c1.7,-1.2 2.9,-5.5 2.9,-5.5c-8.8,9.8 -24.8,9.4 -34.4,10c-9.6,0.6 -18.2,-2.3 -26.5,-2.9c-8.3,-0.6 -14.9,-10.5 -15.3,-14.7c-0.4,-4.2 20,-15 20,-15c0,0 0.6,-13.1 3.7,-18.8c3.1,-5.7 22.8,-17.6 43.2,-15.6c14.4,1.4 28.5,18 28.4,24.5z" fill="#8d674a"/><path d="M149.8901,143.2c15,12.2 -1.1,23.3 -1.1,23.3c-0.2,2.7 -3,4.7 -5.5,6.1c-7.5,-1.7 -13.2,-10.4 -13.6,-14.4c-0.4,-4.2 20.1,-15 20.2,-15z" fill="#9e7b5c"/><path d="M130.5901,161.4c-0.9,-1.6 -2.3,-3.2 -1.4,-4.6c0.5,-0.8 1.7,-2.3 2.7,-2.3c1,0 2.5,3 -0.5,4.5c0.4,1.6 -0.2,2.1 -0.8,2.4z" fill="#332721"/><path d="M135.9901,168.2c0,0 0.5,-0.3 1.3,-0.7c0.4,-0.2 0.9,-0.3 1.4,-0.5c0.5,-0.1 1.1,-0.3 1.7,-0.3c0.6,-0.1 1.2,-0.1 1.8,-0.1c0.6,0 1.1,0.1 1.5,0.2c0.4,0.1 0.8,0.2 1,0.3c0.2,0.1 0.4,0.2 0.4,0.2c0,0 -0.2,0 -0.4,0c-0.3,0 -0.6,-0.1 -1,-0.1c-0.2,0 -0.4,0 -0.7,0c-0.2,0 -0.5,0 -0.8,0c-0.5,0 -1.1,0.1 -1.7,0.1c-1.1,0.1 -2.3,0.3 -3.1,0.5c-0.8,0.3 -1.4,0.4 -1.4,0.4z" fill="#59402f"/><path d="M158.09789,142.75654c-0.13173,-1.42991 0.51939,-2.65891 1.45433,-2.74504c0.93494,-0.08613 1.79965,1.00321 1.93139,2.43312c0.13173,1.42991 -0.51939,2.65891 -1.45433,2.74504c-0.93494,0.08613 -1.79965,-1.00321 -1.93139,-2.43312z" fill="#332010"/><path d="M162.9901,135.8c0.1,1.1 -3,1.8 -4.4,1.9c-1.4,0.1 -2.7,-0.6 -2.8,-1.7c-0.1,-1.1 1,-2 2.4,-2.2c1.5,-0.1 4.7,0.9 4.8,2z" fill="#9e7b5c"/><path d="M149.7901,143.2c0,0 0,-0.8 0,-2.3c0.1,-1.4 0.1,-3.5 0.4,-6c0.1,-1.2 0.3,-2.6 0.6,-4c0.3,-1.4 0.6,-2.9 1.2,-4.3c0.3,-0.7 0.6,-1.5 1,-2.2c0.5,-0.7 0.9,-1.3 1.5,-2c1.1,-1.2 2.3,-2.4 3.6,-3.4c1.3,-1 2.7,-1.9 4.1,-2.7c1.4,-0.8 2.8,-1.6 4.2,-2.2c1.4,-0.7 2.8,-1.2 4.1,-1.7c1.3,-0.5 2.6,-0.9 3.8,-1.3c1.2,-0.4 2.3,-0.7 3.3,-0.9c1,-0.2 1.8,-0.5 2.5,-0.6c1.4,-0.3 2.2,-0.5 2.2,-0.5c0,0 -0.8,0.2 -2.2,0.6c-1.4,0.4 -3.4,1 -5.7,1.7c-1.2,0.4 -2.4,0.8 -3.7,1.4c-1.3,0.5 -2.7,1.1 -4.1,1.8c-1.4,0.7 -2.8,1.4 -4.2,2.2c-1.4,0.8 -2.7,1.8 -4,2.7c-1.3,1 -2.5,2.1 -3.6,3.3c-0.5,0.6 -1,1.2 -1.4,1.9c-0.4,0.7 -0.7,1.4 -1,2.1c-1.1,2.9 -1.6,5.7 -1.9,8.1c-0.6,5 -0.7,8.3 -0.7,8.3z" fill="#59402f"/><path d="M202.9901,171.3c0,0 0.3,-0.1 0.7,-0.2c0.5,-0.1 1.1,-0.4 1.9,-0.8c0.4,-0.2 0.8,-0.4 1.2,-0.7c0.4,-0.2 0.8,-0.6 1.2,-0.9c0.4,-0.3 0.8,-0.7 1.2,-1.1c0.4,-0.4 0.7,-0.8 1,-1.3c0.3,-0.4 0.5,-1 0.8,-1.4c0.2,-0.5 0.3,-1 0.5,-1.5c0.1,-0.5 0.1,-1 0.2,-1.5c0.1,-0.5 0,-0.9 0,-1.4c0,-0.4 0,-0.8 -0.1,-1.2c0,-0.3 -0.1,-0.6 -0.1,-0.9c-0.1,-0.5 -0.1,-0.8 -0.1,-0.8c0,0 0.1,0.3 0.2,0.8c0.1,0.2 0.2,0.5 0.2,0.9c0.1,0.3 0.2,0.7 0.2,1.2c0,0.4 0.1,0.9 0.1,1.4c0,0.5 0,1 -0.1,1.6c-0.2,0.5 -0.2,1.1 -0.5,1.6c-0.2,0.5 -0.4,1.1 -0.8,1.6c-0.3,0.5 -0.7,0.9 -1.1,1.4c-0.4,0.4 -0.9,0.8 -1.3,1.1c-0.9,0.6 -1.8,1.1 -2.6,1.4c-1.5,0.7 -2.7,0.7 -2.7,0.7z" fill="#59402f"/><path d="M212.7901,165.3c0,0 0.7,-0.7 1.5,-2.1c0.2,-0.3 0.4,-0.7 0.6,-1.1c0.2,-0.4 0.4,-0.8 0.5,-1.3c0.1,-0.2 0.2,-0.4 0.2,-0.7c0.1,-0.2 0.1,-0.5 0.2,-0.7c0.1,-0.5 0.2,-1 0.3,-1.5c0.1,-0.5 0.1,-1 0.1,-1.5c0,-0.5 0,-1 -0.1,-1.5c-0.1,-0.5 -0.1,-0.9 -0.2,-1.4c-0.1,-0.4 -0.2,-0.8 -0.3,-1.2c-0.1,-0.4 -0.2,-0.7 -0.3,-1c-0.1,-0.3 -0.2,-0.6 -0.2,-0.8c-0.1,-0.4 -0.2,-0.7 -0.2,-0.7c0,0 0.1,0.2 0.3,0.6c0.1,0.2 0.2,0.5 0.4,0.7c0.2,0.3 0.3,0.6 0.4,1c0.1,0.4 0.3,0.8 0.4,1.2c0.1,0.4 0.2,0.9 0.3,1.4c0,0.5 0.1,1 0.1,1.5c0,0.5 0,1 -0.1,1.6c-0.1,0.5 -0.2,1 -0.3,1.5c-0.1,0.2 -0.1,0.5 -0.2,0.7c-0.1,0.2 -0.2,0.5 -0.3,0.7c-0.2,0.5 -0.4,0.9 -0.6,1.3c-0.2,0.4 -0.5,0.7 -0.7,1.1c-0.5,0.6 -0.9,1.1 -1.3,1.4c-0.3,0.6 -0.5,0.8 -0.5,0.8z" fill="#59402f"/><path d="M220.2901,155c0,0 -0.2,-0.2 -0.4,-0.5c-0.2,-0.4 -0.6,-0.9 -0.9,-1.6c-0.3,-0.7 -0.6,-1.5 -0.8,-2.4c-0.2,-0.9 -0.4,-1.9 -0.5,-2.8c-0.1,-0.5 -0.1,-1 -0.1,-1.5c0,-0.5 -0.1,-1 -0.1,-1.4c-0.1,-0.9 0,-1.8 0,-2.5c0,-0.7 0.1,-1.3 0.1,-1.8c0,-0.4 0.1,-0.7 0.1,-0.7c0,0 0,0.2 0.1,0.7c0,0.4 0.1,1 0.1,1.8c0,0.7 0.1,1.6 0.2,2.5c0.1,0.9 0.2,1.9 0.3,2.8c0.1,1 0.2,1.9 0.4,2.8c0.2,0.9 0.4,1.7 0.6,2.4c0.2,0.7 0.4,1.2 0.6,1.6c0.2,0.4 0.3,0.6 0.3,0.6z" fill="#59402f"/><path d="M193.8901,108.8c0,0 0.4,-0.1 1.1,-0.2c0.3,0 0.8,0 1.2,0c0.5,0 1,0.1 1.6,0.2c0.6,0.1 1.2,0.2 1.9,0.4c0.6,0.2 1.3,0.3 2,0.6c0.7,0.2 1.4,0.5 2.1,0.8c0.7,0.3 1.4,0.7 2.1,1c0.7,0.3 1.4,0.8 2,1.1c0.7,0.4 1.3,0.8 1.9,1.2c1.2,0.8 2.3,1.6 3.2,2.3c0.5,0.3 0.9,0.7 1.2,1c0.4,0.3 0.7,0.6 0.9,0.8c0.5,0.4 0.8,0.7 0.8,0.7c0,0 -0.3,-0.2 -0.9,-0.6c-0.3,-0.2 -0.6,-0.4 -1,-0.7c-0.4,-0.3 -0.8,-0.6 -1.3,-0.9c-0.5,-0.3 -1,-0.7 -1.6,-1c-0.5,-0.4 -1.2,-0.7 -1.8,-1.1c-0.6,-0.4 -1.2,-0.8 -1.9,-1.1c-0.7,-0.4 -1.3,-0.8 -2,-1.1c-0.7,-0.3 -1.4,-0.7 -2.1,-1c-0.7,-0.3 -1.4,-0.6 -2,-0.9c-1.3,-0.5 -2.6,-0.9 -3.8,-1.2c-0.6,-0.1 -1.1,-0.2 -1.6,-0.3c-0.5,-0.1 -0.9,-0.1 -1.2,-0.1c-0.4,0 -0.8,0.1 -0.8,0.1z" fill="#59402f"/></g><g><path d="M180.8901,111.6c0,0 1.7,-8.2 6.3,-8.8c4.6,-0.6 15.3,3.9 7.2,16.6" fill="#8d674a"/><path d="M187.3901,105.4c0,0 0.4,0.6 0.7,1.5c0.2,0.5 0.4,1 0.5,1.6c0.2,0.6 0.3,1.2 0.3,1.9c0,0.3 0,0.7 0,1c-0.1,0.3 -0.1,0.7 -0.2,1c-0.1,0.3 -0.2,0.6 -0.3,0.9c-0.1,0.3 -0.2,0.5 -0.4,0.7c-0.3,0.4 -0.5,0.7 -0.8,0.9c-0.2,0.2 -0.3,0.3 -0.3,0.3c0,0 0.1,-0.1 0.2,-0.4c0.1,-0.1 0.2,-0.3 0.3,-0.4c0.1,-0.2 0.2,-0.4 0.3,-0.6c0.1,-0.2 0.2,-0.5 0.2,-0.7c0.1,-0.3 0.1,-0.5 0.2,-0.8c0.1,-0.3 0.1,-0.6 0.1,-0.9c0,-0.3 0,-0.6 0,-0.9c0,-0.6 -0.1,-1.3 -0.2,-1.8c0,-0.7 -0.1,-1.3 -0.2,-1.8c-0.2,-0.9 -0.4,-1.5 -0.4,-1.5z" fill="#59402f"/><g fill="#59402f"><path d="M189.6901,114.4c0,0 0,0.2 -0.1,0.3c-0.1,0.2 -0.2,0.4 -0.4,0.6c-0.2,0.2 -0.4,0.4 -0.6,0.5c-0.2,0.1 -0.3,0.1 -0.3,0.1c0,0 0,-0.2 0.1,-0.3c0.1,-0.2 0.2,-0.4 0.4,-0.6c0.2,-0.2 0.4,-0.4 0.6,-0.5c0.1,-0.1 0.3,-0.1 0.3,-0.1z"/><path d="M190.8901,115.7c0,0 0,0.1 -0.1,0.3c-0.1,0.2 -0.2,0.3 -0.3,0.5c-0.1,0.1 -0.3,0.3 -0.5,0.3c-0.2,0.1 -0.3,0.1 -0.3,0.1c0,0 0,-0.1 0.1,-0.3c0.1,-0.2 0.2,-0.3 0.3,-0.5c0.1,-0.1 0.3,-0.3 0.5,-0.3c0.1,-0.1 0.3,-0.1 0.3,-0.1z"/></g><path d="M193.7901,104.5c0,0 -0.3,-0.1 -0.7,-0.4c-0.5,-0.2 -1.2,-0.5 -2,-0.7c-0.2,-0.1 -0.4,-0.1 -0.7,-0.2c-0.2,0 -0.5,-0.1 -0.7,-0.1c-0.2,0 -0.5,0 -0.8,0c-0.3,0 -0.5,0 -0.8,0c-0.3,0 -0.5,0.1 -0.8,0.1c-0.3,0.1 -0.5,0.2 -0.8,0.2c-0.3,0.1 -0.5,0.2 -0.8,0.3c-0.2,0.1 -0.5,0.2 -0.7,0.4c-0.3,0.6 -0.8,0.9 -1.1,1.3c-0.4,0.4 -0.7,0.8 -1,1.3c-0.2,0.5 -0.6,0.9 -0.7,1.4c-0.2,0.5 -0.4,0.9 -0.6,1.3c-0.2,0.4 -0.3,0.8 -0.4,1.1c-0.1,0.3 -0.2,0.6 -0.3,0.9c-0.2,0.5 -0.3,0.8 -0.3,0.8c0,0 0,-0.3 0.1,-0.8c0,-0.3 0.1,-0.6 0.2,-0.9c0.1,-0.4 0.1,-0.8 0.3,-1.2c0.1,-0.4 0.3,-0.9 0.5,-1.4c0.1,-0.5 0.4,-1 0.7,-1.5c0.2,-0.5 0.6,-1 1,-1.5c0.3,-0.5 0.9,-0.9 1.3,-1.3c0.2,-0.2 0.5,-0.3 0.8,-0.5c0.3,-0.1 0.5,-0.3 0.8,-0.4c0.3,-0.1 0.6,-0.2 0.9,-0.2c0.3,0 0.6,-0.1 0.9,-0.1c0.3,0 0.6,0 0.8,0c0.3,0 0.5,0 0.8,0.1c0.3,0.1 0.5,0.1 0.7,0.2c0.4,0.3 0.6,0.3 0.8,0.4c0.4,0.1 0.8,0.3 1.1,0.5c0.3,0.2 0.6,0.3 0.8,0.5c0.5,0.2 0.7,0.4 0.7,0.4z" fill="#59402f"/></g></g></g></g></svg>