<svg version="1.1" xmlns="http://www.w3.org/2000/svg" xmlns:xlink="http://www.w3.org/1999/xlink" width="236.8901" height="155.18519" viewBox="0,0,236.8901,155.18519"><g transform="translate(-123.1,-104)"><g data-paper-data="{&quot;isPaintingLayer&quot;:true}" fill-rule="nonzero" stroke="none" stroke-width="1" stroke-linecap="butt" stroke-linejoin="miter" stroke-miterlimit="10" stroke-dasharray="" stroke-dashoffset="0" style="mix-blend-mode: normal"><g data-paper-data="{&quot;index&quot;:null}"><g fill="#856045"><path d="M233.7901,204.1c-11.6,19.9 -46.6,45.6 -50,45.6c-3.4,0 -24.7,-12.1 -22.3,-14.4c2.3,-2.3 7.1,-1.8 9.9,-3.4c2.8,-1.6 16.5,-21.5 19.4,-27.3c2.9,-5.8 0.9,-13.9 10.5,-34.7c9.6,-20.8 53.7,-7.7 32.5,34.2z"/><path d="M239.1901,182.7c0,0 0.2,12.8 2.2,14.1c0,0 -2.9,0.1 -3.4,-2.2c0,0 2.4,4.1 0.6,8.3l-1.7,-2.5c0,0 -0.6,7.5 -3.5,10.7l-0.4,-4.2c0,0 -1.2,7.1 -6.8,7.5"/></g><path d="M241.1901,196.6c0,0 -0.2,-0.1 -0.4,-0.4c-0.2,-0.3 -0.4,-0.7 -0.6,-1.2c-0.4,-1.1 -0.8,-2.6 -0.9,-4.1c-0.1,-0.8 -0.1,-1.5 -0.2,-2.2c0,-0.7 0,-1.4 0,-1.9c0,-1.1 0.1,-1.9 0.1,-1.9c0,0 0.1,0.8 0.3,1.9c0.2,1.1 0.3,2.6 0.5,4.1c0.1,0.7 0.2,1.5 0.3,2.2c0.1,0.7 0.2,1.3 0.3,1.9c0.1,0.5 0.3,1 0.4,1.3c0.1,0.2 0.2,0.3 0.2,0.3z" fill="#59402f"/><path d="M238.3901,202.7c0,0 0.1,-0.5 0.2,-1.1c0.1,-0.7 0.2,-1.5 0.2,-2.4c0,-0.4 0,-0.9 0,-1.3c0,-0.4 -0.1,-0.8 -0.2,-1.1c-0.1,-0.3 -0.1,-0.6 -0.2,-0.8c-0.1,-0.2 -0.1,-0.3 -0.1,-0.3c0,0 0.1,0.1 0.2,0.2c0.1,0.2 0.3,0.4 0.4,0.7c0.2,0.3 0.3,0.7 0.4,1.1c0.1,0.4 0.1,0.9 0.1,1.4c0,0.5 -0.1,0.9 -0.2,1.3c-0.1,0.4 -0.2,0.8 -0.3,1.1c-0.2,0.8 -0.5,1.2 -0.5,1.2z" fill="#59402f"/><path d="M233.3901,210.5c0,0 0.5,-0.5 0.9,-1.4c0.2,-0.4 0.5,-1 0.7,-1.6c0.2,-0.6 0.4,-1.2 0.6,-1.9c0.2,-0.6 0.3,-1.3 0.5,-1.9c0.2,-0.6 0.3,-1.2 0.4,-1.7c0.1,-0.5 0.2,-0.9 0.3,-1.2c0.1,-0.3 0.1,-0.5 0.1,-0.5c0,0 0,0.2 0,0.5c0,0.3 0,0.7 0,1.3c0,0.5 -0.1,1.1 -0.2,1.8c-0.1,0.6 -0.2,1.3 -0.4,2c-0.2,0.7 -0.4,1.3 -0.7,1.9c-0.3,0.6 -0.6,1.1 -0.9,1.5c-0.3,0.4 -0.6,0.7 -0.9,0.9c-0.3,0.3 -0.4,0.3 -0.4,0.3z" fill="#59402f"/><path d="M181.9901,249.2c0,0 0.2,0.1 0.7,0.2c0.5,0.1 1.1,0.1 2,-0.1c0.8,-0.2 1.8,-0.6 2.8,-1.2c1,-0.6 2,-1.5 3.2,-2.4c2.4,-1.8 5.1,-3.8 8.1,-6.1c2.9,-2.2 6.1,-4.6 9.1,-7.2c1.5,-1.3 3,-2.5 4.5,-3.8c0.7,-0.6 1.4,-1.3 2.1,-1.9c0.7,-0.6 1.4,-1.3 2,-1.9c0.7,-0.6 1.3,-1.3 1.9,-1.9c0.6,-0.6 1.2,-1.3 1.8,-1.9c1.1,-1.3 2.2,-2.5 3.2,-3.6c1.9,-2.2 3.6,-4.1 4.7,-5.4c1.1,-1.3 1.6,-2.2 1.6,-2.2c0,0 -0.5,0.8 -1.6,2.2c-1,1.4 -2.5,3.3 -4.5,5.6c-1,1.1 -2,2.3 -3.1,3.6c-1.1,1.3 -2.3,2.6 -3.6,3.9c-0.6,0.7 -1.3,1.3 -2,2c-0.7,0.7 -1.4,1.3 -2.1,2c-1.4,1.3 -2.9,2.6 -4.5,3.9c-3.1,2.5 -6.2,4.9 -9.2,7.1c-3,2.2 -5.8,4.2 -8.2,5.9c-1.2,0.9 -2.3,1.7 -3.3,2.3c-1.1,0.6 -2.1,1 -2.9,1.1c-0.9,0.2 -1.5,0.1 -2,0c-0.5,0 -0.7,-0.2 -0.7,-0.2z" fill="#59402f"/><path d="M226.3901,214.2c0,0 0.7,-0.1 1.4,-0.5c0.4,-0.2 0.8,-0.6 1.2,-0.9c0.4,-0.4 0.8,-0.9 1.2,-1.4c0.2,-0.2 0.3,-0.5 0.5,-0.8c0.2,-0.3 0.3,-0.5 0.5,-0.8c0.3,-0.5 0.5,-1 0.8,-1.4c0.2,-0.4 0.4,-0.8 0.5,-1c0.1,-0.2 0.2,-0.4 0.2,-0.4c0,0 0,0.2 -0.1,0.4c-0.1,0.3 -0.1,0.7 -0.3,1.1c-0.2,0.5 -0.3,1 -0.6,1.5c-0.1,0.3 -0.3,0.6 -0.4,0.8c-0.2,0.3 -0.3,0.6 -0.5,0.8c-0.4,0.5 -0.8,1 -1.3,1.4c-0.2,0.2 -0.5,0.4 -0.7,0.5c-0.3,0.1 -0.5,0.3 -0.7,0.3c-0.5,0.2 -0.9,0.2 -1.2,0.2c-0.3,0.2 -0.5,0.2 -0.5,0.2z" fill="#59402f"/><path d="M166.7901,240.6c0,0 0.1,-0.3 0.5,-0.7c0.3,-0.4 0.9,-0.8 1.5,-1c0.6,-0.3 1.3,-0.4 1.8,-0.4c0.5,0 0.8,0.1 0.8,0.1c0,0 -0.1,0 -0.2,0.1c-0.1,0.1 -0.3,0.1 -0.5,0.2c-0.4,0.2 -1,0.4 -1.6,0.6c-0.6,0.2 -1.1,0.5 -1.6,0.7c-0.4,0.3 -0.7,0.4 -0.7,0.4z" fill="#59402f"/><path d="M162.3901,237.1c0,0 0.2,-0.3 0.7,-0.7c0.5,-0.4 1.1,-0.8 1.9,-1c0.4,-0.1 0.8,-0.2 1.1,-0.2c0.4,0 0.7,0 1,0c0.3,0 0.5,0.1 0.7,0.1c0.2,0 0.3,0.1 0.3,0.1c0,0 -0.1,0 -0.3,0c-0.2,0 -0.4,0.1 -0.7,0.1c-0.5,0.1 -1.2,0.3 -1.9,0.5c-0.7,0.2 -1.4,0.5 -1.9,0.7c-0.5,0.3 -0.9,0.4 -0.9,0.4z" fill="#59402f"/><path d="M166.8901,233.3c0,0 0.2,0 0.7,0c0.5,0 1.1,-0.1 1.9,-0.4c0.8,-0.3 1.7,-0.7 2.6,-1.5c0.9,-0.7 1.7,-1.8 2.5,-3c1.7,-2.4 3.7,-5.1 5.9,-8c2.2,-2.9 4.4,-6.1 6.4,-9.4c1,-1.6 2,-3.3 2.8,-5c0.8,-1.7 1.4,-3.5 1.9,-5.2c1,-3.5 1.6,-6.8 2.2,-9.7c0.6,-2.9 1.3,-5.2 1.8,-6.8c0.3,-0.8 0.5,-1.4 0.7,-1.8c0.2,-0.4 0.3,-0.6 0.3,-0.6c0,0 -0.1,0.2 -0.2,0.7c-0.2,0.4 -0.4,1.1 -0.6,1.9c-0.2,0.8 -0.5,1.8 -0.8,3c-0.3,1.2 -0.5,2.5 -0.8,3.9c-0.5,2.9 -1.1,6.2 -2.1,9.7c-0.5,1.8 -1.1,3.6 -1.9,5.3c-0.8,1.8 -1.8,3.5 -2.8,5.1c-2.1,3.3 -4.3,6.5 -6.5,9.4c-2.2,2.9 -4.3,5.5 -6.1,7.9c-0.4,0.6 -0.8,1.2 -1.3,1.7c-0.5,0.5 -0.9,0.9 -1.4,1.3c-1,0.7 -1.9,1.1 -2.8,1.4c-0.8,0.2 -1.5,0.3 -1.9,0.3c-0.3,-0.2 -0.5,-0.2 -0.5,-0.2z" fill="#59402f"/><path d="M166.8901,242.3c0.3,-0.5 2.5,-2.3 3.5,-1.7c1,0.6 -0.3,1.2 -1.1,1.5c-0.9,0.3 -2.6,0.5 -2.4,0.2z" fill="#6c5f57"/><path d="M162.4901,238.9c0.3,-0.5 2.5,-2.3 3.5,-1.7c0.9,0.6 -0.3,1.2 -1.1,1.5c-0.9,0.3 -2.6,0.5 -2.4,0.2z" fill="#6c5f57"/><path d="M160.0901,236.3c0.3,-0.5 2.5,-2.3 3.5,-1.7c0.9,0.6 -0.3,1.2 -1.1,1.5c-0.9,0.3 -2.6,0.5 -2.4,0.2z" fill="#6c5f57"/></g><g data-paper-data="{&quot;index&quot;:null}"><path d="M293.3901,144.7c17.2,-3.6 21.4,10.1 23.5,17.7c2,7.7 -7.8,24 -10.2,33c-2.4,9 -6,16 -3.1,28.6c3.7,16 -1.1,29.3 -3.1,29.7c-16.4,3.4 -23.9,2.3 -25.1,0.5c-1.2,-1.8 2.3,-2.7 4.4,-5c2.1,-2.3 -4.9,-11.1 -10.8,-25.2c-11.7,-28.1 2.7,-51.8 2.7,-51.8c0.7,-6.2 4.5,-23.9 21.7,-27.5z" fill="#856045"/><g><path d="M283.5901,256c0,0 0,-0.3 0.1,-0.8c0.1,-0.5 0.4,-1.1 0.9,-1.6c0.4,-0.5 1,-0.9 1.4,-1.2c0.4,-0.2 0.8,-0.3 0.8,-0.3c0,0 0,0.1 -0.1,0.2c-0.1,0.1 -0.2,0.3 -0.4,0.4c-0.3,0.4 -0.7,0.8 -1.1,1.3c-0.4,0.5 -0.8,1 -1,1.4c-0.4,0.3 -0.6,0.6 -0.6,0.6z" fill="#59402f"/><path d="M277.9901,255.5c0,0 0.1,-0.4 0.3,-0.9c0.2,-0.5 0.6,-1.2 1.2,-1.8c0.3,-0.3 0.6,-0.5 0.9,-0.7c0.3,-0.2 0.6,-0.4 0.9,-0.5c0.3,-0.1 0.5,-0.2 0.7,-0.2c0.2,0 0.3,0 0.3,0c0,0 -0.1,0.1 -0.2,0.2c-0.1,0.1 -0.3,0.2 -0.5,0.4c-0.4,0.3 -1,0.8 -1.5,1.3c-0.5,0.5 -1,1.1 -1.3,1.5c-0.5,0.4 -0.8,0.7 -0.8,0.7z" fill="#59402f"/><path d="M284.3901,257.4c0.1,-0.6 1.1,-3.2 2.3,-3.1c1.2,0.1 0.3,1.2 -0.3,1.8c-0.6,0.7 -2,1.7 -2,1.3z" fill="#665a52"/><path d="M278.9901,256.5c0.1,-0.6 1.1,-3.2 2.3,-3.1c1.1,0.1 0.3,1.2 -0.3,1.8c-0.6,0.7 -2,1.7 -2,1.3z" fill="#665a52"/><path d="M275.5901,256c0.1,-0.6 1.1,-3.2 2.3,-3.1c1.1,0.1 0.3,1.2 -0.3,1.8c-0.6,0.7 -2,1.7 -2,1.3z" fill="#665a52"/></g><g><path d="M294.9901,195.2c0,0 8.1,10 10.4,9.8c0,0 -2.2,1.9 -4,0.4c0,0 4.4,1.7 5.6,6.2l-2.9,-0.9c0,0 4.1,6.3 3.8,10.6l-2.9,-3.1c0,0 3.4,6.4 -0.7,10.1" fill="#856045"/><path d="M305.1901,205c0,0 -0.2,0 -0.5,-0.1c-0.3,-0.1 -0.8,-0.3 -1.3,-0.6c-1,-0.6 -2.2,-1.6 -3.3,-2.6c-0.5,-0.5 -1.1,-1.1 -1.5,-1.6c-0.5,-0.5 -0.9,-1.1 -1.2,-1.5c-0.7,-0.9 -1.1,-1.6 -1.1,-1.6c0,0 0.6,0.5 1.4,1.3c0.8,0.8 1.8,1.9 2.9,2.9c0.5,0.5 1.1,1.1 1.6,1.5c0.5,0.5 1,0.9 1.4,1.3c0.4,0.4 0.8,0.6 1.1,0.8c0.3,0.1 0.5,0.2 0.5,0.2z" fill="#59402f"/><path d="M306.6901,211.4c0,0 -0.2,-0.4 -0.6,-1c-0.3,-0.6 -0.8,-1.3 -1.3,-2c-0.3,-0.3 -0.5,-0.7 -0.8,-1c-0.3,-0.3 -0.6,-0.6 -0.8,-0.8c-0.2,-0.2 -0.5,-0.4 -0.6,-0.5c-0.2,-0.1 -0.2,-0.2 -0.2,-0.2c0,0 0.1,0 0.3,0.1c0.2,0.1 0.5,0.1 0.8,0.3c0.3,0.2 0.7,0.4 1,0.7c0.3,0.3 0.7,0.6 0.9,1c0.3,0.4 0.5,0.8 0.7,1.2c0.2,0.4 0.3,0.8 0.4,1.1c0.2,0.7 0.2,1.1 0.2,1.1z" fill="#59402f"/><path d="M307.5901,220.7c0,0 0.1,-0.7 -0.1,-1.7c-0.1,-0.5 -0.2,-1.1 -0.4,-1.7c-0.2,-0.6 -0.4,-1.2 -0.7,-1.9c-0.3,-0.6 -0.5,-1.2 -0.8,-1.8c-0.3,-0.6 -0.5,-1.1 -0.8,-1.6c-0.2,-0.5 -0.4,-0.8 -0.6,-1.1c-0.1,-0.3 -0.2,-0.4 -0.2,-0.4c0,0 0.1,0.1 0.3,0.4c0.2,0.2 0.5,0.6 0.8,1c0.3,0.4 0.6,0.9 1,1.5c0.3,0.6 0.6,1.2 0.9,1.8c0.3,0.6 0.5,1.3 0.6,2c0.2,0.6 0.2,1.3 0.2,1.8c0,0.5 -0.1,1 -0.1,1.3c0,0.3 -0.1,0.4 -0.1,0.4z" fill="#59402f"/><path d="M305.2901,226.9c0,0 0.1,-0.1 0.2,-0.3c0.1,-0.2 0.2,-0.5 0.3,-0.9c0.1,-0.8 0.1,-1.9 0,-2.9c-0.1,-1.1 -0.4,-2.1 -0.5,-3c-0.2,-0.8 -0.3,-1.4 -0.3,-1.4c0,0 0.1,0.1 0.2,0.3c0.1,0.2 0.3,0.5 0.4,0.9c0.1,0.4 0.3,0.8 0.5,1.4c0.1,0.3 0.2,0.5 0.2,0.8c0,0.3 0.1,0.6 0.1,0.8c0.1,0.6 0.1,1.1 0,1.7c0,0.5 -0.2,1 -0.3,1.4c-0.2,0.4 -0.4,0.7 -0.5,0.9c-0.2,0.2 -0.3,0.3 -0.3,0.3z" fill="#59402f"/></g><path d="M303.2901,224.3c0,0 0.7,2.2 1.3,5.7c0.1,0.9 0.3,1.8 0.4,2.8c0.1,1 0.2,2 0.2,3.1c0.1,2.2 0,4.5 -0.3,6.8c-0.3,2.3 -0.8,4.6 -1.7,6.7c-0.4,1 -0.9,2 -1.4,2.9c-0.1,0.2 -0.3,0.4 -0.4,0.6l-0.2,0.3c-0.1,0.1 -0.1,0.2 -0.3,0.3c-0.5,0.2 -0.9,0.3 -1.3,0.4c-1.7,0.4 -3.1,0.6 -4.1,0.7c-1,0.1 -1.6,0.2 -1.6,0.2c0,0 0.6,-0.1 1.6,-0.3c1,-0.2 2.4,-0.4 4.1,-0.8c0.4,-0.1 0.9,-0.2 1.3,-0.4c0.1,0 0.1,-0.1 0.2,-0.2l0.2,-0.3c0.1,-0.2 0.2,-0.4 0.3,-0.6c0.4,-0.9 0.9,-1.8 1.2,-2.9c0.4,-1 0.6,-2.1 0.9,-3.2c0.3,-1.1 0.4,-2.2 0.6,-3.4c0.2,-2.3 0.4,-4.6 0.3,-6.7c-0.1,-2.2 -0.2,-4.2 -0.4,-5.9c-0.4,-3.5 -0.9,-5.8 -0.9,-5.8z" fill="#59402f"/><path d="M266.6901,185c0,0 -0.2,4.4 -0.3,11c-0.1,3.3 -0.1,7.2 0.1,11.3c0.1,2.1 0.2,4.2 0.4,6.4c0.2,2.2 0.4,4.4 1,6.5c0.3,1.1 0.6,2 1.1,3c0.5,1 0.9,2 1.4,2.9c1,1.9 2,3.8 3,5.6c2,3.6 3.9,7 5.3,10c0.7,1.5 1.3,2.9 1.6,4.3c0.2,0.7 0.3,1.3 0.3,1.9c0,0.6 -0.2,1.2 -0.5,1.5c-0.7,0.7 -1.5,1 -1.9,1.3c-0.4,0.3 -0.6,0.5 -0.6,0.5c0,0 0.2,-0.2 0.6,-0.5c0.4,-0.3 1.1,-0.7 1.8,-1.4c0.7,-0.7 0.4,-2 0,-3.2c-0.4,-1.3 -1,-2.7 -1.7,-4.2c-1.5,-3 -3.4,-6.3 -5.4,-9.9c-1,-1.8 -2,-3.7 -3,-5.6c-0.5,-1 -1,-2 -1.4,-3c-0.5,-1 -0.9,-2.1 -1.1,-3.2c-0.5,-2.2 -0.7,-4.4 -0.9,-6.6c-0.2,-2.2 -0.3,-4.3 -0.3,-6.4c-0.1,-4.2 0,-8 0.1,-11.3c0,-6.5 0.4,-10.9 0.4,-10.9z" fill="#59402f"/></g><g data-paper-data="{&quot;index&quot;:null}"><g><path d="M325.7901,137.3c0,0 10.3,-3.9 21.4,11.4c0,0 -3.2,-2.5 -5.1,-2.4c0,0 4.9,1.6 6.3,9.9c0,0 -1.9,-3.2 -3.3,-3.5c0,0 7,9.2 -3,11.2c-10,1.8 -18.6,-24.3 -16.3,-26.6z" fill="#8d674a"/><path d="M347.1901,148.7c0,0 -0.2,-0.3 -0.6,-0.8c-0.4,-0.5 -1,-1.2 -1.7,-2c-0.7,-0.8 -1.6,-1.7 -2.6,-2.6c-0.5,-0.5 -1,-0.9 -1.6,-1.4c-0.5,-0.5 -1.1,-0.9 -1.7,-1.3c-0.6,-0.4 -1.2,-0.8 -1.8,-1.2c-0.6,-0.3 -1.2,-0.7 -1.8,-0.9c-0.6,-0.2 -1.2,-0.5 -1.8,-0.7c-0.6,-0.2 -1.1,-0.4 -1.7,-0.5c-0.5,-0.1 -1,-0.2 -1.4,-0.2c-0.4,-0.1 -0.8,0 -1.1,0c-0.6,0 -1,0 -1,0c0,0 0.4,0 1,-0.1c0.3,0 0.7,-0.1 1.2,-0.1c0.4,0 0.9,0.1 1.5,0.1c0.5,0.1 1.1,0.2 1.7,0.4c0.6,0.1 1.2,0.4 1.9,0.6c0.6,0.3 1.3,0.6 1.9,0.9c0.6,0.4 1.3,0.7 1.9,1.2c0.6,0.4 1.2,0.9 1.7,1.4c0.6,0.5 1.1,0.9 1.6,1.4c1,0.9 1.8,1.9 2.5,2.8c1.2,1.7 1.9,3 1.9,3z" fill="#59402f"/><path d="M342.1901,146.2c0,0 0.7,0.3 1.6,1c0.5,0.3 1,0.8 1.5,1.3c0.5,0.5 1,1.1 1.4,1.8c0.4,0.6 0.8,1.3 1.1,2c0.2,0.3 0.3,0.7 0.4,1c0.1,0.3 0.2,0.6 0.2,0.9c0.1,0.6 0.1,1 0.2,1.4c0,0.3 0,0.5 0,0.5c0,0 -0.1,-0.2 -0.1,-0.5c0,-0.2 -0.1,-0.4 -0.2,-0.6c-0.1,-0.2 -0.2,-0.5 -0.3,-0.7c-0.1,-0.3 -0.2,-0.5 -0.3,-0.8c-0.1,-0.3 -0.3,-0.6 -0.4,-0.9c-0.1,-0.3 -0.3,-0.6 -0.5,-0.9c-0.2,-0.3 -0.4,-0.6 -0.6,-0.9c-0.8,-1.2 -1.8,-2.3 -2.6,-3.2c-0.9,-0.9 -1.4,-1.4 -1.4,-1.4z" fill="#59402f"/><path d="M345.1901,152.6c0,0 0.5,0.4 1.1,1.1c0.3,0.4 0.6,0.8 0.8,1.3c0.3,0.5 0.5,1.1 0.6,1.7c0.1,0.6 0.2,1.2 0.1,1.8c0,0.3 -0.1,0.6 -0.1,0.8c-0.1,0.3 -0.1,0.5 -0.2,0.7c-0.2,0.4 -0.4,0.8 -0.5,1c-0.1,0.2 -0.2,0.3 -0.2,0.3c0,0 0,-0.2 0.1,-0.4c0,-0.1 0.1,-0.3 0.1,-0.4c0,-0.2 0.1,-0.4 0.1,-0.6c0.1,-0.2 0.1,-0.4 0.1,-0.7c0,-0.2 0,-0.5 0,-0.8c0,-0.3 0,-0.5 0,-0.8c0,-0.3 -0.1,-0.6 -0.1,-0.8c-0.1,-0.6 -0.3,-1.1 -0.5,-1.6c-0.2,-0.5 -0.4,-1 -0.6,-1.4c-0.5,-0.7 -0.8,-1.2 -0.8,-1.2z" fill="#59402f"/></g><g><path d="M212.4901,196.3c-3,2.1 -9.9,-3.5 -9.9,-3.5l-1.1,2c-0.1,-3.4 -7.6,-7.8 -7.6,-7.8l0.9,2.6c-6.7,-2.5 -7.9,-11.2 -7.9,-11.2l-0.1,2.8c-3.5,-3.1 -3.7,-10.9 -3.7,-10.9" fill="#8d674a"/><g><path d="M202.6901,115.3c19.6,-7.6 44.6,1.7 56,5.6c16.6,5.6 35.9,-11 63.4,10.1c27.5,21.1 23.2,54.2 3.6,70.9c-21.9,18.7 -101.4,21.2 -116.3,-6.6c0,0 -26.6,-9.4 -28.7,-36.6" fill="#8d674a"/><path d="M182.9901,170.4c0,0 0.2,0.7 0.4,1.7c0.2,1 0.6,2.4 0.9,3.7c0.1,0.3 0.2,0.7 0.3,1c0.1,0.3 0.2,0.7 0.3,1c0.2,0.6 0.4,1.2 0.7,1.6c0.1,0.2 0.2,0.4 0.3,0.6c0.1,0.2 0.2,0.3 0.3,0.4c0.2,0.2 0.3,0.4 0.3,0.4c0,0 -0.2,-0.1 -0.4,-0.3c-0.1,-0.1 -0.3,-0.2 -0.4,-0.4c-0.2,-0.2 -0.3,-0.3 -0.5,-0.6c-0.3,-0.4 -0.6,-1 -0.9,-1.6c-0.3,-0.6 -0.5,-1.3 -0.7,-2c-0.4,-1.4 -0.6,-2.8 -0.6,-3.9c-0.1,-0.9 0,-1.6 0,-1.6z" fill="#59402f"/><path d="M186.9901,178.3c0,0 0.2,0.9 0.7,2.1c0.2,0.6 0.5,1.3 0.9,2.1c0.2,0.4 0.4,0.7 0.6,1.1c0.2,0.4 0.4,0.8 0.7,1.1c0.3,0.4 0.5,0.7 0.7,1.1c0.3,0.3 0.5,0.7 0.8,1c0.3,0.3 0.5,0.6 0.8,0.8c0.3,0.2 0.5,0.5 0.8,0.7c0.3,0.2 0.5,0.4 0.7,0.5c0.2,0.1 0.4,0.3 0.6,0.3c0.3,0.2 0.5,0.3 0.5,0.3c0,0 -0.2,-0.1 -0.6,-0.2c-0.2,-0.1 -0.4,-0.1 -0.7,-0.2c-0.2,-0.1 -0.5,-0.3 -0.8,-0.4c-0.3,-0.1 -0.6,-0.4 -0.9,-0.6c-0.3,-0.2 -0.6,-0.5 -0.9,-0.8c-0.3,-0.3 -0.6,-0.6 -0.9,-1c-0.3,-0.3 -0.5,-0.7 -0.8,-1.1c-0.5,-0.8 -0.9,-1.6 -1.2,-2.4c-0.3,-0.8 -0.5,-1.6 -0.7,-2.2c-0.3,-1.3 -0.3,-2.2 -0.3,-2.2z" fill="#59402f"/><path d="M193.9901,187.1c0,0 0.7,0.2 1.6,0.7c0.5,0.2 1,0.6 1.6,0.9c0.6,0.4 1.1,0.8 1.6,1.3c0.5,0.5 1,1 1.4,1.5c0.4,0.5 0.7,1.1 1,1.6c0.1,0.3 0.2,0.5 0.3,0.7c0.1,0.2 0.1,0.4 0.1,0.5c0.1,0.3 0.1,0.5 0.1,0.5c0,0 -0.1,-0.2 -0.2,-0.4c-0.1,-0.1 -0.1,-0.3 -0.2,-0.5c-0.1,-0.2 -0.2,-0.4 -0.4,-0.6c-0.2,-0.2 -0.3,-0.4 -0.5,-0.7c-0.2,-0.2 -0.4,-0.5 -0.6,-0.7c-0.4,-0.5 -0.9,-1 -1.4,-1.4c-0.5,-0.5 -1,-0.9 -1.5,-1.3c-0.5,-0.4 -1,-0.8 -1.4,-1.1c-1,-0.6 -1.5,-1 -1.5,-1z" fill="#59402f"/><path d="M202.6901,192.8c0,0 0.6,0.4 1.5,0.9c0.5,0.3 1,0.6 1.6,0.9c0.6,0.3 1.2,0.6 1.8,0.9c0.6,0.3 1.3,0.5 1.9,0.7c0.3,0.1 0.6,0.2 0.9,0.3c0.3,0.1 0.6,0.1 0.8,0.2c0.3,0 0.5,0.1 0.7,0.1c0.2,0 0.4,0 0.6,0c0.3,0 0.5,0 0.5,0c0,0 -0.2,0 -0.5,0.1c-0.2,0 -0.3,0.1 -0.6,0.1c-0.2,0 -0.5,0 -0.7,0c-0.5,0 -1.2,-0.1 -1.9,-0.2c-0.7,-0.2 -1.4,-0.4 -2,-0.7c-0.7,-0.3 -1.3,-0.6 -1.9,-1c-0.6,-0.4 -1.1,-0.7 -1.5,-1.1c-0.7,-0.6 -1.2,-1.2 -1.2,-1.2z" fill="#59402f"/><path d="M225.1901,112.6c0,0 3.1,0 7.7,0.7c2.3,0.3 5,0.8 7.8,1.5c2.8,0.6 5.8,1.5 8.7,2.5c1.5,0.5 2.9,1.1 4.3,1.7c1.4,0.5 2.8,1 4.2,1.5c1.4,0.4 2.7,0.7 4,0.9c1.3,0.2 2.5,0.3 3.7,0.4c1.2,0.1 2.2,0.1 3.1,0.1c0.9,0 1.8,0 2.4,0c1.3,-0.1 2.1,-0.1 2.1,-0.1c0,0 -0.8,0.1 -2.1,0.2c-0.7,0.1 -1.5,0.1 -2.4,0.1c-0.9,0 -2,0 -3.2,0c-1.2,0 -2.4,-0.1 -3.7,-0.3c-1.3,-0.2 -2.7,-0.5 -4.1,-0.8c-1.4,-0.4 -2.8,-0.9 -4.3,-1.4c-1.4,-0.5 -2.9,-1.1 -4.3,-1.6c-1.5,-0.5 -2.9,-0.9 -4.4,-1.3c-1.5,-0.4 -2.9,-0.8 -4.3,-1.1c-2.8,-0.7 -5.4,-1.2 -7.7,-1.6c-2.3,-0.4 -4.2,-0.7 -5.5,-0.9c-1.3,-0.4 -2,-0.5 -2,-0.5z" fill="#59402f"/><path d="M299.3901,120.4c0,0 1.2,0.2 3.3,0.8c2.1,0.6 5,1.5 8.3,2.9c3.4,1.5 7.2,3.4 10.9,6.1c3.7,2.7 7.4,6 10.3,10c1.5,2 2.7,4.1 3.8,6.3c1.1,2.1 2.1,4.3 3,6.4c0.8,2.1 1.6,4.2 2,6.3c0.5,2.1 0.7,4 0.8,5.9c0.1,3.7 -0.4,6.7 -0.7,8.8c-0.3,2.1 -0.5,3.3 -0.5,3.3c0,0 0.1,-1.2 0.4,-3.3c0.2,-2.1 0.6,-5.2 0.4,-8.8c-0.1,-1.8 -0.4,-3.8 -0.9,-5.8c-0.5,-2 -1.3,-4.1 -2.1,-6.2c-0.9,-2.1 -1.9,-4.2 -3,-6.3c-1.1,-2.2 -2.3,-4.2 -3.7,-6.2c-2.8,-3.9 -6.4,-7.2 -10.1,-9.9c-3.7,-2.7 -7.4,-4.7 -10.7,-6.2c-3.3,-1.5 -6.2,-2.5 -8.2,-3.2c-2.1,-0.6 -3.3,-0.9 -3.3,-0.9z" fill="#59402f"/><path d="M215.0901,202.4c0,0 0.4,0.2 1,0.7c0.7,0.4 1.7,1 3,1.8c0.7,0.3 1.4,0.7 2.2,1.2c0.8,0.4 1.7,0.8 2.7,1.3c1,0.4 2,0.9 3.1,1.3c1.1,0.4 2.3,0.9 3.5,1.3c1.2,0.4 2.5,0.8 3.8,1.3c1.3,0.4 2.7,0.8 4.2,1.2c2.9,0.7 5.9,1.4 9.2,2c0.8,0.1 1.6,0.3 2.4,0.4c0.8,0.1 1.6,0.2 2.5,0.3c0.8,0.1 1.7,0.2 2.5,0.3c0.8,0.1 1.7,0.1 2.5,0.2c0.9,0.1 1.7,0.1 2.6,0.2c0.9,0.1 1.7,0.1 2.6,0.1c1.7,0 3.5,0 5.2,0c3.5,-0.2 6.9,-0.2 10.3,-0.6c3.4,-0.3 6.7,-0.7 10,-1.1c1.6,-0.2 3.2,-0.5 4.7,-0.7c1.5,-0.2 3.1,-0.5 4.5,-0.8c2.9,-0.5 5.7,-1.1 8.2,-1.8c2.5,-0.6 4.8,-1.3 6.8,-2c1,-0.4 1.9,-0.7 2.8,-1c0.8,-0.4 1.6,-0.7 2.3,-1c1.4,-0.6 2.4,-1.3 3.1,-1.7c0.7,-0.5 1,-0.8 1,-0.8c0,0 -0.3,0.3 -1,0.8c-0.7,0.5 -1.7,1.1 -3,1.8c-0.7,0.4 -1.4,0.7 -2.3,1.1c-0.8,0.4 -1.8,0.7 -2.8,1.1c-2,0.7 -4.3,1.5 -6.8,2.1c-2.5,0.7 -5.3,1.3 -8.2,1.9c-1.5,0.3 -3,0.6 -4.5,0.8c-1.6,0.2 -3.1,0.5 -4.8,0.7c-3.2,0.4 -6.6,0.8 -10,1.1c-3.4,0.4 -6.9,0.5 -10.4,0.7c-1.7,0 -3.5,0 -5.2,-0.1c-0.9,0 -1.7,0 -2.6,-0.1c-0.9,-0.1 -1.7,-0.1 -2.6,-0.2c-0.9,-0.1 -1.7,-0.1 -2.6,-0.2c-0.8,-0.1 -1.7,-0.2 -2.5,-0.3c-0.8,-0.1 -1.7,-0.2 -2.5,-0.3c-0.8,-0.1 -1.6,-0.3 -2.4,-0.4c-3.2,-0.5 -6.3,-1.3 -9.2,-2.1c-1.4,-0.4 -2.8,-0.8 -4.2,-1.3c-1.3,-0.5 -2.6,-0.9 -3.8,-1.4c-1.2,-0.5 -2.4,-0.9 -3.5,-1.4c-1.1,-0.5 -2.1,-1 -3.1,-1.4c-0.9,-0.5 -1.8,-0.9 -2.7,-1.3c-0.8,-0.4 -1.5,-0.8 -2.2,-1.2c-1.3,-0.8 -2.3,-1.4 -3,-1.8c-0.4,-0.4 -0.8,-0.7 -0.8,-0.7z" fill="#59402f"/></g></g></g><path d="M301.3901,152.5c11.2,-13.5 20.2,-6.8 26.8,-2.5c18.2,11.9 7.7,31.8 10.6,39.4c1,2.8 5.1,9.1 7.2,11.9c10.3,14 15,37.6 13.8,39.2c-1.2,1.6 -6.8,7.2 -11,9.6c-5.8,3.3 -10.7,2.8 -11.9,2.4c-2,-0.6 1.8,-6 2.1,-9.1c0.3,-3.1 -25.5,-21.9 -28.4,-24.9c-9.2,-9.4 -20.3,-52.5 -9.2,-66z" data-paper-data="{&quot;index&quot;:null}" fill="#8d674a"/><g data-paper-data="{&quot;index&quot;:null}"><path d="M332.3901,182.4c0,0 14.8,11.4 17,10.7c0,0 -1.8,2.3 -3.9,1.2c0,0 4.7,0.8 6.7,4.9l-3.1,-0.3c0,0 5.4,5.3 5.9,9.6l-3.5,-2.4c0,0 4.7,5.5 1.3,10" fill="#8d674a"/><path d="M349.2901,193.1c0,0 -0.2,0.1 -0.5,0c-0.3,0 -0.8,-0.1 -1.4,-0.3c-1.1,-0.4 -2.5,-1.1 -3.7,-1.9c-0.6,-0.4 -1.3,-0.9 -1.8,-1.3c-0.6,-0.4 -1.1,-0.9 -1.5,-1.2c-0.8,-0.8 -1.4,-1.3 -1.4,-1.3c0,0 0.7,0.4 1.6,1c1,0.6 2.2,1.5 3.5,2.3c0.6,0.4 1.3,0.8 1.9,1.2c0.6,0.4 1.2,0.7 1.7,0.9c0.5,0.3 0.9,0.4 1.2,0.5c0.2,0.1 0.4,0.1 0.4,0.1z" fill="#59402f"/><path d="M352.0901,199.1c0,0 -0.3,-0.4 -0.7,-0.8c-0.5,-0.5 -1,-1.1 -1.7,-1.7c-0.3,-0.3 -0.7,-0.5 -1,-0.8c-0.3,-0.2 -0.7,-0.4 -0.9,-0.6c-0.3,-0.2 -0.5,-0.3 -0.7,-0.4c-0.2,-0.1 -0.3,-0.1 -0.3,-0.1c0,0 0.1,0 0.3,0c0.2,0 0.5,0 0.8,0.1c0.3,0.1 0.7,0.2 1.1,0.4c0.4,0.2 0.8,0.5 1.1,0.8c0.3,0.3 0.7,0.6 0.9,1c0.3,0.3 0.5,0.7 0.6,1c0.4,0.7 0.5,1.1 0.5,1.1z" fill="#59402f"/><path d="M354.8901,208c0,0 -0.1,-0.7 -0.5,-1.6c-0.2,-0.5 -0.4,-1 -0.8,-1.5c-0.3,-0.5 -0.7,-1.1 -1,-1.7c-0.4,-0.6 -0.8,-1.1 -1.2,-1.6c-0.4,-0.5 -0.8,-1 -1.1,-1.4c-0.3,-0.4 -0.6,-0.7 -0.8,-1c-0.2,-0.2 -0.3,-0.4 -0.3,-0.4c0,0 0.1,0.1 0.4,0.3c0.2,0.2 0.6,0.4 1,0.8c0.4,0.4 0.8,0.8 1.2,1.3c0.4,0.5 0.9,1 1.3,1.6c0.4,0.6 0.8,1.2 1,1.8c0.3,0.6 0.5,1.2 0.6,1.7c0.1,0.5 0.1,1 0.1,1.3c0.1,0.3 0.1,0.4 0.1,0.4z" fill="#59402f"/><path d="M353.7901,214.6c0,0 0.1,-0.1 0.1,-0.4c0.1,-0.2 0.1,-0.6 0.1,-1c0,-0.8 -0.3,-1.8 -0.6,-2.9c-0.4,-1 -0.8,-2 -1.1,-2.8c-0.3,-0.8 -0.5,-1.3 -0.5,-1.3c0,0 0.1,0.1 0.3,0.3c0.1,0.2 0.4,0.5 0.6,0.8c0.2,0.4 0.5,0.8 0.7,1.2c0.1,0.2 0.3,0.5 0.4,0.7c0.1,0.3 0.2,0.5 0.3,0.8c0.2,0.5 0.3,1.1 0.4,1.6c0.1,0.5 0.1,1.1 0,1.5c-0.1,0.4 -0.2,0.8 -0.3,1c-0.2,0.4 -0.4,0.5 -0.4,0.5z" fill="#59402f"/></g><path d="M350.7901,209.6c0,0 1.1,1.9 2.5,5c0.7,1.5 1.5,3.3 2.2,5.2c0.8,1.9 1.5,4 2.2,6.1c0.6,2.1 1.2,4.3 1.6,6.3c0.4,2 0.6,4 0.7,5.7c0,0.8 0,1.6 -0.1,2.3c0,0.2 0,0.3 -0.1,0.5c-0.1,0.1 -0.2,0.3 -0.3,0.4c-0.2,0.2 -0.4,0.4 -0.6,0.5c-0.8,0.6 -1.2,0.9 -1.2,0.9c0,0 0.4,-0.3 1.2,-1c0.2,-0.2 0.4,-0.3 0.6,-0.6c0.1,-0.1 0.2,-0.2 0.3,-0.3c0.1,-0.1 0,-0.3 0.1,-0.4c0,-0.7 0,-1.4 -0.1,-2.3c-0.1,-0.8 -0.2,-1.7 -0.3,-2.6c-0.1,-0.9 -0.4,-1.9 -0.6,-2.9c-0.4,-2 -1,-4.1 -1.7,-6.2c-0.7,-2.1 -1.4,-4.2 -2.1,-6.1c-0.7,-1.9 -1.4,-3.8 -2,-5.3c-1.4,-3.2 -2.3,-5.2 -2.3,-5.2z" data-paper-data="{&quot;index&quot;:null}" fill="#59402f"/><path d="M301.0901,197.5c0,0 0.9,3.9 3.1,9.6c0.6,1.4 1.2,2.9 2,4.4c0.8,1.5 1.7,3.1 2.8,4.6c0.6,0.7 1.2,1.5 1.9,2.1c0.7,0.6 1.5,1.3 2.2,1.9c1.5,1.2 3.1,2.5 4.7,3.7c3.2,2.5 6.4,4.9 9.4,7.2c1.5,1.2 2.9,2.3 4.2,3.5c1.3,1.1 2.5,2.2 3.6,3.3c1.1,1.1 2,2.2 2.7,3.1c0.4,0.5 0.8,0.8 1.2,1.3c0.4,0.4 0.4,1 0.3,1.4c-0.2,0.9 -0.4,1.5 -0.6,2c-0.2,0.4 -0.2,0.7 -0.2,0.7c0,0 0.1,-0.2 0.2,-0.7c0.1,-0.5 0.4,-1.1 0.5,-2c0.1,-0.4 0,-0.9 -0.3,-1.3c-0.3,-0.4 -0.8,-0.8 -1.2,-1.2c-0.9,-0.9 -1.7,-2 -2.8,-3c-2.2,-2.1 -4.9,-4.3 -7.9,-6.6c-3,-2.3 -6.2,-4.7 -9.4,-7.2c-1.6,-1.2 -3.2,-2.5 -4.7,-3.7c-0.8,-0.6 -1.5,-1.3 -2.2,-1.9c-0.7,-0.7 -1.3,-1.4 -1.9,-2.2c-2.2,-3.1 -3.6,-6.4 -4.7,-9.3c-1.1,-2.8 -1.7,-5.3 -2.1,-7c-0.6,-1.7 -0.8,-2.7 -0.8,-2.7z" data-paper-data="{&quot;index&quot;:null}" fill="#59402f"/><g data-paper-data="{&quot;index&quot;:null}"><path d="M343.8901,251.9c0,0 -0.1,-0.3 -0.1,-0.8c0,-0.5 0.2,-1.2 0.5,-1.8c0.3,-0.6 0.7,-1.1 1.1,-1.5c0.4,-0.3 0.7,-0.5 0.7,-0.5c0,0 0,0.1 -0.1,0.2c-0.1,0.1 -0.2,0.3 -0.3,0.5c-0.2,0.4 -0.5,1 -0.8,1.5c-0.3,0.6 -0.5,1.1 -0.7,1.6c-0.1,0.5 -0.3,0.8 -0.3,0.8z" fill="#59402f"/><path d="M338.3901,252.7c0,0 0,-0.4 0.1,-1c0.1,-0.6 0.4,-1.3 0.8,-2c0.2,-0.3 0.4,-0.6 0.7,-0.9c0.3,-0.3 0.5,-0.5 0.8,-0.6c0.2,-0.2 0.5,-0.3 0.6,-0.3c0.2,-0.1 0.2,-0.1 0.2,-0.1c0,0 -0.1,0.1 -0.2,0.2c-0.1,0.1 -0.3,0.3 -0.4,0.5c-0.3,0.4 -0.8,1 -1.1,1.6c-0.4,0.6 -0.7,1.3 -1,1.7c-0.3,0.5 -0.5,0.9 -0.5,0.9z" fill="#59402f"/><path d="M345.0901,253.1c-0.1,-0.6 0.4,-3.4 1.5,-3.6c1.1,-0.2 0.5,1.1 0.1,1.9c-0.4,0.8 -1.6,2.1 -1.6,1.7z" fill="#6c5f57"/><path d="M339.4901,253.4c-0.1,-0.6 0.4,-3.4 1.5,-3.6c1.1,-0.2 0.5,1.1 0.1,1.9c-0.3,0.8 -1.5,2.1 -1.6,1.7z" fill="#6c5f57"/><path d="M336.0901,253.7c-0.1,-0.6 0.4,-3.4 1.5,-3.6c1.1,-0.2 0.5,1.1 0.1,1.9c-0.4,0.8 -1.5,2.1 -1.6,1.7z" fill="#6c5f57"/></g><g data-paper-data="{&quot;index&quot;:null}"><g fill="#8d674a"><path d="M252.8901,188.8c3.9,22.7 -6.2,64.7 -8.8,66.8c-2.6,2.1 -28.4,3.8 -28.1,0.5c0.3,-3.3 5.8,-4 6.9,-7c1.1,-3 -1.2,-26 -2.7,-32.3c-1.5,-6.4 -8.3,-11.3 -14.3,-33.4c-6,-22.1 36.3,-40.4 47,5.4z"/><path d="M243.5901,168.5c0,0 8.4,9.7 10.7,9.4c0,0 -2.2,1.9 -4,0.5c0,0 4.5,1.6 5.8,6l-3,-0.8c0,0 4.3,6.2 4.2,10.5l-3,-3c0,0 3.6,6.2 -0.4,10.1"/></g><g fill="#59402f"><path d="M255.0901,178.2c0,0 -0.2,0 -0.5,-0.1c-0.3,-0.1 -0.8,-0.3 -1.3,-0.6c-1,-0.6 -2.2,-1.6 -3.3,-2.6c-0.5,-0.5 -1.1,-1.1 -1.5,-1.6c-0.5,-0.5 -0.9,-1.1 -1.2,-1.5c-0.7,-0.9 -1.1,-1.6 -1.1,-1.6c0,0 0.6,0.5 1.4,1.3c0.8,0.8 1.9,1.9 2.9,2.9c0.5,0.5 1.1,1 1.6,1.5c0.5,0.5 1,0.9 1.4,1.3c0.4,0.3 0.8,0.6 1.1,0.8c0.3,0.2 0.5,0.2 0.5,0.2z"/><path d="M256.5901,184.7c0,0 -0.2,-0.4 -0.6,-1c-0.3,-0.6 -0.8,-1.3 -1.3,-2c-0.3,-0.3 -0.5,-0.7 -0.8,-1c-0.3,-0.3 -0.6,-0.5 -0.8,-0.8c-0.2,-0.2 -0.5,-0.4 -0.6,-0.5c-0.2,-0.1 -0.2,-0.2 -0.2,-0.2c0,0 0.1,0 0.3,0.1c0.2,0 0.5,0.1 0.8,0.3c0.3,0.1 0.7,0.4 1,0.6c0.3,0.3 0.7,0.6 0.9,1c0.3,0.4 0.5,0.8 0.7,1.2c0.2,0.4 0.3,0.8 0.4,1.1c0.2,0.7 0.2,1.2 0.2,1.2z"/><path d="M257.4901,194c0,0 0.1,-0.7 -0.1,-1.7c-0.1,-0.5 -0.2,-1.1 -0.4,-1.7c-0.2,-0.6 -0.4,-1.2 -0.7,-1.9c-0.3,-0.6 -0.5,-1.2 -0.8,-1.8c-0.3,-0.6 -0.5,-1.1 -0.8,-1.6c-0.2,-0.5 -0.4,-0.8 -0.6,-1.1c-0.1,-0.3 -0.2,-0.4 -0.2,-0.4c0,0 0.1,0.1 0.3,0.4c0.2,0.2 0.5,0.6 0.8,1c0.3,0.4 0.7,0.9 1,1.5c0.3,0.6 0.6,1.2 0.9,1.8c0.3,0.6 0.5,1.3 0.6,2c0.2,0.6 0.2,1.3 0.2,1.8c0,0.5 -0.1,1 -0.1,1.3c0,0.2 -0.1,0.4 -0.1,0.4z"/><path d="M254.3901,201.2c0,0 0.5,-0.5 0.8,-1.3c0.2,-0.4 0.3,-0.9 0.4,-1.5c0.1,-0.6 0.1,-1.2 0.1,-1.8c0,-0.3 0,-0.6 -0.1,-0.9c0,-0.3 -0.1,-0.6 -0.1,-0.9c-0.1,-0.6 -0.2,-1.1 -0.3,-1.6c-0.1,-0.5 -0.2,-0.9 -0.2,-1.1c-0.1,-0.3 -0.1,-0.4 -0.1,-0.4c0,0 0.1,0.1 0.2,0.4c0.1,0.3 0.3,0.6 0.5,1.1c0.2,0.5 0.4,1 0.5,1.6c0.1,0.3 0.2,0.6 0.2,0.9c0,0.3 0.1,0.6 0.1,1c0,0.7 0,1.3 -0.2,1.9c0,0.3 -0.2,0.6 -0.3,0.9c-0.1,0.3 -0.2,0.5 -0.4,0.7c-0.3,0.4 -0.6,0.7 -0.8,0.9c-0.2,0 -0.3,0.1 -0.3,0.1z"/></g></g><path d="M218.4901,253c0,0 0.2,-0.1 0.6,-0.3c0.4,-0.2 1,-0.5 1.6,-1c0.6,-0.5 1.4,-1.3 1.8,-2.3c0.2,-0.5 0.4,-1.1 0.4,-1.8c0,-0.6 -0.1,-1.3 -0.2,-2c-0.2,-2.9 -0.4,-6.3 -0.7,-9.9c-0.3,-3.6 -0.6,-7.5 -1.2,-11.3c-0.3,-1.9 -0.6,-3.8 -1,-5.6c-0.4,-1.8 -1,-3.6 -1.7,-5.2c-1.4,-3.3 -2.9,-6.3 -4.2,-8.9c-1.3,-2.6 -2.3,-4.8 -2.9,-6.4c-0.3,-0.8 -0.5,-1.4 -0.6,-1.9c-0.1,-0.4 -0.2,-0.7 -0.2,-0.7c0,0 0.1,0.2 0.2,0.6c0.2,0.4 0.4,1 0.7,1.8c0.3,0.8 0.8,1.7 1.3,2.8c0.5,1.1 1.1,2.2 1.8,3.5c1.4,2.6 3,5.5 4.4,8.9c0.7,1.7 1.4,3.5 1.8,5.3c0.4,1.9 0.8,3.8 1.1,5.7c0.5,3.8 0.8,7.7 1.1,11.3c0.2,3.6 0.3,7 0.5,9.9c0,0.7 0.1,1.4 0.1,2.1c-0.1,0.7 -0.2,1.3 -0.5,1.9c-0.5,1.1 -1.3,1.8 -2,2.3c-0.7,0.5 -1.3,0.8 -1.7,1c-0.3,0.1 -0.5,0.2 -0.5,0.2z" data-paper-data="{&quot;index&quot;:null}" fill="#59402f"/><g data-paper-data="{&quot;index&quot;:null}"><path d="M223.8901,257.8c0,0 0,-0.3 0.1,-0.8c0.1,-0.5 0.4,-1.1 0.7,-1.7c0.4,-0.6 0.9,-1 1.3,-1.3c0.4,-0.3 0.7,-0.4 0.7,-0.4c0,0 0,0.1 -0.1,0.2c-0.1,0.1 -0.2,0.3 -0.4,0.5c-0.3,0.4 -0.7,0.9 -1,1.4c-0.4,0.5 -0.7,1 -0.9,1.4c-0.2,0.4 -0.4,0.7 -0.4,0.7z" fill="#59402f"/><path d="M218.2901,257.2c0,0 0,-0.4 0.2,-0.9c0.2,-0.5 0.6,-1.2 1.1,-1.8c0.3,-0.3 0.5,-0.6 0.8,-0.8c0.3,-0.2 0.6,-0.4 0.9,-0.5c0.3,-0.1 0.5,-0.2 0.7,-0.2c0.2,0 0.3,-0.1 0.3,-0.1c0,0 -0.1,0.1 -0.2,0.2c-0.1,0.1 -0.3,0.3 -0.5,0.5c-0.4,0.4 -0.9,0.9 -1.4,1.4c-0.5,0.5 -0.9,1.1 -1.2,1.6c-0.5,0.3 -0.7,0.6 -0.7,0.6z" fill="#59402f"/><path d="M224.7901,259.1c0,-0.6 0.9,-3.3 2,-3.3c1.1,0 0.4,1.1 -0.2,1.9c-0.5,0.7 -1.8,1.8 -1.8,1.4z" fill="#6c5f57"/><path d="M219.2901,258.6c0,-0.6 0.9,-3.3 2,-3.3c1.1,0 0.4,1.1 -0.2,1.9c-0.5,0.7 -1.8,1.8 -1.8,1.4z" fill="#6c5f57"/><path d="M215.8901,257.7c0,-0.6 0.9,-3.3 2,-3.3c1.1,0 0.4,1.1 -0.2,1.9c-0.5,0.7 -1.8,1.8 -1.8,1.4z" fill="#6c5f57"/></g><path d="M240.8901,256.6c0,0 0.3,0 0.7,-0.1c0.5,-0.1 1.1,-0.3 1.9,-0.7c0.8,-0.4 1.2,-1.5 1.7,-2.6c0.4,-1.1 0.9,-2.4 1.3,-3.9c0.6,-3 1.5,-6.4 2.3,-10.1c0.9,-3.7 1.7,-7.6 2.4,-11.6c0.4,-2 0.7,-4 1,-5.9c0.3,-2 0.5,-3.9 0.7,-5.8c0.3,-3.7 0.4,-7.3 0.5,-10.3c0.1,-3 0.2,-5.5 0.3,-7.3c0,-1.8 0.1,-2.8 0.1,-2.8c0,0 0,1 0,2.8c0,1.8 0,4.3 0,7.3c0,1.5 -0.1,3.2 -0.1,4.9c0,1.7 -0.1,3.6 -0.2,5.5c-0.1,1.9 -0.3,3.8 -0.6,5.8c-0.3,2 -0.6,4 -1,6c-0.7,4 -1.7,7.9 -2.6,11.6c-0.9,3.7 -1.8,7.1 -2.6,10c-0.4,1.5 -0.9,2.8 -1.4,3.9c-0.2,0.6 -0.5,1.1 -0.8,1.6c-0.3,0.5 -0.6,0.8 -1,1c-0.8,0.4 -1.5,0.6 -1.9,0.7c-0.5,-0.1 -0.7,0 -0.7,0z" data-paper-data="{&quot;index&quot;:null}" fill="#59402f"/><g data-paper-data="{&quot;index&quot;:null}"><g><path d="M212.1901,146.2c-0.1,6.5 2.5,10.3 2.5,10.3c-2.7,0 -5.4,-4.9 -5.4,-4.9c3.9,9 -2.2,15.2 -2.2,15.2c0.6,-5.7 -1.4,-7.5 -1.4,-7.5c3,10.9 -8.4,13.5 -8.4,13.5c1.7,-1.2 2.9,-5.5 2.9,-5.5c-8.8,9.8 -26.2,7.7 -35.9,8.2c-9.7,0.5 -16.8,-0.4 -25.1,-1c-8.3,-0.6 -14.9,-10.4 -15.3,-14.7c-0.4,-4.3 20.1,-15 20.1,-15c0,0 0.7,-13.1 3.7,-18.8c3,-5.7 25.8,-17.6 46.2,-14.8c17,2.4 18.2,28.5 18.3,35z" fill="#8d674a"/><path d="M219.1901,134.8c-0.1,6.5 -4.6,21.7 -4.6,21.7c-2.7,0 -5.4,-4.9 -5.4,-4.9c3.9,9 -2.2,15.2 -2.2,15.2c0.6,-5.7 -1.4,-7.5 -1.4,-7.5c3,10.9 -8.4,13.5 -8.4,13.5c1.7,-1.2 2.9,-5.5 2.9,-5.5c-8.8,9.8 -24.8,9.5 -34.4,10.1c-9.6,0.6 -18.2,-2.3 -26.5,-2.9c-8.3,-0.6 -14.9,-10.4 -15.3,-14.7c-0.4,-4.3 20,-15 20,-15c0,0 0.6,-13.1 3.7,-18.8c3.1,-5.7 22.8,-17.6 43.2,-15.6c14.4,1.4 28.5,17.9 28.4,24.4z" fill="#8d674a"/><path d="M144.0901,144.8c15,12.2 -1.1,23.3 -1.1,23.3c-0.2,2.7 -3,4.7 -5.5,6.1c-7.5,-1.7 -13.2,-10.4 -13.6,-14.4c-0.4,-4.3 20.1,-15 20.2,-15z" fill="#9e7b5c"/><path d="M124.7901,163c-0.9,-1.6 -2.3,-3.2 -1.4,-4.6c0.5,-0.9 1.7,-2.3 2.7,-2.3c1,0 2.5,3 -0.5,4.5c0.4,1.6 -0.2,2 -0.8,2.4z" fill="#332721"/><path d="M130.1901,169.8c0,0 0.5,-0.3 1.3,-0.7c0.4,-0.2 0.9,-0.3 1.4,-0.5c0.5,-0.1 1.1,-0.3 1.7,-0.3c0.6,-0.1 1.2,-0.1 1.8,-0.1c0.6,0 1.1,0.1 1.5,0.2c0.4,0.1 0.8,0.2 1,0.3c0.2,0.1 0.4,0.2 0.4,0.2c0,0 -0.2,0 -0.4,0c-0.3,0 -0.6,-0.1 -1,-0.1c-0.2,0 -0.4,0 -0.7,0c-0.2,0 -0.5,0 -0.8,0c-0.5,0 -1.1,0.1 -1.7,0.1c-1.1,0.1 -2.3,0.3 -3.1,0.5c-0.8,0.2 -1.4,0.4 -1.4,0.4z" fill="#59402f"/><path d="M152.29787,144.35692c-0.13173,-1.42991 0.51939,-2.65891 1.45433,-2.74504c0.93494,-0.08613 1.79965,1.00321 1.93139,2.43312c0.13173,1.42991 -0.51939,2.65891 -1.45433,2.74504c-0.93494,0.08613 -1.79965,-1.00321 -1.93139,-2.43312z" fill="#332010"/><path d="M157.1901,137.3c0.1,1.1 -3,1.8 -4.4,1.9c-1.4,0.1 -2.7,-0.6 -2.8,-1.7c-0.1,-1.1 1,-2 2.4,-2.2c1.5,0 4.7,1 4.8,2z" fill="#9e7b5c"/><path d="M143.9901,144.8c0,0 0,-0.8 0,-2.3c0.1,-1.4 0.1,-3.5 0.4,-6c0.1,-1.2 0.3,-2.6 0.6,-4c0.3,-1.4 0.6,-2.9 1.2,-4.3c0.3,-0.7 0.6,-1.5 1,-2.2c0.5,-0.7 0.9,-1.3 1.5,-2c1.1,-1.2 2.3,-2.4 3.6,-3.4c1.3,-1 2.7,-1.9 4.1,-2.7c1.4,-0.8 2.8,-1.6 4.2,-2.2c1.4,-0.7 2.8,-1.2 4.1,-1.7c1.3,-0.5 2.6,-0.9 3.8,-1.3c1.2,-0.4 2.3,-0.7 3.3,-0.9c1,-0.2 1.8,-0.5 2.5,-0.6c1.4,-0.3 2.2,-0.5 2.2,-0.5c0,0 -0.8,0.2 -2.2,0.6c-1.4,0.4 -3.4,1 -5.7,1.7c-1.2,0.4 -2.4,0.8 -3.7,1.4c-1.3,0.5 -2.7,1.1 -4.1,1.8c-1.4,0.7 -2.8,1.4 -4.2,2.2c-1.4,0.8 -2.7,1.8 -4,2.7c-1.3,1 -2.5,2.1 -3.6,3.3c-0.5,0.6 -1,1.2 -1.4,1.9c-0.4,0.7 -0.7,1.4 -1,2.1c-1.1,2.9 -1.6,5.7 -1.9,8.1c-0.6,5 -0.7,8.3 -0.7,8.3z" fill="#59402f"/><path d="M197.1901,172.9c0,0 0.3,-0.1 0.7,-0.2c0.5,-0.1 1.1,-0.4 1.9,-0.8c0.4,-0.2 0.8,-0.4 1.2,-0.7c0.4,-0.2 0.8,-0.6 1.2,-0.9c0.4,-0.3 0.8,-0.7 1.2,-1.1c0.4,-0.4 0.7,-0.8 1,-1.3c0.3,-0.4 0.5,-1 0.8,-1.4c0.2,-0.5 0.3,-1 0.5,-1.5c0.1,-0.5 0.1,-1 0.2,-1.5c0.1,-0.5 0,-0.9 0,-1.4c0,-0.4 0,-0.8 -0.1,-1.2c0,-0.3 -0.1,-0.6 -0.1,-0.9c-0.1,-0.5 -0.1,-0.8 -0.1,-0.8c0,0 0.1,0.3 0.2,0.8c0.1,0.2 0.2,0.5 0.2,0.9c0.1,0.3 0.2,0.7 0.2,1.2c0,0.4 0.1,0.9 0.1,1.4c0,0.5 0,1 -0.1,1.6c-0.2,0.5 -0.2,1.1 -0.5,1.6c-0.2,0.5 -0.4,1.1 -0.8,1.6c-0.3,0.5 -0.7,0.9 -1.1,1.4c-0.4,0.4 -0.9,0.8 -1.3,1.1c-0.9,0.6 -1.8,1.1 -2.6,1.4c-1.5,0.6 -2.7,0.7 -2.7,0.7z" fill="#59402f"/><path d="M206.9901,166.8c0,0 0.7,-0.7 1.5,-2.1c0.2,-0.3 0.4,-0.7 0.6,-1.1c0.2,-0.4 0.4,-0.8 0.5,-1.3c0.1,-0.2 0.2,-0.4 0.2,-0.7c0.1,-0.2 0.1,-0.5 0.2,-0.7c0.1,-0.5 0.2,-1 0.3,-1.5c0.1,-0.5 0.1,-1 0.1,-1.5c0,-0.5 0,-1 -0.1,-1.5c-0.1,-0.5 -0.1,-0.9 -0.2,-1.4c-0.1,-0.4 -0.2,-0.8 -0.3,-1.2c-0.1,-0.4 -0.2,-0.7 -0.3,-1c-0.1,-0.3 -0.2,-0.6 -0.2,-0.8c-0.1,-0.4 -0.2,-0.7 -0.2,-0.7c0,0 0.1,0.2 0.3,0.6c0.1,0.2 0.2,0.5 0.4,0.7c0.2,0.3 0.3,0.6 0.4,1c0.1,0.4 0.3,0.8 0.4,1.2c0.1,0.4 0.2,0.9 0.3,1.4c0,0.5 0.1,1 0.1,1.5c0,0.5 0,1 -0.1,1.6c-0.1,0.5 -0.2,1 -0.3,1.5c-0.1,0.2 -0.1,0.5 -0.2,0.7c-0.1,0.2 -0.2,0.5 -0.3,0.7c-0.2,0.5 -0.4,0.9 -0.6,1.3c-0.2,0.4 -0.5,0.7 -0.7,1.1c-0.5,0.6 -0.9,1.1 -1.3,1.4c-0.3,0.7 -0.5,0.8 -0.5,0.8z" fill="#59402f"/><path d="M214.4901,156.5c0,0 -0.2,-0.2 -0.4,-0.5c-0.2,-0.4 -0.6,-0.9 -0.9,-1.6c-0.3,-0.7 -0.6,-1.5 -0.8,-2.4c-0.2,-0.9 -0.4,-1.9 -0.5,-2.8c-0.1,-0.5 -0.1,-1 -0.1,-1.5c0,-0.5 -0.1,-1 -0.1,-1.4c-0.1,-0.9 0,-1.8 0,-2.5c0,-0.7 0.1,-1.3 0.1,-1.8c0,-0.4 0.1,-0.7 0.1,-0.7c0,0 0,0.2 0.1,0.7c0,0.4 0.1,1 0.1,1.8c0,0.7 0.1,1.6 0.2,2.5c0.1,0.9 0.2,1.9 0.3,2.8c0.1,1 0.2,1.9 0.4,2.8c0.2,0.9 0.4,1.7 0.6,2.4c0.2,0.7 0.4,1.2 0.6,1.6c0.2,0.4 0.3,0.6 0.3,0.6z" fill="#59402f"/><path d="M188.0901,110.3c0,0 0.4,-0.1 1.1,-0.2c0.3,0 0.8,0 1.2,0c0.5,0 1,0.1 1.6,0.2c0.6,0.1 1.2,0.2 1.9,0.4c0.6,0.2 1.3,0.3 2,0.6c0.7,0.2 1.4,0.5 2.1,0.8c0.7,0.3 1.4,0.7 2.1,1c0.7,0.3 1.4,0.8 2,1.1c0.7,0.4 1.3,0.8 1.9,1.2c1.2,0.8 2.3,1.6 3.2,2.3c0.5,0.3 0.9,0.7 1.2,1c0.4,0.3 0.7,0.6 0.9,0.8c0.5,0.4 0.8,0.7 0.8,0.7c0,0 -0.3,-0.2 -0.9,-0.6c-0.3,-0.2 -0.6,-0.4 -1,-0.7c-0.4,-0.3 -0.8,-0.6 -1.3,-0.9c-0.5,-0.3 -1,-0.7 -1.6,-1c-0.5,-0.4 -1.2,-0.7 -1.8,-1.1c-0.6,-0.4 -1.2,-0.8 -1.9,-1.1c-0.7,-0.4 -1.3,-0.8 -2,-1.1c-0.7,-0.3 -1.4,-0.7 -2.1,-1c-0.7,-0.3 -1.4,-0.6 -2,-0.9c-1.3,-0.5 -2.6,-0.9 -3.8,-1.2c-0.6,-0.1 -1.1,-0.2 -1.6,-0.3c-0.5,-0.1 -0.9,-0.1 -1.2,-0.1c-0.4,0.1 -0.8,0.1 -0.8,0.1z" fill="#59402f"/></g><g><path d="M175.0901,113.2c0,0 1.7,-8.2 6.3,-8.8c4.6,-0.6 15.3,4 7.2,16.6" fill="#8d674a"/><path d="M181.5901,106.9c0,0 0.4,0.6 0.7,1.5c0.2,0.5 0.4,1 0.5,1.6c0.1,0.6 0.2,1.3 0.2,1.9c0,0.3 0,0.7 0,1c-0.1,0.3 -0.1,0.7 -0.2,1c-0.1,0.3 -0.2,0.6 -0.3,0.9c-0.1,0.3 -0.2,0.5 -0.4,0.7c-0.3,0.4 -0.5,0.7 -0.8,0.9c-0.2,0.2 -0.3,0.3 -0.3,0.3c0,0 0.1,-0.1 0.2,-0.4c0.1,-0.1 0.2,-0.3 0.3,-0.4c0.1,-0.2 0.2,-0.4 0.3,-0.6c0.1,-0.2 0.2,-0.5 0.2,-0.7c0.1,-0.3 0.1,-0.5 0.2,-0.8c0.1,-0.3 0.1,-0.6 0.1,-0.9c0,-0.3 0,-0.6 0,-0.9c0,-0.6 -0.1,-1.3 -0.2,-1.8c0.1,-0.7 0,-1.2 -0.1,-1.7c-0.2,-0.9 -0.4,-1.6 -0.4,-1.6z" fill="#59402f"/><g fill="#59402f"><path d="M183.8901,115.9c0,0 0,0.2 -0.1,0.3c-0.1,0.2 -0.2,0.4 -0.4,0.6c-0.2,0.2 -0.4,0.4 -0.6,0.5c-0.2,0.1 -0.3,0.1 -0.3,0.1c0,0 0,-0.2 0.1,-0.3c0.1,-0.2 0.2,-0.4 0.4,-0.6c0.2,-0.2 0.4,-0.4 0.6,-0.5c0.1,0 0.3,-0.1 0.3,-0.1z"/><path d="M185.0901,117.3c0,0 0,0.1 -0.1,0.3c-0.1,0.2 -0.2,0.3 -0.3,0.5c-0.1,0.1 -0.3,0.3 -0.5,0.3c-0.2,0.1 -0.3,0.1 -0.3,0.1c0,0 0,-0.1 0.1,-0.3c0.1,-0.2 0.2,-0.3 0.3,-0.5c0.1,-0.1 0.3,-0.3 0.5,-0.3c0.1,-0.1 0.3,-0.1 0.3,-0.1z"/></g><path d="M187.9901,106.1c0,0 -0.3,-0.1 -0.7,-0.4c-0.5,-0.2 -1.2,-0.5 -2,-0.7c-0.2,0 -0.4,-0.1 -0.6,-0.1c-0.2,0 -0.5,-0.1 -0.7,-0.1c-0.2,0 -0.5,0 -0.8,0c-0.3,0 -0.5,0 -0.8,0c-0.3,0 -0.5,0.1 -0.8,0.1c-0.3,0 -0.5,0.1 -0.8,0.2c-0.3,0.1 -0.5,0.2 -0.8,0.3c-0.2,0.1 -0.5,0.2 -0.7,0.4c-0.4,0.4 -0.9,0.7 -1.2,1.2c-0.4,0.4 -0.7,0.8 -1,1.3c-0.2,0.5 -0.6,0.9 -0.7,1.4c-0.2,0.5 -0.4,0.9 -0.6,1.3c-0.2,0.4 -0.3,0.8 -0.4,1.1c-0.1,0.3 -0.2,0.6 -0.3,0.9c-0.2,0.5 -0.3,0.8 -0.3,0.8c0,0 0,-0.3 0.1,-0.8c0,-0.3 0.1,-0.6 0.2,-0.9c0.1,-0.4 0.1,-0.8 0.3,-1.2c0.1,-0.4 0.3,-0.9 0.5,-1.4c0.2,-0.5 0.5,-0.9 0.8,-1.5c0.2,-0.5 0.6,-1 1,-1.5c0.3,-0.5 0.9,-0.9 1.3,-1.3c0.2,-0.2 0.5,-0.3 0.8,-0.5c0.3,-0.1 0.5,-0.3 0.8,-0.4c0.3,-0.1 0.6,-0.2 0.9,-0.2c0.3,0 0.6,-0.1 0.9,-0.1c0.3,0 0.6,0 0.8,0c0.3,0 0.5,0 0.8,0.1c0.3,0.1 0.5,0.1 0.7,0.2c0.2,0.1 0.5,0.2 0.7,0.2c0.4,0.1 0.8,0.3 1.1,0.5c0.3,0.2 0.6,0.3 0.8,0.5c0.5,0.4 0.7,0.6 0.7,0.6z" fill="#59402f"/></g></g></g></g></svg>