<svg version="1.1" xmlns="http://www.w3.org/2000/svg" xmlns:xlink="http://www.w3.org/1999/xlink" width="241.31371" height="157.25959" viewBox="0,0,241.31371,157.25959"><g transform="translate(-120.6764,-103.9)"><g data-paper-data="{&quot;isPaintingLayer&quot;:true}" fill-rule="nonzero" stroke="none" stroke-width="1" stroke-linecap="butt" stroke-linejoin="miter" stroke-miterlimit="10" stroke-dasharray="" stroke-dashoffset="0" style="mix-blend-mode: normal"><g data-paper-data="{&quot;index&quot;:null}"><g><path d="M245.9665,185c1.5,6.7 -0.5,16.9 -0.9,25.6c-1,20.4 -3.4,40.2 -5.2,41.8c-2.6,2.2 -26.6,5.7 -26.4,2.4c0.2,-3.3 4.3,-4.1 5.2,-7.2c1,-3 -5.7,-25.1 -7.5,-31.4c-1.7,-6.3 -5.3,-12.7 -12.3,-34.5c-7,-21.8 34.4,-41.9 47.1,3.3z" fill="#856045"/><path d="M235.3665,165.6c0,0 8.8,9.3 11.1,8.9c0,0 -2.1,2 -4,0.7c0,0 4.6,1.4 6,5.7l-3,-0.7c0,0 4.6,6 4.6,10.3l-3.1,-2.8c0,0 3.9,6.1 0,10.1" fill="#8d674a"/></g><path d="M238.2665,253.2c0,0 0.3,0 0.7,-0.2c0.4,-0.2 0.9,-0.7 1.3,-1.5c0.4,-0.8 0.7,-1.8 1,-2.9c0.2,-1.2 0.4,-2.5 0.6,-4c0.4,-3 0.8,-6.4 1.2,-10.1c0.4,-3.7 0.7,-7.7 1,-11.6c0.1,-2 0.2,-4 0.3,-5.9c0.1,-2 0.1,-3.9 0.1,-5.7c0,-3.7 -0.1,-7.2 -0.2,-10.2c-0.2,-6 -0.5,-9.9 -0.5,-9.9c0,0 0.5,3.9 0.8,9.9c0.2,3 0.3,6.5 0.4,10.2c0.1,1.9 0,3.8 0,5.8c-0.1,2 -0.1,3.9 -0.2,5.9c-0.2,4 -0.6,7.9 -1,11.6c-0.4,3.7 -0.9,7.1 -1.4,10.1c-0.2,1.5 -0.5,2.8 -0.7,4c-0.3,1.2 -0.7,2.2 -1.1,2.9c-0.4,0.8 -0.9,1.3 -1.4,1.5c-0.6,0.1 -0.9,0.1 -0.9,0.1z" fill="#59402f"/><path d="M216.8665,250c0,0 0.2,-0.1 0.6,-0.3c0.3,-0.3 0.7,-0.8 1,-1.6c0.2,-0.8 0.3,-1.8 0.2,-2.9c-0.1,-1.1 -0.4,-2.4 -0.6,-3.7c-0.6,-2.7 -1.3,-5.9 -2.3,-9.2c-0.5,-1.7 -1.1,-3.3 -1.8,-5c-0.6,-1.7 -1.4,-3.4 -2,-5.2c-1.3,-3.5 -2.3,-7.1 -3.2,-10.4c-0.9,-3.4 -1.8,-6.5 -2.5,-9.2c-0.7,-2.7 -1.4,-4.9 -1.9,-6.5c-0.2,-0.8 -0.4,-1.4 -0.6,-1.8c-0.1,-0.4 -0.2,-0.6 -0.2,-0.6c0,0 0.1,0.2 0.2,0.6c0.2,0.4 0.4,1 0.6,1.8c0.5,1.5 1.3,3.7 2.1,6.4c0.8,2.7 1.7,5.8 2.7,9.1c1,3.3 2.1,6.9 3.4,10.3c0.6,1.7 1.4,3.4 2.1,5.1c0.7,1.7 1.3,3.4 1.8,5.1c1,3.3 1.7,6.5 2.2,9.3c0.2,1.4 0.5,2.6 0.5,3.8c0,1.1 -0.1,2.2 -0.4,2.9c-0.3,0.8 -0.7,1.3 -1.1,1.5c-0.5,0.5 -0.8,0.5 -0.8,0.5z" fill="#59402f"/><g><path d="M221.1665,256.7c0,0 -0.1,-0.3 0,-0.8c0.1,-0.5 0.3,-1.1 0.7,-1.7c0.4,-0.6 0.8,-1 1.3,-1.3c0.4,-0.3 0.7,-0.4 0.7,-0.4c0,0 0,0.1 -0.1,0.2c-0.1,0.1 -0.2,0.3 -0.3,0.5c-0.3,0.4 -0.6,0.9 -1,1.4c-0.3,0.5 -0.6,1.1 -0.9,1.5c-0.3,0.3 -0.4,0.6 -0.4,0.6z" fill="#59402f"/><path d="M215.5665,256.3c0,0 0,-0.4 0.2,-1c0.2,-0.6 0.5,-1.3 1,-1.9c0.2,-0.3 0.5,-0.6 0.8,-0.8c0.3,-0.2 0.6,-0.4 0.8,-0.6c0.3,-0.1 0.5,-0.2 0.7,-0.3c0.2,-0.1 0.3,-0.1 0.3,-0.1c0,0 -0.1,0.1 -0.2,0.2c-0.1,0.1 -0.3,0.3 -0.5,0.5c-0.4,0.4 -0.9,0.9 -1.3,1.5c-0.4,0.6 -0.9,1.2 -1.2,1.6c-0.4,0.6 -0.6,0.9 -0.6,0.9z" fill="#59402f"/><path d="M222.1665,258c0,-0.6 0.8,-3.3 1.9,-3.4c1.1,0 0.4,1.1 -0.1,1.9c-0.5,0.8 -1.8,1.9 -1.8,1.5z" fill="#665a52"/><path d="M216.6665,257.7c0,-0.6 0.8,-3.3 1.9,-3.4c1.1,0 0.4,1.1 -0.1,1.9c-0.5,0.8 -1.8,1.9 -1.8,1.5z" fill="#665a52"/><path d="M213.1665,256.9c0,-0.6 0.8,-3.3 1.9,-3.4c1.1,0 0.4,1.1 -0.1,1.9c-0.5,0.8 -1.8,1.9 -1.8,1.5z" fill="#665a52"/></g></g><g data-paper-data="{&quot;index&quot;:null}"><path d="M300.8665,149.9c13.2,-11.6 23.6,-1.8 29.2,3.8c5.6,5.6 6.8,23.4 9.1,32.3c2.4,8.9 8.2,14.4 13.9,25.7c5.7,11.3 10,33.7 8.5,35c-12.7,11 -22.4,9.5 -24.3,8.5c-1.9,-1 2.7,-4.8 3.4,-7.8c0.8,-3.1 -8.3,-11.7 -20.4,-21c-24.1,-18.7 -24.7,-42 -24.7,-42c-2.5,-5.8 -7.9,-22.9 5.3,-34.5z" fill="#856045"/><path d="M344.6665,255.1c0,0 -0.2,-0.3 -0.2,-0.8c0,-0.5 0,-1.1 0.3,-1.7c0.2,-0.6 0.6,-1.1 0.9,-1.4c0.3,-0.3 0.6,-0.5 0.6,-0.5c0,0 0,0.1 -0.1,0.2c0,0.1 -0.1,0.3 -0.2,0.5c-0.1,0.2 -0.2,0.4 -0.3,0.7c-0.1,0.2 -0.2,0.5 -0.3,0.8c-0.2,0.5 -0.4,1.1 -0.5,1.5c-0.1,0.4 -0.2,0.7 -0.2,0.7z" fill="#59402f"/><path d="M339.6665,255.6c0,0 -0.2,-0.3 -0.2,-0.8c-0.1,-0.5 0,-1.2 0.3,-1.9c0.1,-0.2 0.2,-0.3 0.2,-0.5c0.1,-0.2 0.2,-0.3 0.3,-0.4c0.2,-0.3 0.4,-0.5 0.6,-0.6c0.2,-0.2 0.4,-0.3 0.5,-0.3c0.1,-0.1 0.2,-0.1 0.2,-0.1c0,0 0,0.1 -0.1,0.2c-0.1,0.1 -0.2,0.3 -0.3,0.5c-0.3,0.4 -0.6,1 -0.8,1.5c-0.3,0.6 -0.4,1.2 -0.6,1.7c0,0.3 -0.1,0.7 -0.1,0.7z" fill="#59402f"/><path d="M346.3665,256c-0.1,-0.6 0.1,-3.4 1.2,-3.7c1.1,-0.3 0.6,1 0.3,1.8c-0.4,0.8 -1.4,2.2 -1.5,1.9z" fill="#665a52"/><path d="M340.8665,256.7c-0.1,-0.6 0.1,-3.4 1.2,-3.7c1.1,-0.3 0.6,1 0.3,1.8c-0.4,0.9 -1.4,2.3 -1.5,1.9z" fill="#665a52"/><path d="M337.6665,256.1c-0.1,-0.6 0.1,-3.4 1.2,-3.7c1.1,-0.3 0.6,1 0.3,1.8c-0.4,0.9 -1.4,2.3 -1.5,1.9z" fill="#665a52"/><g><path d="M338.6665,187.3c0,0 10.1,7.9 12.4,7.2c0,0 -1.7,2.3 -3.8,1.3c0,0 4.7,0.7 6.8,4.7l-3.1,-0.2c0,0 5.5,5.2 6.1,9.5l-3.5,-2.3c0,0 4.8,5.4 1.5,10" fill="#856045"/><path d="M350.7665,194.4c0,0 -0.2,0.1 -0.5,0.1c-0.3,0 -0.8,-0.1 -1.4,-0.3c-1.1,-0.3 -2.5,-1 -3.8,-1.8c-0.6,-0.4 -1.3,-0.8 -1.8,-1.3c-0.6,-0.4 -1.1,-0.8 -1.5,-1.2c-0.9,-0.8 -1.4,-1.3 -1.4,-1.3c0,0 0.7,0.4 1.6,1c1,0.6 2.2,1.4 3.5,2.2c0.6,0.4 1.3,0.8 1.9,1.1c0.6,0.4 1.2,0.7 1.7,0.9c0.5,0.2 0.9,0.4 1.2,0.5c0.3,0.1 0.5,0.1 0.5,0.1z" fill="#59402f"/><path d="M353.7665,200.4c0,0 -0.3,-0.3 -0.8,-0.8c-0.5,-0.5 -1.1,-1.1 -1.7,-1.6c-0.3,-0.3 -0.7,-0.5 -1,-0.8c-0.3,-0.2 -0.7,-0.4 -0.9,-0.6c-0.3,-0.2 -0.5,-0.3 -0.7,-0.3c-0.2,-0.1 -0.3,-0.1 -0.3,-0.1c0,0 0.1,0 0.3,0c0.2,0 0.5,0 0.8,0.1c0.3,0.1 0.7,0.2 1.1,0.4c0.4,0.2 0.8,0.5 1.1,0.8c0.4,0.3 0.7,0.6 0.9,1c0.3,0.3 0.5,0.7 0.7,1c0.4,0.4 0.5,0.9 0.5,0.9z" fill="#59402f"/><path d="M356.6665,209.2c0,0 -0.1,-0.7 -0.5,-1.6c-0.2,-0.5 -0.5,-1 -0.8,-1.5c-0.3,-0.5 -0.7,-1.1 -1.1,-1.7c-0.4,-0.6 -0.8,-1.1 -1.2,-1.6c-0.4,-0.5 -0.8,-1 -1.1,-1.4c-0.3,-0.4 -0.6,-0.7 -0.8,-1c-0.2,-0.2 -0.3,-0.4 -0.3,-0.4c0,0 0.1,0.1 0.4,0.3c0.2,0.2 0.6,0.4 1,0.8c0.4,0.3 0.8,0.8 1.3,1.2c0.5,0.5 0.9,1 1.3,1.6c0.4,0.6 0.8,1.2 1.1,1.8c0.3,0.6 0.5,1.2 0.6,1.7c0.1,0.5 0.2,1 0.2,1.3c0,0.4 -0.1,0.5 -0.1,0.5z" fill="#59402f"/><path d="M355.7665,215.8c0,0 0.1,-0.1 0.1,-0.4c0.1,-0.2 0.1,-0.6 0,-1c-0.1,-0.8 -0.3,-1.8 -0.7,-2.9c-0.4,-1 -0.8,-2 -1.2,-2.8c-0.3,-0.8 -0.6,-1.3 -0.6,-1.3c0,0 0.1,0.1 0.3,0.3c0.2,0.2 0.4,0.5 0.6,0.8c0.2,0.4 0.5,0.7 0.8,1.2c0.1,0.2 0.3,0.5 0.4,0.7c0.1,0.3 0.2,0.5 0.3,0.8c0.2,0.5 0.4,1.1 0.4,1.6c0.1,0.5 0.1,1.1 0,1.5c-0.1,0.4 -0.2,0.8 -0.3,1c0,0.4 -0.1,0.5 -0.1,0.5z" fill="#59402f"/></g><path d="M353.2665,211.4c0,0 1,2.3 2.3,5.9c0.6,1.8 1.4,3.9 2.1,6.1c0.7,2.3 1.5,4.7 2.1,7.1c1.3,4.9 2.4,9.9 2.2,13.7c0,0.5 -0.1,0.9 -0.2,1.4c-0.1,0.4 -0.2,0.9 -0.5,1.2c-0.5,0.6 -1.1,1 -1.5,1.3c-0.9,0.7 -1.3,1.1 -1.3,1.1c0,0 0.5,-0.4 1.3,-1.2c0.4,-0.4 0.9,-0.8 1.4,-1.4c0.3,-0.2 0.3,-0.7 0.4,-1.1c0.1,-0.4 0.1,-0.9 0.1,-1.3c0,-1.9 -0.3,-4.1 -0.8,-6.4c-0.5,-2.3 -1.1,-4.8 -1.7,-7.2c-0.7,-2.4 -1.4,-4.8 -2.1,-7.1c-0.7,-2.3 -1.4,-4.4 -1.9,-6.2c-1.1,-3.5 -1.9,-5.9 -1.9,-5.9z" fill="#59402f"/><path d="M297.5665,198c0,0 2.4,3.7 6.1,9.1c1.9,2.7 4.1,5.9 6.6,9.1c1.3,1.6 2.6,3.3 4,4.9c0.7,0.8 1.5,1.6 2.3,2.3c0.8,0.7 1.7,1.4 2.6,2c3.5,2.6 7,5.4 10.2,8c3.2,2.6 6.1,5.2 8.3,7.7c0.6,0.6 1.1,1.2 1.5,1.9c0.4,0.6 0.8,1.3 1.1,1.9c0.3,0.6 0.6,1.2 0.7,1.8c0.1,0.6 0,1.2 -0.3,1.6c-0.5,0.9 -1,1.4 -1.3,1.8c-0.3,0.4 -0.5,0.6 -0.5,0.6c0,0 0.2,-0.2 0.5,-0.6c0.3,-0.4 0.8,-1 1.2,-1.9c0.2,-0.4 0.3,-0.9 0.2,-1.5c-0.1,-0.5 -0.4,-1.1 -0.8,-1.7c-0.3,-0.6 -0.7,-1.2 -1.1,-1.8c-0.4,-0.6 -1,-1.2 -1.5,-1.8c-2.3,-2.4 -5.2,-4.9 -8.4,-7.5c-3.2,-2.6 -6.7,-5.3 -10.2,-7.9c-0.9,-0.7 -1.8,-1.3 -2.6,-2.1c-0.8,-0.8 -1.6,-1.6 -2.3,-2.4c-1.4,-1.6 -2.8,-3.3 -4,-4.9c-2.5,-3.3 -4.6,-6.5 -6.5,-9.3c-1.8,-2.8 -3.3,-5.1 -4.3,-6.7c-1,-1.6 -1.5,-2.6 -1.5,-2.6z" fill="#59402f"/></g><g data-paper-data="{&quot;index&quot;:null}"><g><path d="M323.3665,137.3c0,0 10.3,-3.9 21.4,11.4c0,0 -3.2,-2.5 -5.1,-2.4c0,0 4.9,1.6 6.3,9.9c0,0 -1.9,-3.2 -3.3,-3.5c0,0 7,9.2 -3,11.2c-10,1.8 -18.6,-24.3 -16.3,-26.6z" fill="#8d674a"/><path d="M344.7665,148.7c0,0 -0.2,-0.3 -0.6,-0.8c-0.4,-0.5 -1,-1.2 -1.7,-2c-0.7,-0.8 -1.6,-1.7 -2.6,-2.6c-0.5,-0.5 -1,-0.9 -1.6,-1.4c-0.5,-0.5 -1.1,-0.9 -1.7,-1.3c-0.6,-0.4 -1.2,-0.8 -1.8,-1.2c-0.6,-0.3 -1.2,-0.7 -1.8,-0.9c-0.6,-0.2 -1.2,-0.5 -1.8,-0.7c-0.6,-0.2 -1.1,-0.4 -1.7,-0.5c-0.5,-0.1 -1,-0.2 -1.4,-0.2c-0.4,-0.1 -0.8,0 -1.1,0c-0.6,0 -1,0 -1,0c0,0 0.4,0 1,-0.1c0.3,0 0.7,-0.1 1.2,-0.1c0.4,0 0.9,0.1 1.5,0.1c0.5,0.1 1.1,0.2 1.7,0.4c0.6,0.1 1.2,0.4 1.9,0.6c0.6,0.3 1.3,0.6 1.9,0.9c0.6,0.4 1.3,0.7 1.9,1.2c0.6,0.4 1.2,0.9 1.7,1.4c0.6,0.5 1.1,0.9 1.6,1.4c1,0.9 1.8,1.9 2.5,2.8c1.2,1.7 1.9,3 1.9,3z" fill="#59402f"/><path d="M339.7665,146.2c0,0 0.7,0.3 1.6,1c0.5,0.3 1,0.8 1.5,1.3c0.5,0.5 1,1.1 1.4,1.8c0.4,0.6 0.8,1.3 1.1,2c0.2,0.3 0.3,0.7 0.4,1c0.1,0.3 0.2,0.6 0.2,0.9c0.1,0.6 0.1,1 0.2,1.4c0,0.3 0,0.5 0,0.5c0,0 -0.1,-0.2 -0.1,-0.5c0,-0.2 -0.1,-0.4 -0.2,-0.6c-0.1,-0.2 -0.2,-0.5 -0.3,-0.7c-0.1,-0.3 -0.2,-0.5 -0.3,-0.8c-0.1,-0.3 -0.3,-0.6 -0.4,-0.9c-0.1,-0.3 -0.3,-0.6 -0.5,-0.9c-0.2,-0.3 -0.4,-0.6 -0.6,-0.9c-0.8,-1.2 -1.8,-2.3 -2.6,-3.2c-0.9,-0.9 -1.4,-1.4 -1.4,-1.4z" fill="#59402f"/><path d="M342.7665,152.6c0,0 0.5,0.4 1.1,1.1c0.3,0.4 0.6,0.8 0.8,1.3c0.3,0.5 0.5,1.1 0.6,1.7c0.1,0.6 0.2,1.2 0.1,1.8c0,0.3 -0.1,0.6 -0.1,0.8c-0.1,0.3 -0.1,0.5 -0.2,0.7c-0.2,0.4 -0.4,0.8 -0.5,1c-0.1,0.2 -0.2,0.3 -0.2,0.3c0,0 0,-0.2 0.1,-0.4c0,-0.1 0.1,-0.3 0.1,-0.4c0,-0.2 0.1,-0.4 0.1,-0.6c0.1,-0.2 0.1,-0.4 0.1,-0.7c0,-0.2 0,-0.5 0,-0.8c0,-0.3 0,-0.5 0,-0.8c0,-0.3 -0.1,-0.6 -0.1,-0.8c-0.1,-0.6 -0.3,-1.1 -0.5,-1.6c-0.2,-0.5 -0.4,-1 -0.6,-1.4c-0.5,-0.7 -0.8,-1.2 -0.8,-1.2z" fill="#59402f"/></g><g><path d="M210.0665,196.3c-3,2.1 -9.9,-3.5 -9.9,-3.5l-1.1,2c-0.1,-3.4 -7.6,-7.8 -7.6,-7.8l0.9,2.6c-6.7,-2.5 -7.9,-11.2 -7.9,-11.2l-0.1,2.8c-3.5,-3.1 -3.7,-10.9 -3.7,-10.9" fill="#8d674a"/><g><path d="M200.6665,115.2c20.4,-7.2 44.2,1.9 55.6,5.7c16.6,5.6 35.9,-11 63.4,10.1c27.5,21.1 23.2,54.2 3.6,70.9c-21.9,18.7 -101.4,21.2 -116.3,-6.6c0,0 -26.6,-9.4 -28.7,-36.6" fill="#8d674a"/><path d="M180.5665,170.4c0,0 0.2,0.7 0.4,1.7c0.2,1 0.6,2.4 0.9,3.7c0.1,0.3 0.2,0.7 0.3,1c0.1,0.3 0.2,0.7 0.3,1c0.2,0.6 0.4,1.2 0.7,1.6c0.1,0.2 0.2,0.4 0.3,0.6c0.1,0.2 0.2,0.3 0.3,0.4c0.2,0.2 0.3,0.4 0.3,0.4c0,0 -0.2,-0.1 -0.4,-0.3c-0.1,-0.1 -0.3,-0.2 -0.4,-0.4c-0.2,-0.2 -0.3,-0.3 -0.5,-0.6c-0.3,-0.4 -0.6,-1 -0.9,-1.6c-0.3,-0.6 -0.5,-1.3 -0.7,-2c-0.4,-1.4 -0.6,-2.8 -0.6,-3.9c-0.1,-0.9 0,-1.6 0,-1.6z" fill="#59402f"/><path d="M184.5665,178.3c0,0 0.2,0.9 0.7,2.1c0.2,0.6 0.5,1.3 0.9,2.1c0.2,0.4 0.4,0.7 0.6,1.1c0.2,0.4 0.4,0.8 0.7,1.1c0.3,0.4 0.5,0.7 0.7,1.1c0.3,0.3 0.5,0.7 0.8,1c0.3,0.3 0.5,0.6 0.8,0.8c0.3,0.2 0.5,0.5 0.8,0.7c0.3,0.2 0.5,0.4 0.7,0.5c0.2,0.1 0.4,0.3 0.6,0.3c0.3,0.2 0.5,0.3 0.5,0.3c0,0 -0.2,-0.1 -0.6,-0.2c-0.2,-0.1 -0.4,-0.1 -0.7,-0.2c-0.2,-0.1 -0.5,-0.3 -0.8,-0.4c-0.3,-0.1 -0.6,-0.4 -0.9,-0.6c-0.3,-0.2 -0.6,-0.5 -0.9,-0.8c-0.3,-0.3 -0.6,-0.6 -0.9,-1c-0.3,-0.3 -0.5,-0.7 -0.8,-1.1c-0.5,-0.8 -0.9,-1.6 -1.2,-2.4c-0.3,-0.8 -0.5,-1.6 -0.7,-2.2c-0.3,-1.3 -0.3,-2.2 -0.3,-2.2z" fill="#59402f"/><path d="M191.5665,187.1c0,0 0.7,0.2 1.6,0.7c0.5,0.2 1,0.6 1.6,0.9c0.6,0.4 1.1,0.8 1.6,1.3c0.5,0.5 1,1 1.4,1.5c0.4,0.5 0.7,1.1 1,1.6c0.1,0.3 0.2,0.5 0.3,0.7c0.1,0.2 0.1,0.4 0.1,0.5c0.1,0.3 0.1,0.5 0.1,0.5c0,0 -0.1,-0.2 -0.2,-0.4c-0.1,-0.1 -0.1,-0.3 -0.2,-0.5c-0.1,-0.2 -0.2,-0.4 -0.4,-0.6c-0.2,-0.2 -0.3,-0.4 -0.5,-0.7c-0.2,-0.2 -0.4,-0.5 -0.6,-0.7c-0.4,-0.5 -0.9,-1 -1.4,-1.4c-0.5,-0.5 -1,-0.9 -1.5,-1.3c-0.5,-0.4 -1,-0.8 -1.4,-1.1c-1,-0.6 -1.5,-1 -1.5,-1z" fill="#59402f"/><path d="M200.2665,192.8c0,0 0.6,0.4 1.5,0.9c0.5,0.3 1,0.6 1.6,0.9c0.6,0.3 1.2,0.6 1.8,0.9c0.6,0.3 1.3,0.5 1.9,0.7c0.3,0.1 0.6,0.2 0.9,0.3c0.3,0.1 0.6,0.1 0.8,0.2c0.3,0 0.5,0.1 0.7,0.1c0.2,0 0.4,0 0.6,0c0.3,0 0.5,0 0.5,0c0,0 -0.2,0 -0.5,0.1c-0.2,0 -0.3,0.1 -0.6,0.1c-0.2,0 -0.5,0 -0.7,0c-0.5,0 -1.2,-0.1 -1.9,-0.2c-0.7,-0.2 -1.4,-0.4 -2,-0.7c-0.7,-0.3 -1.3,-0.6 -1.9,-1c-0.6,-0.4 -1.1,-0.7 -1.5,-1.1c-0.7,-0.6 -1.2,-1.2 -1.2,-1.2z" fill="#59402f"/><path d="M222.7665,112.6c0,0 3.1,0.1 7.7,0.8c1.1,0.2 2.4,0.4 3.7,0.6c1.3,0.3 2.7,0.5 4.1,0.9c2.8,0.6 5.8,1.4 8.8,2.4c3,1 5.8,2.2 8.5,3.1c1.4,0.5 2.7,0.8 4,1c0.6,0.1 1.3,0.2 1.9,0.3c0.6,0.1 1.2,0.1 1.8,0.1c1.1,0.1 2.2,0.1 3.1,0.1c0.9,0 1.8,0 2.4,-0.1c1.3,-0.1 2.1,-0.1 2.1,-0.1c0,0 -0.8,0.1 -2.1,0.2c-0.7,0.1 -1.5,0.1 -2.4,0.1c-0.9,0 -2,0.1 -3.2,0c-0.6,0 -1.2,0 -1.8,-0.1c-0.6,0 -1.3,-0.1 -1.9,-0.2c-1.3,-0.2 -2.7,-0.5 -4.1,-0.9c-1.4,-0.4 -2.8,-0.9 -4.2,-1.5c-1.4,-0.5 -2.9,-1.1 -4.3,-1.5c-1.5,-0.5 -2.9,-0.9 -4.4,-1.3c-1.5,-0.4 -2.9,-0.8 -4.3,-1.1c-2.8,-0.7 -5.4,-1.2 -7.7,-1.7c-2.3,-0.4 -4.2,-0.7 -5.5,-0.9c-1.5,-0.1 -2.2,-0.2 -2.2,-0.2z" fill="#59402f"/><path d="M296.9665,120.4c0,0 1.2,0.2 3.3,0.8c2.1,0.6 5,1.5 8.3,2.9c3.4,1.5 7.2,3.4 10.9,6.1c3.7,2.7 7.4,6 10.3,10c1.5,2 2.7,4.1 3.8,6.3c1.1,2.1 2.1,4.3 3,6.4c0.8,2.1 1.6,4.2 2,6.3c0.5,2.1 0.7,4 0.8,5.9c0.1,3.7 -0.4,6.7 -0.7,8.8c-0.3,2.1 -0.5,3.3 -0.5,3.3c0,0 0.1,-1.2 0.4,-3.3c0.2,-2.1 0.6,-5.2 0.4,-8.8c-0.1,-1.8 -0.4,-3.8 -0.9,-5.8c-0.5,-2 -1.3,-4.1 -2.1,-6.2c-0.9,-2.1 -1.9,-4.2 -3,-6.3c-1.1,-2.2 -2.3,-4.2 -3.7,-6.2c-2.8,-3.9 -6.4,-7.2 -10.1,-9.9c-3.7,-2.7 -7.4,-4.7 -10.7,-6.2c-3.3,-1.5 -6.2,-2.5 -8.2,-3.2c-2.1,-0.6 -3.3,-0.9 -3.3,-0.9z" fill="#59402f"/><path d="M212.6665,202.4c0,0 0.4,0.2 1,0.7c0.7,0.4 1.7,1 3,1.8c0.7,0.3 1.4,0.7 2.2,1.2c0.8,0.4 1.7,0.8 2.7,1.3c1,0.4 2,0.9 3.1,1.3c1.1,0.4 2.3,0.9 3.5,1.3c1.2,0.4 2.5,0.8 3.8,1.3c1.3,0.4 2.7,0.8 4.2,1.2c2.9,0.7 5.9,1.4 9.2,2c0.8,0.1 1.6,0.3 2.4,0.4c0.8,0.1 1.6,0.2 2.5,0.3c0.8,0.1 1.7,0.2 2.5,0.3c0.8,0.1 1.7,0.1 2.5,0.2c0.9,0.1 1.7,0.1 2.6,0.2c0.9,0.1 1.7,0.1 2.6,0.1c1.7,0 3.5,0 5.2,0c3.5,-0.2 6.9,-0.2 10.3,-0.6c3.4,-0.3 6.7,-0.7 10,-1.1c1.6,-0.2 3.2,-0.5 4.7,-0.7c1.5,-0.2 3.1,-0.5 4.5,-0.8c2.9,-0.5 5.7,-1.1 8.2,-1.8c2.5,-0.6 4.8,-1.3 6.8,-2c1,-0.4 1.9,-0.7 2.8,-1c0.8,-0.4 1.6,-0.7 2.3,-1c1.4,-0.6 2.4,-1.3 3.1,-1.7c0.7,-0.5 1,-0.8 1,-0.8c0,0 -0.3,0.3 -1,0.8c-0.7,0.5 -1.7,1.1 -3,1.8c-0.7,0.4 -1.4,0.7 -2.3,1.1c-0.8,0.4 -1.8,0.7 -2.8,1.1c-2,0.7 -4.3,1.5 -6.8,2.1c-2.5,0.7 -5.3,1.3 -8.2,1.9c-1.5,0.3 -3,0.6 -4.5,0.8c-1.6,0.2 -3.1,0.5 -4.8,0.7c-3.2,0.4 -6.6,0.8 -10,1.1c-3.4,0.4 -6.9,0.5 -10.4,0.7c-1.7,0 -3.5,0 -5.2,-0.1c-0.9,0 -1.7,0 -2.6,-0.1c-0.9,-0.1 -1.7,-0.1 -2.6,-0.2c-0.9,-0.1 -1.7,-0.1 -2.6,-0.2c-0.8,-0.1 -1.7,-0.2 -2.5,-0.3c-0.8,-0.1 -1.7,-0.2 -2.5,-0.3c-0.8,-0.1 -1.6,-0.3 -2.4,-0.4c-3.2,-0.5 -6.3,-1.3 -9.2,-2.1c-1.4,-0.4 -2.8,-0.8 -4.2,-1.3c-1.3,-0.5 -2.6,-0.9 -3.8,-1.4c-1.2,-0.5 -2.4,-0.9 -3.5,-1.4c-1.1,-0.5 -2.1,-1 -3.1,-1.4c-0.9,-0.5 -1.8,-0.9 -2.7,-1.3c-0.8,-0.4 -1.5,-0.8 -2.2,-1.2c-1.3,-0.8 -2.3,-1.4 -3,-1.8c-0.4,-0.4 -0.8,-0.7 -0.8,-0.7z" fill="#59402f"/></g></g></g><path d="M297.3665,140c16.4,-6.2 26.1,5.6 29.3,12.8c3.3,7.2 -2.5,22.8 -3.5,32c-0.9,9.2 -3.7,21.2 -4,33.9c-0.4,16.9 -7,38.3 -8.8,39.1c-4.5,2.1 -25,2.6 -26.5,1c-1.5,-1.6 5.1,-6.1 6.9,-8.7c1.7,-2.6 -9.4,-28.7 -10.5,-32.7c-3.4,-12.7 -0.1,-46.9 -0.1,-46.9c-0.2,-6.2 0.8,-24.3 17.2,-30.5z" data-paper-data="{&quot;index&quot;:null}" fill="#8d674a"/><g data-paper-data="{&quot;index&quot;:null}"><path d="M291.2665,259.6c0,0 0,-0.3 0.2,-0.8c0.2,-0.5 0.5,-1.1 0.9,-1.6c0.4,-0.5 1,-0.9 1.5,-1.1c0.5,-0.2 0.8,-0.3 0.8,-0.3c0,0 -0.1,0.1 -0.2,0.2c-0.1,0.1 -0.2,0.3 -0.4,0.4c-0.3,0.3 -0.8,0.8 -1.2,1.2c-0.4,0.5 -0.8,0.9 -1.1,1.3c-0.3,0.4 -0.5,0.7 -0.5,0.7z" fill="#59402f"/><path d="M285.3665,259.3c0,0 0,-0.4 0.2,-0.9c0.2,-0.5 0.5,-1.2 1,-1.8c0.3,-0.3 0.5,-0.5 0.8,-0.7c0.3,-0.2 0.6,-0.3 0.9,-0.4c0.3,-0.1 0.5,-0.1 0.7,-0.2c0.2,0 0.3,0 0.3,0c0,0 -0.1,0.1 -0.2,0.2c-0.1,0.1 -0.3,0.2 -0.5,0.4c-0.4,0.3 -0.9,0.7 -1.4,1.2c-0.5,0.5 -0.9,1 -1.2,1.5c-0.4,0.3 -0.6,0.7 -0.6,0.7z" fill="#59402f"/><path d="M292.0665,261.1c0.1,-0.6 1.3,-3.2 2.4,-3c1.1,0.2 0.2,1.2 -0.4,1.8c-0.6,0.6 -2.1,1.5 -2,1.2z" fill="#6c5f57"/><path d="M286.6665,259.8c0.1,-0.6 1.3,-3.2 2.4,-3c1.1,0.2 0.2,1.2 -0.4,1.8c-0.6,0.6 -2.1,1.6 -2,1.2z" fill="#6c5f57"/><path d="M283.2665,259.2c0.1,-0.6 1.3,-3.2 2.4,-3c1.1,0.2 0.2,1.2 -0.4,1.8c-0.6,0.6 -2,1.6 -2,1.2z" fill="#6c5f57"/></g><g data-paper-data="{&quot;index&quot;:null}"><path d="M321.1665,195.1c0,0 3.5,12.3 5.8,13.1c0,0 -2.8,0.9 -3.8,-1.2c0,0 3.4,3.3 2.7,7.8l-2.3,-2c0,0 1.4,7.4 -0.6,11.3l-1.5,-4c0,0 0.7,7.2 -4.6,9" fill="#8d674a"/><path d="M326.8665,208c0,0 -0.2,-0.1 -0.5,-0.3c-0.3,-0.2 -0.6,-0.6 -0.9,-1c-0.7,-0.9 -1.4,-2.3 -2,-3.7c-0.3,-0.7 -0.5,-1.4 -0.8,-2.1c-0.2,-0.7 -0.4,-1.3 -0.5,-1.9c-0.3,-1.1 -0.4,-1.9 -0.4,-1.9c0,0 0.3,0.7 0.7,1.7c0.4,1 1,2.5 1.5,3.8c0.3,0.7 0.6,1.4 0.8,2c0.3,0.6 0.6,1.2 0.8,1.7c0.3,0.5 0.5,0.9 0.7,1.1c0.4,0.5 0.6,0.6 0.6,0.6z" fill="#59402f"/><path d="M325.7665,214.6c0,0 0,-0.5 -0.1,-1.1c-0.1,-0.7 -0.2,-1.5 -0.4,-2.3c-0.1,-0.4 -0.2,-0.8 -0.4,-1.2c-0.1,-0.4 -0.3,-0.7 -0.4,-1c-0.1,-0.3 -0.3,-0.5 -0.4,-0.7c-0.1,-0.2 -0.2,-0.3 -0.2,-0.3c0,0 0.1,0.1 0.3,0.2c0.2,0.1 0.4,0.3 0.6,0.6c0.2,0.3 0.5,0.6 0.7,1c0.2,0.4 0.4,0.8 0.5,1.3c0.1,0.5 0.2,0.9 0.2,1.3c0,0.4 0,0.8 0,1.2c-0.3,0.5 -0.4,1 -0.4,1z" fill="#59402f"/><path d="M323.0665,223.7c0,0 0.3,-0.6 0.5,-1.7c0.1,-0.5 0.2,-1.1 0.2,-1.7c0.1,-0.6 0.1,-1.3 0.1,-2c0,-0.7 0,-1.4 0,-2c0,-0.6 -0.1,-1.3 -0.1,-1.8c0,-0.5 -0.1,-1 -0.1,-1.3c0,-0.3 0,-0.5 0,-0.5c0,0 0.1,0.2 0.1,0.5c0.1,0.3 0.2,0.7 0.3,1.2c0.1,0.5 0.2,1.1 0.3,1.8c0.1,0.7 0.1,1.4 0.1,2.1c0,1.4 -0.2,2.9 -0.6,3.9c-0.2,0.5 -0.4,0.9 -0.6,1.2c-0.1,0.2 -0.2,0.3 -0.2,0.3z" fill="#59402f"/><path d="M318.3665,228.2c0,0 0.1,-0.1 0.3,-0.2c0.2,-0.2 0.4,-0.4 0.6,-0.8c0.4,-0.7 0.8,-1.7 1.1,-2.7c0.3,-1 0.5,-2.1 0.7,-2.9c0.2,-0.8 0.3,-1.4 0.3,-1.4c0,0 0,0.1 0,0.4c0,0.2 0.1,0.6 0,1c0,0.4 0,0.9 -0.1,1.4c0,0.3 -0.1,0.5 -0.1,0.8c-0.1,0.3 -0.1,0.6 -0.2,0.8c-0.2,0.5 -0.4,1.1 -0.6,1.6c-0.2,0.5 -0.6,0.9 -0.9,1.2c-0.3,0.3 -0.6,0.5 -0.8,0.6c-0.2,0.2 -0.3,0.2 -0.3,0.2z" fill="#59402f"/></g><path d="M319.9665,219.6c0,0 -0.3,2.6 -1,6.6c-0.3,2 -0.7,4.3 -1.2,6.7c-0.5,2.4 -1,5.1 -1.6,7.7c-0.6,2.6 -1.2,5.2 -1.9,7.6c-0.6,2.4 -1.4,4.6 -2.1,6.5c-0.4,0.9 -0.7,1.8 -1.2,2.5c-0.1,0.2 -0.2,0.3 -0.3,0.5c-0.1,0.1 -0.2,0.3 -0.4,0.4c-0.4,0.2 -0.7,0.2 -1,0.3c-1.2,0.2 -1.8,0.2 -1.8,0.2c0,0 0.7,-0.1 1.8,-0.4c0.3,-0.1 0.6,-0.2 0.9,-0.3c0.1,-0.1 0.2,-0.2 0.3,-0.4c0.1,-0.2 0.2,-0.3 0.3,-0.5c0.4,-0.7 0.7,-1.6 1,-2.5c0.7,-1.9 1.3,-4.1 1.9,-6.5c0.6,-2.4 1.2,-5 1.8,-7.6c0.6,-2.6 1.2,-5.2 1.7,-7.6c0.5,-2.4 1,-4.7 1.4,-6.7c0.8,-3.8 1.4,-6.5 1.4,-6.5z" data-paper-data="{&quot;index&quot;:null}" fill="#59402f"/><path d="M280.3665,190.4c0,0 -0.5,4.1 -0.8,10.2c-0.2,3 -0.2,6.6 0,10.4c0.1,1.9 0.4,3.8 0.9,5.7c0.6,1.9 1.3,3.8 2.1,5.7c1.5,3.8 3,7.6 4.3,11.2c1.4,3.6 2.5,7 3.2,10c0.4,1.5 0.5,2.9 0.8,4.1c0.1,0.6 0.3,1.2 0.3,1.7c0,0.6 -0.3,1 -0.6,1.4c-0.6,0.7 -1.1,1.1 -1.5,1.5c-0.4,0.3 -0.6,0.5 -0.6,0.5c0,0 0.2,-0.2 0.5,-0.5c0.3,-0.3 0.9,-0.8 1.4,-1.5c0.3,-0.4 0.5,-0.8 0.5,-1.3c0,-0.5 -0.2,-1.1 -0.3,-1.7c-0.3,-1.2 -0.5,-2.6 -0.9,-4.1c-0.8,-2.9 -2,-6.3 -3.4,-9.8c-1.4,-3.6 -2.9,-7.3 -4.4,-11.1c-0.7,-1.9 -1.5,-3.8 -2.1,-5.8c-0.5,-2 -0.7,-4 -0.9,-5.9c-0.2,-3.8 0,-7.4 0.2,-10.5c0.2,-3.1 0.6,-5.6 0.8,-7.4c0.4,-1.8 0.5,-2.8 0.5,-2.8z" data-paper-data="{&quot;index&quot;:null}" fill="#59402f"/><g data-paper-data="{&quot;index&quot;:null}"><g fill="#8d674a"><path d="M243.1665,202c-11.6,19.9 -46.6,45.7 -50,45.6c-3.4,0 -24.7,-12.1 -22.3,-14.4c2.3,-2.3 7.1,-1.8 9.9,-3.4c2.8,-1.6 16.5,-21.5 19.4,-27.3c2.9,-5.8 0.9,-13.9 10.5,-34.7c9.5,-20.8 53.7,-7.7 32.5,34.2z"/><path d="M248.4665,180.6c0,0 0.2,12.8 2.2,14.1c0,0 -2.9,0.1 -3.4,-2.2c0,0 2.4,4.1 0.6,8.3l-1.7,-2.5c0,0 -0.6,7.5 -3.5,10.7l-0.4,-4.2c0,0 -1.2,7.1 -6.8,7.5"/></g><path d="M250.5665,194.6c0,0 -0.2,-0.1 -0.4,-0.4c-0.2,-0.3 -0.4,-0.7 -0.6,-1.2c-0.4,-1.1 -0.8,-2.6 -0.9,-4.1c-0.1,-0.8 -0.1,-1.5 -0.2,-2.2c0,-0.7 0,-1.4 0,-1.9c0,-1.1 0.1,-1.9 0.1,-1.9c0,0 0.1,0.8 0.3,1.9c0.2,1.1 0.3,2.6 0.5,4.1c0.1,0.7 0.2,1.5 0.3,2.2c0.1,0.7 0.2,1.3 0.3,1.9c0.1,0.5 0.3,1 0.4,1.3c0,0.1 0.2,0.3 0.2,0.3z" fill="#59402f"/><path d="M247.7665,200.6c0,0 0.1,-0.5 0.2,-1.1c0.1,-0.7 0.2,-1.5 0.2,-2.4c0,-0.4 0,-0.9 0,-1.3c0,-0.4 -0.1,-0.8 -0.2,-1.1c-0.1,-0.3 -0.1,-0.6 -0.2,-0.8c-0.1,-0.2 -0.1,-0.3 -0.1,-0.3c0,0 0.1,0.1 0.2,0.2c0.1,0.2 0.3,0.4 0.4,0.7c0.2,0.3 0.3,0.7 0.4,1.1c0.1,0.4 0.1,0.9 0.1,1.4c0,0.5 -0.1,0.9 -0.2,1.3c-0.1,0.4 -0.2,0.8 -0.3,1.1c-0.2,0.8 -0.5,1.2 -0.5,1.2z" fill="#59402f"/><path d="M242.6665,208.4c0,0 0.5,-0.5 0.9,-1.4c0.2,-0.4 0.5,-1 0.7,-1.6c0.2,-0.6 0.4,-1.2 0.6,-1.9c0.2,-0.6 0.3,-1.3 0.5,-1.9c0.2,-0.6 0.3,-1.2 0.4,-1.7c0.1,-0.5 0.2,-0.9 0.3,-1.2c0.1,-0.3 0.1,-0.5 0.1,-0.5c0,0 0,0.2 0,0.5c0,0.3 0,0.7 0,1.3c0,0.5 -0.1,1.1 -0.2,1.8c-0.1,0.6 -0.2,1.3 -0.4,2c-0.2,0.7 -0.4,1.3 -0.7,1.9c-0.3,0.6 -0.6,1.1 -0.9,1.5c-0.3,0.4 -0.6,0.7 -0.9,0.9c-0.2,0.3 -0.4,0.3 -0.4,0.3z" fill="#59402f"/><path d="M191.2665,247.2c0,0 0.2,0.1 0.7,0.2c0.5,0.1 1.1,0.1 2,-0.1c0.8,-0.2 1.8,-0.6 2.8,-1.2c1,-0.6 2,-1.5 3.2,-2.4c2.4,-1.8 5.1,-3.8 8.1,-6.1c2.9,-2.2 6.1,-4.6 9.1,-7.2c1.5,-1.3 3,-2.5 4.5,-3.8c0.7,-0.6 1.4,-1.3 2.1,-1.9c0.7,-0.6 1.4,-1.3 2,-1.9c0.7,-0.6 1.3,-1.3 1.9,-1.9c0.6,-0.6 1.2,-1.3 1.8,-1.9c1.1,-1.3 2.2,-2.5 3.2,-3.6c1.9,-2.2 3.6,-4.1 4.7,-5.4c1.1,-1.3 1.6,-2.2 1.6,-2.2c0,0 -0.5,0.8 -1.6,2.2c-1,1.4 -2.5,3.3 -4.5,5.6c-1,1.1 -2,2.3 -3.1,3.6c-1.1,1.3 -2.3,2.6 -3.6,3.9c-0.6,0.7 -1.3,1.3 -2,2c-0.7,0.7 -1.4,1.3 -2.1,2c-1.4,1.3 -2.9,2.6 -4.5,3.9c-3.1,2.5 -6.2,4.9 -9.2,7.1c-3,2.2 -5.8,4.2 -8.2,5.9c-1.2,0.9 -2.3,1.7 -3.3,2.3c-1.1,0.6 -2.1,1 -2.9,1.1c-0.9,0.2 -1.5,0.1 -2,0c-0.5,-0.1 -0.7,-0.2 -0.7,-0.2z" fill="#59402f"/><path d="M235.7665,212.1c0,0 0.7,-0.1 1.4,-0.5c0.4,-0.2 0.8,-0.6 1.2,-0.9c0.4,-0.4 0.8,-0.9 1.2,-1.4c0.2,-0.2 0.3,-0.5 0.5,-0.8c0.2,-0.3 0.3,-0.5 0.5,-0.8c0.3,-0.5 0.5,-1 0.8,-1.4c0.2,-0.4 0.4,-0.8 0.5,-1c0.1,-0.2 0.2,-0.4 0.2,-0.4c0,0 0,0.2 -0.1,0.4c-0.1,0.3 -0.1,0.7 -0.3,1.1c-0.2,0.5 -0.3,1 -0.6,1.5c-0.1,0.3 -0.3,0.6 -0.4,0.8c-0.2,0.3 -0.3,0.6 -0.5,0.8c-0.4,0.5 -0.8,1 -1.3,1.4c-0.2,0.2 -0.5,0.4 -0.7,0.5c-0.3,0.1 -0.5,0.3 -0.7,0.3c-0.5,0.2 -0.9,0.2 -1.2,0.2c-0.4,0.3 -0.5,0.2 -0.5,0.2z" fill="#59402f"/><path d="M175.8665,238.7c0,0 0.2,-0.3 0.5,-0.7c0.4,-0.4 0.9,-0.8 1.6,-1.1c0.6,-0.3 1.4,-0.4 1.9,-0.4c0.5,0 0.9,0.1 0.9,0.1c0,0 -0.1,0 -0.2,0.1c-0.1,0 -0.3,0.1 -0.6,0.2c-0.5,0.2 -1.1,0.4 -1.7,0.7c-0.6,0.3 -1.2,0.6 -1.6,0.8c-0.4,0.2 -0.8,0.3 -0.8,0.3z" fill="#59402f"/><path d="M171.6665,235.2c0,0 0.2,-0.3 0.7,-0.7c0.5,-0.4 1.1,-0.8 1.9,-1.1c0.4,-0.1 0.8,-0.2 1.1,-0.3c0.4,0 0.7,0 1,0c0.3,0 0.5,0.1 0.7,0.1c0.2,0 0.3,0.1 0.3,0.1c0,0 -0.1,0 -0.3,0c-0.2,0 -0.4,0.1 -0.7,0.1c-0.6,0.1 -1.3,0.3 -2,0.5c-0.7,0.2 -1.4,0.5 -1.9,0.7c-0.5,0.4 -0.8,0.6 -0.8,0.6z" fill="#59402f"/><path d="M176.1665,231.2c0,0 0.2,0 0.7,0c0.5,0 1.1,-0.1 1.9,-0.4c0.8,-0.3 1.7,-0.7 2.6,-1.5c0.9,-0.7 1.7,-1.8 2.5,-3c1.7,-2.4 3.7,-5.1 5.9,-8c2.2,-2.9 4.4,-6.1 6.4,-9.4c1,-1.6 2,-3.3 2.8,-5c0.8,-1.7 1.4,-3.5 1.9,-5.2c1,-3.5 1.6,-6.8 2.2,-9.7c0.6,-2.9 1.3,-5.2 1.8,-6.8c0.3,-0.8 0.5,-1.4 0.7,-1.8c0.2,-0.4 0.3,-0.6 0.3,-0.6c0,0 -0.1,0.2 -0.2,0.7c-0.2,0.4 -0.4,1.1 -0.6,1.9c-0.2,0.8 -0.5,1.8 -0.8,3c-0.3,1.2 -0.5,2.5 -0.8,3.9c-0.5,2.9 -1.1,6.2 -2.1,9.7c-0.5,1.8 -1.1,3.6 -1.9,5.3c-0.8,1.8 -1.8,3.5 -2.8,5.1c-2.1,3.3 -4.3,6.5 -6.5,9.4c-2.2,2.9 -4.3,5.5 -6.1,7.9c-0.4,0.6 -0.8,1.2 -1.3,1.7c-0.5,0.5 -0.9,0.9 -1.4,1.3c-1,0.7 -1.9,1.1 -2.8,1.4c-0.8,0.2 -1.5,0.3 -1.9,0.3c-0.2,-0.2 -0.5,-0.2 -0.5,-0.2z" fill="#59402f"/><path d="M176.2665,240.2c0.3,-0.5 2.5,-2.3 3.5,-1.7c1,0.6 -0.3,1.2 -1.1,1.5c-0.9,0.3 -2.7,0.5 -2.4,0.2z" fill="#6c5f57"/><path d="M171.8665,236.8c0.3,-0.5 2.5,-2.3 3.5,-1.7c1,0.6 -0.3,1.2 -1.1,1.5c-0.9,0.3 -2.6,0.5 -2.4,0.2z" fill="#6c5f57"/><path d="M169.4665,234.2c0.3,-0.5 2.5,-2.3 3.5,-1.7c0.9,0.6 -0.3,1.2 -1.1,1.5c-0.9,0.3 -2.7,0.5 -2.4,0.2z" fill="#6c5f57"/></g><g data-paper-data="{&quot;index&quot;:null}"><g><path d="M209.7665,145.9c-0.1,6.5 2.5,10.3 2.5,10.3c-2.7,0 -5.4,-4.9 -5.4,-4.9c3.9,9 -2.2,15.2 -2.2,15.2c0.6,-5.7 -1.4,-7.5 -1.4,-7.5c3,10.9 -8.4,13.5 -8.4,13.5c1.7,-1.2 2.9,-5.5 2.9,-5.5c-8.8,9.8 -26.3,7.7 -35.9,8.2c-9.7,0.5 -16.8,-0.4 -25.1,-1c-8.3,-0.6 -14.9,-10.4 -15.3,-14.7c-0.4,-4.3 20.1,-15 20.1,-15c0,0 0.7,-13.1 3.7,-18.8c3,-5.7 25.8,-17.6 46.2,-14.7c17,2.4 18.2,28.4 18.3,34.9z" fill="#8d674a"/><path d="M216.7665,134.6c-0.1,6.5 -4.6,21.7 -4.6,21.7c-2.7,0 -5.4,-4.9 -5.4,-4.9c3.9,9 -2.2,15.2 -2.2,15.2c0.6,-5.7 -1.4,-7.5 -1.4,-7.5c3,10.9 -8.4,13.5 -8.4,13.5c1.7,-1.2 2.9,-5.5 2.9,-5.5c-8.8,9.7 -24.8,9.4 -34.4,10c-9.6,0.6 -18.2,-2.3 -26.5,-2.9c-8.3,-0.6 -14.9,-10.4 -15.3,-14.7c-0.4,-4.3 20,-15 20,-15c0,0 0.6,-13.1 3.7,-18.8c3.1,-5.7 22.8,-17.6 43.2,-15.6c14.4,1.4 28.5,18 28.4,24.5z" fill="#8d674a"/><path d="M141.6665,144.5c15,12.2 -1.1,23.3 -1.1,23.3c-0.2,2.7 -3,4.7 -5.5,6.1c-7.5,-1.7 -13.2,-10.4 -13.6,-14.4c-0.4,-4.3 20.1,-15 20.2,-15z" fill="#9e7b5c"/><path d="M122.3665,162.7c-0.9,-1.6 -2.3,-3.2 -1.4,-4.6c0.5,-0.8 1.7,-2.3 2.7,-2.3c1,0 2.5,3 -0.5,4.5c0.4,1.6 -0.2,2.1 -0.8,2.4z" fill="#332721"/><path d="M127.7665,169.5c0,0 0.5,-0.3 1.3,-0.7c0.4,-0.2 0.9,-0.3 1.4,-0.5c0.5,-0.1 1.1,-0.3 1.7,-0.3c0.6,-0.1 1.2,-0.1 1.8,-0.1c0.6,0 1.1,0.1 1.5,0.2c0.4,0.1 0.8,0.2 1,0.3c0.2,0.1 0.4,0.2 0.4,0.2c0,0 -0.2,0 -0.4,0c-0.3,0 -0.6,-0.1 -1,-0.1c-0.2,0 -0.4,0 -0.7,0c-0.2,0 -0.5,0 -0.8,0c-0.5,0 -1.1,0.1 -1.7,0.1c-1.1,0.1 -2.3,0.3 -3.1,0.5c-0.8,0.3 -1.4,0.4 -1.4,0.4z" fill="#59402f"/><path d="M149.87425,144.05668c-0.13173,-1.42991 0.51939,-2.65891 1.45433,-2.74504c0.93494,-0.08613 1.79965,1.00321 1.93139,2.43312c0.13173,1.42991 -0.51939,2.65891 -1.45433,2.74504c-0.93494,0.08613 -1.79965,-1.00321 -1.93139,-2.43312z" fill="#332010"/><path d="M154.7665,137c0.1,1.1 -3,1.8 -4.4,1.9c-1.4,0.1 -2.7,-0.6 -2.8,-1.7c-0.1,-1.1 1,-2 2.4,-2.2c1.5,0 4.7,1 4.8,2z" fill="#9e7b5c"/><path d="M141.5665,144.5c0,0 0,-0.8 0,-2.3c0.1,-1.4 0.1,-3.5 0.4,-6c0.1,-1.2 0.3,-2.6 0.6,-4c0.3,-1.4 0.6,-2.9 1.2,-4.3c0.3,-0.7 0.6,-1.5 1,-2.2c0.5,-0.7 0.9,-1.3 1.5,-2c1.1,-1.2 2.3,-2.4 3.6,-3.4c1.3,-1 2.7,-1.9 4.1,-2.7c1.4,-0.8 2.8,-1.6 4.2,-2.2c1.4,-0.7 2.8,-1.2 4.1,-1.7c1.3,-0.5 2.6,-0.9 3.8,-1.3c1.2,-0.4 2.3,-0.7 3.3,-0.9c1,-0.2 1.8,-0.5 2.5,-0.6c1.4,-0.3 2.2,-0.5 2.2,-0.5c0,0 -0.8,0.2 -2.2,0.6c-1.4,0.4 -3.4,1 -5.7,1.7c-1.2,0.4 -2.4,0.8 -3.7,1.4c-1.3,0.5 -2.7,1.1 -4.1,1.8c-1.4,0.7 -2.8,1.4 -4.2,2.2c-1.4,0.8 -2.7,1.8 -4,2.7c-1.3,1 -2.5,2.1 -3.6,3.3c-0.5,0.6 -1,1.2 -1.4,1.9c-0.4,0.7 -0.7,1.4 -1,2.1c-1.1,2.9 -1.6,5.7 -1.9,8.1c-0.6,5 -0.7,8.3 -0.7,8.3z" fill="#59402f"/><path d="M194.7665,172.6c0,0 0.3,-0.1 0.7,-0.2c0.5,-0.1 1.1,-0.4 1.9,-0.8c0.4,-0.2 0.8,-0.4 1.2,-0.7c0.4,-0.2 0.8,-0.6 1.2,-0.9c0.4,-0.3 0.8,-0.7 1.2,-1.1c0.4,-0.4 0.7,-0.8 1,-1.3c0.3,-0.4 0.5,-1 0.8,-1.4c0.2,-0.5 0.3,-1 0.5,-1.5c0.1,-0.5 0.1,-1 0.2,-1.5c0.1,-0.5 0,-0.9 0,-1.4c0,-0.4 0,-0.8 -0.1,-1.2c0,-0.3 -0.1,-0.6 -0.1,-0.9c-0.1,-0.5 -0.1,-0.8 -0.1,-0.8c0,0 0.1,0.3 0.2,0.8c0.1,0.2 0.2,0.5 0.2,0.9c0.1,0.3 0.2,0.7 0.2,1.2c0,0.4 0.1,0.9 0.1,1.4c0,0.5 0,1 -0.1,1.6c-0.1,0.6 -0.1,1.2 -0.4,1.7c-0.2,0.5 -0.4,1.1 -0.8,1.6c-0.3,0.5 -0.7,0.9 -1.1,1.4c-0.4,0.4 -0.9,0.8 -1.3,1.1c-0.9,0.6 -1.8,1.1 -2.6,1.4c-1.6,0.5 -2.8,0.6 -2.8,0.6z" fill="#59402f"/><path d="M204.5665,166.6c0,0 0.7,-0.7 1.5,-2.1c0.2,-0.3 0.4,-0.7 0.6,-1.1c0.2,-0.4 0.4,-0.8 0.5,-1.3c0.1,-0.2 0.2,-0.4 0.2,-0.7c0.1,-0.2 0.1,-0.5 0.2,-0.7c0.1,-0.5 0.2,-1 0.3,-1.5c0.1,-0.5 0.1,-1 0.1,-1.5c0,-0.5 0,-1 -0.1,-1.5c-0.1,-0.5 -0.1,-0.9 -0.2,-1.4c-0.1,-0.4 -0.2,-0.8 -0.3,-1.2c-0.1,-0.4 -0.2,-0.7 -0.3,-1c-0.1,-0.3 -0.2,-0.6 -0.2,-0.8c-0.1,-0.4 -0.2,-0.7 -0.2,-0.7c0,0 0.1,0.2 0.3,0.6c0.1,0.2 0.2,0.5 0.4,0.7c0.2,0.3 0.3,0.6 0.4,1c0.1,0.4 0.3,0.8 0.4,1.2c0.1,0.4 0.2,0.9 0.3,1.4c0,0.5 0.1,1 0.1,1.5c0,0.5 0,1 -0.1,1.6c-0.1,0.5 -0.2,1 -0.3,1.5c-0.1,0.2 -0.1,0.5 -0.2,0.7c-0.1,0.2 -0.2,0.5 -0.3,0.7c-0.2,0.5 -0.4,0.9 -0.6,1.3c-0.2,0.4 -0.5,0.7 -0.7,1.1c-0.5,0.6 -0.9,1.1 -1.3,1.4c-0.3,0.6 -0.5,0.8 -0.5,0.8z" fill="#59402f"/><path d="M212.0665,156.2c0,0 -0.2,-0.2 -0.4,-0.5c-0.2,-0.4 -0.6,-0.9 -0.9,-1.6c-0.3,-0.7 -0.6,-1.5 -0.8,-2.4c-0.2,-0.9 -0.4,-1.9 -0.5,-2.8c-0.1,-0.5 -0.1,-1 -0.1,-1.5c0,-0.5 -0.1,-1 -0.1,-1.4c-0.1,-0.9 0,-1.8 0,-2.5c0,-0.7 0.1,-1.3 0.1,-1.8c0,-0.4 0.1,-0.7 0.1,-0.7c0,0 0,0.2 0.1,0.7c0,0.4 0.1,1 0.1,1.8c0,0.7 0.1,1.6 0.2,2.5c0.1,0.9 0.2,1.9 0.3,2.8c0.1,1 0.2,1.9 0.4,2.8c0.2,0.9 0.4,1.7 0.6,2.4c0.2,0.7 0.4,1.2 0.6,1.6c0.2,0.4 0.3,0.6 0.3,0.6z" fill="#59402f"/><path d="M185.6665,110.1c0,0 0.4,-0.1 1.1,-0.2c0.3,0 0.8,0 1.2,0c0.5,0 1,0.1 1.6,0.2c0.6,0.1 1.2,0.2 1.9,0.4c0.6,0.2 1.3,0.3 2,0.6c0.7,0.2 1.4,0.5 2.1,0.8c0.7,0.3 1.4,0.7 2.1,1c0.7,0.3 1.4,0.8 2,1.1c0.7,0.4 1.3,0.8 1.9,1.2c1.2,0.8 2.3,1.6 3.2,2.3c0.5,0.3 0.9,0.7 1.2,1c0.4,0.3 0.7,0.6 0.9,0.8c0.5,0.4 0.8,0.7 0.8,0.7c0,0 -0.3,-0.2 -0.9,-0.6c-0.3,-0.2 -0.6,-0.4 -1,-0.7c-0.4,-0.3 -0.8,-0.6 -1.3,-0.9c-0.5,-0.3 -1,-0.7 -1.6,-1c-0.5,-0.4 -1.2,-0.7 -1.8,-1.1c-0.6,-0.4 -1.2,-0.8 -1.9,-1.1c-0.7,-0.4 -1.3,-0.8 -2,-1.1c-0.7,-0.3 -1.4,-0.7 -2.1,-1c-0.7,-0.3 -1.4,-0.6 -2,-0.9c-1.2,-0.6 -2.4,-1 -3.6,-1.2c-0.6,-0.1 -1.1,-0.2 -1.6,-0.3c-0.4,0 -0.8,-0.1 -1.1,-0.1c-0.7,0 -1.1,0.1 -1.1,0.1z" fill="#59402f"/></g><g><path d="M172.6665,112.9c0,0 1.7,-8.2 6.3,-8.8c4.6,-0.6 15.3,3.9 7.2,16.6" fill="#8d674a"/><path d="M179.1665,106.6c0,0 0.4,0.6 0.7,1.5c0.2,0.5 0.4,1 0.5,1.6c0.2,0.6 0.3,1.3 0.3,2c0,0.3 0,0.7 0,1c-0.1,0.3 -0.1,0.7 -0.2,1c-0.1,0.3 -0.2,0.6 -0.3,0.9c-0.1,0.3 -0.2,0.5 -0.4,0.7c-0.3,0.4 -0.5,0.7 -0.8,0.9c-0.2,0.2 -0.3,0.3 -0.3,0.3c0,0 0.1,-0.1 0.2,-0.4c0.1,-0.1 0.2,-0.3 0.3,-0.4c0.1,-0.2 0.2,-0.4 0.3,-0.6c0.1,-0.2 0.2,-0.5 0.2,-0.7c0.1,-0.3 0.1,-0.5 0.2,-0.8c0.1,-0.3 0.1,-0.6 0.1,-0.9c0,-0.3 0,-0.6 0,-0.9c0,-0.6 -0.1,-1.3 -0.2,-1.8c-0.1,-0.6 -0.2,-1.1 -0.3,-1.6c-0.1,-1.1 -0.3,-1.8 -0.3,-1.8z" fill="#59402f"/><g fill="#59402f"><path d="M181.4665,115.7c0,0 0,0.2 -0.1,0.3c-0.1,0.2 -0.2,0.4 -0.4,0.6c-0.2,0.2 -0.4,0.4 -0.6,0.5c-0.2,0.1 -0.3,0.1 -0.3,0.1c0,0 0,-0.2 0.1,-0.3c0.1,-0.2 0.2,-0.4 0.4,-0.6c0.2,-0.2 0.4,-0.4 0.6,-0.5c0.1,-0.1 0.3,-0.1 0.3,-0.1z"/><path d="M182.6665,117c0,0 0,0.1 -0.1,0.3c-0.1,0.2 -0.2,0.3 -0.3,0.5c-0.1,0.1 -0.3,0.3 -0.5,0.3c-0.2,0.1 -0.3,0.1 -0.3,0.1c0,0 0,-0.1 0.1,-0.3c0.1,-0.2 0.2,-0.3 0.3,-0.5c0.1,-0.1 0.3,-0.3 0.5,-0.3c0.1,-0.1 0.3,-0.1 0.3,-0.1z"/></g><path d="M185.5665,105.8c0,0 -0.3,-0.1 -0.7,-0.4c-0.5,-0.2 -1.2,-0.5 -2,-0.7c-0.2,-0.1 -0.4,-0.1 -0.7,-0.2c-0.2,0 -0.5,-0.1 -0.7,-0.1c-0.2,0 -0.5,0 -0.8,0c-0.3,0 -0.5,0 -0.8,0c-0.3,0 -0.5,0.1 -0.8,0.1c-0.3,0.1 -0.5,0.2 -0.8,0.2c-0.2,0.2 -0.4,0.3 -0.6,0.4c-0.2,0.1 -0.5,0.2 -0.7,0.4c-0.4,0.4 -0.9,0.7 -1.2,1.1c-0.4,0.4 -0.7,0.8 -1,1.3c-0.2,0.5 -0.6,0.9 -0.7,1.4c-0.2,0.5 -0.4,0.9 -0.6,1.3c-0.2,0.4 -0.3,0.8 -0.4,1.1c-0.1,0.3 -0.2,0.6 -0.3,0.9c-0.2,0.5 -0.3,0.8 -0.3,0.8c0,0 0,-0.3 0.1,-0.8c0,-0.3 0.1,-0.6 0.2,-0.9c0.1,-0.4 0.1,-0.8 0.3,-1.2c0.1,-0.4 0.3,-0.9 0.5,-1.4c0.1,-0.5 0.4,-1 0.7,-1.5c0.2,-0.5 0.6,-1 1,-1.5c0.3,-0.5 0.9,-0.9 1.3,-1.3c0.2,-0.2 0.5,-0.3 0.8,-0.5c0.3,-0.1 0.5,-0.3 0.8,-0.4c0.3,0.2 0.6,0.1 0.9,0.1c0.3,0 0.6,-0.1 0.9,-0.1c0.3,0 0.6,0 0.8,0c0.3,0 0.5,0 0.8,0.1c0.3,0.1 0.5,0.1 0.7,0.2c0.2,0.1 0.5,0.2 0.7,0.2c0.4,0.1 0.8,0.3 1.1,0.5c0.3,0.2 0.6,0.3 0.8,0.5c0.5,0.2 0.7,0.4 0.7,0.4z" fill="#59402f"/></g></g></g></g></svg>